<svg width="391" height="273" viewBox="0 0 391 273" fill="none" xmlns="http://www.w3.org/2000/svg">
<g clip-path="url(#clip0_0_1)">
<path fill-rule="evenodd" clip-rule="evenodd" d="M317.603 91.9173C315.87 86.0383 312.799 82.9041 308.794 81.688H198.546V175.606H317.604V91.9174L317.603 91.9173Z" fill="#FEE9DD"/>
<path d="M225.739 132.975C230.724 132.975 234.766 129.191 234.766 124.523C234.766 119.854 230.724 116.07 225.739 116.07C220.753 116.07 216.711 119.854 216.711 124.523C216.711 129.191 220.753 132.975 225.739 132.975Z" fill="#5661AE"/>
<path fill-rule="evenodd" clip-rule="evenodd" d="M297.285 123.362C288.167 123.175 252.112 123.463 243.251 123.362C240.818 123.335 240.818 130.445 243.251 130.406C252.189 130.263 288.223 130.493 297.285 130.406C299.719 130.383 299.718 123.412 297.285 123.362Z" fill="#5661AE"/>
<path d="M263.006 132.342C266.015 132.342 268.454 129.993 268.454 127.096C268.454 124.199 266.015 121.85 263.006 121.85C259.998 121.85 257.559 124.199 257.559 127.096C257.559 129.993 259.998 132.342 263.006 132.342Z" fill="#8CCFFF"/>
<path fill-rule="evenodd" clip-rule="evenodd" d="M220.394 141.347L300.125 140.897C300.159 140.897 300.192 140.89 300.223 140.878C300.254 140.865 300.282 140.847 300.306 140.824C300.329 140.801 300.348 140.773 300.361 140.743C300.373 140.713 300.38 140.681 300.38 140.649C300.379 140.617 300.372 140.585 300.359 140.555C300.346 140.525 300.327 140.498 300.304 140.475C300.28 140.452 300.252 140.434 300.22 140.422C300.189 140.41 300.156 140.404 300.123 140.404L220.391 140.854C220.324 140.856 220.261 140.883 220.215 140.929C220.169 140.976 220.143 141.037 220.144 141.102C220.144 141.166 220.17 141.227 220.217 141.273C220.264 141.319 220.327 141.345 220.394 141.347ZM223.949 108.696L317.049 108.171C317.082 108.17 317.115 108.164 317.146 108.151C317.177 108.139 317.205 108.12 317.229 108.097C317.252 108.074 317.271 108.047 317.284 108.017C317.296 107.987 317.303 107.955 317.302 107.923C317.302 107.89 317.295 107.858 317.282 107.829C317.269 107.799 317.25 107.772 317.227 107.749C317.203 107.726 317.174 107.708 317.143 107.696C317.112 107.684 317.079 107.678 317.046 107.678L223.946 108.203C223.88 108.205 223.817 108.232 223.77 108.278C223.724 108.325 223.699 108.387 223.699 108.451C223.699 108.515 223.726 108.577 223.773 108.622C223.819 108.668 223.883 108.695 223.949 108.696ZM223.949 103.45L317.049 102.925C317.116 102.924 317.181 102.898 317.229 102.851C317.276 102.805 317.303 102.742 317.302 102.677C317.302 102.611 317.275 102.549 317.227 102.503C317.178 102.457 317.113 102.431 317.046 102.432L223.946 102.957C223.913 102.957 223.88 102.964 223.849 102.976C223.818 102.989 223.79 103.007 223.766 103.03C223.742 103.053 223.724 103.08 223.711 103.11C223.699 103.14 223.692 103.172 223.692 103.205C223.693 103.237 223.699 103.269 223.712 103.299C223.725 103.329 223.744 103.356 223.768 103.379C223.792 103.401 223.82 103.419 223.851 103.431C223.882 103.444 223.916 103.45 223.949 103.45Z" fill="white"/>
<path fill-rule="evenodd" clip-rule="evenodd" d="M267.756 87.1425H281.213V97.5873H267.756V87.1425ZM288.456 86.1301H304.117V98.3468H288.456V86.1301Z" fill="#5661AE"/>
<path d="M296.012 97.3548C299.498 97.3548 302.323 94.9766 302.323 92.0429C302.323 89.1092 299.498 86.7309 296.012 86.7309C292.527 86.7309 289.701 89.1092 289.701 92.0429C289.701 94.9766 292.527 97.3548 296.012 97.3548Z" fill="#8CCFFF"/>
<path fill-rule="evenodd" clip-rule="evenodd" d="M292.816 92.0083C293.144 91.1965 294.113 90.5906 295.146 90.3067C296.17 90.0256 297.275 90.052 297.91 90.5869C297.938 90.6104 297.971 90.6284 298.006 90.6399C298.041 90.6513 298.078 90.656 298.115 90.6535C298.152 90.6511 298.189 90.6416 298.222 90.6257C298.255 90.6098 298.285 90.5877 298.309 90.5606C298.334 90.5336 298.353 90.5022 298.364 90.4683C298.376 90.4343 298.381 90.3984 298.379 90.3626C298.376 90.3268 298.366 90.2919 298.35 90.2598C298.333 90.2277 298.31 90.199 298.282 90.1754C297.524 89.5371 296.213 89.4461 294.991 89.7815C293.78 90.1142 292.673 90.8588 292.289 91.8099C292.262 91.8774 292.263 91.9525 292.293 92.0188C292.324 92.0851 292.38 92.1371 292.45 92.1634C292.52 92.1897 292.598 92.1882 292.666 92.1591C292.735 92.13 292.789 92.0757 292.816 92.0083ZM295.027 94.2605C296.1 93.0119 297.407 92.6674 298.874 92.941C298.948 92.9548 299.024 92.9397 299.086 92.8992C299.148 92.8586 299.191 92.7959 299.205 92.7248C299.22 92.6537 299.204 92.5801 299.162 92.5201C299.12 92.4601 299.055 92.4187 298.981 92.4049C297.307 92.0926 295.816 92.487 294.592 93.9121C294.544 93.9678 294.521 94.0397 294.528 94.1118C294.535 94.1839 294.571 94.2503 294.629 94.2965C294.687 94.3427 294.761 94.3649 294.836 94.3581C294.911 94.3514 294.979 94.3163 295.027 94.2605Z" fill="#5661AE"/>
<path fill-rule="evenodd" clip-rule="evenodd" d="M272.687 89.8919C272.614 89.8501 272.53 89.8284 272.445 89.8289C272.36 89.8295 272.276 89.8523 272.203 89.895C272.13 89.9376 272.071 89.9986 272.031 90.0713C271.991 90.144 271.972 90.2257 271.977 90.3079L272.205 94.4948C272.21 94.5739 272.235 94.6507 272.28 94.7173C272.324 94.784 272.386 94.8383 272.459 94.8748C272.532 94.9113 272.614 94.9288 272.696 94.9255C272.778 94.9223 272.858 94.8983 272.927 94.8561L276.382 92.7627C276.451 92.7211 276.507 92.6633 276.546 92.5947C276.585 92.5261 276.604 92.449 276.603 92.3709C276.602 92.2928 276.58 92.2163 276.539 92.1488C276.499 92.0813 276.441 92.025 276.371 91.9853L272.687 89.8919Z" fill="#8CCFFF"/>
<path fill-rule="evenodd" clip-rule="evenodd" d="M248.851 160.048L301.824 159.749C301.858 159.749 301.891 159.742 301.922 159.73C301.953 159.717 301.981 159.699 302.004 159.676C302.028 159.653 302.047 159.626 302.059 159.596C302.072 159.566 302.078 159.534 302.078 159.501C302.078 159.469 302.071 159.437 302.058 159.407C302.045 159.377 302.026 159.35 302.002 159.328C301.978 159.305 301.95 159.287 301.919 159.275C301.888 159.262 301.855 159.256 301.821 159.256L248.848 159.555C248.815 159.555 248.781 159.562 248.75 159.575C248.72 159.587 248.692 159.605 248.668 159.628C248.644 159.651 248.626 159.679 248.613 159.709C248.6 159.739 248.594 159.771 248.594 159.803C248.594 159.835 248.601 159.867 248.614 159.897C248.627 159.927 248.646 159.954 248.67 159.977C248.694 160 248.722 160.018 248.753 160.03C248.784 160.042 248.818 160.048 248.851 160.048Z" fill="white"/>
<path fill-rule="evenodd" clip-rule="evenodd" d="M231.656 91.9764C230.309 91.6363 229.717 91.6708 228.891 91.8114C226.869 92.1554 226.419 94.1077 226.959 95.6465C227.324 96.6854 228.14 97.5085 229.17 97.5443C231.236 97.616 232.167 97.5757 232.167 97.5757C232.207 97.574 232.246 97.564 232.282 97.5466C232.317 97.5291 232.349 97.5045 232.374 97.4744C232.399 97.4443 232.418 97.4094 232.428 97.3719C232.438 97.3345 232.44 97.2954 232.433 97.2573C232.433 97.2573 231.708 93.1603 232.579 89.8672C233.136 87.7599 234.353 85.9759 236.927 85.9482C239.126 85.9247 240.286 87.6363 240.923 89.6628C241.922 92.8431 241.616 96.8354 241.616 96.8354C241.614 96.8713 241.618 96.9075 241.63 96.9417C241.642 96.9759 241.661 97.0076 241.685 97.0347C241.71 97.0619 241.74 97.0842 241.773 97.1001C241.807 97.1161 241.843 97.1255 241.881 97.1278C241.881 97.1278 243.746 97.2431 245.276 97.1892C246.228 97.1557 246.939 96.3944 247.22 95.4226C247.628 94.0115 247.124 92.2066 245.296 91.8163C244.146 91.4737 243.038 91.464 241.975 91.7953C241.861 91.0271 241.697 90.2444 241.464 89.5045C240.75 87.2318 239.386 85.3758 236.921 85.4023C234.05 85.4331 232.652 87.3816 232.03 89.7323C231.838 90.459 231.721 91.2237 231.656 91.9764ZM231.632 92.2831L231.568 92.5185C230.3 92.1936 229.754 92.2189 228.989 92.349C227.359 92.6265 227.059 94.2302 227.495 95.4713C227.781 96.2856 228.383 96.9706 229.19 96.9986C230.545 97.0456 231.404 97.044 231.827 97.0378C231.721 96.3028 231.489 94.3635 231.632 92.2831ZM242.05 92.3471C242.278 94.2354 242.229 95.948 242.197 96.5983C242.768 96.6274 244.108 96.6839 245.255 96.6435C245.97 96.6184 246.464 96.0059 246.675 95.2759C247.004 94.1375 246.644 92.6573 245.164 92.3474C245.156 92.3457 245.148 92.3436 245.14 92.3413C244.068 92.0199 243.037 92.0163 242.05 92.3471Z" fill="#5661AE"/>
<path fill-rule="evenodd" clip-rule="evenodd" d="M168.943 29.4167H189.687V49.2675H168.943V29.4167ZM168.943 56.926H189.687V73.6005H168.943V56.926Z" fill="#96BAFD"/>
<path fill-rule="evenodd" clip-rule="evenodd" d="M174.438 35.92L177.845 41.637C177.899 41.7269 177.974 41.8029 178.065 41.8583C178.156 41.9137 178.26 41.9468 178.367 41.9547C178.474 41.9627 178.582 41.9452 178.681 41.9039C178.779 41.8626 178.866 41.7987 178.933 41.7177L191.636 26.4174L190.605 25.621L178.508 40.1923L175.583 35.285L174.438 35.92Z" fill="#5661AE"/>
<path fill-rule="evenodd" clip-rule="evenodd" d="M199.649 40.5337L302.237 40.7861L302.24 39.8761L199.651 39.6237L199.649 40.5337ZM230.352 66.0012L302.239 65.5957L302.233 64.6857L230.346 65.0912L230.352 66.0012Z" fill="#96BAFD"/>
<path fill-rule="evenodd" clip-rule="evenodd" d="M184.039 187.688C181.405 185.648 174.035 184.202 173.606 188.867C173.272 192.494 174.846 226.858 176.686 229.336C178.94 232.37 188.023 229.76 188.001 226.028C187.987 223.549 188.03 190.777 184.039 187.688Z" fill="#AE7452"/>
<path fill-rule="evenodd" clip-rule="evenodd" d="M213.73 174.229C191.583 174.697 167.492 175.058 144.765 166.252C144.765 166.252 144.042 173.678 145.714 177.801C155.311 201.462 213.026 190.912 213.284 184.998L213.73 174.229Z" fill="#AE7452"/>
<path fill-rule="evenodd" clip-rule="evenodd" d="M179.598 154.519C198.807 154.519 213.97 166.738 213.97 173.828C213.97 180.917 199.023 182.086 179.814 182.086C160.606 182.086 144.794 174.454 144.794 167.364C144.794 160.275 160.389 154.519 179.598 154.519ZM163.704 85.6507C157.902 78.1727 134.234 80.8003 131.898 89.8649C130.673 94.6183 131.853 106.69 133.698 118.626C135.989 133.454 140.222 148.074 152.898 148.197L177.039 145.979C178.602 119.702 171.304 95.4467 163.704 85.6507Z" fill="#FEBB94"/>
<path fill-rule="evenodd" clip-rule="evenodd" d="M168.935 146.788L153.513 148.038C156.056 153.151 155.806 155.8 155.201 158.135L171.549 155.202C172 151.794 170.842 148.679 168.935 146.788Z" fill="#AE7452"/>
<path fill-rule="evenodd" clip-rule="evenodd" d="M139.689 83.9425C145.237 104.172 153.165 126.654 161.592 146.631C161.616 146.687 161.662 146.732 161.72 146.756C161.779 146.78 161.844 146.78 161.903 146.757C161.962 146.734 162.009 146.69 162.033 146.633C162.058 146.577 162.058 146.514 162.034 146.457C153.615 126.498 145.694 104.036 140.151 83.8246C140.135 83.7656 140.095 83.7151 140.04 83.6844C139.986 83.6537 139.92 83.6452 139.859 83.6607C139.798 83.6764 139.746 83.7149 139.714 83.7677C139.682 83.8205 139.673 83.8834 139.689 83.9425ZM152.273 82.1111L166.244 125.296C166.263 125.355 166.305 125.403 166.361 125.432C166.417 125.46 166.483 125.466 166.543 125.448C166.604 125.429 166.654 125.389 166.683 125.335C166.713 125.281 166.719 125.217 166.7 125.159L152.729 81.9739C152.709 81.9172 152.667 81.8704 152.611 81.8433C152.556 81.8163 152.492 81.8111 152.432 81.829C152.373 81.8469 152.323 81.8863 152.293 81.939C152.264 81.9916 152.257 82.0534 152.273 82.1111Z" fill="#955359"/>
<path fill-rule="evenodd" clip-rule="evenodd" d="M206.781 229.502C207.306 227.588 204.971 220.605 201.438 219.849C199.016 219.33 169.245 218.458 165.01 219.799C157.036 222.325 157.133 229.396 157.167 229.215L162.21 231.75C162.21 231.75 164.501 226.39 167.024 225.941C172.575 224.954 189.935 224.727 195.303 225.638C197.654 226.037 199.236 231.409 199.236 231.409C199.236 231.409 206.257 231.416 206.781 229.502Z" fill="#AE7452"/>
<path d="M202.21 242.174C206.574 242.174 210.112 239.021 210.112 235.132C210.112 231.243 206.574 228.09 202.21 228.09C197.846 228.09 194.308 231.243 194.308 235.132C194.308 239.021 197.846 242.174 202.21 242.174Z" fill="black"/>
<path fill-rule="evenodd" clip-rule="evenodd" d="M179.605 227.762C180.249 226.953 183.396 226.958 184.042 227.777C185.246 229.303 186.049 232.029 186.049 235.134C186.049 238.156 185.289 240.818 184.139 242.365C183.472 243.261 180.275 243.332 179.639 242.548C178.409 241.035 177.586 238.279 177.586 235.134C177.586 232.018 178.394 229.285 179.605 227.762Z" fill="black"/>
<path d="M157.876 240.623C162.241 240.623 165.779 237.471 165.779 233.582C165.779 229.692 162.241 226.54 157.876 226.54C153.512 226.54 149.974 229.692 149.974 233.582C149.974 237.471 153.512 240.623 157.876 240.623Z" fill="black"/>
<path fill-rule="evenodd" clip-rule="evenodd" d="M271.982 197.077L257.068 202.778L268.091 233.918L285.039 231.68L271.982 197.077Z" fill="#D29780"/>
<path fill-rule="evenodd" clip-rule="evenodd" d="M274.469 199.171C264.037 199.405 255.844 203.781 251.444 206.897L253.273 212.24C272.673 204.03 267.004 206.052 275.413 203.751L274.469 199.171Z" fill="#5661AE"/>
<path fill-rule="evenodd" clip-rule="evenodd" d="M259.365 171.328C250.995 161.649 218.593 147.511 218.593 147.511C209.605 143.186 205.416 141.865 192.403 144.678C188.053 157.705 207.304 173.295 230.915 181.584L251.112 206.454C254.525 205.805 256.961 203.827 259.445 203.022C264.262 201.461 268.254 200.238 274.365 199.127C274.365 199.127 266.221 179.256 259.365 171.328ZM302.094 231.113C302.504 231.824 302.935 233.723 300.602 234.632C296.403 236.269 288.038 237.528 280.336 238.548C273.528 239.449 266.295 240.811 262.632 240.251C260.225 239.882 259.785 238.209 260.518 236.698L302.094 231.113Z" fill="#465393"/>
<path fill-rule="evenodd" clip-rule="evenodd" d="M298.806 220.619C296.147 219.026 287.798 219.914 287.798 219.914C284.151 222.325 283.02 228.363 283.08 234.046L302.145 231.604C304.724 228.632 302.64 222.915 298.806 220.619Z" fill="#1864AB"/>
<path fill-rule="evenodd" clip-rule="evenodd" d="M275.475 216.943C273.108 218.252 272.347 220.376 273.047 223.242L264.265 216.413L258.416 219.005L260.582 236.459L283.06 233.982C283.063 229.277 284.19 224.059 288.077 219.711L275.475 216.943Z" fill="#1864AB"/>
<path d="M276.464 220.24C279.704 220.24 282.33 217.142 282.33 213.32C282.33 209.499 279.704 206.401 276.464 206.401C273.225 206.401 270.599 209.499 270.599 213.32C270.599 217.142 273.225 220.24 276.464 220.24Z" fill="#465393"/>
<path fill-rule="evenodd" clip-rule="evenodd" d="M237.669 207.325C250.069 203.707 260.855 203.226 261.74 206.252C262.625 209.277 253.276 214.672 240.876 218.29C228.476 221.909 217.691 222.39 216.806 219.364C215.921 216.338 225.269 210.944 237.669 207.325Z" fill="#465393"/>
<path fill-rule="evenodd" clip-rule="evenodd" d="M212.74 64.6296L212.737 64.593C212.331 60.6132 209.463 57.2206 205.808 55.9425C206.723 55.5905 207.736 55.399 208.828 55.399C213.88 55.399 218.4 59.5186 218.917 64.593L218.921 64.6296H212.74Z" fill="#96BAFD"/>
<path fill-rule="evenodd" clip-rule="evenodd" d="M239.971 128.07C242.358 122.383 242.432 117.098 239.024 117.584C236.866 117.891 232.789 128.287 225.512 131.394L225.587 147.874C244.112 147.59 248.172 146.532 246.292 140.666C247.2 140.171 251.034 137.886 247.653 135.548C252.199 134.791 251.177 128.941 247.186 128.623C245.348 128.477 242.512 128.169 239.971 128.07Z" fill="#D29780"/>
<path fill-rule="evenodd" clip-rule="evenodd" d="M237.54 139.65C237.569 139.676 237.604 139.695 237.641 139.707C237.679 139.719 237.719 139.723 237.758 139.719C239.888 139.504 243.276 139.654 246.005 140.766C246.039 140.78 246.076 140.788 246.113 140.788C246.15 140.788 246.187 140.781 246.221 140.768C246.256 140.754 246.287 140.735 246.314 140.709C246.34 140.684 246.361 140.654 246.376 140.621C246.39 140.588 246.398 140.553 246.398 140.517C246.398 140.481 246.391 140.445 246.377 140.412C246.363 140.379 246.343 140.349 246.316 140.323C246.29 140.298 246.259 140.277 246.225 140.263C243.403 139.113 239.901 138.954 237.699 139.176C237.649 139.181 237.601 139.199 237.561 139.227C237.52 139.256 237.488 139.295 237.469 139.34C237.433 139.309 237.39 139.287 237.344 139.277C236.111 138.999 235.492 138.518 235.315 137.928C235.151 137.386 235.365 136.782 235.746 136.233C236.348 135.365 237.381 134.63 238.237 134.495C238.295 134.485 238.348 134.46 238.389 134.42C238.993 134.205 240.211 134.175 241.583 134.276C243.76 134.436 246.325 134.942 247.509 135.698C247.54 135.718 247.575 135.732 247.612 135.74C247.648 135.747 247.686 135.747 247.723 135.74C247.76 135.733 247.794 135.719 247.826 135.699C247.857 135.679 247.883 135.653 247.904 135.623C247.925 135.593 247.939 135.559 247.946 135.524C247.953 135.488 247.953 135.452 247.945 135.416C247.937 135.381 247.923 135.347 247.901 135.318C247.88 135.288 247.853 135.263 247.822 135.243C246.582 134.451 243.904 133.899 241.627 133.731C240.116 133.62 238.78 133.683 238.139 133.928C237.704 133.784 237.315 133.313 237.057 132.725C236.642 131.783 236.575 130.514 237.311 129.578C237.807 128.947 238.665 128.478 240.001 128.341C240.038 128.338 240.075 128.328 240.108 128.311C240.141 128.294 240.17 128.271 240.194 128.243C240.218 128.215 240.235 128.182 240.246 128.148C240.257 128.113 240.26 128.077 240.257 128.041C240.253 128.005 240.241 127.97 240.223 127.938C240.205 127.906 240.181 127.879 240.151 127.856C240.122 127.833 240.088 127.817 240.052 127.807C240.016 127.797 239.978 127.794 239.941 127.798C238.404 127.955 237.431 128.522 236.86 129.248C235.996 130.347 236.049 131.833 236.536 132.939C236.762 133.454 237.085 133.882 237.447 134.161C236.643 134.497 235.808 135.162 235.276 135.93C234.795 136.623 234.565 137.396 234.771 138.081C234.957 138.698 235.499 139.269 236.592 139.636C236.39 139.777 236.16 139.96 235.946 140.182C235.564 140.579 235.237 141.1 235.191 141.721C235.143 142.374 235.399 143.151 236.28 144.017C237.843 145.551 239.765 145.261 240.945 145.302C240.983 145.303 241.02 145.298 241.055 145.285C241.09 145.273 241.122 145.254 241.149 145.23C241.177 145.205 241.199 145.176 241.215 145.143C241.23 145.11 241.239 145.075 241.24 145.039C241.242 145.003 241.235 144.967 241.222 144.933C241.209 144.9 241.189 144.869 241.164 144.842C241.138 144.816 241.108 144.795 241.074 144.78C241.04 144.765 241.003 144.757 240.966 144.756C239.886 144.719 238.113 145.038 236.684 143.634C235.959 142.922 235.716 142.297 235.756 141.76C235.792 141.271 236.06 140.866 236.361 140.553C236.837 140.059 237.405 139.788 237.405 139.788C237.465 139.759 237.513 139.71 237.54 139.65Z" fill="black"/>
<path fill-rule="evenodd" clip-rule="evenodd" d="M210.852 101.962C210.351 89.2884 197.428 81.0585 192.971 95.1399C185.695 118.125 197.171 153.029 226.384 148.514C228.536 141.281 229.464 134.489 228.434 127.826C221.646 126.907 211.896 128.383 210.852 101.962Z" fill="#96BAFD"/>
<path fill-rule="evenodd" clip-rule="evenodd" d="M252.75 195.736L234.894 202.544L248.091 239.725L268.384 237.053L252.75 195.736Z" fill="#D29780"/>
<path fill-rule="evenodd" clip-rule="evenodd" d="M290.083 236.556C290.55 237.366 291.176 239.401 288.52 240.436C283.74 242.299 274.219 243.733 265.452 244.893C257.703 245.919 249.47 247.47 245.3 246.831C242.561 246.412 242.214 244.061 243.049 242.341L290.083 236.556Z" fill="#465393"/>
<path fill-rule="evenodd" clip-rule="evenodd" d="M261.671 215.644C258.35 216.695 256.844 220.638 257.156 227.472L247.16 219.699L240.501 222.649L242.967 242.516L268.552 239.697C268.557 234.341 269.839 228.402 274.264 223.453L261.671 215.644Z" fill="#1C85E8"/>
<path fill-rule="evenodd" clip-rule="evenodd" d="M286.475 224.486C283.448 222.673 273.945 223.684 273.945 223.684C269.774 227.662 268.271 233.627 268.575 239.77L290.275 236.99C293.211 233.607 290.839 227.1 286.475 224.486Z" fill="#1C85E8"/>
<path fill-rule="evenodd" clip-rule="evenodd" d="M248.629 172.406C240.26 162.727 210.912 143.877 210.912 143.877C199.963 141.442 185.224 143.44 170.92 149.222C166.57 162.249 182.755 176.711 206.366 185L216.804 219.45C236.321 206.433 258.277 201.406 261.726 206.314C261.726 206.314 255.486 180.334 248.629 172.406Z" fill="#8696DD"/>
<path fill-rule="evenodd" clip-rule="evenodd" d="M214.134 210.635L216.804 219.45C236.322 206.433 258.278 201.406 261.727 206.314C261.727 206.314 260.477 201.114 258.483 194.657C246.504 191.575 225.731 199.208 214.134 210.635Z" fill="#5661AE"/>
<path d="M266.64 220.961C269.734 220.961 272.243 217.911 272.243 214.149C272.243 210.388 269.734 207.338 266.64 207.338C263.545 207.338 261.036 210.388 261.036 214.149C261.036 217.911 263.545 220.961 266.64 220.961Z" fill="#1864AB"/>
<path fill-rule="evenodd" clip-rule="evenodd" d="M204.398 90.7274C196.47 80.8862 182.76 83.9163 175.542 90.8244C168.324 97.7325 166.189 133.123 165.331 143.517C165.105 146.246 169.012 150.475 171.849 150.414C177.627 150.288 190.042 143.992 199.044 143.301C204.225 142.903 210.153 145.965 212.906 145.227C215.199 144.612 216.989 141.686 216.721 139.405C216.208 135.051 211.973 131.75 209.828 119.101C208.353 110.406 206.901 93.8335 204.398 90.7274Z" fill="#DAE7FF"/>
<path fill-rule="evenodd" clip-rule="evenodd" d="M209.108 83.606C209.108 83.606 206.192 76.2744 203.137 76.3372C200.083 76.4 189.913 84.7115 189.913 84.7115C188.251 86.4558 199.765 99.1211 202.645 97.4068C205.347 95.7986 209.108 83.606 209.108 83.606Z" fill="#D29780"/>
<path fill-rule="evenodd" clip-rule="evenodd" d="M207.764 87.5771L202.5 77.4407C202.719 83.6294 202.371 90.2864 204.558 95.0026C205.732 92.9222 206.904 89.9601 207.764 87.5771Z" fill="#93523E"/>
<path fill-rule="evenodd" clip-rule="evenodd" d="M211.069 64.028C215.94 64.028 219.895 69.7027 219.895 76.6923C219.895 83.682 214.362 89.459 211.069 89.3567C206.393 89.2115 202.558 84.1236 202.261 77.5183C202.249 77.2452 199.071 77.0321 199.605 72.8614C200.228 67.9966 203.508 70.1155 203.624 69.8901C205.396 66.4577 207.942 64.028 211.069 64.028Z" fill="#D29780"/>
<path d="M213.237 78.3408C213.721 78.3408 214.113 77.7979 214.113 77.1282C214.113 76.4585 213.721 75.9156 213.237 75.9156C212.752 75.9156 212.36 76.4585 212.36 77.1282C212.36 77.7979 212.752 78.3408 213.237 78.3408Z" fill="black"/>
<path d="M218.822 77.861C219.175 77.861 219.462 77.405 219.462 76.8425C219.462 76.2799 219.175 75.8239 218.822 75.8239C218.469 75.8239 218.182 76.2799 218.182 76.8425C218.182 77.405 218.469 77.861 218.822 77.861Z" fill="black"/>
<path fill-rule="evenodd" clip-rule="evenodd" d="M219.353 73.3748C219.353 73.3748 218.435 73.4394 217.719 73.7739C217.19 74.0208 216.779 74.4134 216.818 74.9947C217.003 77.7849 217.594 81.5272 217.407 82.6754C217.391 82.7757 217.313 82.8461 217.21 82.9046C217.071 82.9841 216.887 83.0369 216.691 83.0743C216.057 83.1952 215.297 83.1473 215.297 83.1473C215.272 83.1453 215.247 83.1481 215.223 83.1556C215.199 83.1631 215.177 83.1751 215.158 83.1908C215.139 83.2066 215.124 83.2259 215.113 83.2475C215.102 83.2692 215.095 83.2927 215.093 83.3169C215.092 83.341 215.095 83.3652 215.103 83.388C215.111 83.4108 215.124 83.4319 215.141 83.4499C215.158 83.4679 215.178 83.4826 215.2 83.493C215.223 83.5034 215.248 83.5093 215.273 83.5104C215.273 83.5104 216.387 83.5775 217.1 83.3473C217.471 83.2275 217.733 83.0206 217.78 82.7318C217.969 81.5717 217.382 77.7903 217.194 74.9715C217.166 74.5468 217.497 74.2819 217.883 74.1015C218.539 73.7952 219.38 73.7379 219.38 73.7379C219.405 73.7361 219.429 73.7298 219.451 73.7191C219.473 73.7084 219.493 73.6935 219.509 73.6755C219.526 73.6574 219.538 73.6364 219.546 73.6138C219.554 73.5911 219.557 73.5671 219.555 73.5433C219.553 73.5195 219.547 73.4962 219.536 73.4748C219.524 73.4534 219.509 73.4344 219.49 73.4187C219.472 73.4031 219.45 73.3912 219.426 73.3836C219.403 73.3761 219.378 73.3731 219.353 73.3748ZM210.422 74.0938C210.422 74.0938 211.697 73.9128 213.096 74.0095C214.01 74.0726 214.98 74.2516 215.667 74.6902C215.688 74.7035 215.711 74.7127 215.735 74.7173C215.759 74.722 215.785 74.7219 215.809 74.7172C215.833 74.7125 215.856 74.7031 215.877 74.6897C215.898 74.6764 215.915 74.6592 215.929 74.6392C215.943 74.6192 215.952 74.5968 215.957 74.5733C215.962 74.5498 215.961 74.5256 215.956 74.5021C215.951 74.4786 215.942 74.4563 215.928 74.4365C215.914 74.4167 215.896 74.3997 215.875 74.3866C215.139 73.9167 214.103 73.7141 213.123 73.6464C211.681 73.5468 210.367 73.7336 210.367 73.7336C210.317 73.7406 210.273 73.7663 210.243 73.8051C210.213 73.8438 210.2 73.8924 210.208 73.9401C210.215 73.9879 210.242 74.0309 210.282 74.0597C210.322 74.0885 210.372 74.1008 210.422 74.0938ZM209.94 83.7388C210.984 85.3298 213 85.9122 215.298 85.4385C215.323 85.4335 215.346 85.4239 215.366 85.4104C215.386 85.3968 215.404 85.3795 215.417 85.3595C215.431 85.3394 215.44 85.317 215.444 85.2935C215.449 85.27 215.449 85.2458 215.443 85.2225C215.438 85.1991 215.428 85.1769 215.414 85.1572C215.4 85.1376 215.382 85.1207 215.362 85.1077C215.341 85.0947 215.318 85.0858 215.293 85.0815C215.269 85.0771 215.244 85.0775 215.22 85.0825C213.096 85.5202 211.224 85.0138 210.259 83.5441C210.245 83.5236 210.228 83.5058 210.208 83.4917C210.188 83.4776 210.165 83.4676 210.14 83.4621C210.116 83.4567 210.091 83.456 210.066 83.46C210.042 83.4641 210.018 83.4728 209.997 83.4857C209.976 83.4986 209.958 83.5154 209.943 83.5352C209.929 83.5549 209.919 83.5772 209.913 83.6008C209.908 83.6243 209.908 83.6486 209.912 83.6723C209.917 83.6961 209.926 83.7187 209.94 83.7388Z" fill="black"/>
<path fill-rule="evenodd" clip-rule="evenodd" d="M225.938 64.0391C225.938 64.0391 209.001 56.2963 200.341 62.1005C195.091 66.4464 193.54 72.9735 195.002 81.2764C197.436 81.6836 202.286 77.2284 202.286 77.2284C199.629 73.5435 206.123 68.0362 206.132 74.5431C206.132 74.5431 210.648 71.4403 211.39 69.7055C214.259 71.1567 218.544 71.343 219.382 72.3868C223.848 71.0004 226.534 68.77 226.534 68.77L224.32 66.7998C224.97 66.1075 225.568 65.3062 225.938 64.0391Z" fill="black"/>
<path fill-rule="evenodd" clip-rule="evenodd" d="M212.683 163.69C215.038 165.228 220.162 165.243 219.977 161.924C219.892 160.417 215.229 160.352 210.601 155.476C209.222 154.022 208.002 152.067 206.713 150.691L188.32 158.198C195.068 173.176 197.18 175.211 202.169 172.818C202.509 173.607 207.315 176.57 209.386 172.058C211.833 175.157 216.679 173.188 215.44 170.021C214.789 168.357 213.906 166.171 212.683 163.69Z" fill="#D29780"/>
<path fill-rule="evenodd" clip-rule="evenodd" d="M209.793 172.01C209.549 171.068 207.322 166.635 206.577 165.274C206.554 165.232 206.523 165.193 206.484 165.162C206.446 165.131 206.402 165.108 206.355 165.093C206.307 165.079 206.257 165.074 206.207 165.078C206.157 165.082 206.109 165.096 206.065 165.119C206.021 165.141 205.982 165.172 205.95 165.209C205.918 165.246 205.894 165.289 205.88 165.335C205.866 165.381 205.861 165.43 205.866 165.478C205.871 165.525 205.886 165.572 205.909 165.614C206.637 166.943 208.823 171.267 209.06 172.186C209.072 172.233 209.093 172.277 209.123 172.316C209.152 172.354 209.189 172.387 209.232 172.412C209.274 172.437 209.322 172.453 209.371 172.461C209.42 172.468 209.47 172.465 209.518 172.454C209.567 172.442 209.612 172.421 209.652 172.393C209.692 172.364 209.726 172.328 209.751 172.287C209.777 172.246 209.794 172.2 209.801 172.152C209.808 172.105 209.805 172.056 209.793 172.01ZM202.231 172.829C202.058 172.16 200.888 169.732 199.953 167.891C199.931 167.848 199.901 167.809 199.864 167.778C199.826 167.746 199.783 167.722 199.736 167.706C199.689 167.691 199.64 167.684 199.59 167.687C199.541 167.69 199.493 167.703 199.448 167.724C199.404 167.745 199.364 167.774 199.331 167.81C199.298 167.846 199.273 167.888 199.257 167.933C199.241 167.978 199.234 168.026 199.238 168.074C199.241 168.121 199.254 168.168 199.275 168.211C200.184 170.001 201.331 172.355 201.499 173.005C201.523 173.099 201.585 173.179 201.67 173.229C201.756 173.279 201.859 173.294 201.956 173.27C202.053 173.247 202.137 173.187 202.188 173.105C202.24 173.022 202.255 172.923 202.231 172.829ZM212.804 162.904C212.625 162.211 211.376 159.632 210.427 157.771C210.383 157.685 210.305 157.619 210.21 157.589C210.116 157.558 210.012 157.564 209.923 157.607C209.833 157.649 209.765 157.724 209.732 157.815C209.7 157.906 209.706 158.006 209.75 158.093C210.673 159.902 211.897 162.406 212.072 163.08C212.096 163.174 212.158 163.254 212.243 163.304C212.329 163.354 212.432 163.368 212.529 163.345C212.626 163.322 212.71 163.262 212.761 163.179C212.813 163.096 212.828 162.997 212.804 162.904Z" fill="black"/>
<path fill-rule="evenodd" clip-rule="evenodd" d="M193.543 101.962C193.043 89.2884 180.077 81.046 175.662 95.1399C168.33 118.544 176.04 149.402 187.343 161.712C193.704 155.862 203.776 153.336 209.392 151.223C201.31 137.246 194.587 128.383 193.543 101.962Z" fill="#96BAFD"/>
<path fill-rule="evenodd" clip-rule="evenodd" d="M200.969 69.6948C200.652 68.2588 200.682 66.5205 200.611 64.593C200.424 59.4974 203.776 55.399 208.828 55.399C209.924 55.399 210.995 55.593 212.006 55.9485C208.699 57.2281 206.678 60.6052 206.824 64.593C206.895 66.5202 206.865 68.258 207.183 69.6948H200.969Z" fill="#DAE7FF"/>
<path d="M205.091 80.0552C208.794 80.0552 211.796 77.0312 211.796 73.3009C211.796 69.5706 208.794 66.5466 205.091 66.5466C201.388 66.5466 198.386 69.5706 198.386 73.3009C198.386 77.0312 201.388 80.0552 205.091 80.0552Z" fill="#DAE7FF"/>
<path d="M204.218 79.6175C207.438 79.6175 210.049 76.6915 210.049 73.0821C210.049 69.4727 207.438 66.5467 204.218 66.5467C200.997 66.5467 198.386 69.4727 198.386 73.0821C198.386 76.6915 200.997 79.6175 204.218 79.6175Z" fill="#ECF3FF"/>
</g>
<path d="M79.0239 192.873C57.5845 192.873 40.2046 195.16 40.2046 197.98C40.2046 200.8 57.5845 203.087 79.0239 203.087C100.463 203.087 117.843 200.8 117.843 197.98C117.843 195.16 100.463 192.873 79.0239 192.873ZM79.0239 202.209C58.3488 202.209 41.5882 200.316 41.5882 197.98C41.5882 195.644 58.3488 193.751 79.0239 193.751C99.699 193.751 116.46 195.644 116.46 197.98C116.46 200.316 99.699 202.209 79.0239 202.209Z" fill="#8FCAEF"/>
<path d="M79.0239 194.641C57.5845 194.641 40.2046 196.927 40.2046 199.748C40.2046 202.568 57.5845 204.854 79.0239 204.854C100.463 204.854 117.843 202.568 117.843 199.748C117.843 196.927 100.463 194.641 79.0239 194.641ZM79.0239 203.977C58.3488 203.977 41.5882 202.083 41.5882 199.748C41.5882 197.412 58.3488 195.519 79.0239 195.519C99.699 195.519 116.46 197.412 116.46 199.748C116.46 202.083 99.699 203.977 79.0239 203.977Z" fill="#8FCAEF"/>
<path d="M111.945 155.431C111.945 155.431 112.574 156.345 113.387 158.117C122.505 177.99 107.295 200.313 84.7151 200.313H73.4588C52.1064 200.313 36.9587 180.179 43.7532 160.705C44.989 157.163 46.2797 155.431 46.2797 155.431H111.945V155.431Z" fill="#FFE2A5"/>
<path d="M43.753 160.705C40.8251 169.097 41.9722 177.611 45.9341 184.584C85.7595 183.329 84.3125 161.198 83.2528 155.431H46.2796C46.2796 155.431 44.9889 157.163 43.753 160.705Z" fill="#FFEFD0"/>
<path d="M79.0923 159.378C97.2141 159.378 111.905 157.606 111.905 155.419C111.905 153.233 97.2141 151.461 79.0923 151.461C60.9704 151.461 46.2798 153.233 46.2798 155.419C46.2798 157.606 60.9704 159.378 79.0923 159.378Z" fill="#FFE2A5"/>
<path d="M79.0922 159.378C95.2774 159.378 108.398 158.404 108.398 157.202C108.398 156 95.2774 155.025 79.0922 155.025C62.907 155.025 49.7864 156 49.7864 157.202C49.7864 158.404 62.907 159.378 79.0922 159.378Z" fill="#FFC697"/>
<path d="M103.049 107.323C103.049 107.323 109.094 107.616 114.064 103.074C119.035 98.5316 119.332 94.1907 118.417 93.155C117.503 92.1194 111.61 92.8348 108.579 95.4314C105.032 98.4688 104.239 99.9137 103.049 107.323ZM95.7213 119.637C95.7213 119.637 90.5993 116.536 89.2427 110.071C87.8861 103.606 90.2349 99.8887 91.6018 99.5464C92.9686 99.204 97.3649 103.046 98.2962 106.847C99.3855 111.293 99.1721 112.914 95.7213 119.637ZM91.5593 131.555C91.5593 131.555 97.4045 133.063 103.257 129.628C109.109 126.193 110.348 122.009 109.68 120.812C109.013 119.614 103.095 119.122 99.5636 121.047C95.4326 123.299 94.3412 124.551 91.5593 131.555ZM86.6982 151.315C86.6982 151.315 92.7179 151.914 97.9314 147.632C103.145 143.35 103.68 139.03 102.824 137.949C101.968 136.868 96.0442 137.283 92.8739 139.721C89.1651 142.574 88.2935 143.976 86.6982 151.315Z" fill="#35A063"/>
<path d="M103.05 106.819C100.099 110.193 97.315 115.054 94.7742 121.265C92.7471 126.22 90.8678 132.044 89.1884 138.576C86.3308 149.692 85.0254 159.137 85.0125 159.231C85.0091 159.259 85.0092 159.286 85.0127 159.314C85.25 159.308 85.4865 159.303 85.722 159.297C85.7928 158.789 87.0976 149.563 89.88 138.74C92.504 128.534 97.0135 114.787 103.595 107.259C103.625 107.224 103.648 107.184 103.662 107.142C103.676 107.099 103.681 107.054 103.677 107.009C103.673 106.964 103.66 106.921 103.638 106.881C103.617 106.841 103.587 106.806 103.552 106.777C103.516 106.748 103.474 106.726 103.43 106.712C103.385 106.699 103.338 106.694 103.292 106.698C103.245 106.702 103.2 106.714 103.158 106.735C103.117 106.756 103.08 106.784 103.05 106.819Z" fill="#35A063"/>
<path d="M74.8648 93.4846C74.8648 93.4846 80.9118 93.2536 85.4384 88.3006C89.965 83.3475 89.8557 78.9985 88.8482 78.0461C87.8409 77.0936 82.0387 78.3152 79.2615 81.1631C76.0128 84.4946 75.3576 86.0023 74.8648 93.4846ZM69.9503 112.432C69.9503 112.432 75.9945 112.724 80.9651 108.182C85.9357 103.64 86.2328 99.299 85.3183 98.2633C84.4039 97.2277 78.5112 97.9431 75.4794 100.54C71.9328 103.577 71.1395 105.022 69.9503 112.432ZM69.4159 134.539C69.4159 134.539 75.4601 134.831 80.4307 130.289C85.4013 125.747 85.6983 121.406 84.7839 120.37C83.8695 119.335 77.9767 120.05 74.9449 122.647C71.3984 125.684 70.6051 127.129 69.4159 134.539ZM70.2208 142.917C70.2208 142.917 64.1945 143.451 59.0317 139.112C53.8688 134.773 53.3841 130.448 54.2529 129.376C55.1217 128.305 61.0404 128.784 64.1819 131.257C67.8568 134.149 68.7119 135.561 70.2208 142.917ZM71.4867 103.939C71.4867 103.939 65.7144 102.19 62.697 96.2685C59.6795 90.3466 60.971 86.1775 62.2027 85.5126C63.4346 84.8478 68.7004 87.4909 70.6037 90.94C72.8303 94.9747 73.0514 96.5949 71.4867 103.939ZM71.9283 151.778C71.9283 151.778 77.8443 150.552 81.4196 144.924C84.9948 139.297 84.1108 135.031 82.9484 134.259C81.786 133.487 76.2881 135.649 74.0605 138.913C71.4547 142.732 71.0782 144.326 71.9283 151.778Z" fill="#2A8C52"/>
<path d="M75.2519 92.6055C75.2093 92.5869 75.1633 92.5765 75.1166 92.575C75.0698 92.5734 75.0232 92.5808 74.9794 92.5965C74.9356 92.6123 74.8955 92.6362 74.8613 92.6669C74.8272 92.6976 74.7996 92.7344 74.7803 92.7753C74.7473 92.845 71.461 99.8784 69.6928 111.548C68.655 118.397 68.3333 125.484 68.7365 132.615C69.2394 141.509 70.8784 150.495 73.6076 159.323C73.8421 159.328 74.0774 159.332 74.3134 159.336C74.3231 159.285 74.3222 159.232 74.3057 159.178C68.1444 139.279 68.7773 122.362 70.3933 111.676C72.1447 100.093 75.3961 93.1275 75.4287 93.0585C75.4678 92.9759 75.4711 92.8818 75.438 92.7968C75.4048 92.7119 75.3378 92.643 75.2519 92.6055Z" fill="#2A8C52"/>
<path d="M53.0148 113.391C53.0148 113.391 46.9816 112.934 42.6587 107.816C38.3357 102.697 38.6208 98.3554 39.6659 97.4413C40.711 96.5273 46.4594 97.965 49.1194 100.915C52.2309 104.365 52.8248 105.896 53.0148 113.391ZM60.1008 131.662C60.1008 131.662 54.4477 133.741 48.2596 130.903C42.0714 128.064 40.3919 124.025 40.928 122.768C41.4642 121.511 47.2976 120.436 51.0161 122.002C55.3659 123.834 56.5853 124.971 60.1008 131.662ZM65.6589 150.926C65.6589 150.926 60.0058 153.004 53.8177 150.166C47.6295 147.328 45.9499 143.289 46.4861 142.032C47.0223 140.774 52.8557 139.699 56.5742 141.265C60.924 143.097 62.1434 144.234 65.6589 150.926ZM57.0158 123.062C57.0158 123.062 62.6934 121.046 65.4098 114.991C68.1262 108.936 66.6269 104.831 65.3631 104.225C64.0993 103.618 58.9724 106.503 57.2445 110.036C55.2234 114.17 55.0838 115.798 57.0158 123.062Z" fill="#35A063"/>
<path d="M67.7583 159.073C64.8094 144.604 60.8144 132.421 57.9822 124.748C54.9122 116.431 52.5062 111.467 52.4822 111.418C52.3988 111.247 52.1866 111.173 52.0087 111.253C51.9231 111.292 51.857 111.361 51.8248 111.447C51.7926 111.532 51.797 111.626 51.837 111.708C51.8608 111.757 54.2555 116.698 57.3147 124.987C60.1309 132.618 64.1007 144.724 67.0383 159.102C67.2789 159.114 67.521 159.125 67.7644 159.136C67.7644 159.115 67.7623 159.094 67.7583 159.073Z" fill="#35A063"/>
<path d="M39.9033 246.273C39.2736 246.273 38.7632 245.783 38.7632 245.178V161.081C38.7632 160.467 39.2863 159.95 39.9253 159.961C40.5449 159.973 41.0434 160.459 41.0434 161.056V245.178C41.0434 245.783 40.533 246.273 39.9033 246.273ZM79 246.273C78.3703 246.273 77.8598 245.783 77.8598 245.178V168.988C77.8598 168.374 78.3829 167.856 79.022 167.868C79.6415 167.879 80.1401 168.365 80.1401 168.963V245.178C80.1401 245.783 79.6296 246.273 79 246.273ZM118.097 246.273C117.467 246.273 116.956 245.783 116.956 245.178V161.081C116.956 160.467 117.48 159.95 118.119 159.961C118.738 159.973 119.237 160.459 119.237 161.056V245.178C119.237 245.783 118.726 246.273 118.097 246.273Z" fill="#8FCAEF"/>
<defs>
<clipPath id="clip0_0_1">
<rect width="283" height="273" fill="white" transform="translate(108)"/>
</clipPath>
</defs>
</svg>
