<svg width="80" height="80" viewBox="0 0 80 80" fill="none" xmlns="http://www.w3.org/2000/svg">
<path d="M25 50C20.8575 50 17.5 53.3575 17.5 57.5C17.5 61.6425 20.8575 65 25 65C29.1425 65 32.5 61.6425 32.5 57.5C32.5 53.3575 29.1425 50 25 50ZM25 60C23.6225 60 22.5 58.8775 22.5 57.5C22.5 56.1225 23.6225 55 25 55C26.3775 55 27.5 56.1225 27.5 57.5C27.5 58.8775 26.3775 60 25 60Z" fill="#C991D2"/>
<path d="M25 47.5C29.1421 47.5 32.5 44.1421 32.5 40C32.5 35.8579 29.1421 32.5 25 32.5C20.8579 32.5 17.5 35.8579 17.5 40C17.5 44.1421 20.8579 47.5 25 47.5Z" fill="#C991D2"/>
<path d="M25 15C20.8575 15 17.5 18.3575 17.5 22.5C17.5 26.6425 20.8575 30 25 30C29.1425 30 32.5 26.6425 32.5 22.5C32.5 18.3575 29.1425 15 25 15ZM25 25C23.6225 25 22.5 23.8775 22.5 22.5C22.5 21.1225 23.6225 20 25 20C26.3775 20 27.5 21.1225 27.5 22.5C27.5 23.8775 26.3775 25 25 25Z" fill="#C991D2"/>
<path d="M62.5 20H37.5V25H62.5V20Z" fill="#C991D2"/>
<path d="M62.5 37.5H37.5V42.5H62.5V37.5Z" fill="#C991D2"/>
<path d="M62.5 55H37.5V60H62.5V55Z" fill="#C991D2"/>
<path d="M25 50C20.8575 50 17.5 53.3575 17.5 57.5C17.5 61.6425 20.8575 65 25 65C29.1425 65 32.5 61.6425 32.5 57.5C32.5 53.3575 29.1425 50 25 50ZM25 60C23.6225 60 22.5 58.8775 22.5 57.5C22.5 56.1225 23.6225 55 25 55C26.3775 55 27.5 56.1225 27.5 57.5C27.5 58.8775 26.3775 60 25 60Z" fill="#C991D2"/>
<path d="M25 47.5C29.1421 47.5 32.5 44.1421 32.5 40C32.5 35.8579 29.1421 32.5 25 32.5C20.8579 32.5 17.5 35.8579 17.5 40C17.5 44.1421 20.8579 47.5 25 47.5Z" fill="#C991D2"/>
<path d="M25 15C20.8575 15 17.5 18.3575 17.5 22.5C17.5 26.6425 20.8575 30 25 30C29.1425 30 32.5 26.6425 32.5 22.5C32.5 18.3575 29.1425 15 25 15ZM25 25C23.6225 25 22.5 23.8775 22.5 22.5C22.5 21.1225 23.6225 20 25 20C26.3775 20 27.5 21.1225 27.5 22.5C27.5 23.8775 26.3775 25 25 25Z" fill="#C991D2"/>
<path d="M62.5 20H37.5V25H62.5V20Z" fill="#C991D2"/>
<path d="M62.5 37.5H37.5V42.5H62.5V37.5Z" fill="#C991D2"/>
<path d="M62.5 55H37.5V60H62.5V55Z" fill="#C991D2"/>
</svg>
