<svg width="352" height="355" viewBox="0 0 352 355" fill="none" xmlns="http://www.w3.org/2000/svg">
<path d="M40.4835 189.73L42.9862 191.039L43.7161 190.062C43.7161 190.062 47.2208 187.563 44.3145 185.355C43.1822 184.495 41.5865 185.528 41.9079 186.921C41.9126 186.939 41.9173 186.96 41.922 186.98C41.9338 187.028 41.8704 187.057 41.8434 187.014L41.2051 186.018C41.096 185.848 40.8742 185.796 40.7029 185.9C40.5457 185.996 40.4812 186.194 40.5516 186.364L41.0279 187.519C41.1347 187.777 41.1371 188.067 41.035 188.327L40.4835 189.73Z" fill="#F7C19B"/>
<path d="M9.58618 217.209L6.93328 216.245L6.33722 217.31C6.33722 217.31 3.19034 220.254 6.35952 222.055C7.59386 222.757 9.04176 221.52 8.54074 220.183C8.5337 220.164 8.52666 220.145 8.51845 220.126C8.50085 220.08 8.55952 220.043 8.5912 220.081L9.35504 220.984C9.48528 221.138 9.7129 221.159 9.86896 221.034C10.0121 220.918 10.0508 220.713 9.95813 220.553L9.33392 219.472C9.19429 219.23 9.15439 218.943 9.22127 218.672L9.58618 217.209Z" fill="#F7C19B"/>
<path d="M12.794 202.445L6.2644 216.943L9.59315 218.214L15.7684 208.179L12.794 202.445Z" fill="#FB6107"/>
<path d="M19.1405 221.56L24.2269 217.615C24.2269 217.615 25.7793 207.727 29.0658 202.045L34.0196 202.189C35.4499 202.23 36.8015 201.531 37.6029 200.335L43.4274 190.83L40.3133 188.99L34.6426 197.38L28.9637 195.448C28.7173 195.198 28.4333 194.997 28.1165 194.849C26.2943 193.994 19.9666 191.522 16.2459 196.387C12.334 201.393 11.0621 205.64 10.7688 215.09L19.1405 221.56Z" fill="#FB6107"/>
<path d="M6.18419 256.06L4.76123 259.842L7.59258 260.926L9.01554 257.144L6.18419 256.06Z" fill="#F7C19B"/>
<path d="M4.57012 259.187L3.15156 260.903C3.03305 261.046 2.96031 261.21 2.93919 261.381C2.88756 261.809 3.17503 262.217 3.66313 262.408L8.53247 264.312C8.949 264.475 9.4066 264.564 9.87359 264.572C10.3863 264.581 10.8158 264.262 10.8322 263.86C10.8392 263.695 10.7759 263.535 10.6527 263.404L8.1394 260.098C8.07956 260.019 7.98921 259.956 7.88244 259.919L5.2882 259.016C5.03007 258.926 4.725 259 4.57012 259.187Z" fill="#37424C"/>
<path d="M26.1064 257.936H23.078V261.981H26.1064V257.936Z" fill="#F7C19B"/>
<path d="M24.1836 261.35L23.4738 263.466C23.4139 263.643 23.4045 263.822 23.4468 263.989C23.5524 264.408 23.9654 264.683 24.4887 264.684L29.7112 264.692C30.1582 264.692 30.617 264.609 31.0547 264.447C31.5357 264.269 31.822 263.816 31.6953 263.434C31.6437 263.279 31.5264 263.152 31.3644 263.074L27.8386 260.903C27.7541 260.85 27.6485 260.826 27.5347 260.829L24.7914 260.93C24.5192 260.94 24.2611 261.119 24.1836 261.35Z" fill="#37424C"/>
<path d="M9.06279 258.533L17.0286 242.394L18.3392 228.986L22.271 240.974L23.9911 258.913H28.2949L27.4337 238.843L24.227 217.615C24.227 217.615 15.8552 219.194 10.7688 215.09L11.2382 241.131L5.29053 256.914L9.06279 258.533Z" fill="#334D5E"/>
<path d="M25.5247 192.864C25.4367 192.858 25.3746 192.95 25.4098 193.03L26.0563 194.506C26.0915 194.583 26.1196 194.641 26.0856 194.7C25.9894 194.854 25.8826 194.979 25.7629 195.081C25.2455 195.523 24.5309 195.514 23.9079 195.372C23.2673 195.229 22.7287 194.944 22.6031 194.861C22.5809 194.846 22.5679 194.823 22.5644 194.797L22.3403 192.374C22.3368 192.337 22.3133 192.303 22.2805 192.285C20.7106 191.357 20.6801 189.159 20.6801 189.159C20.8913 184.337 24.4218 184.838 26.1325 185.368C26.7039 185.545 27.1486 186.002 27.3176 186.581C29.1046 192.716 26.3085 192.922 25.5247 192.864Z" fill="#F7C19B"/>
<path d="M22.8894 189.123L23.2297 190.557C23.2696 190.723 23.4632 190.795 23.6005 190.694C23.6697 190.643 23.7061 190.558 23.6955 190.472L23.5606 189.388C23.5312 189.149 23.6322 188.913 23.8222 188.768C24.1848 188.49 24.7093 187.933 24.5133 187.147C24.4711 186.977 24.5814 186.807 24.7527 186.78C25.3476 186.685 26.5244 186.431 26.9515 185.865C27.0301 185.761 27.1181 185.664 27.2132 185.576C27.4819 185.329 27.9348 184.776 27.5593 184.105C27.4971 183.994 27.3692 183.937 27.246 183.968L26.2088 184.219C26.1372 184.237 26.0633 184.196 26.0375 184.125L25.7254 183.253C25.6914 183.159 25.5764 183.126 25.4989 183.188L24.4676 184.01C24.2435 184.188 23.9396 184.224 23.6803 184.103C23.1417 183.853 22.0857 183.582 20.8032 184.379C19.6628 185.088 19.2075 186.502 19.0256 187.499C18.906 188.154 19.0831 188.827 19.5044 189.34L20.4888 190.542C20.5252 190.586 20.558 190.633 20.5874 190.682C20.8103 191.055 21.6281 192.787 22.3016 192.338C22.3204 192.326 22.3286 192.302 22.3227 192.28L22.352 191.332C22.3016 191.121 22.1925 190.928 22.0352 190.781C21.6128 190.381 20.8361 189.495 21.6046 188.976C21.8616 188.803 22.1807 188.744 22.4811 188.815C22.6677 188.858 22.8472 188.945 22.8894 189.123Z" fill="#29354E"/>
<path d="M117.343 190.733L117.411 190.649C117.694 190.298 117.85 189.86 117.854 189.407L117.872 187.575C117.873 187.414 117.99 187.278 118.148 187.254C118.324 187.227 118.489 187.348 118.518 187.525L118.745 188.918C118.755 188.983 118.846 188.988 118.863 188.924C119.061 188.186 119.701 186.343 121.087 186.793C122.809 187.351 122.331 189.004 121.381 190.185C120.432 191.366 119.458 192.356 119.458 192.356L117.343 190.733Z" fill="#F7C19B"/>
<path d="M96.3272 259.707H94.0791V262.446H96.3272V259.707Z" fill="#F7C19B"/>
<path d="M108.041 259.714H105.849V262.438H108.041V259.714Z" fill="#F7C19B"/>
<path d="M105.818 261.7C106.245 261.875 107.149 262.131 108.052 261.657C108.133 261.615 108.24 261.623 108.308 261.68L111.147 264.083C111.403 264.3 111.629 264.538 111.819 264.794C111.909 264.916 111.914 265.067 111.832 265.192C111.746 265.322 111.578 265.404 111.396 265.404H105.628C105.45 265.404 105.283 265.334 105.179 265.217C105.098 265.126 105.061 265.012 105.078 264.901L105.528 261.828C105.546 261.714 105.694 261.649 105.818 261.7Z" fill="#37424C"/>
<path d="M95.981 226.607H107.657L108.618 260.443C108.618 260.678 108.43 260.867 108.198 260.867H105.531C105.316 260.867 105.135 260.704 105.113 260.487L102.952 237.016C102.915 236.667 102.623 236.4 102.275 236.4C101.952 236.4 101.674 236.629 101.608 236.948L97.01 260.526C96.9701 260.724 96.7976 260.866 96.597 260.866H93.8244C93.5768 260.866 93.382 260.652 93.4043 260.402L95.981 226.607Z" fill="#37424C"/>
<path d="M96.0174 226.819C97.6601 227.412 102.789 228.911 108.219 226.915C108.547 226.794 108.768 226.481 108.768 226.128V207.795C108.768 207.473 108.726 207.153 108.643 206.843L108.607 206.711C108.398 205.933 108.451 205.108 108.756 204.365L119.762 192.593C119.84 192.405 119.749 192.19 119.562 192.115L117.526 190.127C117.357 190.059 117.163 190.129 117.075 190.289L106.386 199.234C106.152 199.663 105.094 200.293 104.609 200.293L100.306 199.941C100.238 199.941 100.172 199.968 100.123 200.016L96.0362 204.087C95.4296 204.714 94.9755 205.474 94.7103 206.308L91.7512 215.606C91.6585 215.897 91.6116 216.201 91.6116 216.507V216.929C91.6116 218.727 93.1956 220.121 94.9579 219.849C95.1034 219.827 95.2559 219.799 95.4155 219.767L95.4671 226.037C95.4707 226.389 95.6901 226.701 96.0174 226.819Z" fill="#BF6F31"/>
<path d="M100.234 200.083C100.582 200.395 101.685 201.178 103.062 200.052C103.123 200.002 103.158 199.928 103.158 199.85V198.889C103.158 198.711 103.303 198.574 103.479 198.573C104.018 198.566 105.065 197.965 105.193 193.47C105.212 192.811 104.976 192.17 104.528 191.691C103.34 190.418 100.816 188.58 98.7735 192.945C98.7735 192.945 97.9628 195.316 99.4764 196.67C99.9011 197.05 100.152 197.588 100.145 198.161L100.123 199.827C100.121 199.923 100.162 200.016 100.234 200.083Z" fill="#F7C19B"/>
<path d="M104.691 211.721L104.837 211.646C104.984 211.572 105.093 211.44 105.141 211.283L105.483 210.145C105.525 210.005 105.681 209.938 105.81 210.003C105.902 210.049 105.953 210.151 105.936 210.252L105.803 211.019C105.794 211.077 105.865 211.11 105.902 211.065C106.181 210.726 106.844 210.051 107.484 210.359C108.326 210.764 108.59 212.613 107.923 213.056C107.368 213.425 106.466 213.592 106.18 213.638C106.119 213.647 106.058 213.664 105.999 213.685L105.652 213.817L104.691 211.721Z" fill="#F7C19B"/>
<path d="M93.8901 215.705L104.606 211.621L105.699 214.014L95.4166 219.77" fill="#BF6F31"/>
<path d="M95.4166 219.804C95.4049 219.804 95.3932 219.798 95.3861 219.786C95.3767 219.77 95.3826 219.749 95.399 219.739L105.654 214L104.589 211.665L93.903 215.737C93.8854 215.743 93.8655 215.735 93.8584 215.717C93.8514 215.699 93.8608 215.679 93.8784 215.672L104.593 211.588C104.61 211.582 104.628 211.589 104.637 211.606L105.729 214C105.736 214.016 105.73 214.035 105.715 214.045L95.433 219.799C95.4272 219.803 95.4213 219.804 95.4166 219.804Z" fill="#B26028"/>
<path d="M100.131 199.067H99.5867C98.98 199.067 98.4004 198.812 97.9898 198.361C97.6014 197.936 97.3867 197.379 97.3867 196.801V196.017C97.3867 195.814 97.4125 195.613 97.4653 195.418L98.1763 192.751C98.2725 192.391 98.0531 192.025 97.6929 191.939C96.8575 191.738 95.338 190.969 96.4316 189.355C97.4125 187.91 98.648 188.836 99.1936 189.606C99.3461 189.82 99.6348 189.885 99.8647 189.758C100.38 189.477 100.957 189.33 101.543 189.33H102.988C103.721 189.33 104.406 189.725 104.756 190.375C105.041 190.902 105.246 191.609 105.064 192.444C105.053 192.492 105 192.516 104.957 192.495L103.052 191.543C102.933 191.487 102.796 191.557 102.77 191.686C102.634 192.361 102.174 194.217 101.09 195.218C100.909 195.385 100.62 195.334 100.501 195.119C100.362 194.867 100.151 194.555 99.8823 194.361C99.318 193.955 98.6046 194.624 98.966 195.22C99.0856 195.417 99.2769 195.646 99.5749 195.909C99.8929 196.191 100.086 196.588 100.108 197.014L100.131 199.067Z" fill="#37424C"/>
<path d="M94.1377 261.949C94.485 262.162 95.2793 262.494 96.2837 261.938C96.3846 261.882 96.5113 261.944 96.5301 262.059L97.0499 265.207C97.0523 265.224 97.0534 265.239 97.0534 265.256V265.77C97.0534 265.934 96.922 266.067 96.7589 266.067H93.3375C93.1744 266.067 93.043 265.934 93.043 265.77V265.308C93.043 265.282 93.0465 265.257 93.0524 265.232L93.8843 262.049C93.9148 261.939 94.0403 261.889 94.1377 261.949Z" fill="#37424C"/>
<path d="M231.089 192.761L232.705 193.56L233.157 192.927C233.157 192.927 235.357 191.282 233.472 189.916C232.738 189.383 231.735 190.066 231.959 190.949C231.962 190.962 231.964 190.973 231.968 190.986C231.976 191.017 231.936 191.036 231.919 191.01L231.498 190.383C231.426 190.276 231.283 190.247 231.175 190.316C231.076 190.378 231.038 190.506 231.084 190.614L231.405 191.344C231.476 191.507 231.482 191.692 231.42 191.86L231.089 192.761Z" fill="#F7C19B"/>
<path d="M212.079 257.802L211.622 261.925L208.738 261.621L209.127 257.655L212.079 257.802Z" fill="#F7C19B"/>
<path d="M207.916 264.281C207.925 264.511 208.113 264.692 208.341 264.692L214.939 264.689C215.452 264.689 215.866 264.27 215.866 263.753C215.866 263.662 215.774 263.467 215.703 263.41L212.085 260.585C211.959 260.482 211.795 260.527 211.665 260.626C210.857 261.233 209.727 261.243 208.585 261.183C208.471 261.177 208.365 261.24 208.315 261.343C207.787 262.405 207.878 263.389 207.916 264.281Z" fill="#37424C"/>
<path d="M223.607 257.382L223.696 261.984L220.81 262.024L220.675 257.605L223.607 257.382Z" fill="#F7C19B"/>
<path d="M219.923 264.281C219.932 264.511 220.12 264.692 220.347 264.692L226.946 264.689C227.459 264.689 227.874 264.27 227.873 263.753C227.873 263.662 227.78 263.467 227.71 263.41L224.091 260.585C223.966 260.482 223.802 260.527 223.671 260.626C222.857 261.239 221.715 261.243 220.563 261.182C220.467 261.177 220.378 261.23 220.334 261.316C219.792 262.389 219.884 263.382 219.923 264.281Z" fill="#37424C"/>
<path d="M232.515 210.878L232.993 212.627L233.763 212.548C233.763 212.548 236.444 213.116 236.206 210.787C236.113 209.88 234.941 209.575 234.436 210.332C234.428 210.342 234.421 210.353 234.414 210.364C234.397 210.39 234.357 210.373 234.364 210.342L234.549 209.609C234.581 209.483 234.508 209.357 234.385 209.321C234.272 209.288 234.153 209.343 234.105 209.451L233.776 210.178C233.702 210.34 233.57 210.468 233.404 210.532L232.515 210.878Z" fill="#F7C19B"/>
<path d="M220.257 197.484C220.168 197.498 220.126 197.604 220.18 197.677L221.16 199.007C221.213 199.076 221.254 199.128 221.233 199.195C221.172 199.372 221.092 199.522 220.995 199.651C220.576 200.213 219.859 200.368 219.202 200.368C218.529 200.37 217.924 200.209 217.779 200.155C217.753 200.145 217.735 200.125 217.725 200.1L216.954 197.726C216.941 197.689 216.912 197.66 216.874 197.65C215.092 197.081 214.565 194.886 214.565 194.886C213.689 190.007 217.34 189.698 219.173 189.836C219.785 189.882 220.334 190.239 220.634 190.779C223.811 196.515 221.055 197.362 220.257 197.484Z" fill="#F7C19B"/>
<path d="M216.773 194.34L217.439 195.698C217.516 195.856 217.726 195.883 217.841 195.751C217.899 195.683 217.916 195.59 217.887 195.506L217.508 194.451C217.425 194.218 217.473 193.96 217.631 193.77C217.931 193.408 218.332 192.731 217.958 191.988C217.879 191.828 217.95 191.631 218.116 191.565C218.691 191.333 219.812 190.809 220.113 190.144C220.168 190.022 220.233 189.905 220.31 189.794C220.523 189.485 220.852 188.827 220.325 188.241C220.237 188.144 220.096 188.117 219.98 188.175L218.998 188.664C218.93 188.698 218.847 188.674 218.806 188.609L218.296 187.807C218.241 187.72 218.118 187.713 218.055 187.794L217.206 188.853C217.022 189.084 216.725 189.189 216.438 189.127C215.842 189.001 214.722 188.971 213.617 190.063C212.635 191.035 212.498 192.557 212.54 193.598C212.568 194.281 212.898 194.915 213.434 195.333L214.691 196.31C214.738 196.347 214.781 196.386 214.822 196.429C215.129 196.752 216.339 198.299 216.913 197.695C216.928 197.678 216.932 197.653 216.921 197.632L216.737 196.676C216.64 196.476 216.486 196.309 216.295 196.195C215.781 195.893 214.803 195.183 215.457 194.486C215.675 194.254 215.982 194.121 216.299 194.123C216.491 194.126 216.691 194.172 216.773 194.34Z" fill="#29354E"/>
<path d="M223.814 220.093L224.202 258.72H219.912L217.922 229.609L212.282 258.72H208.488L210.313 221.757L217.922 218.134L223.814 220.093Z" fill="#48495B"/>
<path d="M210.359 217.601L211.36 212.814C211.36 212.814 209.318 202.877 217.114 198.666C217.151 198.646 217.206 198.628 217.244 198.612C217.251 198.619 217.258 198.626 217.265 198.632C217.638 199.014 217.98 199.276 218.355 199.4C218.932 199.611 219.531 199.506 220.198 199.041C220.4 198.914 220.609 198.741 220.824 198.541L226.592 199.254L230.79 192.403L233.45 193.206L229.983 201.575C229.531 202.661 228.448 203.34 227.282 203.265L225.042 203.124L224.252 207.923C225.804 209.703 226.973 211.158 226.973 211.158L232.836 210.513L233.322 212.988L227.377 214.253C225.951 214.415 224.533 213.898 223.538 212.857L223.455 212.77L223.309 213.671L223.815 220.092C221.085 221.197 218.246 222.005 215.347 222.503L210.178 223.391C209.835 223.45 209.527 223.164 209.561 222.815C209.732 221.066 209.999 219.324 210.359 217.601Z" fill="#2B91CC"/>
<path d="M317.323 186.626L315.474 186.828L315.256 186.052C315.256 186.052 313.692 183.67 316.002 183.012C316.902 182.755 317.64 183.775 317.112 184.555C317.105 184.566 317.097 184.576 317.09 184.588C317.071 184.615 317.104 184.647 317.13 184.628L317.759 184.169C317.865 184.091 318.014 184.112 318.095 184.218C318.169 184.315 318.162 184.452 318.079 184.54L317.512 185.135C317.386 185.269 317.315 185.446 317.316 185.631L317.323 186.626Z" fill="#F7C19B"/>
<path d="M314.686 212.431L315.025 214.276L314.274 214.554C314.274 214.554 312.036 216.306 311.211 214.032C310.89 213.146 311.844 212.328 312.653 212.8C312.665 212.807 312.676 212.813 312.687 212.82C312.716 212.837 312.745 212.802 312.724 212.778L312.223 212.18C312.137 212.078 312.148 211.927 312.246 211.837C312.337 211.755 312.473 211.752 312.565 211.83L313.197 212.355C313.338 212.472 313.519 212.53 313.701 212.515L314.686 212.431Z" fill="#F7C19B"/>
<path d="M322.25 194.907C322.25 194.907 319.317 195.652 320.59 198.964L326.052 202.815L330.081 205.883L332.402 206.298C332.402 206.298 337.243 206.247 335.13 202.303C335.13 202.303 335.911 199.448 333.014 198.363C333.014 198.363 332.658 196.837 330.567 196.636" fill="#37424C"/>
<path d="M325.098 196.095C324.976 196.483 324.856 197.553 324.585 197.921C324.443 198.112 324.471 198.381 324.647 198.541C325.125 198.973 325.48 199.485 326.893 199.439C327.136 199.431 327.333 199.239 327.344 198.994C327.379 198.143 328.064 195.823 328.51 195.229C328.51 195.229 332.267 189.214 326.33 189.395C326.225 189.398 326.058 189.429 325.958 189.462L325.412 189.641C324.949 189.792 324.575 190.143 324.393 190.598C323.845 191.966 322.945 194.839 324.745 195.42C325.029 195.509 325.187 195.81 325.098 196.095Z" fill="#F7C19B"/>
<path d="M325.125 196.007L325.186 195.773C325.219 195.644 325.132 195.527 325.003 195.496C324.603 195.399 323.732 195.083 323.709 193.613C323.679 191.848 324.854 190.288 326.5 189.688L326.595 189.654C326.658 189.63 326.736 189.661 326.755 189.727C326.846 190.049 326.202 190.868 326.543 191.628C326.947 192.526 327.105 193.515 326.809 194.455L326.763 194.599C326.633 195.012 326.597 195.441 326.671 195.862C326.82 196.715 326.298 199.248 327.854 199.427C328.344 199.484 330.567 197.87 330.519 197.374C330.488 197.056 330.522 196.734 330.618 196.43L331.769 192.783C331.85 192.527 331.902 192.264 331.917 191.997C331.995 190.62 331.761 186.66 326.471 187.021C326.471 187.021 324.648 187.247 324.043 189.165L323.127 192.068C323.091 192.18 323.066 192.295 323.052 192.412C323.002 192.825 322.823 193.955 322.288 194.785C322.264 194.822 322.25 194.864 322.249 194.908" fill="#37424C"/>
<path d="M318.17 239.296L316.482 262.248H319.638C319.061 257.897 321.629 249.086 323.896 240.703L318.17 239.296Z" fill="#F7C19B"/>
<path d="M325.072 240.628L329.686 262.188L332.267 260.768L332.026 259.638C331.356 256.498 330.981 253.303 330.906 250.093L330.652 239.296L325.072 240.628Z" fill="#F7C19B"/>
<path d="M330.847 208.47L329.526 209.605C329.281 214.393 331.142 217.009 331.142 217.009L327.129 219.921L319.42 216.713C320.738 213.732 321.41 210.384 321.659 206.792C319.567 203.978 321.304 201.609 321.304 201.609L316.487 197.511C315.897 197.008 315.541 196.279 315.509 195.501L315.137 186.554L317.633 185.912L318.149 193.677C318.193 194.338 318.591 194.921 319.185 195.199L324.663 197.772C325.128 200.609 327.569 198.598 327.569 198.598C329.939 198.98 331.758 201.032 331.705 203.452C331.676 204.736 331.436 206.377 330.847 208.47Z" fill="#FA5669"/>
<path d="M319.419 216.713C316.734 224.478 315.756 233.347 316.017 243.022L317.779 242.437C319.822 241.756 322.019 241.697 324.096 242.267L324.17 242.288C326.378 242.893 328.72 242.771 330.854 241.941C332.376 241.349 333.973 240.979 335.598 240.843L339.608 240.505C337.381 236.997 335.502 233.276 334.429 229.058C334.049 227.56 333.857 226.027 333.725 224.487C333.573 222.696 333.033 219.43 331.142 217.01L319.419 216.713Z" fill="#48495B"/>
<path d="M322.184 209.409L314.059 212.223L314.55 214.887L322.771 212.148L322.184 209.409Z" fill="#FA5669"/>
<path d="M329.393 260.63H332.238L332.943 263.934C332.954 263.985 332.96 264.038 332.96 264.09V264.372C332.96 264.751 332.655 265.058 332.28 265.058H324.986C324.794 265.058 324.617 264.953 324.523 264.783C324.395 264.548 324.46 264.254 324.674 264.096C326.59 263.254 328.213 262.165 329.327 260.654C329.346 260.637 329.37 260.63 329.393 260.63Z" fill="#37424C"/>
<path d="M316.602 260.63H319.566L320.271 263.934C320.282 263.985 320.288 264.038 320.288 264.09V264.372C320.288 264.751 319.983 265.058 319.608 265.058H312.314C312.122 265.058 311.945 264.953 311.851 264.783C311.723 264.548 311.787 264.254 312.002 264.096C313.928 263.248 315.487 262.153 316.602 260.63Z" fill="#37424C"/>
<path d="M92.1149 89.9499V105.431H52.5876V129.952H82.8772V145.159H52.5876V185.571H33.5714V89.9499H92.1149Z" fill="#0E4275"/>
<path d="M173.054 165.287L135.485 169.126L131.088 187.888L111.223 189.918L135.573 91.1829L157.601 88.9322L201.093 180.735L181.091 182.779L173.054 165.287ZM166.385 150.547L148.736 112.144L139.087 153.335L166.385 150.547Z" fill="#0E4275"/>
<path d="M245.392 94.2975V189.918H226.375V94.2975H245.392Z" fill="#0E4275"/>
<path d="M315.915 169.104L346.803 164.374L349.067 179.409L299.377 187.018L285.143 92.481L303.945 89.602L315.915 169.104Z" fill="#0E4275"/>
</svg>
