<svg width="312" height="151" viewBox="0 0 312 151" fill="none" xmlns="http://www.w3.org/2000/svg">
<path fill-rule="evenodd" clip-rule="evenodd" d="M33.7152 39.0416C40.3045 38.9682 50.6819 36.6459 57.5235 34.2894C62.2045 32.677 72.3251 28.3497 78.6987 26.7067C80.9233 26.1332 83.321 26.1289 86.0185 26.1837C90.128 26.2673 94.9234 26.4915 100.842 25.136C112.638 22.4345 124.191 16.5703 131.016 15.6748C134.182 15.2594 137.367 15.7296 140.545 16.3602C143.765 16.9993 146.979 17.8034 150.159 18.0475C156.425 18.5286 163.732 18.8997 169.012 18.595C173.356 18.3445 177.556 17.2695 181.632 16.935C183.947 16.7449 190.854 15.1583 197.167 15.3651C201.295 15.5003 205.174 16.3935 207.277 19.0158C207.541 19.3442 207.716 19.8126 207.83 20.379C208.012 21.2793 208.033 22.4184 207.954 23.6608C207.649 28.5 205.827 34.8846 205.78 35.0479L198.993 57.1114L196.085 65.3142C196.037 65.4491 196.115 65.5948 196.258 65.6397C196.402 65.6847 196.557 65.6118 196.604 65.4769L199.514 57.2693C199.515 57.266 199.516 57.2627 199.517 57.2594L206.306 35.1898L206.307 35.1855C206.307 35.1855 208.189 28.6381 208.501 23.6912C208.582 22.401 208.557 21.2181 208.368 20.283C208.235 19.6258 208.02 19.0869 207.714 18.7059C205.52 15.9701 201.492 14.9918 197.186 14.8507C190.846 14.643 183.909 16.2313 181.584 16.4221C177.513 16.7564 173.317 17.831 168.979 18.0812C163.72 18.3846 156.444 18.0135 150.203 17.5344C147.046 17.2921 143.856 16.4912 140.658 15.8566C137.417 15.2135 134.169 14.7414 130.94 15.165C124.104 16.062 112.529 21.9298 100.713 24.6359C94.8505 25.9784 90.1006 25.7518 86.0304 25.6691C83.2749 25.6131 80.8264 25.6244 78.554 26.2103C72.1676 27.8566 62.0256 32.1904 57.3352 33.806C50.5455 36.1447 40.248 38.454 33.7087 38.5269C33.5576 38.5286 33.4365 38.6452 33.4383 38.7873C33.4401 38.9295 33.5641 39.0433 33.7152 39.0416Z" fill="#ECF3FF"/>
<path fill-rule="evenodd" clip-rule="evenodd" d="M36.3324 42.7743C42.2172 42.7086 57.7611 39.9605 63.3492 36.8251C67.712 34.3772 78.2718 29.8359 83.2102 29.6555C88.4169 29.4654 98.0745 31.6591 106.851 29.6492C113.187 28.1982 118.57 25.7307 123.182 23.8144C126.221 22.5515 128.921 21.5281 131.337 21.2111C137.02 20.4654 142.93 21.413 148.562 21.8453C154.152 22.2744 160.671 22.6054 165.382 22.3337C169.256 22.1102 173.003 21.1514 176.638 20.853C178.702 20.6835 184.155 19.1771 189.643 19.3433C193.242 19.4523 196.86 20.282 199.512 22.7267C200.099 23.2673 200.462 24.1091 200.663 25.1758C200.977 26.8488 200.882 29.0602 200.525 31.5692C199.121 41.4398 193.661 55.8609 192.57 60.4892C192.537 60.6279 192.63 60.7654 192.778 60.7962C192.925 60.8269 193.071 60.7394 193.104 60.6006C194.197 55.9656 199.661 41.5225 201.068 31.6375C201.433 29.0666 201.524 26.8004 201.202 25.0861C200.978 23.8946 200.55 22.9629 199.896 22.3592C197.143 19.822 193.396 18.942 189.66 18.8288C184.145 18.6619 178.665 20.1699 176.59 20.3402C172.96 20.6382 169.218 21.5967 165.348 21.8199C160.659 22.0904 154.171 21.7594 148.606 21.3322C142.935 20.8969 136.984 19.9504 131.261 20.7013C128.803 21.0239 126.054 22.0584 122.961 23.3435C118.374 25.2492 113.022 27.7062 106.721 29.1491C97.9852 31.1497 88.3718 28.9519 83.1889 29.1412C78.188 29.3239 67.4868 33.9041 63.0687 36.3831C57.5379 39.4863 42.1504 42.1946 36.3259 42.2596C36.1747 42.2613 36.0536 42.3778 36.0554 42.52C36.0573 42.6621 36.1812 42.776 36.3324 42.7743Z" fill="#ECF3FF"/>
<path fill-rule="evenodd" clip-rule="evenodd" d="M38.2008 46.7705C43.1509 46.7152 56.1112 44.7829 60.8116 42.1456C64.4896 40.0819 78.6882 35.0904 83.4553 33.8615C85.1167 33.4332 87.9965 33.7986 91.3191 34.2707C96.4087 34.9938 102.515 35.9802 106.959 34.9623C115.828 32.9313 119.865 30.0875 124.643 28.2025C127.039 27.2569 134.672 25.4005 141.279 25.6243C148.396 25.8655 154.679 26.9349 156.261 26.9938C162.218 27.2152 171.029 25.999 178.614 25.4525C183.62 25.0919 188.086 25.018 190.816 25.867C192.218 26.303 193.18 27.3057 193.813 28.6848C194.467 30.1111 194.771 31.9335 194.834 33.967C195.133 43.5915 190.022 57.8885 190.022 57.8885C189.974 58.0233 190.051 58.1692 190.195 58.2144C190.338 58.2597 190.493 58.1872 190.541 58.0524C190.541 58.0524 195.682 43.6479 195.382 33.9519C195.316 31.8453 194.993 29.9585 194.315 28.4809C193.615 26.956 192.538 25.8604 190.988 25.3783C188.21 24.5144 183.666 24.5723 178.572 24.9393C171.009 25.4843 162.223 26.7002 156.283 26.4794C154.7 26.4205 148.417 25.3511 141.298 25.1099C134.6 24.8829 126.861 26.7691 124.431 27.7279C119.675 29.6043 115.658 32.4404 106.83 34.4622C102.445 35.4664 96.422 34.4751 91.4009 33.7618C87.9831 33.2761 85.0196 32.9245 83.3106 33.3651C78.5146 34.6014 64.2315 39.6273 60.5311 41.7036C55.8884 44.3085 43.0836 46.2012 38.1943 46.2558C38.0431 46.2575 37.922 46.374 37.9238 46.5162C37.9257 46.6583 38.0496 46.7721 38.2008 46.7705Z" fill="#ECF3FF"/>
<path fill-rule="evenodd" clip-rule="evenodd" d="M40.055 50.6952C44.3991 50.6467 62.7397 45.9435 66.8647 43.629C69.1239 42.3614 75.2508 39.5944 80.2106 38.0872C82.3091 37.4495 84.1948 37.0352 85.4789 37.0691C89.1249 37.1652 103.479 39.7275 109.961 38.2428C117.752 36.4587 124.132 34.4567 128.328 32.8008C130.432 31.9709 137.131 30.3418 142.929 30.5383C149.191 30.7505 156.116 31.1749 157.508 31.1237C163.864 30.8902 170.478 30.0024 176.059 29.7358C179.739 29.56 182.965 29.6518 185.359 30.3962C187.862 31.1747 188.969 33.7791 189.349 37.0133C190.263 44.7927 186.864 56.2286 186.864 56.2286C186.824 56.3655 186.909 56.5075 187.055 56.5457C187.2 56.5839 187.351 56.5039 187.392 56.367C187.392 56.367 190.816 44.8147 189.893 36.9568C189.486 33.4892 188.215 30.7422 185.531 29.9075C183.086 29.1471 179.791 29.0421 176.031 29.2217C170.452 29.4882 163.841 30.376 157.487 30.6093C156.098 30.6604 149.193 30.2355 142.948 30.0239C137.058 29.8243 130.254 31.4831 128.117 32.3262C123.939 33.9746 117.588 35.9666 109.832 37.7427C103.387 39.2186 89.1189 36.6501 85.4942 36.5545C84.1659 36.5195 82.213 36.9377 80.0423 37.5973C75.0406 39.1173 68.8625 41.9088 66.5842 43.187C62.5014 45.4778 44.3482 50.1325 40.0485 50.1805C39.8974 50.1821 39.7763 50.2987 39.7781 50.4409C39.7799 50.5829 39.9038 50.6968 40.055 50.6952Z" fill="#ECF3FF"/>
<path fill-rule="evenodd" clip-rule="evenodd" d="M43.0113 55.2135C47.3578 55.165 62.8932 50.4826 67.0205 48.1669C69.2796 46.8993 75.4066 44.1323 80.3664 42.625C82.4648 41.9873 84.3506 41.5731 85.6346 41.6069C89.2807 41.7031 103.634 44.2653 110.117 42.7807C117.908 40.9965 124.288 38.9945 128.484 37.3387C130.588 36.5088 137.286 34.8797 143.085 35.0762C149.355 35.2887 153.736 35.4751 155.126 35.361C156.488 35.2492 162.251 35.02 168.176 34.4285C171.26 34.1206 174.388 33.635 176.959 33.5814C178.622 33.5468 180.046 33.6884 181.056 34.2003C182.54 34.9528 183.225 36.2829 183.54 37.971C183.867 39.7302 183.792 41.8709 183.735 44.1806C183.586 50.1952 182.901 56.9463 182.901 56.9463C182.887 57.0878 182.997 57.2135 183.148 57.2269C183.298 57.2404 183.432 57.1367 183.446 56.9952C183.446 56.9952 184.132 50.2246 184.282 44.1926C184.34 41.8453 184.412 39.67 184.079 37.8822C183.733 36.0235 182.949 34.5757 181.315 33.7473C180.238 33.2009 178.721 33.0299 176.947 33.0668C174.362 33.1207 171.218 33.6072 168.118 33.9166C162.197 34.5076 156.439 34.7365 155.079 34.8482C153.696 34.9617 149.34 34.7731 143.104 34.5618C137.214 34.3622 130.409 36.0209 128.272 36.864C124.095 38.5125 117.743 40.5044 109.988 42.2806C103.543 43.7565 89.2747 41.188 85.65 41.0924C84.3217 41.0573 82.3687 41.4756 80.1981 42.1352C75.1963 43.6552 69.0182 46.4466 66.74 47.7249C62.6594 50.0144 47.3022 54.6509 43.0048 54.6988C42.8537 54.7004 42.7327 54.8171 42.7344 54.9592C42.7362 55.1013 42.8602 55.2152 43.0113 55.2135Z" fill="#ECF3FF"/>
<path fill-rule="evenodd" clip-rule="evenodd" d="M137.266 15.8697C135.95 14.7889 134.856 14.4298 134.011 14.6721C133.41 14.8443 132.905 15.3158 132.522 16.1024C131.844 17.409 132.571 18.5786 133.693 19.1375C134.805 19.6917 136.293 19.6268 137.128 18.5194C137.489 18.0399 137.772 16.7043 137.961 15.0633C138.296 12.1488 138.395 8.2497 138.421 6.73666C139.605 7.71352 141.356 8.6193 142.175 8.8984L142.374 8.38032C141.482 8.07582 139.414 6.98445 138.352 5.90937C138.27 5.82665 138.143 5.7992 138.031 5.84011C137.919 5.88095 137.845 5.98189 137.844 6.09477C137.844 6.09477 137.801 11.3346 137.378 15.0039C137.345 15.2929 137.308 15.5815 137.266 15.8697ZM137.232 16.1004L136.979 16.3662C136.38 15.862 135.839 15.5128 135.35 15.3196C134.912 15.1462 134.524 15.1012 134.182 15.1993C133.716 15.3327 133.351 15.7226 133.055 16.3326L133.051 16.3393C132.53 17.3389 133.11 18.2238 133.967 18.6505C134.834 19.0823 135.999 19.0634 136.649 18.2007C136.774 18.0354 136.878 17.7492 136.977 17.3776C137.072 17.0187 137.157 16.5854 137.232 16.1004Z" fill="#96BAFD"/>
<path fill-rule="evenodd" clip-rule="evenodd" d="M215.997 47.7213C216.776 45.3408 219.172 44.932 220.58 45.8157C221.988 46.6993 222.408 48.8755 221.629 51.256C221.106 53.0312 219.264 55.0313 217.677 56.4259C215.67 55.6444 213.198 54.3802 212.045 52.8912C210.427 50.9194 210.007 48.7433 210.995 47.4508C211.983 46.1583 214.379 45.7496 215.997 47.7213ZM90.7315 10.8118C91.3756 8.28493 93.7047 7.81747 95.1296 8.73037C96.5544 9.64328 97.0749 11.9365 96.4307 14.4634C96.0058 16.3469 94.3 18.4875 92.8134 19.9847C90.8063 19.1886 88.3197 17.8894 87.1141 16.3331C85.4291 14.2736 84.9086 11.9803 85.813 10.6C86.7173 9.21974 89.0465 8.75233 90.7315 10.8118Z" fill="#EF6A77"/>
<path fill-rule="evenodd" clip-rule="evenodd" d="M196.462 9.74579C196.462 9.74579 195.296 18.0186 194.407 23.7186C193.915 23.4923 192.082 22.2093 190.28 22.0625C188.362 21.9063 186.857 22.2916 186.287 23.6433C185.661 25.1254 186.6 28.106 188.821 29.0805C191.072 30.0685 194.511 28.9545 194.9 28.6326C195.793 27.8921 196.968 25.8977 197.419 23.2877C198.26 18.4174 199.328 14.142 199.514 12.0281L215.682 7.60347L212.314 22.9548C211.887 22.6694 211.205 21.9618 210.438 21.6381C209.558 21.2669 208.595 21.3011 208.252 21.3702C206.832 21.6566 205.316 22.7739 205.199 24.472C205.128 25.5072 205.93 27.193 207.495 28.2743C208.951 29.2798 211.162 29.3719 211.743 29.2205C213.493 28.7647 214.844 26.9974 215.339 25.479C216.719 21.2415 220.024 3.79541 220.024 3.79541C220.039 3.61695 219.952 3.43335 219.784 3.28584C219.616 3.13832 219.381 3.03925 219.131 3.0109L196.462 9.74579ZM48.2992 90.1658C48.2992 90.1658 45.0328 97.9251 42.6987 103.252C42.2802 102.92 40.833 101.257 39.1229 100.703C37.3023 100.114 35.7431 100.144 34.8409 101.325C33.8516 102.62 33.9926 105.726 35.8955 107.178C37.8246 108.65 41.4486 108.355 41.9084 108.131C42.9658 107.617 44.6212 105.95 45.7321 103.521C47.8048 98.9884 49.9448 95.0848 50.6711 93.0766L67.4979 92.4749L60.2681 106.598C59.9269 106.224 59.4483 105.382 58.7878 104.893C58.0303 104.332 57.0867 104.145 56.7362 104.134C55.2848 104.088 53.5259 104.826 52.9739 106.446C52.6374 107.434 52.9801 109.252 54.2199 110.659C55.3727 111.966 57.494 112.561 58.0967 112.546C59.9119 112.504 61.6784 111.097 62.55 109.737C64.9828 105.942 72.6932 89.7719 72.6932 89.7719C72.7534 89.6021 72.717 89.4042 72.5921 89.2228C72.4672 89.0413 72.2644 88.8915 72.0292 88.8069L48.2992 90.1658ZM168.422 0.684082C168.422 0.684082 164.193 5.36064 162.848 6.46015C162.76 6.28627 161.584 5.47171 161.146 5.16504C160.483 4.69999 159.325 4.54698 158.84 4.93728C158.462 5.24148 157.389 6.09797 158.117 7.65282C158.857 9.23289 160.646 9.44062 160.813 9.46053C161.151 9.50101 162.428 9.32418 163.923 8.32264C166.328 6.7115 169.169 3.91198 169.453 3.63861L172.389 6.30606C172.389 6.30606 168.303 10.9857 167.855 11.2145C167.695 11.2965 167.751 10.7106 167.608 10.4461C167.444 10.1429 167.179 9.91273 167.074 9.84401C166.638 9.55948 166.149 9.6317 165.653 9.80763C164.053 10.3757 164.287 13.1965 165.678 13.683C166.227 13.875 166.941 13.9345 167.368 13.7053C168.561 13.0655 174.838 6.58637 174.822 6.51071C174.805 6.43506 168.422 0.684082 168.422 0.684082ZM113.323 113.972C113.323 113.972 112.731 120.086 112.305 121.713C112.126 121.618 110.666 121.59 110.12 121.576C109.293 121.555 108.253 122.057 108.095 122.639C107.973 123.093 107.62 124.374 109.168 125.251C110.74 126.142 112.33 125.342 112.479 125.268C112.78 125.118 113.716 124.281 114.324 122.653C115.303 120.034 115.911 116.206 115.975 115.829L120.009 116.419C120.009 116.419 119.536 122.458 119.31 122.887C119.229 123.041 118.916 122.532 118.637 122.393C118.318 122.234 117.96 122.189 117.832 122.19C117.301 122.194 116.945 122.518 116.648 122.93C115.688 124.261 117.607 126.44 119.042 126.084C119.609 125.944 120.229 125.606 120.437 125.187C121.02 124.018 122.183 115.322 122.123 115.269C122.063 115.216 113.323 113.972 113.323 113.972ZM99.3463 69.7901C99.3463 69.7901 95.1172 74.4666 93.7723 75.5661C93.6843 75.3923 92.5079 74.5777 92.0702 74.271C91.4067 73.806 90.2491 73.653 89.7641 74.0433C89.386 74.3475 88.3131 75.204 89.041 76.7589C89.7806 78.3389 91.5704 78.5466 91.7372 78.5666C92.0751 78.607 93.3526 78.4302 94.8474 77.4286C97.252 75.8175 100.093 73.018 100.377 72.7446L103.313 75.4121C103.313 75.4121 99.2269 80.0917 98.7794 80.3205C98.6189 80.4026 98.6748 79.8166 98.532 79.5522C98.3682 79.2489 98.1033 79.0188 97.998 78.9501C97.5617 78.6655 97.0728 78.7377 96.5774 78.9136C94.9774 79.4818 95.2111 82.3025 96.6021 82.789C97.151 82.981 97.8648 83.0405 98.2922 82.8113C99.4849 82.1716 105.762 75.6923 105.746 75.6167C105.729 75.5411 99.3463 69.7901 99.3463 69.7901ZM155.155 50.1455C150.275 45.0913 144.179 49.3927 144.286 53.1521C144.539 62.0275 154.954 72.1357 159.939 73.4027C164.146 74.4719 169.103 71.4391 165.445 63.0473C163.853 59.3942 157.842 52.9292 155.155 50.1455Z" fill="#96BAFD"/>
<path fill-rule="evenodd" clip-rule="evenodd" d="M166.522 55.2195C166.522 55.2195 157.408 61.4661 156.54 64.3168C154.35 71.5081 160.669 74.5558 164.232 72.9573C166.844 71.7856 173.852 63.0702 173.852 63.0702C171.674 62.9798 169.975 62.2135 169.112 60.2688L165.994 60.9996L168.301 58.7781C166.928 57.9178 166.416 56.6979 166.522 55.2195Z" fill="#96BAFD"/>
<path fill-rule="evenodd" clip-rule="evenodd" d="M150.009 47.8034C142.83 47.053 136.65 47.4422 132.073 49.6586C132.073 49.6586 130.433 53.3359 130.986 59.2387C131.671 66.5471 136.181 75.0151 138.623 80.4634L142.706 83.2051C150.479 75.6659 157.963 75.0451 165.735 76.9015L165.87 71.283L150.009 47.8034Z" fill="#EBF2FF"/>
<path fill-rule="evenodd" clip-rule="evenodd" d="M144.844 28.9125C144.982 27.6022 144.695 26.6719 142.663 27.3C141.94 24.5654 140.537 24.1234 138.514 25.7686C137.851 24.0842 136.75 23.7219 134.57 26.6229C130.72 24.7581 128.726 25.1497 129.317 28.6833C125.751 28.9541 125.112 30.1839 127.265 32.3288C124.013 33.606 124.377 34.8831 126.758 36.1603L126.196 37.5907L133.443 43.8438L134.066 39.4995C137.451 35.9673 141.013 35.1089 144.722 36.4658L144.784 33.3264C146.234 31.7516 146.21 30.2835 144.844 28.9125Z" fill="#465393"/>
<path fill-rule="evenodd" clip-rule="evenodd" d="M140.176 38.927C138.535 37.2323 135.513 37.3087 133.872 39.0034C132.629 40.2872 134.035 48.5989 134.035 48.5989L145.05 50.9288C145.05 50.9288 142.483 47.7892 141.983 44.8487C141.566 42.3955 140.741 39.5109 140.176 38.927Z" fill="#BC775C"/>
<path fill-rule="evenodd" clip-rule="evenodd" d="M141.465 41.5715L136.04 39.5681L143.345 48.373C142.057 46.1922 141.774 43.9324 141.465 41.5715Z" fill="#93523E"/>
<path fill-rule="evenodd" clip-rule="evenodd" d="M142.6 31.5337C145.605 32.263 148.871 44.0148 145.56 44.9106C143.723 45.4077 139.452 44.9357 137.424 41.4158C137.245 41.1055 136.232 43.1545 134.674 42.4916C133.015 41.786 131.021 38.9532 130.614 37.912C130.238 36.951 130.56 35.4897 132.431 35.9171C133.641 36.1935 135.743 37.4825 135.83 37.2343C136.143 36.3404 135.125 33.3726 135.909 32.6419C137.545 31.1158 141.193 31.1921 142.6 31.5337Z" fill="#BC775C"/>
<path fill-rule="evenodd" clip-rule="evenodd" d="M183.546 125.21C180.551 123.124 176.133 123.574 174.241 126.595C172.14 129.951 172.814 146.73 172.814 146.73C184.966 147.868 199.249 150.372 194.148 140.466C192.728 137.708 187.225 136.238 185.866 133.042C184.544 129.931 185.182 126.351 183.546 125.21Z" fill="#1C85E8"/>
<path fill-rule="evenodd" clip-rule="evenodd" d="M177.895 65.863C177.521 65.884 176.493 65.1828 175.792 64.5674C174.507 63.4386 173.293 61.689 172.105 60.0048C166.28 51.7409 161.474 38.8857 148.699 38.5708L148.214 41.586C148.214 41.586 152.881 43.3504 157.775 49.776C161.413 54.5529 165.796 65.9316 169.075 71.8572C171.619 76.4554 173.287 79.5917 176.714 81.3728C176.975 81.5088 180.713 83.9154 184.575 81.938C188.892 79.727 194.626 71.9923 195.102 70.0109C196.415 64.5374 183.836 59.2887 181.492 59.16C179.167 59.0324 179.713 65.7609 177.895 65.863Z" fill="#FEBB94"/>
<path fill-rule="evenodd" clip-rule="evenodd" d="M161.014 46.9261C159.268 44.5577 156.417 48.0094 155.691 51.0847C155.376 52.4164 154.145 53.4913 153.217 54.4516C151.686 56.0357 146.975 59.0016 146.589 60.9259C145.692 65.3979 152.97 69.594 155.507 66.4718C157.046 64.5764 160.125 60.0705 161.064 56.4156C161.97 55.4295 162.288 54.2925 162.183 53.0471C163.635 51.5004 163.6 50.2533 162.478 49.2251C162.635 47.8763 161.96 47.3243 161.014 46.9261Z" fill="#BC775C"/>
<path fill-rule="evenodd" clip-rule="evenodd" d="M138.547 51.8089C133.667 46.7547 127.571 51.0561 127.678 54.8154C127.931 63.6909 138.346 73.799 143.331 75.066C147.538 76.1352 152.495 73.1025 148.837 64.7107C147.245 61.0576 141.235 54.5926 138.547 51.8089Z" fill="#96BAFD"/>
<path fill-rule="evenodd" clip-rule="evenodd" d="M165.942 76.8925C165.425 76.6264 163.199 76.3283 160.843 76.0925C158.727 75.8807 156.415 75.6605 156.675 76.5555C158.261 82.0124 163.659 104.866 168.13 110.641C169.908 112.936 169.462 126.182 171.725 129.774C172.896 131.633 177.029 127.857 180.592 127.201C185.475 126.303 187.198 128.49 188.111 127.652C190.011 125.907 188.237 109.747 187.971 108.114C186.665 100.115 171.979 80.0027 165.942 76.8925Z" fill="#465393"/>
<path fill-rule="evenodd" clip-rule="evenodd" d="M149.914 56.8829C149.914 56.8829 140.8 63.1296 139.932 65.9803C137.742 73.1716 144.061 76.2192 147.625 74.6208C150.236 73.4491 157.244 64.7336 157.244 64.7336C155.066 64.6433 153.367 63.877 152.504 61.9322L149.386 62.663L151.693 60.4416C150.32 59.5813 149.808 58.3613 149.914 56.8829Z" fill="#96BAFD"/>
<path d="M143.95 40.8198C144.633 40.8198 145.187 40.3068 145.187 39.6739C145.187 39.0411 144.633 38.528 143.95 38.528C143.266 38.528 142.712 39.0411 142.712 39.6739C142.712 40.3068 143.266 40.8198 143.95 40.8198Z" fill="white"/>
<path fill-rule="evenodd" clip-rule="evenodd" d="M170.766 52.6216C169.296 52.153 168.397 54.5002 168.397 54.5002L172.536 60.7731C172.536 60.7731 173.845 61.108 174.419 59.7329C175.862 56.2745 172.266 53.1001 170.766 52.6216Z" fill="#BC775C"/>
<path fill-rule="evenodd" clip-rule="evenodd" d="M172.502 54.0087C171.86 53.9675 171.289 54.0523 170.782 54.3349C170.279 54.6145 169.837 55.09 169.453 55.8392C169.443 55.86 169.443 55.8832 169.453 55.9039C169.463 55.9247 169.481 55.9413 169.505 55.9504C169.529 55.9595 169.556 55.9603 169.58 55.9527C169.604 55.945 169.624 55.9296 169.635 55.9095C169.999 55.1994 170.413 54.7455 170.89 54.4805C171.361 54.2183 171.891 54.143 172.488 54.1813C172.514 54.183 172.54 54.1755 172.56 54.1605C172.58 54.1455 172.593 54.1243 172.595 54.1014C172.597 54.0785 172.588 54.0558 172.571 54.0385C172.553 54.0211 172.529 54.0104 172.502 54.0087ZM173.708 55.9876C173.065 55.9464 172.495 56.0313 171.987 56.3138C171.484 56.5935 171.042 57.0689 170.658 57.8182C170.653 57.8286 170.65 57.8397 170.65 57.8511C170.649 57.8625 170.651 57.8737 170.656 57.8843C170.661 57.8949 170.668 57.9046 170.677 57.9129C170.686 57.9211 170.697 57.9277 170.709 57.9323C170.721 57.9369 170.734 57.9394 170.747 57.9397C170.76 57.94 170.773 57.9381 170.785 57.934C170.798 57.9299 170.809 57.9238 170.818 57.9159C170.828 57.9081 170.835 57.8987 170.841 57.8883C171.205 57.1783 171.619 56.7244 172.095 56.4593C172.566 56.1971 173.097 56.122 173.693 56.1601C173.719 56.1616 173.745 56.154 173.765 56.139C173.785 56.1241 173.797 56.1029 173.799 56.0802C173.801 56.0575 173.792 56.035 173.775 56.0177C173.758 56.0003 173.734 55.9895 173.708 55.9876ZM174.457 57.5357C173.942 57.5027 173.521 57.5401 173.152 57.6913C172.603 57.9161 172.163 58.3954 171.701 59.2975C171.69 59.3185 171.689 59.3423 171.699 59.3637C171.708 59.3851 171.727 59.4024 171.751 59.4117C171.776 59.421 171.803 59.4216 171.828 59.4134C171.853 59.4051 171.872 59.3887 171.883 59.3677C172.318 58.5186 172.721 58.0594 173.237 57.8478C173.578 57.7082 173.967 57.6778 174.442 57.7083C174.456 57.7093 174.469 57.708 174.482 57.7045C174.494 57.701 174.506 57.6954 174.516 57.688C174.526 57.6805 174.534 57.6715 174.54 57.6612C174.546 57.651 174.55 57.6399 174.551 57.6285C174.552 57.617 174.55 57.6056 174.546 57.5947C174.542 57.5838 174.535 57.5738 174.526 57.5652C174.518 57.5566 174.507 57.5495 174.495 57.5445C174.483 57.5394 174.47 57.5364 174.457 57.5357ZM160.799 47.089C159.257 47.7865 158.629 48.7082 158.242 49.8834C158.236 49.9024 158.239 49.9226 158.25 49.9397C158.261 49.9568 158.28 49.9694 158.302 49.9748C158.324 49.9802 158.347 49.9779 158.367 49.9686C158.387 49.9592 158.402 49.9434 158.408 49.9246C158.783 48.7885 159.389 47.8965 160.879 47.2221C160.922 47.2029 160.938 47.1576 160.916 47.1208C160.911 47.1121 160.904 47.1043 160.895 47.098C160.886 47.0917 160.876 47.0869 160.865 47.0839C160.854 47.081 160.843 47.0799 160.832 47.0808C160.82 47.0816 160.809 47.0845 160.799 47.089ZM162.131 52.8991C160.827 52.9892 159.659 53.6048 158.79 55.3294C158.781 55.3476 158.78 55.3682 158.789 55.3866C158.797 55.405 158.814 55.4197 158.835 55.4277C158.856 55.4356 158.879 55.436 158.901 55.4289C158.922 55.4217 158.939 55.4076 158.948 55.3895C159.783 53.7351 160.894 53.1353 162.145 53.0489C162.167 53.0465 162.187 53.0368 162.202 53.0218C162.216 53.0068 162.223 52.9876 162.221 52.9683C162.219 52.9489 162.209 52.9309 162.192 52.9181C162.175 52.9052 162.153 52.8984 162.131 52.8991ZM159.443 52.2505C160.147 50.7958 160.653 50.0048 162.442 49.6262C162.465 49.6214 162.484 49.6092 162.496 49.5922C162.508 49.5752 162.511 49.5547 162.506 49.5354C162.5 49.516 162.486 49.4993 162.467 49.489C162.447 49.4786 162.423 49.4755 162.401 49.4802C160.546 49.8728 160.012 50.6846 159.283 52.1925C159.274 52.2108 159.275 52.2311 159.283 52.2492C159.292 52.2673 159.309 52.2817 159.33 52.2893C159.351 52.2969 159.374 52.2971 159.395 52.2898C159.416 52.2826 159.433 52.2685 159.443 52.2505Z" fill="#93523E"/>
<path fill-rule="evenodd" clip-rule="evenodd" d="M191.962 60.2326C195.607 63.4554 196.981 67.6577 195.027 69.611C193.074 71.5643 188.529 70.5336 184.884 67.3109C181.239 64.0881 179.866 59.8859 181.819 57.9326C183.772 55.9793 188.317 57.0099 191.962 60.2326Z" fill="#EF6A77"/>
<path fill-rule="evenodd" clip-rule="evenodd" d="M145.674 127.703C143.297 125.003 138.893 124.446 136.287 126.952C135.065 128.128 131.878 131.044 130.104 134.642C127.675 139.567 126.76 145.302 126.76 145.302C131.125 149.349 153.437 154.712 150.888 144.169C150.165 141.181 144.359 138.799 143.853 135.39C143.361 132.072 146.972 129.179 145.674 127.703Z" fill="#1C85E8"/>
<path fill-rule="evenodd" clip-rule="evenodd" d="M168.46 116.895C173.736 110.796 163.133 98.7887 148.56 108.099C146.343 109.515 143.269 112.688 140.587 116.23C136.686 121.381 133.364 126.928 133.364 126.928C136.478 130.486 142.262 133.711 147.291 132.948C147.291 132.948 162.297 124.021 168.46 116.895Z" fill="#5661AE"/>
<path fill-rule="evenodd" clip-rule="evenodd" d="M161.125 76.1057C154.162 75.1092 145.497 78.5463 142.776 83.157C140.648 94.2508 148.681 112.399 153.088 117.088C159.786 124.216 170.92 120.652 169.812 109.072C169.319 103.92 161.125 76.1057 161.125 76.1057Z" fill="#5661AE"/>
<path fill-rule="evenodd" clip-rule="evenodd" d="M145.416 80.714C145.499 88.0453 148.546 94.1417 150.736 99.5571C152.181 103.132 153.254 106.407 152.818 109.546C152.809 109.606 152.742 109.714 152.636 109.871C152.348 110.298 151.769 111.015 150.992 111.925C146.53 117.159 135.581 128.753 135.581 128.753L135.819 128.951C135.819 128.951 146.775 117.349 151.241 112.112C152.027 111.19 152.613 110.464 152.905 110.031C153.048 109.819 153.122 109.665 153.133 109.585C153.575 106.4 152.5 103.077 151.033 99.4508C148.855 94.0644 145.817 88.0027 145.734 80.7108L145.416 80.714Z" fill="#EBF2FF"/>
<path fill-rule="evenodd" clip-rule="evenodd" d="M92.8965 123.521C92.1401 121.148 89.8112 120.741 88.4428 121.622C87.0742 122.503 86.6662 124.672 87.4227 127.045C87.9317 128.815 89.7216 130.808 91.2643 132.199C93.215 131.42 95.617 130.159 96.7381 128.675C98.3106 126.71 98.7186 124.54 97.7583 123.252C96.7978 121.963 94.469 121.556 92.8965 123.521ZM214.642 86.7273C214.016 84.2083 211.752 83.7423 210.367 84.6524C208.982 85.5624 208.477 87.8485 209.103 90.3675C209.516 92.2451 211.174 94.379 212.618 95.8715C214.569 95.0779 216.986 93.7828 218.157 92.2313C219.795 90.1782 220.301 87.8922 219.422 86.5162C218.543 85.1402 216.279 84.6743 214.642 86.7273Z" fill="#EF6A77"/>
<path fill-rule="evenodd" clip-rule="evenodd" d="M192.65 35.6445C192.438 33.149 194.484 31.8374 196.125 32.1015C197.767 32.3655 199.003 34.2052 199.215 36.7007C199.426 38.5396 198.511 41.0998 197.594 43.0033C195.441 43.0671 192.672 42.8677 191.029 41.947C188.769 40.7631 187.534 38.9234 187.939 37.3478C188.344 35.7721 190.391 34.4606 192.65 35.6445ZM62.9133 50.5513C62.5201 47.9735 64.4821 46.634 66.1503 46.9184C67.8184 47.2029 69.1926 49.1111 69.5857 51.689C69.9296 53.589 69.1945 56.2255 68.4101 58.1842C66.2515 58.2346 63.455 58.0089 61.7377 57.0465C59.3825 55.808 58.0083 53.8997 58.3022 52.276C58.5961 50.6522 60.5582 49.3128 62.9133 50.5513Z" fill="#EF6A77"/>
<g clip-path="url(#clip0_0_1)">
<path d="M242.281 67.7294C241.631 67.4389 241.347 66.6604 241.646 65.9909L248.96 49.6282C249.26 48.9587 250.029 48.6513 250.679 48.9418C251.329 49.2324 251.613 50.0108 251.314 50.6804L244 67.043C243.7 67.7125 242.931 68.02 242.281 67.7294ZM264.501 71.6989C263.851 71.4084 263.566 70.6299 263.866 69.9603L271.18 53.5977C271.48 52.928 272.249 52.6208 272.899 52.9113C273.549 53.2018 273.833 53.9802 273.534 54.6498L266.219 71.0125C265.92 71.682 265.15 71.9894 264.501 71.6989ZM287.433 58.3014C286.784 58.0109 286.499 57.2325 286.799 56.5628L289.996 49.4091C290.296 48.7394 291.065 48.4322 291.715 48.7226C292.365 49.0131 292.65 49.7915 292.35 50.4612L289.152 57.6149C288.853 58.2846 288.083 58.5919 287.433 58.3014Z" fill="#C4D3D6"/>
<path d="M254.746 33.5059C256.696 34.3775 259.004 33.4555 259.902 31.4466C260.8 29.4376 259.948 27.1025 257.998 26.2309C256.048 25.3593 253.739 26.2813 252.841 28.2902C251.943 30.2991 252.796 32.6342 254.746 33.5059Z" fill="#F5F9FD"/>
<path d="M300.429 48.1809L289.454 50.6216L294.929 38.3754L300.429 48.1809Z" fill="#96BAFD"/>
<path d="M281.735 61.5731C284.335 62.7353 287.413 61.506 288.61 58.8274C289.808 56.1489 288.671 53.0353 286.071 51.8732C283.471 50.711 280.393 51.9403 279.195 54.6189C277.998 57.2975 279.135 60.411 281.735 61.5731Z" fill="#96BAFD"/>
<path d="M273.534 54.6498L273.221 55.3494L248.494 50.6722L251.995 42.8407L276.785 47.3773L273.534 54.6498ZM263.568 65.1021C266.005 66.1915 267.07 69.1088 265.948 71.6186C264.826 74.1297 261.942 75.2815 259.505 74.192C257.068 73.1031 256.003 70.1857 257.126 67.6747C258.248 65.1649 261.132 64.0131 263.568 65.1021ZM241.439 60.9289C243.877 62.0184 244.941 64.9369 243.819 67.4467C242.697 69.9566 239.813 71.1097 237.375 70.0202C234.939 68.9313 233.875 66.0128 234.997 63.5029C236.119 60.993 239.003 59.84 241.439 60.9289Z" fill="#96BAFD"/>
</g>
<path d="M30.7222 128.24H2.0182C2.0182 128.24 -0.466784 137.165 7.84811 143.199C7.84811 143.355 11.6636 143.482 16.3702 143.482C21.0768 143.482 24.8923 143.355 24.8923 143.199C33.2072 137.165 30.7222 128.24 30.7222 128.24Z" fill="#F9DBDB"/>
<path d="M24.8923 143.199C26.5415 142.002 27.7655 140.692 28.6687 139.36C10.2536 140.475 8.65803 130.801 8.55683 128.24H2.0182C2.0182 128.24 -0.466784 137.165 7.84811 143.199C7.84811 143.355 11.6636 143.482 16.3702 143.482C21.0768 143.482 24.8923 143.355 24.8923 143.199Z" fill="#F9D2D2"/>
<path d="M16.3701 128.522C24.2964 128.522 30.7221 128.396 30.7221 128.24C30.7221 128.084 24.2964 127.957 16.3701 127.957C8.44367 127.957 2.01807 128.084 2.01807 128.24C2.01807 128.396 8.44367 128.522 16.3701 128.522Z" fill="#E3BFBF"/>
<path d="M27.4285 128.42C29.5712 126.803 33.0613 123.323 32.5478 117.79C32.0187 112.088 25.3464 112.191 25.3464 112.191C25.3464 112.191 29.1757 109.601 28.6686 105.642C28.1614 101.683 24.4336 102.643 24.4336 102.643C24.4336 102.643 27.5541 97.9641 26.1341 94.7248C24.7141 91.4855 20.5556 92.5053 20.5556 92.5053C20.8599 90.8256 20.5556 85.0669 15.0785 85.5468C9.60142 86.0267 12.34 93.4051 12.34 93.4051C11.2243 93.0451 8.3843 93.1651 6.86594 94.1402C3.11616 97.0349 8.99161 103.183 8.99161 103.183C8.99161 103.183 4.52882 103.303 3.51453 105.897C2.50024 108.492 6.26538 112.616 6.26538 112.616C4.12273 112.451 -0.619008 113.561 0.598116 120.039C1.81524 126.518 6.26529 128.44 6.26538 128.44C8.85908 128.491 12.4289 128.522 16.3701 128.522C20.8196 128.522 24.7961 128.482 27.4285 128.42Z" fill="#9CAD65"/>
<path d="M29.6614 126.361C13.5982 126.527 13.8317 117.787 14.6685 114.035C14.8808 113.083 14.312 112.125 13.1207 111.473C8.90867 109.166 10.2724 105.96 11.5698 104.151C12.1991 103.273 12.0838 102.274 11.2623 101.453C6.12491 96.3245 12.34 93.405 12.34 93.405C11.2243 93.0451 8.3843 93.1651 6.86594 94.1402C3.11616 97.0349 8.99161 103.183 8.99161 103.183C8.99161 103.183 4.52882 103.303 3.51453 105.897C2.50024 108.492 6.26538 112.616 6.26538 112.616C4.12273 112.451 -0.619008 113.561 0.598116 120.039C1.81524 126.518 6.26529 128.44 6.26538 128.44C8.85908 128.491 12.4289 128.522 16.3701 128.522C20.8197 128.522 24.7961 128.482 27.4286 128.42C28.096 127.916 28.8942 127.232 29.6614 126.361Z" fill="#90A05D"/>
<path d="M288 122.081C276.432 122.081 267.055 121.71 267.055 121.251C267.055 120.792 276.432 120.421 288 120.421C299.567 120.421 308.945 120.792 308.945 121.251C308.945 121.71 299.567 122.081 288 122.081Z" fill="#C0D7ED"/>
<path d="M288 132.424C276.957 132.424 268.005 122.128 268.005 109.426C268.005 96.7254 276.957 86.4291 288 86.4291C299.043 86.4291 307.995 96.7254 307.995 109.426C307.995 122.128 299.043 132.424 288 132.424Z" fill="#90A05D"/>
<path d="M288 86.4291C295.612 86.4291 302.23 91.3217 305.608 98.5218C303.098 98.9647 298.535 99.2204 293.882 96.7187C286.927 92.9806 290.052 90.7643 286.726 88.3679C285.657 87.5976 284.552 87.2681 283.556 86.9996C284.985 86.6265 286.473 86.4291 288 86.4291Z" fill="#9CAD65"/>
<path d="M275.625 91.3625C274.996 93.0197 274.775 95.2432 275.808 98.0383C278.361 104.948 284.274 102.095 289.917 107.156C294.784 111.52 298.952 118.191 306.815 117.227C305.126 122.613 301.74 127.066 297.398 129.73C291.371 130.099 284.408 128.441 284.408 128.441C284.408 128.441 284.873 122.305 279.599 120.421C273.422 118.213 273.422 116.115 273.422 111.432C273.422 106.843 269.877 106.834 268.379 104.978C269.315 99.4887 271.948 94.6991 275.625 91.3625Z" fill="#879657"/>
<path d="M288 122.081C299.568 122.081 308.945 121.71 308.945 121.251V133.82C308.945 138.101 304.454 141.571 298.914 141.571H277.086C271.546 141.571 267.055 138.101 267.055 133.82V121.251C267.055 121.71 276.433 122.081 288 122.081Z" fill="#F9D2D2"/>
<path d="M308.89 134.634C308.364 138.532 304.098 141.571 298.914 141.571H277.086C271.546 141.571 267.055 138.101 267.055 133.82V121.251C267.055 121.645 273.974 121.975 283.257 122.06C283.019 125.722 285.032 134.277 308.89 134.634Z" fill="#F9DBDB"/>
<defs>
<clipPath id="clip0_0_1">
<rect width="66" height="68" fill="white" transform="translate(251.751 11) rotate(24.0855)"/>
</clipPath>
</defs>
</svg>
