<svg width="428" height="251" viewBox="0 0 428 251" fill="none" xmlns="http://www.w3.org/2000/svg">
<path d="M306.831 90.9017C307.037 91.0366 307.237 91.1472 307.517 91.1647C307.792 91.1818 307.977 90.9578 307.882 90.7389C307.862 90.6933 307.839 90.6508 307.817 90.6068L308.219 90.7481C308.584 90.8768 308.9 90.4021 308.554 90.2145C308.165 90.0036 307.764 89.8104 307.343 89.6513C307.146 89.5771 306.947 89.5096 306.745 89.4488C306.61 89.4084 306.474 89.3711 306.336 89.3371C306.28 89.3183 306.235 89.304 306.202 89.2945C306.103 89.2121 305.957 89.1736 305.824 89.2296L305.789 89.2444C305.723 89.2734 305.667 89.3178 305.629 89.3726C303.97 88.0462 301.861 87.0976 299.558 87.0692C298.474 87.0558 297.406 87.243 296.426 87.6443C295.185 88.1527 294.122 88.8216 292.674 88.5511C291.394 88.312 289.993 87.6812 289.151 86.8085C288.206 85.8286 287.753 84.493 287.205 83.3275C286.517 81.8631 285.875 79.4843 283.909 78.9254C283.918 78.8945 283.924 78.8627 283.926 78.8286C283.939 78.6176 283.801 78.464 283.62 78.3917C283.601 78.3726 283.579 78.3563 283.555 78.3434C283.115 78.1176 282.504 78.2357 282.311 78.6736C282.113 79.1233 282.474 79.6317 283.037 79.6609C283.265 79.6727 283.499 79.5956 283.665 79.4696C284.885 79.8673 285.368 81.0264 285.833 82.0241C286.353 83.1393 286.85 84.2654 287.399 85.3702C288.343 87.2694 289.974 88.5908 292.335 89.1118C294.648 89.6223 296.179 88.0724 298.336 87.7596C300.813 87.4004 303.142 88.3153 304.982 89.6814V89.6829C305.026 90.251 305.248 90.806 305.601 91.2871C305.831 91.6021 306.307 92.2492 306.814 92.2506C307.478 92.2523 307.234 91.5785 306.831 90.9017Z" fill="#1A1A1A"/>
<path d="M265.862 75.0131C266.308 74.2457 289.694 73.862 290.808 75.0131C291.921 76.1642 299.717 93.4304 299.271 94.3896C298.826 95.3489 274.972 95.8677 274.081 95.4839C273.19 95.1003 265.417 75.7805 265.862 75.0131Z" fill="#313738"/>
<path d="M287.954 90.2473C287.623 87.3995 287.146 84.2444 284.54 82.2117C282.189 80.3775 278.453 80.3265 275.847 81.8131C275.493 82.0152 275.815 82.5035 276.183 82.3079C278.756 80.9392 282.292 81.0522 284.412 83.0064C286.526 84.9547 286.882 87.7181 287.223 90.2473C287.277 90.6432 288.002 90.6531 287.954 90.2473Z" fill="#1A1A1A"/>
<path d="M299.726 94.1221C298.465 90.6102 297.081 87.1318 295.564 83.6957C294.805 81.9778 294.015 80.2705 293.192 78.5745C292.849 77.8656 292.5 77.1587 292.146 76.4538C291.852 75.8695 291.622 75.2191 291.003 74.8294C289.694 74.0057 287.582 74.2393 286.06 74.2587C283.841 74.2869 281.622 74.3232 279.403 74.3676C274.97 74.4565 270.517 74.5018 266.094 74.7738C265.595 74.8045 265.582 75.4551 266.094 75.4513C270.086 75.4217 274.08 75.2427 278.072 75.1572C280.142 75.1127 282.213 75.0755 284.284 75.0453C285.301 75.0304 286.319 75.0085 287.336 75.0065C288.246 75.0047 289.333 74.9507 290.165 75.3116C291.049 75.6951 291.345 76.7622 291.718 77.5142C292.151 78.3852 292.574 79.2593 292.989 80.1366C293.714 81.6684 294.413 83.2092 295.086 84.7585C296.457 87.9148 297.715 91.1059 298.871 94.3254C299.039 94.7939 299.896 94.5939 299.726 94.1221Z" fill="#232828"/>
<path d="M237.985 178.558C237.985 178.558 237.03 187.441 239.704 188.099C242.378 188.757 246.197 184.48 253.073 183.658C259.948 182.835 267.396 179.71 267.396 179.71L263.195 163.589L247.534 167.372L237.985 178.558Z" fill="#1A1A1A"/>
<path d="M305.051 238.314C305.12 239.477 294.768 239.585 281.906 239.585C269.045 239.585 258.557 239.754 258.475 238.314C258.413 237.2 268.949 237.043 281.811 237.043C294.672 237.043 304.956 236.704 305.051 238.314Z" fill="#766782"/>
<path d="M268.366 96.7954C268.366 96.7954 263.598 100.055 264.125 101.026C264.125 101.026 259.728 102.715 260.137 105.745C260.476 108.255 274.066 110.096 274.066 110.096L276.184 96.0119L268.366 96.7954Z" fill="#4E0C09"/>
<path d="M273.287 107.099C273.547 107.518 273.83 107.926 274.074 108.356C274.532 109.163 274.959 109.986 275.434 110.784C276.198 112.07 277.106 113.313 278.337 114.2C279.289 114.886 280.4 115.332 281.522 115.692C283.657 116.376 286 116.767 288.105 116.08C289.255 115.705 290.36 114.908 290.605 113.757C290.884 112.448 289.99 111.13 290.035 109.79C290.066 108.875 290.53 108.044 290.888 107.203C291.963 104.679 291.534 98.4149 289.311 96.6149C288.446 95.9146 289.731 93.0053 289.206 90.4903C288.682 87.9752 287.049 87.6891 285.196 87.4761C284.804 87.4321 283.32 82.3957 279.777 81.7078C277.556 81.2768 276.928 82.8722 276.928 82.8722C276.555 83.3045 273.317 81.3095 270.572 83.9987C268.815 85.7214 269.855 90.6749 269.855 90.6749C270.296 92.1466 270.35 92.4041 270.792 93.8757C271.3 95.5685 271.712 97.2692 272.392 98.9024C273.023 100.415 272.141 104.364 272.683 105.9C272.833 106.324 273.05 106.716 273.287 107.099Z" fill="#4E0C09"/>
<path d="M248.65 168.265C248.511 168.913 246.047 179.697 248.315 182.302C251.856 186.369 260.317 185.352 260.317 185.352V170.269L248.65 168.265Z" fill="#933B16"/>
<path d="M311.869 182.651C310.606 183.197 303.09 179.387 298.767 178.395C298.104 178.245 297.302 177.986 296.84 177.991C295.979 178.004 292.725 178 291.283 178.175C286.619 178.74 282.517 180.448 277.591 181.908C275.215 182.612 273.193 183.184 271.493 183.645C266.245 185.07 264.066 185.45 264.066 185.45L268.497 172.581C268.497 172.581 269.034 172.351 273.833 172.348C275.949 172.345 278.897 172.389 282.994 172.515C288.587 172.687 290.909 172.147 291.453 171.991C292.144 171.792 293.145 170.887 294.236 170.369C295.62 169.712 296.864 168.945 297.708 169.019C299.218 169.154 304.477 172.159 307.808 175.657C311.14 179.154 313.328 182.024 311.869 182.651Z" fill="#B7522A"/>
<path d="M308.992 175.767C312.532 179.175 313.522 182 312.064 182.628C310.8 183.172 302.996 179.365 298.671 178.375C298.3 177.97 297.759 177.159 298.424 176.395C299.361 175.319 300.714 174.512 300.037 173.122C299.413 171.838 295.796 170.413 294.349 170.266C296.742 169.117 297.059 168.921 297.903 168.996C299.413 169.131 305.489 172.395 308.992 175.767Z" fill="#AEBFD1"/>
<path d="M281.959 237.72C281.221 238.737 260.12 239.076 259.726 238.059C259.333 237.043 260.71 236.195 262.087 235.856C262.906 235.655 267.431 233.484 270.014 231.319C271.061 230.443 271.791 229.567 271.826 228.823C271.836 228.614 271.86 228.402 271.848 228.186C271.352 219.124 252.208 189.926 252.151 184.759C252.053 176.031 257.955 153.491 257.955 153.491L265.432 182.81C265.432 182.81 275.287 191.33 276.664 207.769C277.828 221.656 278.418 226.535 279.992 230.602C280.031 230.706 280.073 230.807 280.112 230.907C280.515 231.926 280.901 232.79 281.233 233.534C282.156 235.604 282.664 236.748 281.959 237.72Z" fill="#B7522A"/>
<path d="M264.153 130.696C264.153 130.696 256.48 141.712 253.332 149.677C250.184 157.643 247.534 173.952 247.534 173.952C247.534 173.952 259.549 181.305 266.632 183C266.632 183 284.025 160.185 286.583 151.033C289.141 141.882 285.599 132.899 285.599 132.899L272.679 129.396L264.153 130.696Z" fill="#FA8E80"/>
<path d="M265.038 179.082C264.968 179.082 264.899 179.065 264.839 179.035C264.779 179.004 264.729 178.961 264.695 178.908C264.661 178.855 264.644 178.796 264.645 178.736C264.647 178.675 264.667 178.616 264.703 178.565C264.866 178.337 281.025 155.664 282.761 150.348C284.491 145.048 283.545 135.819 283.535 135.726C283.525 135.637 283.558 135.548 283.624 135.479C283.691 135.41 283.787 135.366 283.891 135.358C283.995 135.35 284.099 135.378 284.179 135.435C284.259 135.493 284.309 135.575 284.319 135.665C284.359 136.048 285.289 145.111 283.519 150.532C281.753 155.938 266.042 177.984 265.374 178.92C265.338 178.97 265.289 179.01 265.23 179.039C265.172 179.067 265.105 179.082 265.038 179.082Z" fill="#E66F64"/>
<path d="M281.959 237.72C281.221 238.737 260.12 239.076 259.726 238.059C259.333 237.043 260.71 236.195 262.087 235.856C262.906 235.655 267.431 233.484 270.014 231.319C270.453 231.165 271.012 231.079 271.335 231.45C271.925 232.128 273.302 234.161 275.27 234.5C276.761 234.758 279.832 233.944 281.233 233.534C282.156 235.604 282.664 236.748 281.959 237.72Z" fill="#AEBFD1"/>
<path d="M227.309 52.2858C226.627 52.2795 225.924 52.4848 225.463 52.9178C225.029 53.3258 224.848 53.8863 224.744 54.4323C224.639 54.9783 224.595 55.5387 224.373 56.058C224.151 56.5773 223.709 57.0658 223.088 57.2086C223.209 57.2902 224.96 58.6813 225.089 58.444C225.487 57.7098 225.709 56.9142 225.743 56.1045C225.773 55.3631 225.66 54.5636 226.111 53.9315C226.418 53.4998 226.965 53.213 227.544 53.1249C227.851 53.0782 228.166 53.0849 228.472 53.1332C228.686 53.1669 229.05 53.3672 229.243 53.3565C229.6 53.3368 229.4 52.9394 229.19 52.7557C228.742 52.3634 227.913 52.2913 227.309 52.2858Z" fill="#C1272D"/>
<path d="M228.604 53.9323C228.761 52.7415 228.873 50.3123 229.253 49.8862C229.363 49.7631 229.523 49.6555 229.703 49.6631C229.823 49.6683 229.932 49.7244 230.03 49.7851C230.427 50.0303 230.661 50.5284 230.728 52.6928C230.454 52.9722 229.88 54.2275 229.695 54.2428C229.541 54.2552 228.799 54.0267 228.604 53.9323Z" fill="#A54B22"/>
<path d="M228.52 54.437C228.614 54.3164 229.297 40.7829 229.98 40.1946C230.663 39.6062 237.039 40.7829 238.405 43.5289C239.772 46.2749 231.346 56.8663 231.346 56.8663L228.52 54.437Z" fill="#F1E6DC"/>
<path d="M231.712 41.1988C231.15 45.2052 230.622 49.2029 229.84 53.1845C229.797 53.4062 230.19 53.502 230.235 53.2782C231.038 49.2847 231.769 45.2422 232.129 41.1988C232.149 40.9654 231.744 40.975 231.712 41.1988Z" fill="#DDCABA"/>
<path d="M232.017 56.2165C232.017 56.2165 232.983 55.1454 233.076 54.6328C233.168 54.1202 231.239 51.6713 228.674 52.2093L228.312 54.4407L232.017 56.2165Z" fill="#ED1C24"/>
<path d="M235.148 68.5249C233.838 64.6578 233.283 62.0504 233.342 61.375C233.491 59.6625 233.704 57.0743 233.42 56.6951C233.025 56.1662 231.998 55.374 231.56 54.0285C231.118 52.6743 231.462 52.1897 230.716 52.354C229.97 52.5182 229.71 53.761 229.71 53.761C229.71 53.761 228.342 52.8987 227.655 53.5291C226.968 54.1594 227.843 54.4497 227.229 54.7901C226.615 55.1307 226.283 55.1767 226.264 55.8238C226.242 56.5796 226.66 56.3528 226.177 56.8695C225.695 57.3863 225.711 57.7488 226.003 58.5747C226.231 59.2187 226.549 59.5413 227.043 60.2443C227.649 61.1063 231.495 80.6583 231.492 81.6659C231.492 81.6658 235.394 69.2508 235.148 68.5249Z" fill="#A54B22"/>
<path d="M230.831 57.2586C230.744 57.5614 230.476 57.8346 230.317 58.1006C230.184 58.3229 230.087 58.5602 230.029 58.8056C229.85 59.5615 229.963 60.358 230.155 61.1029C230.155 61.1029 230.014 63.8995 229.487 65.3685C229.401 65.6054 229.305 65.7831 229.2 65.8736C228.436 66.5316 223.089 64.5576 222.898 62.9125C222.856 62.544 222.965 62.1591 223.177 61.7741C223.595 61.0162 224.289 60.3767 224.994 59.8091C225.345 59.5283 225.708 59.2599 226.084 59.0047C226.247 58.8937 226.411 58.7849 226.578 58.6782C226.719 58.5883 226.896 58.4241 227.068 58.3962C227.174 58.3791 227.282 58.3931 227.389 58.4022C227.622 58.4222 227.857 58.4189 228.089 58.3927C228.3 58.3689 228.542 58.3007 228.607 58.1264C228.674 57.9473 228.524 57.7205 228.666 57.5776C228.742 57.501 228.871 57.4869 228.974 57.4392C229.13 57.3673 229.222 57.2167 229.241 57.0654C229.259 56.9141 229.213 56.7621 229.148 56.6205C229.1 56.5141 229.039 56.4008 229.073 56.2902C229.126 56.1159 229.368 56.0547 229.542 55.954C229.822 55.7911 229.793 55.3753 230.004 55.2579C230.128 55.3928 230.163 55.6618 230.241 55.8328C230.413 56.2045 230.78 56.5641 230.85 56.9634C230.866 57.0619 230.86 57.1622 230.831 57.2586Z" fill="#F1E6DC"/>
<path d="M229.214 64.3468C228.973 65.1065 227.643 65.5307 226.512 65.279C225.725 65.104 222.41 63.5388 223.186 62.4685C223.946 61.4207 226.721 62.7822 227.308 63.3428C227.646 63.6658 227.849 64.1122 227.287 64.3524C226.567 64.6609 225.545 64.0938 225.041 63.6875C224.894 63.5694 225.021 63.3899 225.191 63.3743C225.34 63.3606 225.354 63.3619 225.494 63.4001C225.627 63.4363 225.663 63.5459 225.632 63.6354C225.999 63.8759 226.553 64.1698 226.84 64.0574C227.642 63.7433 226.166 63.0542 225.983 62.9729C225.594 62.8005 225.173 62.6544 224.743 62.578C224.581 62.5492 224.409 62.5278 224.243 62.5247C223.843 62.5176 223.779 62.4829 223.704 62.826C223.569 63.4465 225.041 64.2401 225.556 64.508C226.194 64.8397 226.933 65.0928 227.693 64.9704C228.627 64.82 229.174 64.1629 228.499 63.4498C227.829 62.8448 226.911 62.3942 226.037 62.0764C225.97 62.0512 225.902 62.0265 225.833 62.0024C226.692 60.9272 227.473 59.8082 228.175 58.6514C228.281 58.4771 227.976 58.3208 227.867 58.4968C227.149 59.6647 226.356 60.7948 225.501 61.8888C224.789 61.6585 223.977 61.4809 223.278 61.7341C223.242 61.7473 223.209 61.7604 223.177 61.7736C222.965 62.1586 222.856 62.5435 222.898 62.912C223.089 64.557 228.436 66.5311 229.2 65.8731C229.305 65.7826 229.401 65.6049 229.487 65.368C229.478 64.9972 229.377 64.6584 229.214 64.3468Z" fill="#DDCABA"/>
<path d="M228.271 51.8032C227.938 51.4364 227.729 50.9893 227.359 50.6494C226.69 50.0353 225.509 49.8962 224.673 50.3332C223.652 50.8672 223.317 52.0119 222.468 52.7361C221.707 53.3859 220.522 53.64 219.495 53.3737C219.01 53.2478 218.553 53.0145 218.047 52.9921C218.132 53.3917 218.042 53.8014 218.021 54.2073C218 54.6132 218.065 55.0556 218.393 55.3479C218.705 55.6273 219.192 55.7073 219.642 55.6893C220.241 55.6644 220.82 55.4948 221.312 55.1998C221.885 54.8547 222.308 54.3579 222.706 53.862C223.103 53.3662 223.492 52.8545 224.021 52.4601C224.55 52.0657 225.251 51.7968 225.943 51.8866C226.764 51.9932 227.39 52.5628 228.148 52.8569C228.593 53.0293 229.08 53.1049 229.568 53.0773C229.853 52.6824 229.603 52.6394 229.229 52.4761C228.858 52.3142 228.528 52.0857 228.271 51.8032Z" fill="#ED1C24"/>
<path d="M311.247 131.139C311.236 131.166 311.228 131.206 311.19 131.229C310.489 131.667 305.168 134.248 303.201 134.619C301.442 134.95 299.206 135.577 297.525 134.769C297.031 134.532 296.576 134.187 296.015 134.129C295.403 134.068 294.758 134.363 294.187 134.162C293.591 133.953 293.398 133.33 293.064 132.856C292.768 132.439 292.328 132.113 291.805 131.923C290.568 131.477 288.482 129.516 287.667 128.72C287.558 128.615 287.46 128.525 287.373 128.452C286.45 127.682 286.626 128.623 286.779 129.464C286.996 130.645 286.886 131.897 286.849 133.122C286.836 133.525 286.832 133.925 286.851 134.318C287.046 138.424 288.805 142.027 289.766 145.998C290.356 148.441 290.413 150.957 289.934 153.417C289.533 155.472 288.755 157.523 289.03 159.593C289.334 161.874 290.889 163.921 291.223 166.199C291.465 167.844 291.059 169.538 291.448 171.164C291.698 172.205 292.265 173.166 292.827 174.113C293.952 176.015 295.077 177.915 296.202 179.815C296.503 180.325 296.807 180.8 296.471 181.289C295.638 182.494 293.159 183.449 291.783 184.088C290.01 184.911 288.152 185.588 286.282 186.228C282.602 187.489 278.823 188.594 275.385 190.314C274.328 190.843 273.289 191.436 272.109 191.707C263.326 193.726 263.506 180.927 261.879 176.732C261.302 175.245 260.484 173.834 259.906 172.346C258.861 169.658 258.601 166.628 259.088 163.835C256.592 167.972 254.428 171.164 251.14 173.537C249.325 174.847 247.284 175.898 245.338 177.059C243.392 178.221 241.507 179.522 240.166 181.203C238.825 182.884 238.077 185 238.583 186.992C237.238 185.102 237.045 182.675 237.256 180.515C237.487 178.101 238.274 175.737 239.351 173.504C241.513 169.025 244.706 164.939 246.595 160.369C248.243 156.386 248.875 152.047 251.365 148.345C253.16 145.68 254.625 142.862 255.931 139.998C257.079 137.483 258.737 134.621 259.1 131.925C259.434 129.454 260.146 127.332 259.094 124.902C258.105 122.619 257.255 120.771 257.003 118.325C256.781 116.18 255.779 114.477 253.687 113.232C251.844 112.133 249.654 111.337 248.361 109.759C247.733 108.994 247.358 108.086 246.669 107.362C245.372 105.995 243.168 105.477 241.82 104.148C240.363 102.71 240.172 100.603 238.932 99.0204C237.704 97.4528 235.567 96.548 234.339 94.9819C233.415 93.804 233.09 92.3647 232.51 91.0355C231.803 89.4234 230.71 87.9676 229.504 86.6021C228.463 85.4226 227.112 84.3781 226.528 82.9567C226.201 82.1638 226.224 81.0551 226.465 80.2391C229.009 71.6306 232.878 67.5641 234.582 66.6462C235.512 69.0201 240.267 78.8656 244.671 87.1746C247.326 92.1788 259.132 101.074 262.497 102.524C262.497 102.524 262.545 102.543 262.639 102.569C262.727 102.595 262.856 102.626 263.03 102.659C263.624 102.775 264.728 102.886 266.434 102.694C267.314 102.595 268.794 102.473 269.367 102.309C269.367 102.309 274.565 102.498 275.465 103.156C278.024 105.022 278.221 104.851 278.221 104.851C278.221 104.851 282.942 109.088 284.178 109.847C284.271 109.906 284.37 109.968 284.474 110.041C284.582 110.116 284.687 110.193 284.791 110.273C285.768 111.018 286.836 111.87 287.608 112.781C288.368 113.679 289.051 114.446 290.236 114.997C290.875 115.295 293.524 117.022 293.881 117.568C294.162 117.999 294.162 118.568 294.578 118.909C294.716 119.021 294.886 119.098 295.044 119.189C295.434 119.414 295.753 119.743 295.936 120.116C296.026 120.301 296.036 120.881 296.278 120.959C296.477 121.021 297.017 120.625 297.174 120.537C298.108 120.019 299.026 119.478 299.945 118.94C302.078 117.693 304.192 116.423 306.347 115.206C306.654 115.032 307.21 114.579 307.597 114.551C307.779 114.538 308.186 116.33 308.526 118.366C308.919 120.76 311.515 130.568 311.247 131.139Z" fill="#313738"/>
<path d="M292.74 123.168C292.657 123.168 292.576 123.146 292.508 123.104C292.441 123.061 292.39 123.002 292.364 122.934C292.338 122.865 292.338 122.792 292.364 122.723C292.39 122.655 292.44 122.595 292.507 122.553L298.499 118.785C298.541 118.758 298.589 118.739 298.639 118.729C298.689 118.718 298.742 118.716 298.793 118.723C298.844 118.73 298.893 118.746 298.938 118.769C298.982 118.792 299.021 118.823 299.051 118.859C299.082 118.895 299.104 118.936 299.116 118.979C299.128 119.023 299.13 119.068 299.122 119.112C299.114 119.156 299.096 119.198 299.069 119.237C299.042 119.275 299.007 119.308 298.965 119.334L292.973 123.103C292.905 123.145 292.824 123.168 292.74 123.168Z" fill="white"/>
<path d="M284.79 110.272C281.256 112.172 279.605 119.057 279.588 119.128C279.58 119.166 279.556 119.201 279.521 119.226C279.486 119.251 279.442 119.264 279.396 119.264C279.384 119.264 279.369 119.264 279.356 119.261C279.305 119.252 279.26 119.226 279.231 119.188C279.203 119.151 279.192 119.105 279.202 119.061C279.207 119.043 279.649 117.172 280.563 115.116C281.688 112.58 283.002 110.879 284.474 110.041C284.575 110.11 284.68 110.189 284.79 110.272Z" fill="#232828"/>
<path d="M310.92 131.063C310.207 130.2 308.457 128.714 306.547 121.969L309.607 118.015C310.158 120.741 312.175 130.229 311.381 131.075C311.353 131.105 311.317 131.129 311.277 131.145C311.236 131.161 311.192 131.168 311.147 131.167C311.102 131.166 311.059 131.156 311.019 131.138C310.98 131.12 310.946 131.094 310.92 131.063Z" fill="#1A1A1A"/>
<path d="M315.192 110.604C315.205 110.045 316.627 107.588 316.564 107.031C316.545 106.871 316.472 106.7 316.309 106.622C316.199 106.569 316.067 106.567 315.942 106.575C315.435 106.604 314.878 106.804 313.44 108.685C313.503 109.061 313.562 109.065 313.672 109.433C313.72 109.594 313.731 110.224 313.885 110.324C314.013 110.408 314.183 110.648 314.343 110.661C314.574 110.681 314.96 110.595 315.192 110.604Z" fill="#A54B22"/>
<path d="M306.844 114.942C306.844 114.942 307.773 114.374 307.779 114.369C307.959 114.187 309.151 111.511 309.644 111.013C310.187 110.467 311.544 110.205 312.237 109.138C313.066 107.861 313.06 107.808 313.729 108.187C314.397 108.567 314.26 109.679 314.26 109.682C314.268 109.611 315.055 109.53 315.126 109.527C315.459 109.513 315.886 109.645 316.073 109.905C316.276 110.189 316.153 110.556 316.208 110.885C316.253 111.153 316.416 111.392 316.548 111.638C316.679 111.883 316.781 112.16 316.696 112.42C316.644 112.581 316.523 112.721 316.474 112.883C316.391 113.156 316.522 113.439 316.582 113.716C316.726 114.379 316.411 114.828 316.045 115.37C315.844 115.666 315.652 115.9 315.351 116.138C314.619 116.718 313.769 117.192 312.927 117.643C312.458 117.894 311.982 118.139 311.498 118.368L306.547 121.969C306.547 121.969 304.828 116.54 306.844 114.942Z" fill="#A54B22"/>
<path d="M315.527 114.924C314.559 114.781 314.662 114.54 314.594 113.789C314.585 113.685 314.636 113.656 314.589 113.539C314.448 113.193 314.032 113.411 314.229 112.878C314.335 112.589 314.675 112.484 314.506 112.13C314.312 111.723 313.854 111.779 313.955 111.182C313.963 111.137 313.951 111.091 313.922 111.052C314.139 110.726 314.26 110.365 314.261 109.967C314.261 109.658 313.706 109.59 313.696 109.909C313.668 110.786 312.976 111.312 312.2 111.783C311.872 111.982 311.449 112.178 311.401 112.566C311.353 112.951 311.743 113.325 311.841 113.683C312.034 114.395 311.78 115.071 311.273 115.635C311.024 115.912 311.505 116.21 311.768 115.958C312.672 115.092 312.646 114.076 312.25 113.039C312.145 112.766 312.058 112.91 312.229 112.568C312.354 112.32 312.46 112.281 312.695 112.134C312.927 111.99 313.153 111.837 313.36 111.665C313.365 111.712 313.374 111.758 313.392 111.804C313.462 111.987 313.78 112.115 313.825 112.254C313.905 112.504 313.453 112.873 313.464 113.17C313.471 113.345 313.548 113.526 313.7 113.646C313.757 113.692 313.903 113.718 313.942 113.769C313.944 113.772 313.948 113.775 313.952 113.777C313.933 113.817 313.916 113.858 313.899 113.899C313.808 114.123 313.864 114.406 313.958 114.623C314.193 115.171 314.871 115.534 315.535 115.38C315.819 115.315 315.84 114.97 315.527 114.924Z" fill="#802E11"/>
<path d="M266.053 131.963C265.597 129.315 263.52 126.998 263.552 124.276C263.554 124.094 263.229 124.094 263.224 124.276C263.159 126.607 264.671 128.621 265.38 130.801C265.776 132.024 265.899 133.301 265.743 134.564C265.58 135.888 265.003 137.135 264.78 138.45C264.346 141.011 264.851 143.604 264.305 146.163C263.759 148.725 262.743 151.225 261.888 153.721C260.903 156.596 260.108 160.295 259.123 163.171C259.053 163.373 259.42 163.46 259.49 163.258C260.385 160.643 261.09 157.206 261.986 154.592C262.846 152.081 263.831 149.574 264.489 147.017C264.811 145.768 264.98 144.511 264.997 143.232C265.013 141.913 264.925 140.592 265.05 139.276C265.173 137.978 265.666 136.77 265.957 135.502C266.223 134.335 266.256 133.138 266.053 131.963ZM286.779 129.464C286.997 130.645 286.886 131.897 286.85 133.122C285.446 131.129 281.485 124.516 281.72 124.766C282.61 125.721 284.361 126.304 285.553 126.908C286.21 127.241 287.417 128.335 287.375 128.447C287.373 128.449 287.373 128.451 287.373 128.452C286.45 127.682 286.626 128.623 286.779 129.464Z" fill="#232828"/>
<path d="M282.287 95.0942C281.114 96.8741 279.13 95.7209 279.13 95.7209C277.329 98.3283 276.739 101.816 277.041 102.987C277.434 104.514 279.348 105.793 279.348 105.793C279.348 105.793 278.775 106.173 277.885 106.741C276.894 107.378 275.507 108.25 274.09 109.088C270.941 110.952 266.22 114.004 266.22 114.004C265.578 109.031 266.04 106.109 266.596 104.479C267.064 103.109 267.597 102.648 267.597 102.648L269.514 102.204L270.313 100.474L270.868 99.2628L271.281 98.442L271.287 98.4354C271.321 98.4453 268.754 98.5457 267.597 96.5453C266.292 93.3425 269.396 89.7283 272.171 87.3068C272.473 87.0485 274.755 85.9497 274.936 86.3954C275.209 87.0748 277.064 87.7328 277.383 87.9994C277.726 88.2872 278.527 89.8912 278.847 90.2497C279.082 90.5145 279.354 90.7646 279.497 91.0755C279.915 91.9934 279.504 92.7649 279.558 93.0396C279.596 93.2304 279.455 93.5759 279.596 93.4279C279.76 93.2585 279.942 93.0907 280.121 92.9509C280.69 92.5117 281.7 92.6976 282.096 93.0316C282.858 93.6777 282.589 94.6302 282.287 95.0942Z" fill="#A54B22"/>
<path opacity="0.7" d="M270.404 92.0971C270.485 91.9665 270.685 91.913 270.837 91.9851L271.286 92.1979C271.437 92.2698 271.498 92.4394 271.416 92.5716C271.334 92.7022 271.134 92.7557 270.982 92.6836L270.534 92.4708C270.382 92.3989 270.321 92.2292 270.404 92.0971Z" fill="#3A1714"/>
<path d="M276.014 88.883C276.375 89.111 276.296 89.0421 276.643 89.2872C276.994 89.5357 277.309 89.8218 277.649 90.0817C277.955 90.3162 277.557 90.7484 277.248 90.5119C276.908 90.2521 276.594 89.9647 276.242 89.7172C275.894 89.4733 275.974 89.541 275.613 89.3131C275.281 89.1034 275.682 88.673 276.014 88.883ZM272.2 88.821C272.248 88.8087 272.292 88.7861 272.328 88.7552C272.363 88.7243 272.389 88.6862 272.403 88.6444C272.445 88.5139 272.353 88.3838 272.198 88.3533C272.014 88.3173 271.821 88.2784 271.633 88.2828C271.398 88.2884 271.158 88.3236 270.923 88.3437C270.825 88.3522 270.726 88.3607 270.633 88.3903C270.541 88.4199 270.454 88.473 270.41 88.5498C270.221 88.8791 270.843 88.7708 271.036 88.7669C271.374 88.7601 271.715 88.7623 272.046 88.826C272.098 88.836 272.151 88.8336 272.2 88.821Z" fill="#621406"/>
<path d="M275.663 97.8269C274.597 98.8014 272.279 100.189 270.312 100.492L270.869 99.2714L271.282 98.4468L271.286 98.4766L271.288 98.5047H271.305C272.875 98.5047 274.577 98.1388 275.663 97.8269Z" fill="#1A1A1A"/>
<path d="M269.311 93.5282C269.793 93.5203 272.582 93.9613 272.985 94.1218C272.322 95.4931 269.381 96.4042 269.311 93.5282Z" fill="white"/>
<path d="M275.387 90.8844C275.506 90.8216 275.631 90.7995 275.753 90.8375C275.768 90.84 275.782 90.8429 275.796 90.8462C275.801 90.8469 275.806 90.8466 275.812 90.8481C275.817 90.8496 275.82 90.8521 275.825 90.8537C276.248 90.979 276.226 91.513 275.939 91.7549C275.894 91.8179 275.835 91.8713 275.754 91.8962C275.673 91.921 275.583 91.92 275.5 91.8994C275.492 91.9007 275.485 91.903 275.475 91.9026C275.264 91.8946 275.151 91.7665 275.115 91.6021C274.987 91.3575 275.107 91.0322 275.387 90.8844ZM269.557 89.9001C269.792 89.7317 270.145 89.7682 270.323 89.9846C270.338 90.0038 270.351 90.0244 270.362 90.046C270.403 90.1148 270.414 90.1942 270.389 90.2734C270.386 90.2827 270.383 90.2918 270.379 90.3008C270.378 90.3036 270.378 90.3064 270.377 90.3093C270.314 90.4429 270.246 90.5777 270.116 90.6748C269.867 90.8618 269.505 90.7474 269.374 90.5062C269.261 90.2964 269.356 90.044 269.557 89.9001Z" fill="#1A1A1A"/>
<path d="M277.885 106.741C276.894 107.378 275.507 108.25 274.09 109.089C270.941 110.952 266.22 114.004 266.22 114.004C265.578 109.031 266.04 106.109 266.596 104.479C266.93 105.517 267.14 107.865 269.688 107.986C272.192 108.106 276.269 107.111 277.885 106.741Z" fill="#FA8E80"/>
<path d="M258.537 123.794C257.378 121.287 256.983 118.956 257.457 116.275C257.888 113.832 257.987 111.374 257.626 108.915C257.57 108.532 256.987 108.652 257.013 108.94C257.009 110.27 257.142 111.596 257.104 112.927C257.062 114.353 256.748 115.73 256.555 117.141C256.24 119.459 256.601 121.975 257.887 124.055C258.078 124.363 258.688 124.122 258.537 123.794Z" fill="white"/>
<path d="M284.202 109.796C284.202 110.125 263.004 123.45 262.622 123.285C262.24 123.121 260.903 117.198 260.712 111.77C260.521 106.341 261.778 102.13 261.778 102.13C261.825 102.127 262.156 102.15 262.637 102.191C262.943 102.216 263.307 102.247 263.701 102.281C264.192 102.324 264.724 102.372 265.238 102.418C265.603 102.451 265.958 102.482 266.277 102.512L267.683 102.64C266.728 105.436 266.728 111.852 266.919 112.181C267.11 112.51 278.855 105.848 279.428 105.848C279.579 105.848 279.986 106.101 280.499 106.481C280.771 106.679 281.069 106.912 281.378 107.162C281.705 107.425 282.027 107.692 282.342 107.965C282.625 108.207 282.896 108.447 283.139 108.671C283.759 109.235 284.202 109.689 284.202 109.796Z" fill="#1A1A1A"/>
<path d="M283.139 108.671C282.824 108.884 282.507 109.095 282.193 109.306C280.304 110.572 278.374 111.791 276.412 112.974C272.333 115.435 268.156 117.825 263.882 120.031C263.724 120.112 263.573 120.113 263.449 120.066C263.221 120.074 263.006 119.97 262.96 119.714C261.938 114 261.59 107.943 262.637 102.191C262.942 102.215 263.307 102.247 263.701 102.281C263.426 104.933 263.166 107.567 263.193 110.24C263.221 113.145 263.479 116.046 263.966 118.921C267.814 116.698 271.76 114.602 275.559 112.314C277.587 111.094 279.585 109.837 281.531 108.524C281.803 108.34 282.074 108.153 282.342 107.965C282.613 108.196 282.878 108.431 283.139 108.671Z" fill="#EFB44B"/>
<path d="M281.378 107.162C279.703 108.24 278.003 109.289 276.305 110.33C274.776 111.27 273.24 112.201 271.655 113.068C270.561 113.667 269.444 114.234 268.294 114.751C267.721 115.009 267.14 115.252 266.55 115.481C266.193 115.619 265.33 116.118 264.986 115.752C264.828 115.585 264.826 115.358 264.803 115.154C264.543 112.803 264.385 110.464 264.503 108.101C264.599 106.195 264.839 104.295 265.238 102.418C265.603 102.451 265.958 102.482 266.277 102.512C265.555 106.568 265.389 110.661 265.893 114.747C271.122 112.479 275.836 109.511 280.499 106.481C280.771 106.679 281.069 106.912 281.378 107.162Z" fill="#EFB44B"/>
<path d="M235.778 99.7538C234.685 98.883 233.517 98.2201 232.652 97.1473C231.808 96.1014 231.262 94.9297 231.002 93.6775C230.891 93.1437 229.959 93.3729 230.061 93.9009C230.534 96.3624 232.462 99.4809 235.392 100.324C235.767 100.432 236.063 99.9814 235.778 99.7538ZM301.774 136.977C300.18 137.799 298.292 137.87 296.657 137.089C296.095 136.82 295.596 137.554 296.153 137.831C298.069 138.784 300.428 138.789 302.305 137.76C302.874 137.448 302.359 136.676 301.774 136.977Z" fill="#7399C6"/>
<path d="M119.648 187.277C119.648 187.441 119.076 191.389 121.94 191.718C124.805 192.047 134.163 187.77 140.274 188.264C146.386 188.757 171.022 189.415 171.022 189.415C175.224 189.251 178.471 189.415 179.234 186.454C180.112 183.051 171.213 169.346 171.213 169.346L163.765 157.995L119.648 187.277Z" fill="#1A1A1A"/>
<path d="M113.249 237.691C113.029 238.514 143.205 238.847 148.56 238.925C180.517 239.389 193.523 239.833 193.521 238.791C193.519 237.341 168.414 237.632 136.53 236.882C116.708 236.416 113.553 236.552 113.249 237.691Z" fill="#867897"/>
<path d="M136.192 108.563C136.192 108.563 131.004 105.545 131.564 100.396C132.124 95.2464 137.904 95.9568 137.862 92.228C137.82 88.4993 136.337 87.1356 138.168 83.9111C139.999 80.6866 149.418 83.6315 149.418 83.6315L153.596 94.303C153.596 94.303 159.363 97.7322 158.772 100.218C158.182 102.704 136.192 108.563 136.192 108.563Z" fill="#C02328"/>
<path d="M131.099 104.835C131.161 104.835 131.222 104.819 131.276 104.787C131.309 104.766 131.337 104.741 131.359 104.711C131.38 104.681 131.395 104.648 131.401 104.614C131.408 104.579 131.407 104.544 131.397 104.51C131.388 104.476 131.371 104.444 131.348 104.416C131.334 104.399 129.959 102.676 130.319 99.8054C130.629 97.3275 133.301 95.9803 135.447 94.8978C135.786 94.727 136.106 94.5657 136.4 94.4076C138.686 93.1814 138.255 89.0935 138.236 88.92C138.228 88.8496 138.188 88.7846 138.125 88.7393C138.062 88.6939 137.98 88.6718 137.898 88.6778C137.858 88.6807 137.819 88.6906 137.783 88.7067C137.747 88.7229 137.715 88.745 137.689 88.7719C137.663 88.7987 137.644 88.8297 137.632 88.863C137.62 88.8963 137.616 88.9314 137.62 88.9661C137.625 89.0054 138.035 92.9004 136.07 93.9546C135.782 94.1088 135.466 94.2684 135.131 94.4373C132.985 95.5192 130.047 97.0008 129.704 99.743C129.317 102.827 130.782 104.645 130.844 104.721C130.873 104.756 130.911 104.785 130.956 104.805C131 104.824 131.049 104.835 131.099 104.835Z" fill="#C02328"/>
<path d="M165.316 233.227C164.655 234.912 163.667 236.466 163.994 237.752C164.274 238.855 168.711 238.764 173.873 238.869C179.039 238.973 191.053 238.615 191.286 237.709C191.518 236.802 190.513 235.734 187.237 234.519C184.972 233.68 180.745 232.347 178.182 230.33C177.039 229.433 176.215 228.699 175.976 228.204C175.2 226.597 174.527 214.333 174.527 214.333L162.727 213.523C162.727 213.523 165.915 227.46 166.04 229.976C166.089 230.992 165.763 232.085 165.316 233.227Z" fill="#A54B22"/>
<path d="M191.286 237.709C191.053 238.615 179.039 238.973 173.873 238.869C168.711 238.764 164.274 238.855 163.994 237.752C163.667 236.466 164.454 234.78 165.115 233.094C165.563 231.953 165.952 230.814 165.902 229.798C165.865 229.04 165.8 228.068 165.394 225.949C172.092 223.806 174.772 222.721 175.142 222.745C175.406 225.081 175.735 227.383 176.045 228.023C176.284 228.518 177.122 229.313 178.266 230.21C180.828 232.226 184.972 233.68 187.237 234.519C190.513 235.734 191.518 236.802 191.286 237.709Z" fill="#E7ECEE"/>
<path d="M163.995 237.751C164.275 238.856 168.711 238.765 173.873 238.868C179.038 238.973 191.054 238.616 191.285 237.709C191.344 237.478 191.443 237.26 191.502 237.043C191.68 236.409 191.525 235.786 189.082 234.88C186.815 234.041 180.827 232.226 178.265 230.211C177.347 229.834 176.586 230.328 175.952 231.084C174.88 232.361 174.449 233.631 172.271 233.932C171.376 234.057 166.84 233.419 165.115 233.094C164.766 233.979 164.385 234.863 164.149 235.69C163.935 236.439 163.839 237.141 163.995 237.751Z" fill="#FA8E80"/>
<path d="M123.933 222.541C123.724 223.018 123.726 223.949 123.644 224.694C123.321 227.633 123.886 232.174 124.103 235.561C122.01 235.554 119.917 235.576 117.824 235.617C117.231 234.83 116.618 233.971 115.993 233.06C112.704 228.268 110.929 221.672 111.405 220.056C111.671 219.153 113.249 218.153 114.741 216.966C115.915 216.031 116.927 215.24 117.494 214.601C117.942 214.096 118.779 212.524 119.58 211.157C121.069 208.613 128.434 199.693 128.434 199.693L132.715 208.823C132.715 208.823 128.779 214.558 126.163 218.929C125.304 220.361 124.323 221.652 123.933 222.541Z" fill="#F4A07F"/>
<path d="M123.774 224.395C123.454 227.3 123.092 231.693 124.142 235.337C121.968 235.338 119.794 235.34 117.621 235.346C117.092 234.634 116.548 233.868 115.993 233.06C112.705 228.268 110.929 221.672 111.405 220.056C111.671 219.153 113.164 217.895 114.656 216.709C115.831 215.774 117.004 214.882 117.571 214.243C118.019 213.738 118.779 212.524 119.58 211.157C120.669 215.326 124.619 218.017 126.163 218.929C125.304 220.361 124.59 221.648 124.201 222.536C123.992 223.014 123.856 223.65 123.774 224.395Z" fill="#E7ECEE"/>
<path d="M111.799 224.076C112.285 226.224 112.973 228.337 113.837 230.381C114.286 231.446 114.788 232.494 115.367 233.508C115.489 233.72 115.617 233.93 115.751 234.138C116.265 234.93 116.846 235.651 117.522 236.379C118.657 237.602 120.039 237.664 121.766 237.647C122.97 237.636 124.178 237.608 125.383 237.56C126.228 237.528 127.541 237.728 127.697 236.7C127.712 236.591 127.72 236.48 127.72 236.37C127.723 235.724 127.45 235.09 126.958 234.628C126.406 234.11 125.625 233.826 124.947 233.433C124.245 233.027 123.904 232.355 123.893 231.613C123.884 230.757 123.777 229.9 123.737 229.048C123.662 227.504 123.603 225.944 123.773 224.394C123.385 223.856 122.522 222.987 121.197 223.389C119.33 223.955 117.648 225.056 116.059 223.827C114.593 222.694 114.225 218.264 114.657 216.709C113.738 217.439 112.818 218.197 112.187 218.882C111.79 219.31 111.508 219.71 111.405 220.056C111.036 221.309 111.53 222.876 111.799 224.076Z" fill="#FA8E80"/>
<path d="M175.455 222.976C175.455 222.976 160.316 228.34 159.934 227.447C159.628 226.736 155.031 186.29 152.925 174.102C152.396 171.037 149.483 159.188 149.31 158.272C148.126 151.988 143.876 141.563 142.133 134.254C144.094 133.58 146.485 132.869 149.904 132.177C152.675 131.616 155.201 130.823 157.124 130.479C162.674 129.484 164.449 129.199 165.081 129.163C165.163 129.753 165.26 130.476 165.375 131.306C165.53 132.442 165.22 132.718 165.423 134.212C166.538 142.379 168.488 155.63 169.853 164.936C170.6 170.011 171.173 173.914 171.343 175.179C171.54 176.645 171.981 181.452 172.506 187.488V187.491C173.749 201.788 175.455 222.976 175.455 222.976Z" fill="#AEBFD1"/>
<path d="M120.85 208.878C121.377 211.188 121.83 212.246 123.132 214.298C123.984 215.644 125.016 216.91 126.24 218.029C127.474 219.155 128.917 220.345 130.887 220.341C131.072 220.342 131.257 220.329 131.44 220.303C132.307 220.177 132.593 219.786 132.998 219.2C133.231 218.864 133.458 218.526 133.678 218.184C134.234 217.324 134.765 216.452 135.285 215.578C136.651 213.291 138.754 211.029 140.027 208.712C141.499 206.028 152.381 193.442 155.894 175.944C157.775 166.904 161.815 133.321 161.815 133.321L157 130.482C155.026 130.826 140.833 135.501 140.311 136.024C139.048 136.903 138.413 142.764 138.629 146.065C139.197 154.782 138.283 162.891 135.738 177.257C133.444 190.208 120.85 208.878 120.85 208.878Z" fill="#AEBFD1"/>
<path d="M151.669 189.691C151.602 189.691 151.535 189.677 151.476 189.65C151.416 189.623 151.365 189.583 151.327 189.535C151.29 189.486 151.266 189.431 151.259 189.373C151.252 189.315 151.262 189.257 151.287 189.203C152.796 186.001 154.05 181.298 154.586 179.29C154.673 178.962 154.739 178.716 154.781 178.57C157.5 169.13 157.971 158.33 158.387 148.802C158.467 146.945 158.544 145.192 158.635 143.486C158.646 143.29 158.843 143.14 159.066 143.148C159.175 143.152 159.278 143.194 159.351 143.263C159.425 143.333 159.464 143.425 159.459 143.519C159.368 145.221 159.291 146.974 159.21 148.829C158.793 158.391 158.321 169.229 155.581 178.741C155.54 178.884 155.475 179.127 155.389 179.449C154.849 181.474 153.584 186.215 152.052 189.47C152.021 189.535 151.968 189.591 151.9 189.631C151.832 189.67 151.751 189.691 151.669 189.691Z" fill="white"/>
<path d="M123.634 209.609C128.236 203.603 132.317 197.442 135.74 190.921C135.927 190.566 136.588 190.712 136.404 191.081C133.13 197.636 129.067 204.056 124.222 209.918C123.954 210.243 123.373 209.949 123.634 209.609ZM140.106 147.445C142.549 145.616 144.638 143.758 146.177 141.287C146.51 140.752 147.401 141.213 147.074 141.746C145.576 144.187 143.41 146.604 140.71 148.163C140.197 148.46 139.638 147.796 140.106 147.445ZM137.009 187.493C141.276 175.079 144.964 162.353 143.684 149.649C143.642 149.241 144.373 149.057 144.421 149.472C145.887 162.233 142.047 175.196 137.679 187.654C137.545 188.036 136.877 187.876 137.009 187.493Z" fill="#829DAF"/>
<path d="M151.513 85.9505C151.513 85.9505 153.774 83.4538 152.49 81.6259C151.193 79.7811 148.75 79.5256 146.661 79.1785C145.021 78.9057 141.541 78.8405 138.719 82.9187C135.903 86.9872 137.713 90.9065 144.196 94.8335C146.389 96.1622 151.513 85.9505 151.513 85.9505Z" fill="#C02328"/>
<path d="M137.678 106.153C138.813 106.277 156.339 114.839 156.339 114.839C159.457 109.857 159.249 99.5929 159.175 99.3304C156.913 99.8631 154.445 99.8655 153.611 99.508C153.197 99.3304 152.274 97.8697 152.11 96.5813C152.108 96.5607 152.106 96.54 152.102 96.5195C151.991 95.6875 151.73 94.4831 151.548 93.6801C151.432 93.1775 151.347 92.831 151.347 92.831L143.836 91.8729C143.836 91.8729 145.911 98.3012 144.436 100.356C143.746 101.315 140.055 104.479 137.678 106.153Z" fill="#F4A07F"/>
<path d="M145.894 93.4126C145.894 93.4126 145.926 94.3588 147.795 95.6016C149.176 96.2313 149.866 96.4894 152.102 96.5195C151.991 95.6875 151.73 94.4831 151.548 93.6801L145.894 93.4126Z" fill="#3A1714"/>
<path d="M152.894 84.6293C153.339 85.5048 157.89 90.7188 154.025 94.0808C151.776 96.037 145.87 95.3991 144.041 92.4505C144.041 92.4505 143.229 92.7755 142.431 92.4511C141.401 92.0332 140.263 91.1259 141.16 89.8036C142.327 88.085 143.954 89.5668 143.954 89.5668C143.954 89.5668 143.639 88.3483 143.956 87.0719C145.794 86.1771 150.084 84.07 150.434 82.2065C150.434 82.2065 152.31 83.4776 152.894 84.6293Z" fill="#F4A07F"/>
<path opacity="0.7" d="M152.648 89.5721C152.568 89.4515 152.39 89.3943 152.261 89.4517L151.879 89.6211C151.751 89.6782 151.707 89.8272 151.787 89.9491C151.867 90.0696 152.045 90.1269 152.175 90.0695L152.556 89.9001C152.684 89.8431 152.728 89.6941 152.648 89.5721Z" fill="#D45C48"/>
<path d="M148.362 85.2951C148.033 85.4482 147.673 85.5516 147.356 85.7218C147.034 85.8945 146.742 86.1052 146.429 86.2895C146.147 86.4556 146.472 86.8901 146.757 86.7224C147.069 86.5383 147.361 86.3263 147.684 86.1548C148.002 85.9858 148.361 85.8813 148.69 85.728C148.993 85.5869 148.665 85.1538 148.362 85.2951ZM153.245 84.466C152.926 84.3033 152.628 84.2886 152.288 84.2868C151.93 84.285 151.952 84.7779 152.313 84.7797C152.538 84.7808 152.765 84.7617 152.978 84.8705C153.306 85.0377 153.573 84.6337 153.245 84.466Z" fill="#C02328"/>
<path d="M153.984 90.3241C153.984 90.3241 150.796 90.9206 150.051 91.0443C149.306 91.1681 152.557 92.8522 153.141 92.4394C154.136 91.7366 153.984 90.3241 153.984 90.3241ZM155.272 100.573C155.272 100.573 155.344 106.966 142.304 102.171L151.965 117.974L160.798 115.311L155.272 100.573Z" fill="white"/>
<path d="M189.7 60.4727C189.227 60.9417 188.694 61.4153 188.317 61.9486C187.346 63.3233 186.668 65.0086 185.992 66.5129C185.289 68.0761 184.671 69.667 184.107 71.271C182.367 76.2134 180.668 81.3766 177.893 85.9771C174.25 92.014 170.838 81.8932 170.838 81.8932C170.838 81.8932 179.313 65.7354 180.512 62.3618C181.535 59.481 182.397 56.2618 181.723 53.2589C181.666 53.003 181.599 52.744 181.626 52.4844C181.653 52.2249 181.792 51.9584 182.056 51.8305C182.469 51.6301 182.992 51.8399 183.35 52.1087C184.01 52.6047 184.44 53.2984 184.685 54.023C184.849 54.5082 185.357 53.7197 185.513 53.5568C186.758 52.2565 188.039 50.9828 189.356 49.7368C189.529 49.5728 189.709 49.4054 189.94 49.3072C190.171 49.209 190.468 49.1939 190.673 49.3281C190.755 49.3816 190.82 49.4565 190.914 49.4916C191.296 49.6338 191.873 48.9952 192.231 48.9023C192.53 48.8247 192.904 48.8901 193.061 49.123C193.375 49.5883 192.951 50.2169 192.669 50.6064C192.026 51.4926 191.314 52.3306 190.695 53.2267C190.459 53.5685 190.229 53.9436 190.264 54.3402C190.65 54.3651 190.962 54.0859 191.211 53.8307L192.908 52.0943C193.165 51.8317 193.434 51.5607 193.797 51.4187C194.252 51.2409 194.787 51.3587 194.752 51.8682C194.724 52.2678 194.394 52.7635 194.127 53.0788C193.464 53.8645 192.84 54.639 192.116 55.3775C191.834 55.6646 191.452 56.0574 191.457 56.4528L193.121 55.5304C193.313 55.4237 193.506 55.3167 193.713 55.2328C193.926 55.1465 194.188 55.0883 194.386 55.1966C194.562 55.2933 194.625 55.4969 194.592 55.6748C194.53 55.9995 194.329 56.3596 194.076 56.6002C192.672 57.9359 191.096 59.1315 189.7 60.4727Z" fill="#F4A07F"/>
<path d="M183.258 88.1636C183.218 88.853 181.142 90.9042 180.686 91.4718C179.714 92.6842 178.639 93.8522 177.307 94.7898C176.459 95.3854 175.512 95.8854 174.771 96.5797C173.61 97.6621 173.031 99.1394 171.839 100.195C171.179 100.779 170.342 101.224 169.811 101.898C169.288 102.564 169.118 103.384 168.78 104.132C167.991 105.877 166.322 107.19 164.899 108.605C164.512 108.99 164.126 109.403 163.916 109.885C163.698 110.378 164.049 110.373 164.338 110.783C164.932 111.624 166.424 113.429 166.63 114.402C167.394 118.021 165.47 120.964 165.293 123.45C165.142 125.574 165.192 129.48 166.057 131.51C167.048 133.84 165.871 135.285 166.057 137.762C166.439 142.861 166.949 143.126 167.394 148.125C167.651 151.014 169 155.452 169.892 158.25C171.906 164.571 174.943 171.403 177.516 177.736C179.129 181.707 181.335 185.796 178.088 188.264C180.462 186.241 178.47 183 177.516 181.026C176.628 179.191 173.769 176.431 171.786 174.117C169.852 171.857 166.03 165.278 164.147 161.944C163.561 168.326 155.253 190.009 153.626 192.421C153.282 192.931 152.894 193.476 152.26 193.699C151.645 193.916 150.948 193.78 150.307 193.633C142.706 191.89 129.587 186.218 121.749 186.783C119.685 186.933 119.84 188.922 120.535 190.797C119.078 188.929 119.081 186.44 119.876 184.295C120.668 182.149 122.156 180.256 123.55 178.351C125.731 175.372 127.758 172.22 128.504 168.757C128.854 167.13 128.915 165.467 129.228 163.835C129.904 160.307 131.742 157.026 132.754 153.559C134.295 148.27 133.879 142.721 134.547 137.301C135.208 131.951 136.934 126.687 136.875 121.278C136.866 120.224 136.797 119.187 136.736 118.148C136.686 117.294 136.642 116.44 136.64 115.575C136.635 113.925 136.631 112.275 136.627 110.625L136.616 106.345C137.704 105.489 138.527 104.795 139.175 104.229C141.081 102.563 141.445 102.025 142.456 101.854C143.81 101.625 154.803 110.427 154.803 110.427C156.069 103.948 153.704 99.6015 153.704 99.6015C153.739 99.2381 155.841 99.1113 157.199 98.7872L157.211 98.6853C157.281 98.0997 157.497 97.542 157.975 97.0567C158.219 96.8066 158.513 96.5911 158.847 96.4348C159.132 96.3015 159.802 96.2391 160.016 96.0351C160.207 95.8557 160.186 95.4725 160.232 95.2405C160.318 94.7996 160.467 94.4213 160.692 94.0183C160.952 93.5528 161.651 93.3389 162.22 93.4327C162.216 93.1859 162.218 92.9523 162.212 92.8964C162.151 92.1661 162.314 91.4076 163.114 91.0112C163.522 90.8088 164.151 90.7562 164.762 90.8269C164.81 90.766 164.854 90.7069 164.899 90.6476C164.888 90.6201 164.877 90.5926 164.865 90.5653C164.143 88.8939 164.428 87.3048 166.133 86.1878C166.823 85.7354 167.665 85.4491 168.314 84.9556C168.677 84.6809 168.967 84.347 169.227 83.99C171.402 80.3364 177.529 68.5876 177.529 68.5876C178.633 69.5172 183.831 78.4579 183.258 88.1636Z" fill="#313738"/>
<path d="M166.982 114.326C166.885 114.33 166.79 114.305 166.712 114.255C166.635 114.205 166.581 114.133 166.559 114.051C166.346 113.261 164.923 111.587 163.884 110.365C163.649 110.09 163.416 109.813 163.184 109.535C162.038 108.15 160.592 105.255 160.531 105.132C160.509 105.089 160.497 105.043 160.495 104.996C160.494 104.949 160.503 104.902 160.523 104.858C160.543 104.814 160.573 104.774 160.611 104.74C160.649 104.706 160.695 104.679 160.745 104.661C160.795 104.642 160.849 104.632 160.904 104.632C160.959 104.631 161.013 104.64 161.064 104.658C161.114 104.676 161.16 104.703 161.199 104.736C161.238 104.769 161.268 104.809 161.289 104.852C161.303 104.882 162.761 107.8 163.856 109.123C164.085 109.398 164.316 109.673 164.549 109.946C165.75 111.358 167.111 112.959 167.362 113.891C167.375 113.941 167.376 113.994 167.363 114.045C167.351 114.095 167.326 114.143 167.29 114.185C167.253 114.226 167.207 114.26 167.154 114.284C167.101 114.309 167.042 114.323 166.982 114.326Z" fill="white"/>
<path d="M158.331 98.2737C160.381 100.745 161.912 103.461 162.9 106.367C162.974 106.585 162.569 106.641 162.496 106.425C161.53 103.581 160.023 100.916 158.019 98.4985C157.866 98.3141 158.178 98.0883 158.331 98.2737ZM163.723 144.788C163.633 142.093 163.35 139.389 162.597 136.766C162.218 135.446 161.648 134.167 161.329 132.834C160.988 131.411 161.051 129.956 161.05 128.512C161.048 125.506 160.386 122.568 158.953 119.821C158.866 119.653 158.584 119.799 158.667 119.965C159.939 122.492 160.624 125.208 160.67 127.963C160.694 129.372 160.599 130.787 160.819 132.188C161.026 133.511 161.563 134.764 161.981 136.043C163.71 141.329 163.369 146.879 163.329 152.309C163.306 155.331 163.354 158.378 163.919 161.367C163.957 161.571 164.309 161.483 164.276 161.283C163.359 155.807 163.907 150.293 163.723 144.788Z" fill="#232828"/>
<path d="M181.172 132.972C181.313 133.629 181.337 134.33 181.74 134.9C182.095 135.404 182.702 135.738 183.107 136.213C183.621 136.815 183.76 137.58 183.789 138.309C183.798 138.54 183.853 138.626 183.633 138.709C183.438 138.784 183.044 138.729 182.831 138.726C182.32 138.719 181.81 138.677 181.306 138.602C181.642 137.775 181.567 136.83 181.103 136.05C180.922 135.746 180.681 135.459 180.592 135.125C180.5 134.782 180.577 134.424 180.565 134.072C180.554 133.732 180.454 133.395 180.28 133.09C180.193 132.937 180.088 132.792 179.967 132.658C179.871 132.552 179.644 132.428 179.584 132.313C179.394 131.946 180.073 131.349 180.475 131.664C180.888 131.989 181.066 132.517 181.172 132.972Z" fill="#ED1C24"/>
<path d="M178.573 137.079C178.706 137.807 178.94 138.538 178.828 139.268C178.754 139.749 178.533 140.203 178.381 140.671C178.249 141.08 178.169 141.5 178.143 141.924C178.139 141.99 178.137 142.058 178.164 142.12C178.224 142.253 178.399 142.314 178.557 142.355C179.171 142.515 179.809 142.596 180.45 142.596C180.567 141.43 179.987 140.24 180.319 139.105C180.417 138.77 180.593 138.443 180.575 138.098C180.545 137.509 179.971 137.056 179.728 136.505C179.518 136.025 179.625 135.557 179.587 135.066C179.071 135.008 178.759 135.064 178.606 135.514C178.435 136.018 178.48 136.568 178.573 137.079Z" fill="#C1272D"/>
<path d="M176.561 136.939L172.932 136.445C172.932 136.445 170.258 140.558 170.067 141.381C169.876 142.203 174.651 144.013 176.179 143.848C177.707 143.683 175.988 139.242 176.561 136.939Z" fill="#F1E6DC"/>
<path d="M175.697 135.69C175.003 138.103 174.678 140.603 174.582 143.085C174.574 143.267 174.902 143.266 174.91 143.085C175.022 140.613 175.438 138.186 176.008 135.764C176.049 135.59 175.747 135.515 175.697 135.69Z" fill="#DDCABA"/>
<path d="M161.345 129.826C161.345 129.826 171.591 132.202 172.322 131.997C173.053 131.791 176.256 130.084 177.082 130.283C177.907 130.482 179.486 131.817 179.486 131.817C179.486 131.817 181.344 132.265 181.439 132.669C181.534 133.074 180.485 133.584 180.58 133.988C180.675 134.393 180.92 135.025 180.189 135.23C179.464 135.434 179.107 135.162 178.681 135.803C178.301 136.375 177.757 136.873 177.068 137.159C176.741 137.295 176.716 137.603 176.445 137.952C176.071 138.434 164.215 137.291 158.228 135.847C152.241 134.403 161.345 129.826 161.345 129.826Z" fill="#F4A07F"/>
<path d="M180.594 131.724C180.537 131.792 180.481 131.859 180.424 131.928C180.388 131.971 180.353 132.015 180.317 132.058C180.317 132.058 180.31 132.057 180.292 132.055C179.985 132.004 176.914 131.51 176.37 131.51C176.224 131.51 176.385 130.816 176.715 129.773C177.689 126.694 180.143 120.569 180.571 120.324C181.144 119.995 187.007 121.328 187.828 123.45C188.205 124.422 186.421 124.703 180.594 131.724Z" fill="#F1E6DC"/>
<path d="M133.767 112.114C133.789 112.334 133.821 112.554 133.862 112.772C134.101 114.06 134.528 115.313 134.906 116.573C135.216 117.602 135.482 118.638 135.834 119.662C136.194 120.71 136.603 121.774 136.574 122.881C136.566 123.188 136.525 123.5 136.604 123.8C136.68 124.09 136.865 124.349 137.064 124.592C137.658 125.317 138.417 125.971 138.745 126.812C138.929 127.284 138.965 127.788 139.105 128.271C139.349 129.109 139.92 129.815 140.363 130.577C140.878 131.463 141.399 132.347 141.953 133.216C142.508 134.088 143.179 135.251 144.3 135.665C145.071 135.949 145.781 136.333 146.404 136.817C147.033 137.306 147.564 137.957 148.322 138.308C148.795 138.527 149.335 138.554 149.836 138.706C150.682 138.963 151.446 139.458 152.217 139.845C153.999 140.739 155.808 141.593 157.651 142.39C158.817 142.895 160.024 143.462 161.281 143.786C161.391 143.814 161.75 143.946 161.855 143.848C166.63 139.406 167.012 131.017 167.012 131.017C167.012 131.017 152.067 127.029 151.238 126.674C150.961 126.555 150.292 125.218 149.516 123.451C149.118 122.551 148.694 121.539 148.279 120.52C147.072 117.548 145.947 114.508 145.838 113.979C145.725 113.427 145.428 112.885 145.167 112.377C144.706 111.478 144.171 110.605 143.582 109.762C142.911 108.803 142.164 107.88 141.318 107.028C140.89 106.596 140.436 106.183 139.95 105.799C139.607 105.528 138.914 104.84 138.384 104.992C138.176 105.051 138.017 105.193 137.861 105.327C137.594 105.555 137.312 105.769 137.045 105.998C136.211 106.713 135.538 107.553 134.87 108.388C134.627 108.691 134.384 108.996 134.2 109.329C133.743 110.159 133.67 111.175 133.767 112.114Z" fill="#313738"/>
<path d="M165.261 131.351C165.221 131.351 165.18 131.346 165.14 131.336C164.834 131.255 152.085 127.876 149.584 126.627C149.493 126.578 149.428 126.5 149.402 126.411C149.376 126.321 149.391 126.226 149.445 126.146C149.499 126.066 149.587 126.008 149.69 125.983C149.794 125.958 149.904 125.968 149.998 126.012C152.416 127.22 165.307 130.637 165.381 130.656C165.433 130.67 165.481 130.692 165.523 130.722C165.564 130.751 165.599 130.788 165.624 130.829C165.65 130.87 165.666 130.915 165.671 130.962C165.676 131.008 165.671 131.055 165.655 131.099C165.629 131.172 165.577 131.236 165.506 131.281C165.435 131.327 165.349 131.351 165.261 131.351Z" fill="#1A1A1A"/>
<path d="M134.476 109.715C137.994 109.627 141.42 110.513 144.314 112.265C144.528 112.394 144.328 112.7 144.111 112.569C141.271 110.85 137.933 109.981 134.48 110.067C134.216 110.073 134.213 109.721 134.476 109.715Z" fill="#232828"/>
<path d="M151.241 127.207C151.162 127.207 151.084 127.188 151.018 127.151C150.951 127.114 150.898 127.062 150.866 127C150.023 125.417 147.407 120.041 145.444 114.256C145.415 114.166 145.428 114.07 145.481 113.988C145.534 113.907 145.622 113.846 145.726 113.82C145.83 113.794 145.942 113.804 146.037 113.848C146.133 113.893 146.204 113.968 146.236 114.057C148.546 120.869 151.585 126.648 151.615 126.704C151.644 126.758 151.656 126.818 151.652 126.877C151.647 126.936 151.625 126.994 151.587 127.044C151.55 127.094 151.499 127.135 151.438 127.164C151.378 127.192 151.31 127.207 151.241 127.207Z" fill="#1A1A1A"/>
<path d="M149.943 138.791C148.92 138.597 148.011 138.378 147.263 137.71C146.733 137.238 146.31 136.686 145.694 136.288C144.966 135.817 144.053 135.611 143.408 135.04C142.677 134.394 142.244 133.471 141.759 132.682C140.784 131.096 139.656 129.531 139.075 127.798C138.851 127.129 138.654 126.442 138.258 125.83C137.787 125.1 136.889 124.571 136.718 123.719C136.658 123.421 136.062 123.487 136.1 123.791C136.186 124.479 136.607 124.945 137.084 125.479C137.829 126.312 138.087 127.246 138.432 128.231C139.073 130.062 140.319 131.738 141.352 133.419C141.817 134.176 142.249 135 142.979 135.601C143.63 136.138 144.511 136.351 145.223 136.808C145.974 137.291 146.439 138.021 147.166 138.528C147.912 139.049 148.821 139.248 149.741 139.423C150.218 139.513 150.422 138.882 149.943 138.791Z" fill="white"/>
<path d="M165.415 138.33C164.85 139.29 164.393 140.284 163.77 141.222C163.15 142.156 162.45 143.047 161.686 143.897C159.929 143.239 155.16 141.186 153.481 140.392C153.295 140.303 153.131 140.545 153.315 140.637C155.02 141.49 160.033 144.054 161.841 144.732C161.911 144.759 162.015 144.767 162.07 144.707C162.87 143.831 163.501 142.839 164.147 141.874C164.78 140.929 165.351 139.489 165.719 138.44C165.773 138.287 165.502 138.183 165.415 138.33Z" fill="#1A1A1A"/>
<path d="M185.728 124.437C183.002 126.526 180.218 129.122 178.279 131.84C178.403 131.856 178.526 131.873 178.648 131.895C180.717 129.245 183.843 126.717 186.492 124.601C186.658 124.468 185.895 124.308 185.728 124.437Z" fill="#DDCABA"/>
<path d="M180.623 131.741L180.424 131.928L180.292 132.055C179.985 132.004 176.914 131.51 176.37 131.51C176.224 131.51 176.385 130.816 176.715 129.773C177.408 129.854 180.281 131.54 180.594 131.724C180.613 131.736 180.623 131.741 180.623 131.741Z" fill="#ED1C24"/>
<path d="M186.373 122.859C185.481 121.852 184.048 121.206 182.624 120.972C182.515 120.954 182.37 121.015 182.384 121.129C182.516 122.224 184.2 122.831 185.195 123.245C185.413 123.336 185.606 123.055 185.386 122.963C184.923 122.77 184.459 122.576 184.023 122.339C183.608 122.113 183.021 121.776 182.826 121.344C183.698 121.523 184.52 121.851 185.226 122.335C185.612 122.6 186.003 122.91 186.25 123.282C186.376 123.471 186.462 123.724 186.3 123.943C186.202 124.076 185.843 124.183 185.677 124.153C185.533 124.127 185.382 124.037 185.255 123.977C184.369 123.564 183.755 123.2 183.015 122.612C182.658 122.327 182.313 122.03 181.981 121.723C181.815 121.57 181.651 121.415 181.489 121.258C181.422 121.192 181.327 121.123 181.275 121.048C181.159 120.993 181.135 120.919 181.205 120.826C181.199 120.689 181.276 120.654 181.437 120.721C181.612 120.744 181.693 120.524 181.512 120.487C181.166 120.416 180.62 120.461 180.736 120.89C180.795 121.107 181.075 121.31 181.24 121.472C181.526 121.753 181.819 122.028 182.121 122.295C183.11 123.169 184.304 124.123 185.638 124.588C186.12 124.757 186.644 124.709 186.814 124.223C186.982 123.745 186.703 123.232 186.373 122.859Z" fill="#DDCABA"/>
<path d="M178.661 131.675C177.659 131.571 176.282 131.295 175.273 131.321C174.825 131.333 174.823 131.929 175.273 131.923C176.281 131.908 177.284 131.953 178.289 132.021C178.743 132.052 179.098 131.72 178.661 131.675ZM188.718 59.2778C188.411 58.396 187.967 57.5426 187.376 56.7728C186.993 56.273 186.377 55.5577 185.602 55.574C184.946 55.5877 185.108 56.1036 185.728 56.1678C186.18 56.2146 186.68 57.1823 186.873 57.4837C187.242 58.0584 187.422 58.9064 187.665 59.5278C187.888 60.0969 188.923 59.8626 188.718 59.2778Z" fill="#DC815C"/>
<path d="M158.513 118.761C157.94 119.09 155.457 117.116 151.638 113.991C148.102 111.099 140.318 105.107 139.174 104.229C139.322 104.1 139.469 103.97 139.615 103.839C139.795 103.68 139.957 103.533 140.108 103.398C140.465 103.074 140.748 102.814 140.996 102.605C141.193 102.443 141.365 102.311 141.533 102.204C141.825 102.02 142.1 101.915 142.455 101.854C143.809 101.625 154.802 110.427 154.802 110.427C156.068 103.948 153.704 99.6015 153.704 99.6015C153.717 99.4552 154.065 99.3482 154.563 99.2495C154.774 99.2083 155.008 99.1705 155.259 99.1294C155.457 99.0982 155.664 99.0669 155.87 99.034C156.145 98.9912 156.423 98.9452 156.689 98.8942C156.86 98.8626 157.03 98.827 157.199 98.7872L157.21 98.6853C157.564 99.1426 158.822 101.021 159.85 105.765C161.059 111.347 159.086 118.432 158.513 118.761Z" fill="#1A1A1A"/>
<path d="M158.055 116.749C157.999 116.916 157.837 116.972 157.686 116.95C157.566 117.1 157.306 117.179 157.101 117.021C151.336 112.56 145.633 108.047 139.615 103.839C139.795 103.68 139.957 103.533 140.108 103.398C143.034 105.233 145.732 107.353 148.423 109.429C151.437 111.752 154.441 114.086 157.447 116.415C158.289 113.206 158.606 109.96 158.194 106.678C157.86 104.015 157.037 101.483 155.87 99.0339C156.145 98.9911 156.423 98.945 156.689 98.8941C159.437 104.431 159.947 111.026 158.055 116.749Z" fill="#EFB44B"/>
<path d="M156.672 113.959C156.596 114.223 156.259 114.219 156.095 114.066C156.048 114.049 156.005 114.025 155.969 113.994C151.221 109.947 146.162 106.244 140.996 102.605C141.193 102.443 141.365 102.311 141.533 102.204C146.703 105.542 151.535 109.314 156.131 113.216C156.67 110.48 156.802 107.735 156.317 104.976C156.07 103.578 155.881 102.418 155.362 101.077C155.131 100.482 154.854 99.8648 154.564 99.2496C154.774 99.2085 155.008 99.1706 155.259 99.1295C155.515 99.6938 155.74 100.265 155.95 100.817C156.483 102.221 156.869 103.663 157.106 105.126C157.577 108.045 157.501 111.091 156.672 113.959Z" fill="#EFB44B"/>
<path d="M147.192 88.1168C147.375 87.4485 148.546 87.0549 149.156 87.5503C149.448 87.7871 149.014 88.1632 148.723 87.927C148.451 87.7065 147.863 87.9912 147.79 88.2584C147.698 88.591 147.1 88.4501 147.192 88.1168ZM152.311 87.1177C152.599 86.4781 153.823 86.2263 154.35 86.7882C154.602 87.0567 154.112 87.378 153.861 87.1099C153.626 86.8599 152.997 87.0724 152.882 87.3282C152.739 87.6465 152.168 87.4368 152.311 87.1177Z" fill="#1A1A1A"/>
<path d="M163.995 237.751C164.275 238.856 168.711 238.765 173.873 238.868C179.038 238.973 191.054 238.616 191.285 237.709C191.344 237.478 191.443 237.26 191.502 237.043C189.362 237.411 187.062 237.407 184.938 237.503C181.847 237.641 178.786 237.435 175.724 237.047C172.644 236.656 169.545 236.4 166.461 236.045C165.685 235.955 164.915 235.83 164.149 235.69C163.935 236.439 163.839 237.141 163.995 237.751ZM111.799 224.076C112.285 226.224 112.973 228.337 113.837 230.381C114.286 231.446 114.788 232.494 115.367 233.508C115.489 233.72 115.617 233.93 115.751 234.138C116.265 234.93 116.846 235.651 117.522 236.379C118.657 237.602 120.039 237.664 121.766 237.647C122.97 237.636 124.178 237.608 125.383 237.56C126.228 237.528 127.541 237.728 127.697 236.7C127.712 236.591 127.72 236.48 127.72 236.37C127.006 236.372 126.288 236.422 125.649 236.432C123.4 236.47 120.603 236.455 118.607 235.493C116.617 234.534 115.595 232.586 114.87 230.939C113.975 228.913 113.53 226.784 113.284 224.66C113.188 223.854 112.863 221.207 112.188 218.882C111.79 219.31 111.508 219.71 111.405 220.056C111.036 221.309 111.53 222.876 111.799 224.076Z" fill="#E7ECEE"/>
<path d="M208.814 12.0522C208.523 11.817 208.205 11.8873 207.884 12.046C207.825 12.0751 207.766 12.1052 207.707 12.1346C207.677 12.0843 207.634 12.0392 207.576 12.0094C207.345 11.891 207.138 11.9733 206.957 12.1171C206.938 12.1321 206.921 12.1486 206.902 12.1638C206.9 12.0123 206.894 11.8608 206.883 11.7095C206.862 11.4365 206.397 11.2729 206.234 11.5596C205.979 12.0097 205.848 12.4836 205.857 12.9854C205.819 13.0102 205.787 13.0407 205.762 13.0754C204.625 14.654 203.525 16.0493 201.269 16.396C199.503 16.6672 198.286 17.1785 197.684 18.7208C197.19 19.9828 197.258 21.4599 197.978 22.6487C198.847 24.0809 200.544 24.7068 202.218 25.2336C202.635 25.3648 202.801 24.8022 202.398 24.6656C200.665 24.0774 198.972 23.3909 198.36 21.749C197.873 20.4439 198.053 18.3969 199.47 17.5364C200.173 17.1095 201.102 17.1097 201.912 16.9534C202.604 16.8197 203.23 16.5869 203.801 16.2213C204.781 15.5942 205.495 14.7077 206.118 13.8079C206.155 13.8129 206.192 13.8128 206.229 13.8076C206.914 13.708 207.603 13.5884 208.273 13.4315C208.693 13.3332 208.522 12.8208 208.115 12.8649C208.331 12.7706 208.542 12.6699 208.741 12.5512C208.929 12.4392 208.999 12.2011 208.814 12.0522Z" fill="#1A1A1A"/>
<path d="M216.476 33.4663C214.757 34.7823 212.656 34.2888 210.937 36.4274C209.218 38.5659 208.645 39.8819 207.5 39.8819C207.039 39.8819 206.457 39.5907 205.924 39.2403C205.128 38.7205 204.444 38.0723 204.444 38.0723C204.444 38.0723 195.85 46.6265 195.086 46.462C194.322 46.2976 194.704 31.8213 195.086 30.8342C195.468 29.8472 213.611 13.8904 214.375 14.5484C215.139 15.2063 213.802 25.241 213.802 25.241C213.802 25.241 215.916 25.6967 217.098 26.4616C217.148 26.4928 217.194 26.5242 217.24 26.557C218.385 27.3798 218.194 32.1503 216.476 33.4663Z" fill="#313738"/>
<path d="M213.071 24.8899C209.189 23.0303 204.805 25.8172 202.632 28.5266C201.469 29.9758 200.688 31.6669 200.409 33.413C200.3 34.0928 200.107 34.9494 200.622 35.5399C201.366 36.3927 202.604 37.076 203.541 37.7706C203.863 38.009 204.331 37.6156 204.012 37.3654C203.233 36.7557 202.447 36.1537 201.667 35.5452C200.835 34.895 201.041 34.0353 201.216 33.1701C201.513 31.7059 202.175 30.3053 203.123 29.0651C205.026 26.5752 209.113 23.7407 212.688 25.4536C213.115 25.658 213.497 25.0943 213.071 24.8899ZM217.239 26.5572C217.194 26.5243 217.148 26.493 217.098 26.4618C215.811 26.2133 214.646 26.924 213.785 27.6923C212.658 28.6974 211.768 29.8933 211.138 31.178C210.452 32.5747 210.03 34.1671 208.848 35.3334C207.906 36.2629 206.247 36.7859 205.847 38.0723C205.723 38.4753 205.763 38.8785 205.924 39.2403C206.457 39.5907 207.039 39.8819 207.499 39.8819C208.645 39.8819 209.218 38.5659 210.937 36.4274C212.656 34.2888 214.757 34.7824 216.475 33.4663C218.194 32.1503 218.385 27.3798 217.239 26.5572Z" fill="#1A1A1A"/>
<path d="M86.478 88.8064L80.5792 89.1592L80.7696 84.5026L87.8105 80.6164L86.478 88.8064Z" fill="#FAC9C7"/>
<path d="M79.0726 104.137L82.0838 102.396V106.185L80.4375 108.723L79.0726 104.137Z" fill="#4E6E9E"/>
<path d="M97.1943 91.7656L100.206 90.025V93.8122L98.5592 96.3502L97.1943 91.7656Z" fill="#F9C2C9"/>
<path d="M98.0206 71.089L101.034 69.3484V73.1356L99.3855 75.6736L98.0206 71.089Z" fill="#22ACA9"/>
<path d="M59.2053 79.1944L62.2165 77.4538V81.241L60.5702 83.779L59.2053 79.1944Z" fill="#FAC9C7"/>
<path d="M83.5095 70.2088L82.0839 67.2766L86.2857 67.9138L88.8231 69.7822L83.5095 70.2088Z" fill="#FEDA96"/>
<path d="M106.171 86.4394L108.812 87.4276L111.795 82.3498L106.171 86.4394Z" fill="#F37C8C"/>
<path d="M71.9791 90.8818L71.8799 93.427L78.2809 94.0984L71.9791 90.8818Z" fill="#6CC9C9"/>
<path d="M369.274 73.671L366.042 78.6185L362.416 75.691L363.49 67.7209L369.274 73.671Z" fill="#FAC9C7"/>
<path d="M377.173 88.753L377.569 85.2976L380.612 87.5553L381.67 90.3897L377.173 88.753Z" fill="#4E6E9E"/>
<path d="M378.036 66.828L378.432 63.3726L381.473 65.6292L382.531 68.4636L378.036 66.828Z" fill="#F9C2C9"/>
<path d="M361.923 53.8443L362.32 50.3873L365.362 52.6439L366.418 55.48L361.923 53.8443Z" fill="#22ACA9"/>
<path d="M345.304 89.8462L345.7 86.3909L348.742 88.6475L349.799 91.4819L345.304 89.8462Z" fill="#FAC9C7"/>
<path d="M352.569 64.9737L349.365 64.3714L352.38 61.3766L355.393 60.4522L352.569 64.9737Z" fill="#FEDA96"/>
<path d="M379.107 56.4452L381.474 54.9133L379.173 49.4922L379.107 56.4452Z" fill="#F37C8C"/>
<path d="M362.301 86.5517L364.286 88.1479L368.639 83.4074L362.301 86.5517Z" fill="#6CC9C9"/>
<g clip-path="url(#clip0_0_1)">
<path d="M370.03 126.641L372.267 117.085L379.611 119.605L382.472 132.661L370.03 126.641Z" fill="#FAC9C7"/>
<path d="M349.073 107.555L350.422 113.176L344.373 111.372L341.103 107.543L349.073 107.555Z" fill="#4E6E9E"/>
<path d="M360.219 142.287L361.569 147.908L355.523 146.104L352.253 142.276L360.219 142.287Z" fill="#F9C2C9"/>
<path d="M392.834 153.447L394.183 159.071L388.137 157.268L384.868 153.436L392.834 153.447Z" fill="#22ACA9"/>
<path d="M398.321 87.8127L399.67 93.4338L393.624 91.6305L390.354 87.8019L398.321 87.8127Z" fill="#FAC9C7"/>
<path d="M401.128 130.771L406.485 129.899L403.474 136.282L399.287 139.431L401.128 130.771Z" fill="#FEDA96"/>
<path d="M364.46 159.109L361.629 162.841L368.319 170.006L364.46 159.109Z" fill="#F37C8C"/>
<path d="M373.6 102.577L369.584 101.207L365.474 111.075L373.6 102.577Z" fill="#6CC9C9"/>
<g clip-path="url(#clip1_0_1)">
<path d="M394.71 114.64C400.512 108.196 397.335 99.5836 393.284 96.1943C397.076 94.7859 399.475 101.14 399.449 105.309C399.433 109.525 397.796 113.58 395.021 116.374C395.699 120.583 396.276 125.855 393.505 130.406C396.991 133.606 395.928 144.566 390.59 146.266C392.62 141.988 396.233 135.86 392.497 131.87C381.265 143.813 381.096 121.557 392.452 129.417C394.634 125.524 394.177 121.352 393.629 117.599C390.007 120.361 385.15 121.118 382.792 117.627C378.007 106.923 394.678 103.803 394.71 114.64ZM393.364 115.978C394.018 107.486 380.752 107.033 384.073 116.493C386.051 119.425 390.327 118.535 393.364 115.978ZM391.491 130.868C387.986 126.341 381.073 133.756 388.037 133.475C389.389 133.04 390.561 132.062 391.491 130.868Z" fill="#7DF49E"/>
<path d="M415.71 176.64C421.512 170.196 418.335 161.584 414.284 158.194C418.076 156.786 420.475 163.14 420.449 167.309C420.433 171.525 418.796 175.58 416.021 178.374C416.699 182.583 417.276 187.855 414.506 192.406C417.991 195.606 416.929 206.566 411.59 208.266C413.62 203.988 417.233 197.86 413.497 193.87C402.265 205.813 402.096 183.557 413.452 191.417C415.634 187.524 415.177 183.352 414.629 179.599C411.007 182.361 406.15 183.118 403.792 179.627C399.007 168.923 415.678 165.803 415.71 176.64ZM414.364 177.978C415.018 169.486 401.752 169.033 405.073 178.493C407.051 181.425 411.327 180.535 414.364 177.978ZM412.491 192.868C408.986 188.341 402.074 195.756 409.037 195.475C410.389 195.04 411.561 194.062 412.491 192.868Z" fill="#F4C67D"/>
</g>
<g clip-path="url(#clip2_0_1)">
<path d="M354.71 131.64C360.512 125.196 357.335 116.584 353.284 113.194C357.076 111.786 359.475 118.14 359.449 122.309C359.433 126.525 357.796 130.58 355.021 133.374C355.699 137.583 356.276 142.855 353.505 147.406C356.991 150.606 355.928 161.566 350.59 163.266C352.62 158.988 356.233 152.86 352.497 148.87C341.265 160.813 341.096 138.557 352.452 146.417C354.634 142.524 354.177 138.352 353.629 134.599C350.007 137.361 345.15 138.118 342.792 134.627C338.007 123.923 354.678 120.803 354.71 131.64ZM353.364 132.978C354.018 124.486 340.752 124.033 344.073 133.493C346.051 136.425 350.327 135.535 353.364 132.978ZM351.491 147.868C347.986 143.341 341.073 150.756 348.037 150.475C349.389 150.04 350.561 149.062 351.491 147.868Z" fill="#99D4FF"/>
<path d="M375.71 193.64C381.512 187.196 378.335 178.584 374.284 175.194C378.076 173.786 380.475 180.14 380.449 184.309C380.433 188.525 378.796 192.58 376.021 195.374C376.699 199.583 377.276 204.855 374.506 209.406C377.991 212.606 376.929 223.566 371.59 225.266C373.62 220.988 377.233 214.86 373.497 210.87C362.265 222.813 362.096 200.557 373.452 208.417C375.634 204.524 375.177 200.352 374.629 196.599C371.007 199.361 366.15 200.118 363.792 196.627C359.007 185.923 375.678 182.803 375.71 193.64ZM374.364 194.978C375.018 186.486 361.752 186.033 365.073 195.493C367.051 198.425 371.327 197.535 374.364 194.978ZM372.491 209.868C368.986 205.341 362.074 212.756 369.037 212.475C370.389 212.04 371.561 211.062 372.491 209.868Z" fill="#F4C67D"/>
</g>
</g>
<g clip-path="url(#clip3_0_1)">
<path d="M69.2733 136.917L74.6553 129.573L79.7028 134.11L77.1735 146.083L69.2733 136.917Z" fill="#FAC9C7"/>
<path d="M59.2963 113.918L58.3029 119.111L54.0441 115.604L52.8042 111.297L59.2963 113.918Z" fill="#4E6E9E"/>
<path d="M55.4493 146.927L54.456 152.12L50.1992 148.614L48.9593 144.307L55.4493 146.927Z" fill="#F9C2C9"/>
<path d="M77.8804 167.047L76.885 172.243L72.6283 168.737L71.3903 164.427L77.8804 167.047Z" fill="#22ACA9"/>
<path d="M106.794 113.369L105.8 118.563L101.544 115.057L100.304 110.75L106.794 113.369Z" fill="#FAC9C7"/>
<path d="M93.0849 150.599L97.7772 151.617L92.9448 156.026L88.3592 157.315L93.0849 150.599Z" fill="#FEDA96"/>
<path d="M52.6422 162.535L48.9447 164.762L51.7301 173.01L52.6422 162.535Z" fill="#F37C8C"/>
<path d="M81.1439 117.748L78.3803 115.274L71.3552 122.268L81.1439 117.748Z" fill="#6CC9C9"/>
<path d="M37.7711 125.842C31.7167 130.227 35.9322 140.08 40.7442 144.981C36.5792 145.017 33.4074 137.728 33.1274 133.529C32.8325 129.28 34.3752 125.785 37.2924 123.978C36.2174 119.482 35.177 113.95 37.9588 110.369C33.7968 105.865 34.1809 95.1915 40.0654 95.4249C38.0976 99.0021 34.4839 103.868 38.9856 109.259C50.7465 101.308 52.587 123.833 39.2179 111.751C37.0499 114.884 37.8738 119.262 38.7689 123.25C42.6426 121.785 48.0549 122.796 50.9688 127.18C57.1504 139.732 38.6104 136.792 37.7711 125.842ZM39.1873 124.983C39.0806 133.315 54.0512 138.618 49.611 127.857C47.1656 124.175 42.4178 123.512 39.1873 124.983ZM40.1927 110.638C44.4743 116.488 51.7079 111.528 43.8884 109.268C42.3983 109.214 41.1509 109.772 40.1927 110.638Z" fill="#F4C67D"/>
<path d="M67.7103 167.64C73.5118 161.196 70.3348 152.584 66.2842 149.194C70.0761 147.786 72.4748 154.14 72.4489 158.309C72.4333 162.525 70.7961 166.58 68.0212 169.374C68.6989 173.583 69.2758 178.855 66.5055 183.406C69.9912 186.606 68.9286 197.566 63.5903 199.266C65.6197 194.988 69.2327 188.86 65.4972 184.87C54.2654 196.813 54.0961 174.557 65.4524 182.417C67.6342 178.524 67.1771 174.352 66.6292 170.599C63.007 173.361 58.1502 174.118 55.7921 170.627C51.0066 159.923 67.6784 156.803 67.7103 167.64ZM66.3643 168.978C67.0182 160.486 53.7519 160.033 57.0726 169.493C59.0515 172.425 63.3269 171.535 66.3643 168.978ZM64.491 183.868C60.9864 179.341 54.0736 186.756 61.037 186.475C62.3891 186.04 63.5613 185.062 64.491 183.868Z" fill="#FF9494"/>
</g>
<defs>
<clipPath id="clip0_0_1">
<rect width="134.524" height="119.941" fill="white" transform="translate(448.476 78.1535) rotate(106.609)"/>
</clipPath>
<clipPath id="clip1_0_1">
<rect width="91.7418" height="67.4419" fill="white" transform="translate(446.003 101.408) rotate(123.688)"/>
</clipPath>
<clipPath id="clip2_0_1">
<rect width="91.7418" height="67.4419" fill="white" transform="translate(406.003 118.408) rotate(123.688)"/>
</clipPath>
<clipPath id="clip3_0_1">
<rect width="124.825" height="104.834" fill="white" transform="translate(151.276 121.641) rotate(129.47)"/>
</clipPath>
</defs>
</svg>
