<svg xmlns="http://www.w3.org/2000/svg" enable-background="new 0 0 2000 2000" viewBox="0 0 2000 2000"><path fill="#6a516b" d="M1845.399,1843.033c0,19.625-377.018,23.689-843.918,23.689s-846.88-4.064-846.88-23.689
		c0-19.624,377.017-17.767,843.918-17.767S1845.399,1823.409,1845.399,1843.033z"/><path fill="#52201c" d="M1747.682,924.338l-183.916-2.874l-0.004-0.087l-2.796,0.044l-2.796-0.044l-0.004,0.087
		l-183.916,2.874l-48.615,920.907c0,0,58.251,5.922,61.212-5.922c2.961-11.844,61.432-752.124,61.432-752.124h103.97h17.436h103.97
		c0,0,58.471,740.279,61.432,752.124c2.961,11.844,61.212,5.922,61.212,5.922L1747.682,924.338z"/><path fill="#ef414c" d="M955.711,1212.92c0,0,101.369,611.606,110.214,624.873c5.246,7.869,20.455,8.171,23.416-3.674
		c2.961-11.844-59.602-630.083-59.602-630.083L955.711,1212.92z"/><path fill="#ef414c" d="M776.011,1212.92c0,0-86.743,611.606-95.588,624.873c-5.246,7.869-35.081,8.171-38.042-3.674
		c-2.961-11.844,59.602-630.083,59.602-630.083L776.011,1212.92z"/><path fill="#ef414c" d="M1267.556,1212.92c0,0-96.411,611.606-105.256,624.873c-5.246,7.869-25.413,8.171-28.374-3.674
		c-2.961-11.844,59.602-630.083,59.602-630.083L1267.556,1212.92z"/><path fill="#ef414c" d="M1328.477,1220.497c0,0-611.013,0-622.63,0c-11.616,0-126.326-553.776-113.001-589.309
		c13.325-35.534,414.556-7.403,458.973,7.403c44.417,14.806,125.847,454.532,127.328,478.221
		c1.48,23.689,124.367,31.092,139.172,35.534C1333.126,1156.786,1328.477,1220.497,1328.477,1220.497z"/><path fill="#fd8c7e" d="M1254.715,768.52l-59.367-127.982c-16.195-34.911-32.329-72.436-63.74-96.528
				c-16.374-12.559-35.878-19.953-55.302-26.368c-21.833-7.211-43.775-7.76-66.582-10.684c-36.934-4.735-58.047-6.668-80.625-8.615
				c-19.324-1.666-38.993,3.272-55.275,13.824c-7.756,5.026-21.9,19.477-28.945,25.459c-35.91,30.493-72.215,12.277-118.629,32.306
				c-20.51,8.851-40.386,21.011-55.369,37.799c-16.806,18.829-24.968,42.01-24.228,67.238c0.438,14.938,3.237,29.723,5.829,44.403
				c2.556,14.476,5.204,28.937,7.968,43.375c5.613,29.316,11.7,58.544,18.459,87.618c13.503,58.089,29.81,115.483,49.979,171.621
				c9.946,27.685,19.334,55.133,24.661,84.135c4.654,25.336,9.064,46.359,29.443,64.177c4.407,3.854,9.272,7.066,14.664,9.361
				c3.976,1.693,7.776-0.299,8.211-4.712c1.674-16.986,14.242-24.923,27.653-34.711c16.481-12.029,36.184-17.764,55.634-23.016
				c10.457-2.824,20.958-5.525,31.229-8.982c9.967-3.355,19.689-7.389,29.345-11.543c19.067-8.203,37.949-17.131,58.07-22.51
				c20.339-5.437,40.979-5.406,61.852-4.219c20.439,1.162,41.02,3.112,61.422,0.412c20.034-2.651,37.994-10.395,53.538-23.322
				c14.995-12.47,26.81-28.228,38.582-43.636c13.778-18.033,27.954-35.832,41.254-54.221c12.558-17.365,21.927-35.943,24.281-57.481
				C1293.459,848.424,1272.38,806.601,1254.715,768.52z"/><path fill="#1a1a1a" d="M906.032,524.268c0.681-1.022,8.736-13.21,8.736-13.21s0.633-4.435-7.323-5.994
				c-8.673-1.7-39.7,14.055-40.722,16.1C865.701,523.207,906.032,524.268,906.032,524.268z"/><path fill="#e47060" d="M1182.277,825.835c-1.908-1.908-5.863-2.311-7.717,0c-8.673,10.814-17.44,21.552-26.299,32.214
				c-18.254-38.237-35.899-76.764-52.864-115.59c-5.149-11.785-10.237-23.596-15.268-35.431c-1.153-2.713-5.153-3.311-7.466-1.958
				c-2.807,1.642-3.115,4.742-1.958,7.466c17.608,41.425,35.942,82.54,55.008,123.314c4.901,10.48,9.866,20.931,14.862,31.366
				c-24.217,28.847-49.1,57.134-74.665,84.795c-10.598,11.466-21.311,22.825-32.13,34.082c-4.868,5.065,2.839,12.793,7.717,7.717
				c38.47-40.025,75.549-81.383,111.123-124.004c10.005-11.987,19.889-24.074,29.658-36.254
				C1184.12,831.255,1184.521,828.079,1182.277,825.835z"/><path fill="#ac5627" d="M809.107,607.286c0,0,40.402,19.498,69.992-16.586c29.591-36.084,35.669-79.642,35.669-79.642
				s-26.56,13.748-73.726-11.229C793.875,474.853,717.206,571.789,809.107,607.286z"/><path fill="#4c281d" d="M844.508,564.166c18.169-20.861,21.445-37.138,26.873-52.327
				c-8.872-2.258-19.004-6.007-30.339-12.01c-44.423-23.524-122.759,43.378-54.044,82.958
				C805.62,586.622,829.869,580.972,844.508,564.166z"/><path fill="#3c1210" d="M785.984,434.854c9.369-17.86,7.681-40.012-5.152-56.022c9.052-14.075,1.82-33.101-10.612-45.893
				c1.049-11.57,1.255-23.724-4.906-34.006c-4.41-7.36-10.987-11.566-18.676-13.495c0.124-7.696-9.354-16.267-15.218-20.431
				c-4.699-3.337-9.866-5.751-15.216-7.12c-3.253-17.925-18.277-30.109-35.308-31.006c-7.527-9.018-19.481-21.266-30.846-23.943
				c-9.088-18.311-29.949-27.592-49.955-22.641c-9.477-7.589-22.318-8.39-34.6-5.402c-11.648,2.833-25.895,7.507-29.586,19.675
				c-10.539,3.628-21.871,13.43-26.41,18.807c-11.946,14.153-15.672,34.697-6.268,50.807
				c-18.154,13.079-22.587,36.709-13.288,55.024c-9.993,9.843-15.706,23.466-18.692,37.349
				c-2.939,13.661-4.333,38.421,12.231,42.145c-4.17,16.581-7.487,34.428-1.035,50.709c3.417,8.621,8.991,15.872,16.281,20.638
				c-2.187,13.606,0.875,27.918,10.855,38.178c11.122,11.435,29.145,15.253,43.667,9.167c0.677,11.065,3.615,22.32,13.988,28.029
				c9.035,4.974,18.521,3.464,27.814,0.521c9.57,19.343,35.143,26.621,52.8,12.376c3.626,5.266,9.766,8.641,16.376,9.468
				c8.771,1.099,16.718-2.503,23.911-7.178c11.295,6.994,27.524,6.132,40.048,3.786c8.847-1.657,16.922-6.198,20.52-14.788
				c0.974-2.324,1.531-4.721,1.779-7.153c0.083-0.031,0.164-0.042,0.248-0.078c21.072-8.938,45.712-38.543,32.441-61.62
				C797.557,468.591,797.638,447.284,785.984,434.854z"/><path fill="#ac5627" d="M498.332,583.414c-7.605-24.937-1.947-40.717,12.672-52.151
								c12.585-9.844,30.852-8.096,42.753-2.75c31.036-41.955,4.446-80.741,9.986-97.464
								c35.388-106.815,39.976-155.828,32.037-185.071c55.104,13.669,55.691,31.192,114.19,55.993
								c85.727,36.343,150.27,112.27,133.508,191.472c-15.001,70.882-57.652,107.951-104.586,124.808
								c-38.053,13.668-77.534,3.423-119.522-17.341c0,0-4.645,23.981-16.592,31.389
								C576.882,648.355,515.075,638.315,498.332,583.414z"/><path fill="#3c1210" d="M614.58,290.567c6.739-7.523,9.158-17.705,7.519-28.139c-0.94-5.981-3.132-13.247-6.663-19.492
				c0.415-0.948,0.503-2.087,0.047-3.393c-7.748-22.207-28.294-37.056-51.728-38.255c-0.226-0.012-0.493-0.011-0.752-0.014
				c-2.087-5.866-6.601-10.573-12.691-13.178c-8.754-3.744-18.077-1.798-26.505,1.739c-12.205-8.744-35.295-0.476-45.766,6.88
				c-5.701,4.005-10.413,8.985-14.098,14.598c-8.857-2.669-19.797,0.663-27.061,6.316c-5.031,3.915-8.946,9.46-9.973,15.843
				c-0.155,0.966-0.236,1.932-0.277,2.896c-17.452,2.487-33.984,11.171-45.744,24.519c-4.48,5.084-8.242,10.748-11.057,16.909
				c-8.676,4.198-14.88,11.31-18.065,20.566c-1.682,4.89-2.927,9.172-6.775,12.84c-3.843,3.664-7.54,7.115-10.229,11.773
				c-2.722,4.717-4.362,9.927-5,15.322c-0.306,2.596-0.236,5.118-0.086,7.719c0.156,2.706-0.03,4.312-1.906,6.278
				c-3.276,3.433-6.44,6.655-8.565,10.974c-2.123,4.316-3.32,8.883-3.93,13.638c-1.299,10.127,0.22,20.411,2.201,30.382
				c-19.265,18.131-26.858,47.796-18.638,72.969c1.15,3.522,2.905,6.806,4.056,10.318c1.334,4.071-0.134,6.734-2.224,10.224
				c-4.071,6.797-6.264,14.568-5.713,22.528c0.272,3.94,1.081,7.806,2.572,11.466c1.465,3.595,3.576,6.959,4.735,10.671
				c1.25,4.009,0.527,7.927-0.407,11.922c-0.92,3.933-1.772,7.829-2.119,11.862c-1.376,15.989,4.408,32.305,15.176,44.129
				c-1.334,13.876-2.046,28.935,4.921,41.497c1.804,3.252,4.174,6.141,6.8,8.76c2.676,2.67,5.402,5.148,7.191,8.531
				c1.94,3.666,3.041,7.724,4.69,11.523c1.461,3.366,3.377,6.428,5.643,9.308c4.534,5.762,10.469,10.142,17.156,13.019
				c2.805,14.435,11.791,27.262,24.209,35.115c4.693,2.967,9.013-4.473,4.341-7.428c-11.227-7.099-18.601-18.85-20.613-31.924
				c-0.233-1.514-1.694-2.531-3.004-3.004c-9.336-3.371-16.842-10.803-20.522-19.992c-2.197-5.486-3.855-11.029-7.665-15.677
				c-3.296-4.021-7.54-7.101-10.245-11.61c-5.147-8.576-5.489-19.077-5.015-28.796c0.127-2.599,0.33-5.194,0.567-7.786
				c0.12-1.317,0.498-2.91,0.142-4.205c-0.437-1.585-1.909-2.69-2.96-3.865c-3.427-3.836-6.208-8.313-8.255-13.031
				c-3.926-9.052-5.229-19.454-3.289-29.149c1.247-6.227,3.264-12.247,2.221-18.671c-0.925-5.697-4.489-10.4-6.263-15.795
				c-1.639-4.983-1.968-10.365-0.822-15.494c1.283-5.748,4.893-10.022,6.982-15.396c2.345-6.035-0.056-11.445-2.391-17.007
				c-1.828-4.356-3.091-8.96-3.855-13.619c-3.404-20.755,4.549-42.975,20.325-56.814c1.186-1.041,1.406-2.733,1.106-4.185
				c-2.799-13.562-6.002-30.311,1.854-42.821c1.893-3.014,4.667-5.125,6.894-7.851c3.196-3.909,3.341-7.904,3.101-12.744
				c-0.386-7.777,2.116-15.699,7.307-21.578c2.88-3.261,6.464-5.782,9.079-9.292c2.479-3.329,3.732-7.317,5.009-11.217
				c2.385-7.286,6.655-13.207,13.681-16.628c2.026-0.986,3.171-1.598,4.142-3.72c0.776-1.697,1.629-3.358,2.555-4.978
				c1.721-3.012,3.678-5.899,5.904-8.561c4.484-5.363,9.767-10.005,15.68-13.732c1.121-0.707,2.271-1.37,3.433-2.013
				c-2.607,2.601-5.009,5.338-7.133,8.125c-5.056,6.637-8.534,14.43-9.877,22.45c-9.902,3.834-18.13,12.709-17.525,22.269
				c-8.05,2.652-14.933,13.612-17.865,20.157c-3.93,8.773-4.831,18.315-1.87,26.859c-5.939,3.129-8.887,10.993-10.93,16.866
				c-4.493,12.915-4.482,26.841-0.719,39.766c-8.79,9.263-14.745,21.809-17.802,33.589c-2.739,10.553-5.13,34.096,4.789,42.055
				c-1.529,2.908-2.615,6.194-3.538,9.16c-3.619,11.616-4.715,24.052-3.212,36.12c0.621,4.98,1.751,9.969,3.806,14.483
				c-4.085,8.211-5.538,17.703-3.776,26.906c2.084,10.891,9.725,21.854,20.037,23.24c-4.876,14.082-6.306,29.446,1.758,42.849
				c2.909,4.836,6.842,8.663,11.338,11.338c0.492,8.113,2.904,16.122,7.286,23.258c3.816,6.214,10.002,13.82,17.242,16.099
				c0.467,0.147,0.927,0.261,1.379,0.347c2.194,26.513,27.176,44.699,52.053,41.249c8.859,8.429,21.551,12.829,34.023,10.786
				c16.88-2.765,29.16-15.86,34.374-31.395c17.77,14.954,53.095-1.907,68.839-13.971c10.826-8.296,21.282-19.029,21.259-33.57
				c-0.003-1.547-0.132-3.055-0.33-4.541c10.875-8.282,18.867-21.727,21.22-33.886c2.983-15.414-2.413-30.882-13.997-40.38
				c11.23-6.763,18.153-20.494,14.562-33.716c-3.284-12.094-14.084-20.189-25.915-21.808c0.395-9.062-1.996-17.805-5.53-26.491
				c-0.25-0.613-0.502-1.22-0.757-1.823c8.274-3.934,13.617-13.081,14.434-22.547c0.571-6.61-0.89-13.458-4.318-19.163
				c-2.822-4.697-3.021-3.298-0.227-7.952c1.611-2.683,2.742-5.443,3.245-8.556c1.096-6.785-1.223-11.712-4.429-17.389
				c-2.779-4.92-1.79-6.028,1.852-10.663c1.765-2.246,3.206-4.506,4.259-7.185c3.649-9.282,1.964-19.999-3.958-27.764
				c17.708-11.896,25.407-32.773,21.734-52.263C618.149,315.455,622.88,299.656,614.58,290.567z"/><path fill="#8e2a1d" d="M752.093,400.398c-3.142,0.141-5.799,2.548-5.799,5.799v9.37c0,3.033,2.667,5.939,5.799,5.799
				c3.142-0.14,5.799-2.548,5.799-5.799v-9.37C757.892,403.163,755.224,400.257,752.093,400.398z"/><path fill="#1a1a1a" d="M687.579,443.28c0.286-2.068-0.741-4.136-2.905-4.631c-1.9-0.435-4.344,0.825-4.631,2.906
				c-2.022,14.641-9.305,27.863-20.564,37.434c-1.592,1.353-1.229,4.149,0.171,5.465c1.666,1.565,3.87,1.185,5.465-0.171
				C677.267,473.952,685.398,459.076,687.579,443.28z"/><path fill="#1a1a1a" d="M719.913,314.389c-0.289-2.068-2.059-3.691-4.208-3.491c-2.011,0.187-3.782,2.13-3.491,4.207
				c1.469,10.506,0.504,21.271-3.086,31.276c-0.705,1.964-0.142,4.199,1.87,5.138c1.759,0.82,4.43,0.103,5.138-1.871
				C720.188,338.357,721.578,326.289,719.913,314.389z"/><path fill="#fff" d="M788.02,464.724c0,0-15.992-20.216-4.825-40.356c5.633-10.158,13.818,0.219,18.204,13.159
				c4.222,12.455,11.916,6.683,12.063,13.818C813.69,462.405,801.618,480.296,788.02,464.724z"/><path fill="#3c1210" d="M622.801,412.191c-8.122,20.735-9.604,42.714-4.843,64.433c1.598,7.287,12.78,4.203,11.183-3.083
				c-4.339-19.792-2.534-39.435,4.843-58.267C636.708,408.322,625.497,405.308,622.801,412.191z"/><path fill="#3c1210" d="M679.289,287.618c-11.027,7.279-20.1,16.764-26.738,28.201
				c-3.753,6.468,6.265,12.314,10.015,5.854c5.633-9.706,13.202-17.852,22.577-24.041
				C691.344,293.539,685.542,283.491,679.289,287.618z"/><g><path fill="#e7ebff" d="M355.281,814.48c0,0,2.682,5.633,5.096,26.017c2.414,20.384-3.755,30.04-3.755,30.04
				s177.825,4.023,180.239-1.341c2.414-5.364-0.536-52.57-2.414-55.788C532.57,810.188,355.281,814.48,355.281,814.48z"/><path fill="#6e4e4e" d="M354.027,803.929c3.782-0.501,373.342-4.549,377.574-3.491c4.232,1.058,4.232,71.951,3.174,77.242
				H351.41c0,0-5.201-9.289-1.25-12.3c1.232-0.939,177.047-1.289,180.915-1.289c3.867,0,3.008-41.254,0.859-45.121
				c-2.149-3.867-168.882-0.859-180.485-0.859C351.878,816.821,351.449,806.078,354.027,803.929z"/></g><g><path fill="#e7ebff" d="M363.328,754.936c0,0,4.828,7.51,4.56,19.848c-0.268,12.338-5.096,18.507-5.096,18.507
				s177.825,2.414,180.507-0.536c2.682-2.95,0-38.354,0-38.354L363.328,754.936z"/><path fill="#edb140" d="M362.285,743.401c3.782-0.501,372.688-1.258,376.92-0.2c4.232,1.058,10.183,59.76,3.828,60.153
				c-6.355,0.393-382.394,0-385.151,0c-2.758,0-0.324-11.011,0.535-12.3c0.859-1.289,177.047-1.289,180.914-1.289
				s3.008-27.456,0.859-31.323c-2.149-3.867-168.882-0.859-180.485-0.859C360.137,756.292,359.707,745.549,362.285,743.401z"/></g><g><path fill="#e7ebff" d="M310.49,658.648c0,0,3.755,2.414,7.242,21.725c3.487,19.311-1.877,47.206-5.901,52.57
				c-4.023,5.364,169.779,4.56,178.63,0c8.851-4.56,6.437-71.613-0.805-73.222C482.414,658.112,310.49,658.648,310.49,658.648z"/><path fill="#5074a6" d="M310.171,649.192c3.782-0.502,407.201-1.258,411.433-0.2c4.232,1.058,10.656,94.525,4.301,94.917
				c-6.355,0.393-416.907,0-419.664,0c-2.758,0-0.324-11.011,0.535-12.3c0.859-1.289,177.047-1.289,180.914-1.289
				c3.868,0,2.535-62.22,0.386-66.088c-2.149-3.868-168.882-0.86-180.485-0.86C308.022,662.084,307.592,651.341,310.171,649.192z"/></g><g><path fill="#ac5627" d="M753.427,564.886c0,0,10.174-1.113,42.263,20.02c32.09,21.132,57.694,90.673,63.173,106.326
				c5.479,15.654,6.656,60.899,9.787,70.291c3.131,9.392-6.673,16.905-13.857,12.753c-5.463-3.158-7.498-19.872-9.277-27.435
				c-1.78-7.563-8.453-16.461-8.453-16.461s-4.894,18.685-7.118,28.472c-2.224,9.787-6.228,17.35-10.232,15.126
				c-4.004-2.224-4.894-11.567-4.894-11.567s-7.864,3.727-10.65-13.92c-0.531-3.365-6.255-2.096-6.255-2.096
				s1.78,13.346-9.787,16.016c-11.567,2.669-21.354-28.028-22.689-40.484c-1.334-12.457-9.342-24.024-20.019-39.149
				c-10.677-15.126-14.681-28.027-20.02-36.48C720.061,637.846,753.427,564.886,753.427,564.886z"/><path fill="#fd8c7e" d="M389.885,650.614c0,0-25.046-39.134-6.262-93.139c18.784-54.005,127.053-38.948,217.584-32.09
				c51.657,3.913,129.141,19.567,165.145,22.698c9.357,0.814,12.523,20.35-1.565,60.266c-10.242,29.02-17.219,40.699-27.394,46.178
				c-10.175,5.479-15.789-5.535-15.789-5.535L389.885,650.614z"/><path fill="#9e441d" d="M855.811,773.384c-7.23-3.987-5.268-16.142-5.846-23.216c-0.362-4.431-1.029-8.86-3.046-12.872
				c-1-1.988-2.65-3.518-3.982-5.29c-1.547-2.058-3.008-3.482-3.863-4.813c-2.141-3.333-6.807-2.489-6.445,1.065
				c-1.667,9.952-2.899,20.116-5.264,29.928c-0.919,3.811-2.097,9.018-5.102,11.796c-2.962,2.737-4.198-1.538-4.645-4.546
				c6.33-2.6,7.549-12.664,8.657-18.6c3.603-19.316,4.711-39.035,3.283-58.631c-0.305-4.178-6.855-4.211-6.548,0
				c1.129,15.489,0.739,31.098-1.363,46.491c-0.522,3.825-1.155,7.635-1.881,11.426c-0.658,3.441-1.088,7.296-2.483,10.529
				c-0.479,1.111-1.524,2.925-2.982,2.906c-1.465-0.019-2.283-1.975-2.831-3.091c-1.545-3.149-2.261-6.604-2.376-10.091
				c3.171-4.783,3.134-12.003,3.653-17.451c1.62-17.009,0.865-34.132-1.947-50.975c-0.692-4.147-7.004-2.388-6.314,1.741
				c2.224,13.321,3.001,26.864,2.349,40.354c-0.313,6.483-0.638,13.262-2.036,19.616c-0.393,1.787-1.006,4.151-3.102,4.557
				c-2.223,0.43-4.528-1.34-5.62-3.096c-2.971-4.777-2.404-11.868-2.804-17.263c-0.486-6.557-0.925-13.119-1.461-19.672
				c-0.482-5.888-1.251-11.933-4.297-17.119c-2.184-3.718-5.331-6.682-8.72-9.288c-7.012-5.393-17.743-8.665-23.407-16.352
				c-0.962-1.305-1.855-5.908-2.885-5.496c-1.305,0.412-0.893,3.916,0.03,5.809c3.305,8.989,11.767,13.836,19.32,19.048
				c3.888,2.683,7.808,5.686,10.176,9.867c3.297,5.822,3.208,13.094,3.688,19.578c0.56,7.558,1.014,15.133,1.688,22.682
				c0.511,5.727,1.696,11.896,6.667,15.472c2.614,1.88,5.858,2.65,8.831,2.116c0.818,5.794,3.094,12.856,8.109,14.958
				c0.512,4.97,2.187,10.243,7.6,11.684c6.075,1.618,10.181-4.065,12.289-8.876c2.489-5.682,3.569-11.737,4.594-17.818
				c0.805-4.773,1.608-9.546,2.412-14.318c1.129,1.176,2.221,2.395,3.037,3.865c2.29,4.129,2.434,9.158,2.711,13.757
				c0.518,8.599,1.975,16.992,10.297,21.581C857.646,777.371,859.506,775.422,855.811,773.384z"/><path fill="#9e441d" d="M820.16,604.316c-6.417-10.931-16.893-23.717-36.852-34.917c-1.543-0.866-3.631-0.277-4.48,1.175
				c-0.946,1.617-0.292,3.482,1.174,4.48c8.872,6.04,23.573,17.87,35.527,33.893c1.057,1.416,3.317,1.313,4.63,0
				C821.343,607.763,821.06,605.847,820.16,604.316z"/></g><g><path fill="#ac5627" d="M1369.502,1613.128c0,0-1.624,85.989-7.197,113.854c-5.573,27.864-12.26,42.354-21.177,62.416
					c0,0-6.688,40.125,6.687,50.156s151.581,12.26,164.956,3.344c13.375-8.917,11.146-33.437,8.917-67.989
					c-2.229-34.552-11.146-151.582-11.146-151.582l-125.916-22.623L1369.502,1613.128z"/><path fill="#ef414c" d="M1512.772,1842.897c13.374-8.917,11.146-33.437,8.916-67.989
					c-0.673-10.423-1.953-28.356-3.415-48.314c-11.44,13.079-28.508,24.764-33.656,5.082c-7.057-26.981-17.849-62.263-51.886-63.923
					c-34.037-1.66-61.018,11.622-63.508,23.66c-1.237,5.979-2.781,8.984-4.021,10.499c-0.797,10.48-1.753,19.35-2.897,25.07
					c-5.573,27.864-12.26,42.354-21.177,62.416c0,0-6.687,40.125,6.688,50.156
					C1361.19,1849.584,1499.397,1851.813,1512.772,1842.897z"/><path fill="#d82d36" d="M1430.889,1762.896c-27.139-9.214-52.522-12.295-77.792,4.995
					c-4.646,3.179-5.238,7.443-0.617,4.281c22.406-15.33,51.273-9.283,75.12-1.187
					C1432.906,1772.787,1436.215,1764.704,1430.889,1762.896z"/><path fill="#fff" d="M1522.727,1822.15c-2.325,1.465-4.959,3.038-7.808,4.582
					c-9.962,5.396-37.773-3.321-57.697-11.207c-19.924-7.887-41.924-19.924-68.904-19.509c-26.981,0.415-35.698,9.132-46.49,13.698
					c-0.866,0.366-1.638,0.628-2.37,0.847c-0.015,11.325,1.64,23.955,8.358,28.994c13.375,10.031,151.582,12.26,164.956,3.344
					C1518.733,1838.922,1521.584,1831.83,1522.727,1822.15z"/><path d="M1379.024,1829.522c-15.099,1.078-26.51,3.982-34.304,6.693c0.889,1.313,1.91,2.449,3.096,3.338
					c9.961,7.47,89.147,10.612,134.454,8.047C1452.247,1839.991,1404.499,1827.702,1379.024,1829.522z"/><g><path fill="#b3aa75" d="M1189.547,1166.353c3.319,0.405,67.989,17.833,98.082,25.635
					c30.093,7.802,35.666,11.146,35.666,11.146s-5.573,432.453,7.802,456.974s199.508,13.375,208.425-2.229
					c8.917-15.604,15.604-361.121-1.115-494.869c-16.719-133.748-46.812-171.644-118.144-177.217
					c-71.332-5.573-212.883,22.292-212.883,22.292s-59.072,55.729-84.708,65.759
					C1097.037,1083.874,1143.849,1160.78,1189.547,1166.353z"/><path fill="#938b53" d="M1469.699,1504.977c-28.338-30.84-57.634-60.796-85.641-91.94
					c-21.916-24.37-42.965-49.612-61.805-76.438c-0.497,129.257,0.382,307.997,8.843,323.508
					c13.375,24.521,199.508,13.375,208.425-2.229c2.334-4.085,4.515-30.809,6.163-70.4
					C1520.231,1560.094,1494.995,1532.507,1469.699,1504.977z"/><path fill="#938b53" d="M1324.875,1142.627c0.146-5.62-8.585-5.617-8.731,0c-0.884,34.035-0.246,68.095,1.91,102.073
					c0.354,5.58,9.087,5.62,8.731,0C1324.629,1210.722,1323.992,1176.661,1324.875,1142.627z"/></g></g><g><path fill="#1a1a1a" d="M1079.879,1004.248c0,0,40.008,20.332,49.846,36.073c9.838,15.741,5.247,26.891,5.247,26.891
				s-21.644,1.967-41.32-13.773S1079.879,1004.248,1079.879,1004.248z"/><path fill="#ac5627" d="M916.032,1006.413c6.536-7.189,18.954-12.418,33.333-11.764
				c14.379,0.654,52.941,7.843,65.359,9.15c12.418,1.307,18.3-4.575,26.143-8.497c7.843-3.922,40.522,5.882,52.94,16.34
				c12.418,10.457,22.222,24.836,17.647,39.215c-4.575,14.379-128.757,14.379-162.743,17.647
				c-33.987,3.268-49.683,3.561-54.912-3.628C888.571,1057.686,909.496,1013.603,916.032,1006.413z"/><path fill="#b3aa75" d="M969.943,1045.394l27.539-1.377c0,0,33.735-19.277,71.6-12.392
				c37.865,6.885,68.846,35.112,83.304,54.389c14.458,19.277,24.785,61.273,51.635,105.335
				c26.85,44.062,190.016,316.004,228.569,360.066c38.554,44.062-107.88,176.239-136.107,175.551
				c-28.227-0.688-156.281-198.277-200.343-273.319c-44.062-75.042-100.674-226.257-104.804-233.142
				c-4.131-6.885-24.835-7.124-50.308-19.517c-25.473-12.392-45.449-19.984-64.809-20.759c-11.755-0.47-75.637,0.105-75.637,0.105
				s-6.196-44.75,21.342-82.616c27.538-37.865,78.223-59.023,78.223-59.023l-0.927,7.729c0,0-10.512,11.439-6.183,16.386
				c4.328,4.947,20.714-3.71,24.424-6.802c3.71-3.092,3.71,4.637,15.149-1.546c11.439-6.183,13.294-8.347,13.294-8.347
				S950.081,1051.166,969.943,1045.394z"/><path fill="#938b53" d="M1013.051,1258.751c-19.382-34.636-34.213-71.718-43.904-110.21
				c-1.363-5.412-9.974-3.936-8.598,1.533c9.875,39.221,24.836,77.071,44.588,112.368
				C1007.864,1267.314,1015.804,1263.671,1013.051,1258.751z"/><path fill="#938b53" d="M1220.341,1204.273c-20.122-35.499-39.09-71.644-56.872-108.371
				c-2.448-5.056-9.979-0.634-7.539,4.407c17.782,36.727,36.75,72.872,56.872,108.371
				C1215.573,1213.567,1223.118,1209.173,1220.341,1204.273z"/><path fill="#9e441d" d="M984.162,1017.534c-7.576,2.75-15.152,5.501-22.728,8.251c-3.698,1.342-7.439,2.605-11.102,4.042
				c-3.468,1.361-6.126,3.253-7.751,6.698c-1.163,2.465-2.19,5.101-1.79,7.735c-0.383,0.23-0.736,0.551-1.039,0.976
				c-3.613,5.07-9.814,8.046-16.005,7.999c-1.581-0.012-3.378-0.141-4.874-0.727c-1.538-0.603-0.828-1.554-0.019-2.721
				c2.435-3.516,5.913-6.601,8.797-9.754c5.39-5.893,10.707-11.952,17.49-16.29c6.461-4.132,13.81-6.905,21.425-7.922
				c1.767-0.236,3.254-1.336,3.274-3.274c0.016-1.589-1.522-3.508-3.274-3.274c-7.652,1.022-14.978,3.28-21.747,7.037
				c-7.161,3.975-13.025,9.548-18.536,15.532c-2.901,3.148-5.781,6.315-8.67,9.474c-2.556,2.794-5.726,5.727-6.194,9.696
				c-0.281,2.388,0.458,4.169,1.77,5.486c-4.596,3.292-11.824,6.312-16.927,3.87c-3.789-1.813,1.187-5.682,2.788-7.429
				c3.005-3.277,6.008-6.554,9.012-9.832c5.877-6.412,11.571-13.085,17.783-19.176c5.977-5.86,13.039-9.842,20.88-12.667
				c3.935-1.418,2.237-7.748-1.741-6.314c-7.41,2.67-14.415,6.167-20.445,11.294c-6.537,5.558-12.079,12.383-17.864,18.694
				c-0.339,0.37-0.678,0.74-1.017,1.109c1.904-5.408,1.956-10.294,4.625-15.391c0.82-1.566,8.284-14.489,6.708-15.411
				c-1.474-0.862-9.692,11.663-10.516,13.235c-4.562,8.712-10.389,27.223-10.212,27.758c-2.5,2.561-5.298,5.203-6.927,8.283
				c-3.411,6.449,1.678,11.921,8.01,12.864c7.909,1.178,16.19-2.486,22.094-7.517c0.158-0.135,0.282-0.277,0.403-0.42
				c2.262,0.379,4.591,0.398,6.458,0.202c7.253-0.761,13.669-4.296,18.172-9.94c1.653,1.057,3.636,1.636,5.607,1.803
				c7.495,0.635,17.361-4.995,24.744-5.477c4.184-0.273,4.94-2.451,0.725-2.176c-6.165,0.402-15.459,0.386-21.564,1.029
				c-1.746,0.184-5.818,0.711-6.735-1.462c-2.34-5.55,8.135-8.503,10.619-9.405c3.03-1.1,6.06-2.2,9.091-3.3l18.94-6.876
				C989.833,1022.422,988.136,1016.092,984.162,1017.534z"/></g><g><path d="M1339.368,1658.365c0,0-35.021,76.976-21.646,87.007c13.375,10.031,60.744-53.499,64.645-69.103
				C1386.268,1660.664,1339.368,1658.365,1339.368,1658.365z"/><path fill="#ac5627" d="M1431.962,1558.909c0,0,27.311,39.896,66.321,63.303c39.01,23.406,106.999,24.521,129.29,27.864
				c22.292,3.344,24.521,45.697,18.948,91.395c-5.573,45.697-31.208,81.364-52.385,82.478
				c-21.177,1.115-84.707-16.719-135.978-50.156c-51.27-33.437-93.155-84.221-118.79-115.429
				C1394.636,1542.762,1431.962,1558.909,1431.962,1558.909z"/><path fill="#fff" d="M1627.573,1650.076c-22.291-3.344-90.28-4.458-129.29-27.864
				c-14.108-8.465-26.673-19.083-36.982-29.194c-11.287,9.71-21.617,20.537-30.778,32.267
				c-13.11,16.786-23.889,35.461-31.763,55.254c-4.376,11-7.834,22.369-10.341,33.942c20.251,21.024,43.79,42.39,69.739,59.313
				c51.271,33.437,114.801,51.27,135.978,50.156s46.812-36.781,52.385-82.478C1652.093,1695.773,1649.864,1653.42,1627.573,1650.076
				z"/><path fill="#ef414c" d="M1627.573,1650.076c-21.643-3.246-86.352-4.395-125.804-25.879
				c-3.862,0.183-8.036,0.587-12.403,1.358c-18.947,3.344-35.666,46.812-36.781,76.905c-1.114,30.093,53.5,33.437,60.187,59.072
				c5.587,21.416-16.051,17.171-35.672,23.638c47.002,26.07,98.405,39.758,117.035,38.778c21.177-1.114,46.812-36.781,52.385-82.478
				C1652.093,1695.773,1649.865,1653.42,1627.573,1650.076z"/><path fill="#e7ebff" d="M1627.573,1650.076c-4.606-0.691-11.186-1.289-19.036-2.006c1.089,8.78,0.914,18.472-2.141,27.641
				c-8.916,26.75-22.292,32.323-18.948,62.416c3.344,30.093,7.803,50.155,2.23,65.76c-2.576,7.213-12.296,12.755-22.005,16.633
				c11.329,2.571,20.55,3.74,26.463,3.429c21.177-1.114,46.812-36.781,52.385-82.478
				C1652.093,1695.773,1649.865,1653.42,1627.573,1650.076z"/><path d="M1636.437,1654.234c-0.712,7.348-2.319,15.525-5.521,23.706c-10.031,25.635-12.261,44.583-13.374,79.135
				c-0.948,29.376-3.539,45.869-14.559,64.534c18.946-8.705,38.725-40.669,43.538-80.138
				C1651.241,1702.767,1650.359,1666.471,1636.437,1654.234z"/><path fill="#d82d36" d="M1522.297,1800.907c-12.604-2.979-24.865-7.242-36.543-12.848
				c-2.124-1.02-4.715-0.584-5.973,1.566c-1.116,1.909-0.569,4.948,1.566,5.973c12.357,5.931,25.287,10.574,38.629,13.728
				C1525.44,1810.618,1527.772,1802.202,1522.297,1800.907z"/></g><g><path fill="#e7ebff" d="M963.838,799.318c0,0,90.054,3.895,136.958,19.473c46.903,15.578,72.231,32.454,72.231,32.454
			s47.733-23.245,103.187-32.454c46.903-7.789,96.621-12.982,96.621-12.982s16.934,31.469,21.576,61.014
			c0.857,5.454-454.962-3.894-454.962-3.894S939.449,825.281,963.838,799.318z"/><path fill="#938b53" d="M939.449,862.929c0,0-10.413-1.518-11.51,0c-1.097,1.518,0.935,15.326,0.935,15.326h477.226
			c0,0,0.789-8.239,0.467-11.643c-0.034-0.358-12.536-0.45-12.536-0.45L939.449,862.929z"/></g><path fill="#6e342e" d="M208.679,877.122h1599.806c0,0,5.909,20.3-0.352,46.911H208.813
		C208.813,924.032,194.458,903.781,208.679,877.122z"/><path fill="#52201c" d="M648.688,890.969v18.903c0,9.95,15.464,9.967,15.464,0v-18.903
		C664.151,881.019,648.688,881.002,648.688,890.969z"/><path fill="#6e342e" d="M613.574,924.338l-183.916-2.874l-0.004-0.087l-2.796,0.044l-2.796-0.044l-0.004,0.087
		l-183.916,2.874l-48.615,920.907c0,0,58.251,5.922,61.212-5.922c2.961-11.844,61.432-752.124,61.432-752.124h103.97h17.436h103.97
		c0,0,58.471,740.279,61.432,752.124c2.961,11.844,61.212,5.922,61.212,5.922L613.574,924.338z"/><path fill="#52201c" d="M600.978,926.618H262.361c-9.951,0-9.967,15.464,0,15.464h338.617
		C610.928,942.082,610.945,926.618,600.978,926.618z"/></svg>