<svg width="197" height="170" viewBox="0 0 197 170" fill="none" xmlns="http://www.w3.org/2000/svg">
<mask id="mask0_0_1" style="mask-type:luminance" maskUnits="userSpaceOnUse" x="31" y="0" width="166" height="170">
<path d="M196.268 0H31V170H196.268V0Z" fill="white"/>
</mask>
<g mask="url(#mask0_0_1)">
<path d="M60.0393 154.352L59.4559 155.388C58.1209 155.379 56.9479 155.37 55.9295 155.362C55.9295 155.362 57.9899 152.674 58.1775 152.456C58.3651 152.239 59.1253 152.251 59.4307 152.385C59.736 152.518 60.0178 154.157 60.0393 154.352ZM64.6114 153.97C64.5251 153.595 64.214 152.6 63.9466 152.482C63.6413 152.349 62.8807 152.337 62.6935 152.555C62.5063 152.772 60.9127 155.396 60.9127 155.396C61.8492 155.402 62.8567 155.408 63.9351 155.414C63.9351 155.414 64.6552 154.282 64.6341 154.087C64.6287 154.048 64.6211 154.009 64.6114 153.97V153.97ZM69.1604 152.93C69.1129 152.675 69.0571 152.482 68.9952 152.463C68.8072 152.4 67.5792 152.383 67.4784 152.505C67.2979 152.725 65.651 155.38 65.6241 155.423C66.5915 155.428 67.6106 155.432 68.6816 155.437C68.701 155.405 69.3447 154.388 69.3245 154.196C69.3112 154.068 69.2493 153.4 69.1604 152.931V152.93ZM76.5314 152.58C76.2281 152.442 75.2655 152.344 75.0779 152.561C74.8903 152.779 73.5198 155.451 73.5198 155.451L76.1228 155.459L76.7384 154.193C76.7165 154 76.7417 152.675 76.5314 152.58V152.58ZM81.5659 153.051C81.5337 152.858 81.4862 152.702 81.413 152.661C81.2453 152.569 80.1016 152.44 79.9136 152.657C79.7256 152.874 78.6059 155.424 78.5874 155.466C79.4041 155.468 80.241 155.47 81.0982 155.471C81.0982 155.471 81.6651 154.162 81.6444 153.967C81.6308 153.843 81.6225 153.391 81.5659 153.051V153.051ZM87.3309 152.774C87.2185 152.97 86.1414 155.477 86.1414 155.477C86.8454 155.477 87.5616 155.477 88.2898 155.477C88.2898 155.477 88.9823 153.99 89.0286 153.797C89.0563 153.685 89.0699 152.743 88.9782 152.717C88.7939 152.664 87.4742 152.525 87.3309 152.774V152.774ZM92.384 152.792C92.2712 152.988 91.5522 155.48 91.5522 155.48H93.5983C93.5983 155.48 94.0342 154.007 94.0804 153.816C94.1081 153.703 94.1218 152.762 94.0296 152.736C94.016 152.732 93.9966 152.728 93.9714 152.722C93.6586 152.663 92.5162 152.561 92.384 152.793V152.792ZM98.2241 152.725C97.8523 152.7 97.4548 152.713 97.3759 152.852C97.2643 153.047 96.7008 155.439 96.6909 155.479C97.3203 155.479 97.957 155.479 98.6009 155.479C98.6009 155.479 98.8984 154.088 98.9447 153.898C98.972 153.785 98.986 152.844 98.8943 152.817C98.6731 152.769 98.4487 152.738 98.2229 152.725L98.2241 152.725ZM104.95 152.847C104.837 153.044 104.52 155.471 104.52 155.471L106.351 155.468C106.351 155.468 106.481 154.159 106.519 153.893C106.535 153.777 106.558 152.838 106.468 152.812C106.286 152.758 105.094 152.598 104.95 152.848V152.847ZM111.644 154.687L111.49 152.778L110.663 152.787L110.073 152.793L110.013 154.668L109.53 154.716L109.482 155.465L112.333 155.459L112.325 154.682L111.644 154.687ZM117.965 152.886L117.905 154.76L117.422 154.809L117.382 155.446L120.228 155.439L120.221 154.775L119.537 154.782L119.383 152.873H119.332L117.965 152.886ZM125.17 154.721L124.486 154.728L124.332 152.819L123.479 152.828L122.914 152.834L122.854 154.708L122.371 154.757L122.334 155.43L125.177 155.422L125.17 154.721ZM129.427 154.676L129.274 152.766L127.856 152.782L127.795 154.656L127.525 154.683L127.313 154.705L127.268 155.414C128.208 155.411 129.158 155.407 130.119 155.404L130.112 154.669L129.427 154.676ZM135.631 152.7L135.314 152.703L135.464 154.514L134.838 154.521L135.027 155.385C135.993 155.38 136.969 155.376 137.955 155.372L137.062 152.685L135.631 152.7ZM140.511 152.648L140.651 154.315L140.663 154.46L140.036 154.466L140.284 155.362L143.306 155.348L142.257 152.63L140.511 152.648ZM148.87 152.744L148.522 152.748L148.672 154.559L148.045 154.565L148.319 155.323C149.293 155.319 150.274 155.314 151.264 155.308L150.269 152.729L148.87 152.744ZM153.298 152.901L153.314 153.095L153.449 154.712L152.822 154.719L153.07 155.299L156.352 155.281L155.046 152.882L153.298 152.901ZM158.349 152.643L158.5 154.455H158.39L157.873 154.46L158.293 155.268L160.627 155.254L161.612 155.248L160.097 152.623L158.349 152.643ZM166.41 152.863L166.42 153.126L166.471 154.481L165.873 154.543L166.234 155.223C167.381 155.216 168.507 155.21 169.613 155.205L168.157 152.842L166.41 152.863ZM171.595 152.809L171.636 153.956L171.654 154.424L171.057 154.486L171.524 155.196C172.789 155.189 174.027 155.183 175.238 155.178L173.342 152.788L171.595 152.809ZM179.704 152.883L179.733 153.658L179.765 154.501L179.167 154.564L179.561 155.162L183.263 155.148L181.452 152.864L179.704 152.883ZM184.842 152.829L184.895 154.247L184.903 154.447L184.306 154.51L184.722 155.143C186.048 155.138 187.335 155.134 188.583 155.131L186.59 152.811L184.842 152.829ZM190.027 152.774L190.091 154.488L189.434 154.512L189.94 155.126C191.272 155.122 192.56 155.119 193.803 155.117L191.775 152.756L190.027 152.774ZM198.025 152.897L198.075 154.214L198.09 154.609L197.847 155.108C199.397 155.106 200.871 155.105 202.268 155.104L199.773 152.877L198.025 152.897ZM203.567 152.838L203.405 154.771L203.377 155.104C205.022 155.104 206.562 155.104 207.997 155.104L205.317 152.82L203.567 152.838ZM211.767 152.851L211.445 153.76L211.098 154.737L211.498 155.109C213.218 155.113 214.762 155.117 216.149 155.123L213.494 152.732L211.767 152.851ZM216.36 154.683L216.837 155.127C218.68 155.134 220.223 155.144 221.506 155.154L218.849 152.76L217.029 152.795L216.477 154.354L216.36 154.683ZM221.787 154.74L222.264 155.183C224.107 155.19 225.649 155.2 226.933 155.21L224.275 152.816L222.457 152.85L221.905 154.41L221.787 154.74Z" fill="#635666"/>
<path d="M227.238 159.031L227.362 171.493L31.2004 173.56C31.2004 173.56 32.1122 162.112 32.2841 160.31C32.3358 159.769 32.4081 159.358 32.5047 159.039C33.0113 159.034 79.8897 160.001 161.125 159.529C216.79 159.208 227.238 159.031 227.238 159.031Z" fill="#635666"/>
<path d="M143.309 155.348L145.726 155.337L148.321 155.323C149.294 155.319 150.275 155.314 151.265 155.309C151.863 155.305 152.465 155.302 153.071 155.3L156.353 155.281L158.295 155.271L160.629 155.257L161.614 155.251L163.574 155.241C164.473 155.235 165.36 155.231 166.236 155.226C167.383 155.219 168.509 155.213 169.615 155.208C170.26 155.205 170.897 155.202 171.528 155.199C172.793 155.192 174.031 155.186 175.242 155.181L177.084 155.173L179.563 155.163L183.265 155.148L184.724 155.143C186.05 155.139 187.337 155.135 188.585 155.131L189.942 155.127C191.275 155.123 192.562 155.119 193.805 155.117H194.266L197.849 155.111C199.399 155.109 200.873 155.107 202.27 155.106H203.379C205.023 155.106 206.563 155.106 207.999 155.106H208.508C209.559 155.106 210.557 155.107 211.5 155.111C213.22 155.114 214.764 155.118 216.15 155.124L216.839 155.127C218.682 155.135 220.224 155.144 221.508 155.154L222.235 155.159C225.047 155.184 226.439 155.208 226.955 155.218L227.2 155.224L227.238 159.031C227.238 159.031 216.791 159.208 161.127 159.53C79.8909 160.002 33.0125 159.035 32.5068 159.04C32.7286 158.301 33.0662 158.059 33.5153 157.836C34.1582 157.516 35.9712 156.403 35.9712 156.403C36.8079 156.472 36.9868 155.376 36.9868 155.376C36.9868 155.376 47.7235 155.341 50.2145 155.237C50.2673 155.287 50.3855 155.313 50.5892 155.311C50.6917 155.311 51.9275 155.326 54.504 155.349C54.9406 155.353 55.4164 155.357 55.9315 155.361C56.95 155.369 58.1213 155.379 59.4579 155.388C59.924 155.39 60.4096 155.393 60.9148 155.397C61.8513 155.403 62.8587 155.409 63.9371 155.414L65.6282 155.422C66.5956 155.427 67.6147 155.432 68.6857 155.436C69.6371 155.44 70.6305 155.444 71.6659 155.447C72.2705 155.45 72.8896 155.452 73.5231 155.453L76.1261 155.461L78.5915 155.466C79.4082 155.468 80.2451 155.469 81.1023 155.471C82.2468 155.473 83.4274 155.475 84.644 155.476H86.1455C86.8495 155.476 87.5657 155.476 88.294 155.476H88.8026C89.7014 155.476 90.6183 155.476 91.5535 155.476H93.5995C94.6096 155.476 95.6404 155.476 96.6921 155.476C97.3215 155.476 97.9582 155.476 98.6022 155.476L101.491 155.473L104.522 155.47L106.352 155.467L109.483 155.462L112.334 155.456L114.918 155.45L117.383 155.443L120.228 155.436L122.335 155.429L125.178 155.42C125.869 155.417 126.567 155.415 127.269 155.413C128.209 155.409 129.16 155.406 130.12 155.402L132.357 155.394L135.029 155.383C135.995 155.379 136.971 155.375 137.957 155.371L140.287 155.36L143.309 155.348Z" fill="#534756"/>
<path d="M227.166 151.848L227.2 155.224L226.955 155.219L224.295 152.823H223.844L223.083 152.245L223.079 151.842L227.166 151.848ZM223.083 152.245L222.581 151.841L218.286 151.834L218.393 152.294L218.848 152.762L221.505 155.155L222.233 155.16L221.766 154.711L222.434 152.823H223.843L223.083 152.245ZM217.831 151.833L214.021 151.827L214.026 152.34L216.477 154.355L217.029 152.796L218.849 152.761L218.395 152.294L217.831 151.833ZM216.361 154.684L216.477 154.355L214.026 152.34L213.506 151.825L209.652 151.819L209.658 152.386L211.446 153.76L211.768 152.851L213.495 152.734L216.15 155.125L216.839 155.128L216.361 154.684ZM211.445 153.76L209.657 152.386L208.973 151.818L205.169 151.813L205.075 152.221L208.506 155.106C209.558 155.106 210.555 155.108 211.498 155.111L211.098 154.739L211.445 153.76ZM204.627 151.81L200.762 151.804L200.624 152.268L203.406 154.771L203.568 152.839L205.315 152.82L207.998 155.106H208.507L205.075 152.221L204.627 151.81ZM200.624 152.268L200.21 151.846L196.322 151.795L196.214 152.315L198.074 154.216L198.024 152.898L199.772 152.879L202.267 155.106H203.376L203.404 154.772L200.624 152.268ZM196.216 152.315L195.778 151.802L191.972 151.789L191.836 152.361L194.264 155.112V155.116L197.848 155.11L198.09 154.61L198.075 154.216L196.216 152.315ZM191.836 152.361L191.396 151.788L187.672 151.782L187.49 152.364L189.435 154.513L190.092 154.488L190.03 152.775L191.777 152.757L193.805 155.117H194.266V155.113L191.836 152.361ZM187.49 152.364L186.989 151.781L183.227 151.777L183.144 152.41L184.896 154.247L184.843 152.83L186.59 152.811L188.583 155.131L189.94 155.127L189.435 154.513L187.49 152.364ZM183.145 152.41L182.594 151.772L178.85 151.769L178.685 152.454L179.732 153.656L179.704 152.881L181.451 152.863L183.262 155.146L184.722 155.141L184.305 154.508L184.903 154.445L184.895 154.245L183.145 152.41ZM178.686 152.456L178.143 151.768L174.602 151.761L174.472 152.289L177.084 155.174L179.563 155.164L179.169 154.566L179.766 154.503L179.734 153.66L178.686 152.456ZM174.018 151.759L170.445 151.753L170.259 152.332L171.499 153.964L171.637 153.959L171.596 152.811L173.344 152.793L175.24 155.183L177.083 155.175L174.471 152.29L174.018 151.759ZM171.5 153.964L170.26 152.332L169.847 151.752L165.888 151.745L165.722 152.295L166.421 153.128L166.411 152.864L168.159 152.846L169.614 155.209C170.259 155.206 170.896 155.203 171.527 155.2L171.06 154.49L171.657 154.428L171.639 153.96L171.5 153.964ZM165.723 152.295L165.304 151.745L161.617 151.738L161.434 152.34L163.572 155.241C164.471 155.236 165.358 155.231 166.233 155.226L165.873 154.546L166.47 154.484L166.421 153.128L165.723 152.295ZM161.025 151.737L157.428 151.731L157.177 152.386L158.393 154.457H158.503L158.352 152.645L160.1 152.627L161.615 155.253L163.575 155.242L161.437 152.342L161.025 151.737ZM156.814 151.73L153.102 151.724L152.907 152.388L153.317 153.095L153.301 152.901L155.048 152.883L156.354 155.281L158.296 155.271L157.877 154.463L158.393 154.458L157.178 152.387L156.814 151.73ZM152.907 152.388L152.558 151.723L148.891 151.717L148.752 152.474L148.738 152.445L148.873 152.743L150.272 152.728L151.267 155.307C151.865 155.304 152.467 155.301 153.073 155.298L152.825 154.718L153.452 154.712L153.316 153.094L152.907 152.388ZM148.736 152.448L148.732 152.437L148.396 151.718L144.779 151.712L144.499 152.307L145.726 155.339L148.321 155.325L148.046 154.567L148.674 154.561L148.523 152.75L148.871 152.746L148.736 152.448ZM144.241 151.711L139.948 151.704L139.741 152.314L140.555 154.327L140.651 154.318L140.511 152.651L142.259 152.632L143.307 155.35L145.725 155.339L144.498 152.306L144.241 151.711ZM140.556 154.327L139.742 152.314L139.728 152.357L139.529 151.702L135.751 151.696L135.538 152.401L135.632 152.701L137.063 152.686L137.956 155.373L140.287 155.363L140.039 154.468L140.666 154.461L140.654 154.317L140.556 154.327ZM135.276 151.696L132.075 151.691L131.709 152.362L132.356 155.397L135.029 155.387L134.84 154.523L135.466 154.516L135.315 152.705L135.632 152.702L135.538 152.402L135.276 151.696ZM131.708 152.362L131.443 151.689L127.744 151.683L127.504 152.451L127.526 154.686L127.796 154.659L127.857 152.784L129.276 152.769L129.428 154.678L130.113 154.671L130.119 155.406L132.356 155.398L131.708 152.362ZM127.407 151.682L123.709 151.675L123.477 152.499L123.48 152.829L124.334 152.82L124.487 154.729L125.171 154.722L125.178 155.423C125.869 155.42 126.567 155.417 127.269 155.415L127.314 154.706L127.526 154.684L127.504 152.449L127.407 151.682ZM123.31 151.675L119.555 151.668L119.329 152.487L119.333 152.873H119.385L119.538 154.782L120.222 154.774L120.229 155.438L122.336 155.431L122.373 154.758L122.856 154.709L122.916 152.835L123.481 152.829L123.478 152.499L123.31 151.675ZM119.162 151.668H115.02L114.89 152.618L114.919 155.452L117.384 155.446L117.423 154.808L117.906 154.76L117.966 152.885L119.333 152.87L119.329 152.485L119.162 151.668ZM114.653 151.66L111.072 151.654L110.714 152.492L110.661 152.789L111.488 152.78L111.641 154.689L112.325 154.682L112.333 155.459L114.917 155.453L114.888 152.619L114.653 151.66ZM106.562 152.446L106.556 151.647L102.76 151.64L102.335 152.41L101.489 155.476L104.52 155.472C104.52 155.472 104.837 153.045 104.95 152.849C105.081 152.62 106.158 152.75 106.468 152.813L106.562 152.446ZM106.514 152.958C106.561 153.193 106.533 153.798 106.519 153.893C106.481 154.16 106.351 155.469 106.351 155.469L109.482 155.464L109.528 154.717L110.011 154.669L110.071 152.794L110.661 152.788L110.714 152.49L110.706 151.652L106.952 151.646L106.585 152.488L106.514 152.958ZM98.7377 151.633L98.3163 152.394L98.3213 152.397L98.2242 152.726C98.4495 152.738 98.6735 152.768 98.8943 152.816C98.9844 152.843 98.972 153.784 98.9447 153.897C98.8985 154.087 98.601 155.479 98.601 155.479L101.489 155.476L102.335 152.41L102.328 151.639L98.7377 151.633ZM98.3163 152.394L98.2845 152.452L98.2762 151.632L94.4379 151.628L94.042 152.497V152.459L93.9714 152.723C93.9966 152.729 94.016 152.733 94.0297 152.737C94.1197 152.763 94.1082 153.705 94.0805 153.818C94.0342 154.008 93.5983 155.481 93.5983 155.481C94.6084 155.481 95.6392 155.481 96.6909 155.481C96.7008 155.439 97.2644 153.049 97.3759 152.854C97.4548 152.716 97.8527 152.703 98.2242 152.726L98.3213 152.397L98.3163 152.394ZM94.0334 151.625L90.5999 151.62L90.0583 152.539L88.8014 155.48C89.7002 155.48 90.6171 155.48 91.5523 155.48C91.5523 155.48 92.2712 152.989 92.384 152.793C92.5162 152.561 93.6586 152.665 93.9714 152.723L94.042 152.458L94.0334 151.625ZM86.5351 151.613L85.9629 152.582L84.6408 155.477H86.1422C86.1422 155.477 87.2194 152.97 87.3317 152.774C87.4751 152.524 88.7948 152.664 88.9778 152.718C89.0679 152.744 89.0559 153.686 89.0282 153.799C88.9819 153.989 88.2895 155.479 88.2895 155.479H88.8026L90.0595 152.538L90.0504 151.617L86.5351 151.613ZM82.2882 151.606L81.7362 152.456L81.5659 153.051C81.6225 153.391 81.6308 153.842 81.6444 153.967C81.6651 154.162 81.0982 155.471 81.0982 155.471C82.2427 155.473 83.4233 155.475 84.6399 155.476L85.9621 152.581L85.9522 151.611L82.2882 151.606ZM78.2391 151.598L77.6949 152.499L76.738 154.196L76.1224 155.461L78.5878 155.466C78.6064 155.424 79.7286 152.874 79.9141 152.658C80.0996 152.441 81.2457 152.569 81.4135 152.662C81.4866 152.702 81.5341 152.859 81.5663 153.051L81.7366 152.456L81.7279 151.606L78.2391 151.598ZM73.9834 151.592L73.5041 152.415L71.6639 155.448C72.2685 155.451 72.8876 155.453 73.5211 155.455C73.5211 155.455 74.8916 152.779 75.0791 152.565C75.2667 152.35 76.2294 152.445 76.5327 152.583C76.743 152.678 76.7178 154.003 76.7393 154.198L77.6958 152.501L77.6867 151.6L73.9834 151.592ZM70.0054 151.585L69.4604 152.392L69.1617 152.931C69.2505 153.398 69.3125 154.069 69.327 154.195C69.3472 154.388 68.7035 155.405 68.6841 155.437C69.6355 155.441 70.6289 155.445 71.6643 155.448L73.5046 152.414L73.4967 151.59L70.0054 151.585ZM69.4162 152.458L69.4076 151.584L65.9906 151.578L65.3808 152.501L64.6127 153.971C64.6224 154.01 64.63 154.05 64.6354 154.089C64.6565 154.284 63.9363 155.416 63.9363 155.416L65.6274 155.424C65.6543 155.381 67.3012 152.726 67.4818 152.506C67.5826 152.383 68.8105 152.4 68.9985 152.463C69.0584 152.483 69.1142 152.679 69.1638 152.931L69.4625 152.392L69.4162 152.458ZM61.8965 151.572L61.2825 152.544L60.0389 154.353L59.4555 155.389C59.9216 155.392 60.4072 155.395 60.9123 155.398C60.9123 155.398 62.5055 152.773 62.6931 152.557C62.8807 152.34 63.6409 152.351 63.9463 152.485C64.2136 152.601 64.5247 153.596 64.611 153.972L65.3791 152.502L65.37 151.578L61.8965 151.572ZM57.7884 151.564L57.0236 152.308L54.5032 155.351C54.9398 155.355 55.4156 155.359 55.9307 155.363C55.9307 155.363 57.9912 152.675 58.1788 152.457C58.3664 152.24 59.1266 152.252 59.4319 152.386C59.7373 152.519 60.0191 154.158 60.0405 154.353L61.2842 152.544L61.2751 151.57L57.7884 151.564ZM53.6277 151.555L53.3893 151.788C53.3893 151.788 50.5798 154.593 50.3422 154.869C50.2001 155.035 50.1356 155.161 50.2124 155.236C50.2653 155.286 50.3835 155.312 50.5872 155.31C50.6897 155.31 51.9255 155.325 54.502 155.348L57.0223 152.305L57.2835 151.561L53.6277 151.555Z" fill="#FFF5EC"/>
<path d="M47.1909 151.947L53.3885 151.79C53.3885 151.79 50.5789 154.595 50.3414 154.871C50.1992 155.036 50.1348 155.163 50.2116 155.237C47.7206 155.342 36.9839 155.377 36.9839 155.377C38.9573 154.666 42.8725 153.184 44.754 152.469C45.2474 152.282 46.6658 151.948 47.1909 151.947Z" fill="#7A747C"/>
<g style="mix-blend-mode:multiply" opacity="0.8">
<path d="M50.369 155.337L50.1794 155.152L50.3153 154.902L54.3231 154.877L57.1645 151.487L57.3099 151.513L57.1521 152.184L55.3143 154.38L54.5036 155.349L50.369 155.337ZM59.9178 153.68L60.0393 154.353L61.3288 152.49L61.2739 151.568L59.917 153.188L59.9178 153.68ZM59.4559 155.389L60.0389 154.4C60.0389 154.4 60.0182 154.209 59.8943 153.532C59.821 153.126 59.6752 152.739 59.4642 152.388C59.4724 152.554 59.4642 152.781 59.2576 153.101C59.1188 153.316 58.5366 154.143 58.1317 154.745C58.0924 154.804 56.4844 154.687 56.4501 154.738C56.3125 154.942 55.9956 155.355 55.9956 155.355L59.4559 155.389ZM54.502 155.351L55.9295 155.363L56.2658 154.959L54.8453 154.955L54.502 155.351ZM59.4559 155.389L60.9127 155.398L61.1408 154.973L59.6947 154.969L59.4559 155.389ZM63.9351 155.416L64.6623 154.113C64.6623 154.113 64.5061 153.588 64.2809 152.972C64.0557 152.356 63.9467 152.484 63.9467 152.484C63.988 152.587 63.9628 152.851 63.7876 153.181C63.6686 153.406 63.1059 154.3 62.7873 154.907C62.7493 154.979 61.2363 154.86 61.2049 154.919C61.1131 155.094 60.9127 155.398 60.9127 155.398L63.9351 155.416ZM64.6114 153.971L65.3795 152.555L65.3704 151.578L64.3565 153.202L64.6114 153.971ZM69.103 152.478L69.1472 152.87L69.4592 152.393L69.422 151.502L68.877 152.456L69.103 152.478ZM68.7225 155.44C68.7225 155.44 69.2877 154.456 69.3047 154.25C69.3216 154.044 69.1774 152.508 68.9964 152.462C68.8155 152.417 67.7867 152.462 67.7867 152.462C67.7867 152.462 68.9964 152.462 68.7597 152.87C68.706 152.962 68.0251 154.23 67.6292 154.959C67.6164 154.982 65.9162 154.954 65.9038 154.976C65.7386 155.277 65.6791 155.412 65.6791 155.412L68.7225 155.44ZM63.9343 155.415L65.6254 155.423L65.9038 154.975L64.1826 154.97L63.9343 155.415ZM73.4934 151.527L71.3036 154.991L68.9729 154.984L68.7208 155.44L71.6601 155.448L73.5004 152.414L73.4934 151.527ZM73.5376 155.405L76.1212 155.461L76.7884 154.168C76.7884 154.168 76.7698 153.679 76.7397 153.21C76.7095 152.742 76.5306 152.58 76.5306 152.58L75.2394 154.983L73.7934 154.979L73.5376 155.405ZM76.8347 154.022L77.6933 152.498L77.6842 151.597L76.7062 152.966L76.8347 154.022ZM71.6907 155.4L73.5376 155.405L73.7929 154.98L71.9436 154.985L71.6907 155.4ZM78.5865 155.433L81.1242 155.441L81.6775 154.008C81.6775 154.008 81.6709 153.858 81.6461 153.3C81.6213 152.742 81.4333 152.594 81.4333 152.594L80.4231 154.997L78.7973 154.993L78.5865 155.433ZM81.5849 152.887L81.7886 152.452L81.7267 151.602L81.2457 152.592C81.5081 152.603 81.5858 152.887 81.5858 152.887H81.5849ZM76.1389 155.427L78.5874 155.433L78.7973 154.993L76.3529 154.986L76.1389 155.427ZM85.9517 151.611L84.2792 155.009L81.2874 155.018L81.1222 155.441L84.637 155.476L85.9592 152.581L85.9517 151.611ZM86.1401 155.479H88.2886C88.2886 155.479 89.0274 153.799 89.0468 153.694C89.0662 153.589 88.977 152.716 88.977 152.716L87.9197 155.045L86.3025 155.04L86.1401 155.479ZM89.0261 153.8L88.2874 155.48H88.8026L90.0595 152.539L90.0504 151.618L89.0485 153.283L89.0261 153.8ZM84.6387 155.477H86.1401L86.3013 155.042L84.8552 155.003L84.6387 155.477ZM93.9011 152.771L94.0408 152.458L94.0321 151.625L93.4301 152.722L93.9011 152.771ZM88.8026 155.479H91.5535L91.6866 155.022L88.9923 155.035L88.8026 155.479ZM93.5995 155.479L94.0817 153.816L94.0309 152.735L93.2236 155.027L91.6853 155.023L91.525 155.487L93.5995 155.479ZM98.8956 152.814L98.3171 155.127L96.7768 155.125L96.6942 155.479H98.6043L98.967 153.83L98.8956 152.814ZM98.1424 152.754L98.2857 152.45L98.2766 151.563L97.7205 152.753C97.8602 152.678 98.1403 152.755 98.1403 152.755L98.1424 152.754ZM93.5975 155.479H96.6901L96.7954 155.038L93.7289 155.035L93.5975 155.479ZM102.252 151.623L101.288 155.015L98.7006 155.008L98.6001 155.476L101.489 155.473L102.396 152.362L102.252 151.623ZM101.489 155.474L104.52 155.47L104.586 154.997L101.617 155.04L101.489 155.474ZM106.477 152.898L106.609 152.424L106.563 151.576L103.126 151.701L106.224 151.998L106.129 152.742L106.477 152.898ZM106.35 155.468L106.606 153.446L106.358 152.787L105.968 155.002L104.586 154.997L104.522 155.47L106.35 155.468ZM106.35 155.468L109.481 155.462L109.509 155.012L106.41 155.003L106.35 155.468ZM110.705 151.651L106.904 151.641L110.387 152.016L110.363 152.793L110.662 152.787L110.705 151.651ZM110.01 154.669L109.527 154.717L109.482 155.465L112.333 155.459L112.325 154.682L111.641 154.689L111.488 152.78L111.258 152.73C111.258 152.73 111.382 154.878 111.242 154.919C109.896 155.31 110.088 154.409 110.088 154.409L110.01 154.669ZM117.905 154.762L117.421 154.841L117.379 155.512L120.23 155.506L120.223 154.729L119.539 154.736L119.385 152.827L119.16 152.869C119.16 152.869 119.28 154.923 119.139 154.964C117.794 155.355 117.985 154.454 117.985 154.454L117.905 154.762ZM122.855 154.719L122.371 154.799L122.329 155.469L125.182 155.463L125.175 154.686L124.491 154.694L124.338 152.784L124.113 152.827C124.113 152.827 124.232 154.88 124.091 154.921C122.746 155.312 122.938 154.411 122.938 154.411L122.855 154.719ZM127.794 154.685L127.309 154.765L127.268 155.435L130.121 155.428L130.113 154.652L129.429 154.659L129.276 152.75L129.05 152.792C129.05 152.792 129.17 154.846 129.029 154.887C127.684 155.278 127.876 154.377 127.876 154.377L127.794 154.685ZM112.271 155.461L114.92 155.451L114.927 152.617L114.692 151.659L111.29 151.704C111.29 151.704 114.269 151.892 114.289 151.964C114.309 152.036 114.475 152.767 114.461 152.946C114.447 153.125 114.408 155.054 114.287 155.054C114.167 155.053 112.312 155.056 112.312 155.056L112.271 155.461ZM117.385 155.445L117.41 155.034L115.486 155.002L115.27 151.967L119.163 151.667L115.05 151.62L114.904 152.522L114.92 155.451L117.385 155.445ZM119.331 152.254L119.334 152.946L119.541 154.735L120.132 154.768L119.554 151.665L119.331 152.254ZM120.23 155.437L122.337 155.431L122.415 154.96L120.215 154.953L120.23 155.437ZM125.154 155.375L127.261 155.368L127.34 154.897L125.14 154.891L125.154 155.375ZM130.137 155.389L132.357 155.395L132.253 154.912L130.122 154.905L130.137 155.389ZM123.483 152.225L123.424 152.883L124.017 152.83L123.71 151.674L123.483 152.225ZM127.494 152.288L127.527 154.683L127.797 154.657L127.894 152.829L128.155 152.787L127.744 151.682L127.494 152.288ZM131.708 152.388L132.355 155.395L135.028 155.385L134.926 154.918L132.929 154.912L132.074 151.688L131.708 152.388ZM137.88 155.372C137.876 155.233 137.856 155.096 137.819 154.962C137.806 154.92 136.16 155.008 136.145 154.957C135.933 154.265 135.554 153.013 135.584 152.993C135.625 152.966 137.134 152.681 137.134 152.681L135.316 152.703L135.467 154.515L134.841 154.521L135.029 155.385L137.88 155.372ZM135.538 152.4L135.631 152.7H136.21L135.841 151.698L135.538 152.4ZM137.956 155.372L140.361 155.34L140.242 154.969L137.781 154.962L137.956 155.372ZM139.742 152.312L140.606 154.32L140.529 152.894L139.947 151.704L139.742 152.312ZM140.56 152.691L140.663 154.461L140.037 154.467L140.285 155.363L143.263 155.32L143.139 154.916L141.46 154.974L140.768 152.927L141.311 152.629L140.56 152.691ZM144.498 152.306L145.726 155.337L148.32 155.324L148.155 154.871L146.172 154.855L144.778 151.71L144.498 152.306ZM143.308 155.348L145.726 155.337L145.557 154.921L143.141 154.915L143.308 155.348ZM149.895 152.812L148.558 152.725L148.653 154.601H148.046L148.32 155.326L151.265 155.311L151.13 154.962L149.469 154.974L148.772 152.998L149.895 152.812ZM148.732 152.308L148.871 152.784H149.502L148.976 151.71L148.732 152.308ZM151.265 155.309L153.071 155.3L152.918 154.943L151.121 154.938L151.265 155.309ZM156.339 155.255L156.163 154.87L154.297 154.896L153.532 153.134L154.483 152.905L153.297 152.902L153.449 154.713L152.822 154.719L153.01 155.314L156.339 155.255ZM152.904 152.312L153.299 152.902H153.798L153.099 151.723L152.904 152.312ZM156.352 155.282L158.294 155.271L158.106 154.907L156.164 154.901L156.352 155.282ZM157.175 152.386L158.296 154.35L158.5 154.456L158.437 153.255L157.426 151.731L157.175 152.386ZM158.35 152.644L158.5 154.456H157.942L158.293 155.273L161.613 155.213L161.376 154.799L159.626 154.832L158.656 152.92L159.514 152.665L158.35 152.644ZM161.435 152.341L163.573 155.241L166.235 155.227L166.007 154.796L163.949 154.79L161.618 151.738L161.435 152.341ZM161.576 155.235L163.498 155.241L163.178 154.78L161.329 154.775L161.576 155.235ZM166.41 152.864L166.471 154.481L165.874 154.544L166.219 155.199L169.613 155.178L169.361 154.779L167.534 154.848L166.691 153.127L167.415 152.87L166.41 152.864ZM165.695 152.26L166.387 153.089L166.41 152.864L166.892 152.867L165.888 151.746L165.695 152.26ZM169.571 155.219L171.526 155.199L171.243 154.769L169.338 154.764L169.571 155.219ZM175.215 155.151L174.889 154.708L172.98 154.774L171.826 153.045L172.892 152.79L171.595 152.81L171.656 154.428L171.119 154.49L171.525 155.2L175.215 155.151ZM170.26 152.333L171.609 154.099V153.231L170.493 151.754L170.26 152.333ZM175.24 155.18L177.044 155.13L176.666 154.712L174.931 154.774L175.24 155.18ZM174.536 152.399L177.048 155.13L179.565 155.163L179.273 154.72L177.37 154.714L174.602 151.759L174.536 152.399ZM183.235 155.173L182.918 154.71L181.034 154.713L179.906 153.106L180.77 152.922L179.707 152.883L179.768 154.501L179.208 154.56L179.565 155.163L183.235 155.173ZM178.733 152.498L179.717 153.587L179.707 152.883L179.939 152.861L178.853 151.771L178.733 152.498ZM183.266 155.148L184.726 155.143L184.522 154.758L182.961 154.754L183.266 155.148ZM183.147 152.41L184.906 154.19L184.9 153.333L183.274 151.767L183.147 152.41ZM188.525 155.103L188.158 154.662L186.275 154.657L185.036 153.062L185.99 152.817L184.848 152.83L184.909 154.447L184.358 154.512L184.728 155.143L188.525 155.103ZM188.525 155.103L189.943 155.127L189.624 154.666L188.158 154.662L188.525 155.103ZM187.441 152.283L189.437 154.513L190.095 154.488L190.127 154.316L187.674 151.782L187.441 152.283ZM193.728 155.088L193.37 154.608L191.352 154.6L190.192 152.997L191.116 152.778L190.031 152.774L190.095 154.488L189.497 154.513L189.943 155.126L193.728 155.088ZM191.852 152.301L194.267 155.116L197.85 155.109L198.057 154.7L194.602 154.745L191.971 151.789L191.852 152.301ZM202.226 155.106L201.771 154.661H199.809L198.245 153.07L198.889 152.877L198.027 152.898L198.091 154.611L197.849 155.11L202.226 155.106ZM196.168 152.257L198.078 154.217L198.058 153.436L196.326 151.796L196.168 152.257ZM202.159 155.123L203.305 155.109L203.409 154.772L203.227 154.608L201.819 154.661L202.159 155.123ZM200.565 152.209L203.406 154.771L203.505 154.11L200.899 151.773L200.565 152.209Z" fill="#FF8DCC"/>
</g>
<path d="M148.736 152.448L148.75 152.476L148.889 151.719L152.556 151.725L152.905 152.39L153.1 151.726L156.812 151.732L157.176 152.388L157.427 151.733L161.023 151.74L161.436 152.343L161.62 151.74L165.307 151.747L165.726 152.297L165.891 151.748L169.85 151.754L170.263 152.335L170.449 151.755L174.022 151.762L174.476 152.29L174.606 151.762L178.148 151.768L178.691 152.459L178.856 151.773L182.599 151.776L183.151 152.414L183.233 151.782L186.995 151.785L187.496 152.368L187.679 151.787L191.403 151.793L191.842 152.365L191.979 151.793L195.785 151.806L196.222 152.319L196.33 151.799L200.218 151.85L200.632 152.272L200.77 151.808L204.635 151.815L205.083 152.226L205.177 151.818L208.981 151.822L209.665 152.391L209.659 151.823L213.513 151.83L214.033 152.344L214.028 151.831L217.838 151.837L218.4 152.298L218.293 151.838L222.588 151.845L223.09 152.249L223.086 151.846L227.173 151.853L227.207 155.228L227.245 159.035L227.369 171.497L31.2004 173.56C31.2004 173.56 32.1122 162.112 32.2841 160.31C32.3358 159.769 32.4081 159.358 32.5047 159.039C32.7266 158.299 33.0642 158.058 33.5133 157.835C34.1562 157.515 35.9692 156.402 35.9692 156.402C36.8059 156.471 36.9848 155.375 36.9848 155.375C38.9581 154.664 42.8733 153.182 44.7549 152.468C45.2474 152.281 46.6658 151.946 47.1926 151.945L53.3901 151.788L53.6285 151.555L57.2859 151.561L57.0248 152.305L57.6032 151.605L61.2747 151.673L61.2829 152.541L61.8969 151.569L65.3704 151.574L65.3795 152.498L65.9315 151.575L69.4063 151.581L69.415 152.456L69.4592 152.391L70.0042 151.583L73.495 151.589L73.5029 152.414L73.9822 151.59L77.685 151.596L77.6941 152.497L78.2383 151.597L81.7275 151.603L81.7362 152.453L82.2882 151.603L85.953 151.609L85.9629 152.58L86.5351 151.61L90.0492 151.616L90.0582 152.537L90.5999 151.617L94.0334 151.623L94.042 152.456M148.732 152.434L148.396 151.714L144.779 151.708L144.499 152.303L144.241 151.708L139.948 151.701L139.741 152.312L139.727 152.354L139.528 151.7L135.75 151.693L135.537 152.399L135.275 151.692L132.074 151.687L131.708 152.358L131.442 151.686L127.743 151.679L127.503 152.447L127.406 151.679L123.708 151.673L123.476 152.496L123.311 151.672L119.555 151.666L119.33 152.484L119.162 151.666H115.021L114.89 152.618L114.653 151.66L111.072 151.653L110.714 152.491L110.706 151.653L106.952 151.646L106.565 152.535L106.556 151.646L102.76 151.64L102.335 152.409L102.328 151.639L98.7377 151.632L98.3163 152.394L98.2845 152.452L98.2762 151.632L94.4379 151.628L94.042 152.497V152.458M54.5016 155.35L57.15 152.184M60.0389 154.352L61.2825 152.543M60.0389 154.352L59.4555 155.388M60.0389 154.352C60.0174 154.156 59.7352 152.518 59.4303 152.384C59.1254 152.25 58.3647 152.239 58.1771 152.456C57.9896 152.673 55.9291 155.361 55.9291 155.361M63.9347 155.414C63.9347 155.414 64.6548 154.283 64.6338 154.088C64.6283 154.048 64.6207 154.009 64.611 153.97C64.5247 153.595 64.2136 152.6 63.9462 152.482C63.6409 152.349 62.8803 152.337 62.6931 152.555C62.5059 152.772 60.9123 155.396 60.9123 155.396M68.6799 155.436C68.6994 155.404 69.3431 154.387 69.3228 154.194C69.3088 154.067 69.2468 153.399 69.1576 152.93C69.1101 152.675 69.0543 152.481 68.9923 152.462C68.8043 152.4 67.5764 152.383 67.4756 152.505C67.295 152.725 65.6481 155.38 65.6212 155.423M76.1158 155.461L76.7314 154.195C76.7103 154 76.7355 152.675 76.5248 152.58C76.2216 152.442 75.2589 152.345 75.0713 152.562C74.8837 152.779 73.5132 155.452 73.5132 155.452M81.0916 155.469C81.0916 155.469 81.6585 154.161 81.6378 153.966C81.6242 153.841 81.6159 153.389 81.5593 153.049C81.5271 152.856 81.4796 152.7 81.4064 152.66C81.2387 152.567 80.095 152.438 79.907 152.655C79.7191 152.873 78.5994 155.422 78.5808 155.464M88.282 155.477C88.282 155.477 88.9745 153.989 89.0208 153.797C89.0485 153.684 89.0621 152.742 88.9704 152.716C88.7873 152.662 87.4677 152.522 87.3243 152.772C87.2119 152.968 86.1348 155.475 86.1348 155.475M93.5917 155.478C93.5917 155.478 94.0276 154.005 94.0739 153.814C94.1015 153.701 94.1152 152.76 94.023 152.734C94.0094 152.73 93.99 152.725 93.9648 152.72C93.652 152.661 92.5096 152.558 92.3774 152.79C92.2646 152.986 91.5457 155.478 91.5457 155.478M98.5944 155.475C98.5944 155.475 98.8919 154.084 98.9381 153.893C98.9654 153.781 98.9794 152.839 98.8877 152.813C98.6669 152.765 98.4429 152.735 98.2176 152.723C97.8457 152.697 97.4482 152.711 97.3693 152.85C97.2578 153.045 96.6942 155.437 96.6843 155.477M106.345 155.467C106.345 155.467 106.475 154.158 106.513 153.891C106.529 153.776 106.552 152.836 106.462 152.81C106.279 152.756 105.087 152.598 104.944 152.846C104.831 153.042 104.514 155.469 104.514 155.469M65.3729 152.498L64.6048 153.968M71.656 155.446L73.4963 152.412M76.731 154.193L77.6875 152.496M69.1605 152.931L69.4592 152.392M81.7362 152.456L81.5659 153.051M84.6399 155.476L85.9621 152.581M88.8006 155.479L90.0574 152.538M112.334 155.457L112.326 154.68L111.643 154.687L111.489 152.778L110.663 152.787L110.073 152.793L110.012 154.668L109.529 154.716L109.482 155.465M120.229 155.439L120.222 154.775L119.538 154.782L119.385 152.873H119.333L117.966 152.887L117.906 154.762L117.423 154.811L117.384 155.448M125.178 155.425L125.171 154.724L124.487 154.731L124.334 152.822L123.48 152.831L122.915 152.837L122.855 154.712L122.372 154.76L122.335 155.434M130.119 155.407L130.113 154.672L129.428 154.679L129.276 152.77L127.857 152.785L127.796 154.66L127.526 154.686L127.314 154.708L127.269 155.417M102.335 152.412L101.489 155.478M98.3213 152.399L98.2242 152.728M94.042 152.46L93.9714 152.725M114.889 152.457V152.619L114.917 155.454M132.353 155.397L131.705 152.362M135.535 152.404L135.629 152.704M135.629 152.704L137.06 152.689L137.953 155.376M135.629 152.704L135.312 152.707L135.463 154.519L134.836 154.525L135.025 155.389M143.306 155.352L142.257 152.635L140.51 152.653L140.649 154.32L140.661 154.465L140.034 154.471L140.282 155.366M151.26 155.313L150.266 152.734L148.867 152.749L148.518 152.752L148.669 154.564L148.042 154.57L148.316 155.328M156.348 155.285L155.042 152.887L153.295 152.905L153.311 153.099L153.446 154.717L152.819 154.723L153.067 155.303M161.609 155.255L160.094 152.629L158.346 152.648L158.497 154.46H158.387L157.87 154.465L158.29 155.272M169.611 155.21L168.155 152.847L166.407 152.865L166.417 153.128L166.468 154.483L165.871 154.545L166.231 155.225M175.238 155.183L173.342 152.793L171.594 152.811L171.635 153.958L171.653 154.426L171.056 154.488L171.523 155.198M183.26 155.148L181.449 152.864L179.701 152.883L179.73 153.657L179.762 154.5L179.164 154.564L179.559 155.162M188.58 155.13L186.587 152.811L184.839 152.829L184.893 154.247L184.9 154.447L184.303 154.509L184.719 155.142M193.8 155.116L191.772 152.756L190.025 152.774L190.089 154.488L189.431 154.512L189.937 155.126M202.266 155.104L199.77 152.878L198.022 152.896L198.072 154.214L198.087 154.608L197.844 155.108M207.994 155.104L205.317 152.82L203.57 152.839L203.407 154.771L203.38 155.105M216.151 155.125L213.496 152.734L211.769 152.851L211.447 153.76L211.1 154.738L211.5 155.11M221.508 155.152L218.85 152.759L217.03 152.793L216.478 154.352L216.362 154.681L216.839 155.125M226.955 155.216L224.295 152.821H222.436L221.768 154.709L222.235 155.158M140.556 154.323L139.743 152.31L139.728 152.273M145.726 155.333L144.498 152.306M148.732 152.435L148.736 152.445L148.871 152.743M152.904 152.387L153.315 153.094M157.175 152.385L158.391 154.456M163.573 155.24L161.435 152.34M166.421 153.128L165.724 152.296M171.501 153.965L170.262 152.333M177.084 155.174L174.473 152.289M178.687 152.459L179.735 153.661M184.897 154.25L183.146 152.412M189.436 154.515L187.491 152.363M191.836 152.359L194.265 155.111M196.216 152.313L198.076 154.214M200.624 152.267L203.406 154.769M205.076 152.219L208.507 155.104M209.658 152.384L211.445 153.758M214.025 152.338L216.477 154.353M218.393 152.292L218.847 152.76M223.842 152.821L223.081 152.243M53.3868 151.788C53.3868 151.788 50.5773 154.593 50.3397 154.869C50.1976 155.035 50.1331 155.161 50.21 155.236C50.2628 155.286 50.381 155.312 50.5847 155.31C50.6872 155.31 51.923 155.325 54.4995 155.348C54.9361 155.352 55.4119 155.356 55.927 155.36C56.9455 155.368 58.1168 155.377 59.4534 155.386C59.9195 155.389 60.4051 155.392 60.9103 155.396C61.8468 155.402 62.8542 155.408 63.9326 155.413L65.6237 155.421C66.5911 155.426 67.6102 155.43 68.6812 155.435C69.6326 155.439 70.626 155.443 71.6614 155.446C72.266 155.448 72.8851 155.451 73.5186 155.452L76.1216 155.46L78.587 155.465C79.4037 155.467 80.2406 155.468 81.0978 155.47C82.2423 155.472 83.4229 155.473 84.6395 155.475H86.141C86.845 155.475 87.5612 155.475 88.2895 155.475H88.8026C89.7014 155.475 90.6184 155.475 91.5535 155.475H93.5995C94.6096 155.475 95.6405 155.475 96.6921 155.475C97.3215 155.475 97.9582 155.475 98.6022 155.475L101.491 155.472L104.522 155.468L106.352 155.466L109.483 155.46L112.334 155.454L114.918 155.448L117.383 155.442L120.228 155.434L122.335 155.428L125.178 155.419C125.869 155.416 126.567 155.414 127.269 155.412C128.209 155.408 129.16 155.405 130.12 155.401L132.357 155.393L135.029 155.382C135.995 155.378 136.971 155.373 137.957 155.369L140.287 155.359L143.309 155.345L145.727 155.334L148.322 155.321C149.295 155.316 150.276 155.311 151.266 155.306C151.864 155.303 152.466 155.3 153.072 155.297L156.354 155.278L158.296 155.268L160.63 155.254L161.615 155.248L163.575 155.238C164.474 155.233 165.361 155.228 166.237 155.223C167.384 155.216 168.51 155.21 169.616 155.205C170.261 155.202 170.898 155.199 171.529 155.196C172.794 155.189 174.032 155.183 175.243 155.178L177.085 155.17L179.564 155.16L183.266 155.145L184.725 155.14C186.051 155.136 187.338 155.132 188.586 155.128L189.943 155.124C191.275 155.12 192.563 155.117 193.806 155.114H194.267L197.85 155.108C199.4 155.106 200.874 155.104 202.271 155.103H203.38C205.024 155.103 206.564 155.103 208 155.103H208.509C209.56 155.103 210.558 155.105 211.5 155.108C213.22 155.111 214.764 155.115 216.151 155.121L216.84 155.124C218.683 155.132 220.225 155.141 221.509 155.151L222.236 155.157C225.048 155.181 226.44 155.205 226.956 155.216L227.201 155.221M32.5068 159.037C33.0134 159.032 79.8918 159.999 161.127 159.527C216.791 159.205 227.239 159.028 227.239 159.028M36.9856 155.373C36.9856 155.373 47.7223 155.338 50.2133 155.233M119.334 152.893V152.873L119.33 152.487M123.478 152.499L123.481 152.829M127.505 152.45L127.527 154.684M110.661 152.788L110.714 152.49M106.565 152.533L106.531 152.688" stroke="black" stroke-linecap="round" stroke-linejoin="round"/>
<path d="M157.107 56.5356C156.928 59.6428 155.229 62.1953 153.82 62.9042C153.752 62.9399 153.688 62.9827 153.628 63.0317C152.251 63.9293 151.123 63.5923 151.034 63.5634C151.056 63.472 151.075 63.4036 151.085 63.3581C151.067 63.4257 151.047 63.4937 151.028 63.5617C150.574 65.1623 150.014 66.8767 149.44 67.9915C148.09 70.6146 143.666 74.154 139.089 74.9071C134.511 75.6602 130.84 71.6014 130.84 71.6014C130.84 71.6014 127.669 69.1917 127.404 64.6514C127.404 64.6514 126.507 65.1525 125.272 62.4087C123.972 59.5187 123.496 56.7086 123.551 55.2181C123.551 55.2181 124.137 54.2444 125.714 56.0065C126.118 57.2483 126.731 58.6793 127.68 59.3313C129.068 60.2841 132.187 60.2624 133.692 58.6938C135.198 57.1251 135.221 53.7782 135.221 53.7782C135.227 53.5797 135.19 53.5338 135.19 53.5338C135.323 53.5338 138.082 53.4255 138.082 53.4255C138.082 53.4255 138.045 54.8892 138.849 56.6861C139.789 58.786 142.307 60.5111 145.506 58.9313C148.614 57.395 148.051 52.9078 148.274 52.8606C148.439 52.8254 149.047 52.8445 149.34 52.7463C149.34 52.7463 150.208 52.8084 151.126 52.864C151.374 54.281 151.374 56.5331 151.748 56.6376C152.351 56.8051 153.913 50.6991 156.773 53.757L156.792 53.7527C156.872 54.1569 157.183 55.2041 157.107 56.5356ZM124.599 146.474C124.91 146.35 125.195 146.166 125.439 145.932C125.439 145.932 127.36 149.133 127.974 150.515C128.588 151.896 130.465 152.244 131.48 152.217C132.494 152.19 132.509 151.466 132.096 151.008C131.683 150.549 130.256 147.289 129.782 146.437C129.308 145.585 128.794 144.605 128.203 143.766C127.947 143.403 127.361 142.683 126.657 141.871C125.733 140.804 124.606 139.578 123.758 138.798C122.265 137.423 118.689 136.786 116.078 138.973C116.078 138.973 114.061 140.954 112.438 142.585C111.635 143.393 110.927 144.113 110.61 144.464C109.956 145.187 109.194 145.829 107.626 147.019C106.894 147.574 103.778 149.705 103.87 150.427C103.962 151.15 104.737 152.037 106.285 151.182C107.833 150.328 108.834 149.549 108.834 149.549C108.891 150.127 109.218 150.612 110.133 150.622C111.5 150.639 111.538 150.211 112.658 148.676C113.211 147.92 113.633 147.301 113.918 146.868C113.918 146.868 114.141 146.834 114.955 146.86C115.042 147.914 115.133 149.081 115.162 149.623C115.221 150.734 115.691 150.81 116.419 150.832C117.147 150.855 117.861 150.487 118.086 149.067C118.144 148.701 118.215 148.184 118.289 147.618C118.336 147.263 118.383 146.888 118.429 146.52C119.289 146.44 120.153 146.41 121.016 146.429C121.334 147.25 121.642 149.517 122.853 149.589C124.064 149.661 124.464 148.152 124.574 147.248C124.598 146.991 124.606 146.733 124.598 146.476L124.599 146.474ZM174.971 146.635C174.963 146.892 174.971 147.15 174.995 147.406C175.105 148.311 175.505 149.819 176.716 149.748C177.927 149.676 178.235 147.41 178.553 146.588C179.416 146.569 180.28 146.599 181.14 146.678C181.186 147.047 181.233 147.422 181.28 147.777C181.354 148.343 181.425 148.86 181.483 149.226C181.708 150.646 182.421 151.011 183.149 150.991C183.878 150.972 184.348 150.893 184.407 149.782C184.436 149.24 184.528 148.073 184.614 147.019C185.428 146.992 185.651 147.027 185.651 147.027C185.936 147.46 186.358 148.078 186.911 148.835C188.033 150.37 188.068 150.797 189.436 150.781C190.351 150.769 190.675 150.286 190.735 149.708C190.735 149.708 191.737 150.487 193.284 151.341C194.83 152.195 195.606 151.308 195.699 150.586C195.791 149.864 192.674 147.733 191.942 147.178C190.375 145.988 189.613 145.346 188.959 144.623C188.642 144.272 187.934 143.551 187.131 142.744C185.508 141.115 183.491 139.131 183.491 139.131C180.88 136.945 177.304 137.582 175.811 138.957C174.963 139.737 173.836 140.963 172.911 142.03C172.209 142.842 171.622 143.562 171.366 143.925C170.775 144.764 170.261 145.744 169.787 146.596C169.312 147.448 167.886 150.708 167.473 151.166C167.06 151.625 167.075 152.348 168.089 152.375C169.104 152.402 170.982 152.054 171.595 150.675C172.208 149.296 174.13 146.093 174.13 146.093C174.374 146.327 174.659 146.511 174.97 146.635H174.971ZM146.984 46.7109C144.635 46.8448 142.528 46.3841 140.773 45.7219C139.598 46.2111 132.784 46.512 131.49 46.0305C131.308 45.9629 131.134 45.8915 130.969 45.818C130.476 46.2234 127.283 46.7105 126.739 48.6085C126.202 50.4717 126.505 51.5988 126.513 51.626C127.602 51.4407 129.217 51.2405 130.521 51.2618C132.504 51.2937 134.202 51.9231 134.717 52.2393C134.717 52.2393 137.747 52.1721 138.37 52.1216C138.37 52.1216 139.677 50.8291 143.059 50.6672C146.045 50.5248 147.491 51.3927 147.491 51.3927C147.491 51.3927 148.809 51.3532 149.21 51.3651C149.252 51.3656 149.292 51.3778 149.327 51.4003C149.359 51.4003 150.059 51.456 150.766 51.5125C150.613 50.8984 150.451 50.2244 150.28 49.4989C149.915 47.9481 148.321 47.682 146.984 46.7109ZM150.763 72.3239C150.763 72.3239 150.763 72.3197 150.763 72.3176C150.279 67.3812 150.829 64.4308 151.033 63.5626H151.028C150.573 65.1631 150.013 66.8776 149.439 67.9923C148.089 70.6154 143.665 74.1548 139.088 74.9079C134.511 75.661 130.839 71.6023 130.839 71.6023C130.839 71.6023 130.933 74.3465 130.867 74.5531C130.867 74.5531 130.959 80.702 136.218 83.2945C136.572 83.4687 136.889 83.6298 137.173 83.7781C140.065 85.2881 139.547 85.5249 139.569 85.963C139.569 85.963 140.449 85.5317 142.323 84.9634C142.516 84.9045 142.72 84.8444 142.935 84.7832C145.949 83.9239 150.124 80.9897 151.62 76.8893C151.674 76.7003 151.722 76.5177 151.765 76.3415C151.729 75.7596 150.982 74.5518 150.763 72.3239Z" fill="#FFC0C7"/>
<path d="M140.8 64.5999C142.928 65.0393 140.333 69.4117 137.716 69.603C134.963 69.804 133.993 67.4427 133.615 66.5064C133.113 65.2629 134.214 64.8638 134.966 64.7682C135.32 64.7219 138.672 64.1587 140.8 64.5999Z" fill="black"/>
<path d="M150.768 51.516C151.305 51.5585 151.845 51.601 152.105 51.6278C152.105 51.6278 152.082 51.8331 152.363 52.3265C152.512 52.5764 152.713 52.7895 152.951 52.9508C152.548 52.9436 151.82 52.9036 151.123 52.8611C150.203 52.8055 149.337 52.7434 149.337 52.7434C149.436 52.7103 149.5 52.6639 149.498 52.5972C149.49 52.2844 149.587 51.5696 149.329 51.4038C149.361 51.4059 150.06 51.4595 150.768 51.516ZM149.329 51.4038C149.294 51.3813 149.253 51.3691 149.212 51.3685C148.811 51.3566 147.492 51.3962 147.492 51.3962C147.492 51.3962 146.046 50.5283 143.061 50.6707C139.679 50.8326 138.372 52.125 138.372 52.125C137.749 52.1756 134.718 52.2428 134.718 52.2428C134.204 51.9253 132.506 51.2959 130.522 51.2653C129.216 51.244 127.602 51.4442 126.514 51.6295C125.95 51.726 125.526 51.8182 125.358 51.8743C124.869 52.0379 124.268 52.134 124.203 52.4557C124.138 52.7774 124.073 52.9835 124.209 53.3482C124.344 53.7128 124.787 53.3907 125.059 53.8471C125.183 54.0545 125.375 54.9632 125.714 56.0044C126.118 57.2463 126.731 58.6773 127.68 59.3292C129.068 60.2821 132.187 60.2604 133.692 58.6917C135.198 57.123 135.221 53.7762 135.221 53.7762C135.227 53.5777 135.19 53.5318 135.19 53.5318C135.323 53.5318 138.082 53.4234 138.082 53.4234C138.082 53.4234 138.045 54.8871 138.849 56.684C139.789 58.7839 142.307 60.509 145.506 58.9293C148.614 57.3929 148.051 52.9058 148.274 52.8586C148.439 52.8233 149.047 52.8424 149.34 52.7443C149.439 52.7111 149.503 52.6648 149.501 52.5981C149.49 52.2844 149.587 51.5696 149.329 51.4038Z" fill="#756B77"/>
<path d="M150.808 51.516C151.346 51.5585 151.887 51.601 152.147 51.6278C152.147 51.6278 152.124 51.8331 152.406 52.3265C152.555 52.5764 152.757 52.7896 152.995 52.9508C152.59 52.9436 151.862 52.9036 151.163 52.8611C150.241 52.8055 149.374 52.7426 149.374 52.7426C149.473 52.7094 149.537 52.6631 149.535 52.5964C149.527 52.2836 149.624 51.5687 149.365 51.403C149.399 51.4059 150.099 51.4595 150.808 51.516ZM149.367 51.4038C149.332 51.3813 149.292 51.3691 149.25 51.3685C148.848 51.3566 147.528 51.3962 147.528 51.3962C147.528 51.3962 146.082 50.5283 143.09 50.6707C139.702 50.8326 138.394 52.125 138.394 52.125C137.769 52.1756 134.734 52.2428 134.734 52.2428C134.219 51.9253 132.519 51.2959 130.532 51.2653C129.224 51.244 127.607 51.4442 126.516 51.6295C125.95 51.726 125.524 51.8182 125.359 51.8743C124.869 52.0379 124.267 52.134 124.202 52.4557C124.137 52.7774 124.072 52.9835 124.208 53.3482C124.344 53.7128 124.789 53.3907 125.059 53.8471C125.183 54.0545 125.376 54.9632 125.715 56.0044C126.12 57.2463 126.733 58.6773 127.685 59.3292C129.075 60.2821 132.199 60.2604 133.706 58.6917C135.213 57.123 135.235 53.7762 135.235 53.7762C135.241 53.5777 135.203 53.5318 135.203 53.5318C135.337 53.5318 138.101 53.4234 138.101 53.4234C138.101 53.4234 138.063 54.8871 138.869 56.684C139.809 58.7839 142.332 60.509 145.536 58.9293C148.648 57.3929 148.084 52.9058 148.307 52.8586C148.472 52.8233 149.08 52.8424 149.374 52.7443C149.474 52.7111 149.538 52.6648 149.536 52.5981C149.528 52.2844 149.625 51.5696 149.367 51.4038Z" fill="#713C00"/>
<path d="M147.158 52.6506C147.609 53.3812 147.137 56.1811 146.343 57.2406C145.086 58.916 142.389 59.1561 140.946 58.2075C139.221 57.0736 138.453 53.7875 139.004 52.7768C139.768 51.3718 143.318 51.3943 143.318 51.3943C144.387 51.4096 146.532 51.6374 147.158 52.6506ZM134.346 53.2163C133.719 52.2005 131.574 51.9753 130.503 51.96C130.503 51.96 130.058 51.957 129.448 52.0161C128.337 52.1232 126.683 52.4356 126.19 53.3425C125.683 54.275 126.294 57.1322 127.74 58.4642C127.862 58.5782 127.993 58.6816 128.132 58.7732C129.575 59.7218 132.272 59.4816 133.528 57.8063C134.325 56.7468 134.796 53.9469 134.346 53.2163Z" fill="#980F5A"/>
<path d="M126.657 141.871C126.21 141.355 125.733 140.833 125.245 140.305C124.58 139.583 123.942 138.89 123.32 138.46C121.33 137.087 118.066 137.544 116.759 138.48C115.97 139.084 115.218 139.737 114.507 140.435C113.82 141.115 112.94 141.997 112.231 142.709C112.231 142.709 112.893 137.432 118.264 135.982C119.382 135.679 121.091 135.628 122.172 135.947L123.01 136.238C123.237 136.384 123.786 136.606 124.005 136.756C124.391 137.022 124.821 137.322 125.146 137.632C126.046 138.493 126.69 139.948 126.69 140.596C126.69 141.153 126.657 141.871 126.657 141.871ZM179.455 136.206C172.524 136.446 171.77 143.398 171.77 143.398C172.545 142.454 173.768 140.9 174.471 140.356C175.369 139.662 175.972 137.642 179.622 137.706C182.762 137.761 183.941 139.723 187.861 143.542C188.026 143.702 187.208 140.862 185.731 139.152C184.16 137.333 182.587 136.097 179.455 136.206Z" fill="#E2FFD9"/>
<path d="M145.49 90.4536C145.49 90.4536 144.515 91.0269 139.603 90.9236C134.692 90.8203 132.884 89.1896 132.884 89.1896L132.877 89.1866C133.703 87.1611 134.961 85.7088 135.898 84.8282L135.912 84.8435C135.912 84.8435 137.228 85.6753 139.57 85.9604C140.784 86.103 142.011 86.0843 143.221 85.9048C143.506 86.3022 143.846 86.8903 144.226 87.762C144.616 88.6596 145.064 89.5938 145.49 90.4536Z" fill="#B762C1"/>
<path d="M137.173 83.7752L137.155 83.8096C137.155 83.8096 136.621 84.1496 135.898 84.8296C134.96 85.7102 133.704 87.1624 132.876 89.188C132.56 89.962 132.327 90.7697 132.184 91.5964C132.184 91.5964 131.242 90.709 129.586 87.9703C127.93 85.2316 127.858 84.544 127.316 83.4475C126.779 82.3616 126.967 79.9353 126.971 79.8881C128.896 77.9556 130.813 74.7235 130.867 74.5518C130.867 74.5518 130.958 80.7007 136.218 83.2932C136.572 83.4658 136.889 83.6268 137.173 83.7752ZM157.042 78.3492C156.83 78.1537 156.636 77.9599 156.437 77.7623C155.36 76.6925 152.726 73.6542 152.148 72.8854C152.148 72.8854 152.326 74.0754 151.765 76.3385C151.771 76.3969 151.765 76.4558 151.749 76.5119C151.708 76.6394 151.666 76.7627 151.621 76.8863C150.126 80.9867 145.949 83.9209 142.936 84.7803C142.721 84.8415 142.517 84.9015 142.323 84.9605L142.362 85.0935C142.462 85.1275 142.771 85.2771 143.221 85.9048C143.505 86.3022 143.846 86.8904 144.225 87.7621C144.616 88.6597 145.064 89.5938 145.489 90.4536C146.283 92.058 146.995 93.4023 147.107 93.7593C147.234 94.1702 151.166 89.4702 153.775 86.094C154.652 84.9592 155.379 83.9736 155.762 83.3829C157.283 81.0343 157.042 78.3492 157.042 78.3492Z" fill="#E2FFD9"/>
<path d="M142.362 85.0935C142.462 85.1275 142.771 85.2771 143.221 85.9049C142.011 86.0844 140.784 86.1031 139.57 85.9605C139.57 85.9605 140.449 85.5291 142.323 84.9609L142.362 85.0935ZM137.156 83.8096C137.156 83.8096 136.622 84.1496 135.898 84.8296L135.912 84.8449C135.912 84.8449 137.228 85.6766 139.57 85.9618C139.547 85.5236 140.066 85.2869 137.174 83.7769L137.156 83.8096ZM150.763 72.324C150.983 74.5518 151.73 75.7597 151.766 76.3385C152.327 74.0762 152.149 72.8854 152.149 72.8854C151.805 72.4289 150.763 72.324 150.763 72.324H150.763Z" fill="#A7C999"/>
<path d="M156.721 46.3891C156.193 44.2641 154.115 38.9206 148.788 35.7034C145.862 33.9349 141.95 32.81 136.775 33.2141C133.623 33.4611 130.839 35.2503 129.077 36.7068C127.383 38.1093 121.77 43.7112 122.317 50.8057C122.339 51.0891 122.371 51.3754 122.413 51.6647C122.595 52.9082 123.549 55.216 123.549 55.216C123.549 55.216 124.136 54.2423 125.712 56.0043C125.373 54.9631 125.18 54.0544 125.057 53.847C124.787 53.3902 124.343 53.714 124.207 53.3481C124.07 52.9822 124.136 52.776 124.201 52.4556C124.266 52.1351 124.867 52.0378 125.356 51.8742C125.523 51.8181 125.947 51.7259 126.513 51.6294C126.504 51.6001 126.204 50.473 126.739 48.6119C127.283 46.7147 130.476 46.2268 130.969 45.8213C131.134 45.8949 131.308 45.9663 131.49 46.0338C132.784 46.5154 139.597 46.2145 140.773 45.7253C142.528 46.3874 144.635 46.8481 146.984 46.7143C148.321 47.6854 149.915 47.9514 150.281 49.5057C150.453 50.2311 150.614 50.9052 150.768 51.5193C151.305 51.5618 151.845 51.6043 152.105 51.6311C152.105 51.6311 152.082 51.8364 152.363 52.3298C152.512 52.5797 152.713 52.7928 152.951 52.9541C152.547 52.9469 151.819 52.9069 151.122 52.8644C151.37 54.2814 151.37 56.5335 151.745 56.638C152.348 56.8055 153.91 50.6995 156.769 53.7574L156.788 53.7531C156.776 53.7042 156.77 53.654 156.768 53.6035C156.925 50.7356 156.991 47.4784 156.721 46.3891ZM153.629 63.0296C152.252 63.9272 151.124 63.5902 151.035 63.5613C150.831 64.4304 150.281 67.3782 150.764 72.3103C150.751 72.1021 150.606 69.5584 150.96 68.1279C151.305 66.7318 152.678 63.7954 153.63 63.0309L153.629 63.0296Z" fill="#09AA7C"/>
<path d="M189.35 147.591C189.35 147.591 189.841 147.722 190.185 147.753L189.152 146.625L189.35 147.591Z" fill="#FFC0C7"/>
<path d="M128.989 151.56L127.729 151.555C127.718 151.555 127.707 151.558 127.698 151.564C127.689 151.571 127.681 151.58 127.677 151.59L127.553 151.888L127.512 151.64C127.507 151.616 127.494 151.596 127.475 151.581C127.457 151.566 127.434 151.557 127.411 151.558L123.636 151.567L123.509 152.016L123.338 151.577L120.844 151.565L119.476 151.559L119.348 152L119.204 151.548L118.534 151.544C118.534 151.544 118.549 151.134 118.555 150.636C118.555 150.633 118.555 150.63 118.555 150.627C118.558 150.376 118.559 150.104 118.555 149.851V149.84C118.553 149.723 118.55 149.611 118.544 149.506V149.496C118.545 149.493 118.545 149.49 118.544 149.488C118.544 149.445 118.54 149.407 118.538 149.368C118.538 149.339 118.534 149.31 118.532 149.281C118.532 149.281 118.532 149.28 118.532 149.28C118.532 149.279 118.532 149.279 118.532 149.278C118.5 148.811 118.457 148.513 118.432 148.36C118.419 148.282 118.41 148.243 118.41 148.243L118.366 146.935L118.432 146.519L120.033 146.421L120.976 146.413C120.986 146.453 121.377 147.676 121.579 148.338C121.711 148.77 122.051 149.16 122.297 149.391C122.507 149.589 122.927 149.67 123.425 149.489C123.67 149.401 124.138 148.923 124.315 148.309C124.48 147.712 124.576 147.096 124.601 146.475C124.601 146.475 124.89 146.324 125.498 145.871C125.498 145.871 127.064 148.622 127.462 149.489C128.388 151.512 128.989 151.56 128.989 151.56ZM172.818 148.402L172.921 151.636C172.921 151.636 170.967 151.636 170.937 151.633C170.928 151.633 171.255 151.34 171.502 150.915C172.057 149.961 172.818 148.402 172.818 148.402ZM193.58 142.41C193.58 142.41 192.657 144.814 190.956 146.447L187.862 143.539C187.862 143.539 187.133 140.275 185.283 138.63C183.432 136.986 182.943 136.221 179.844 136.205C176.746 136.189 174.794 137.188 172.986 139.871C172.986 139.871 172.359 141.097 171.983 142.127C171.738 142.795 171.658 143.539 171.658 143.539C171.658 143.539 170.704 144.921 169.946 146.367C169.489 147.171 169.078 148.003 168.717 148.858C168.717 148.858 168.469 149.504 167.746 150.801C167.663 150.949 167.311 151.502 167.126 151.618L166.411 151.621L165.882 151.618C165.859 151.62 165.837 151.628 165.818 151.641C165.8 151.655 165.786 151.674 165.778 151.696C165.759 151.755 165.676 152.028 165.676 152.028C165.676 152.028 165.428 151.696 165.404 151.671C165.393 151.655 165.379 151.642 165.362 151.633C165.346 151.623 165.327 151.618 165.309 151.617C165.264 151.617 161.658 151.61 161.622 151.611C161.599 151.611 161.576 151.618 161.556 151.63C161.536 151.643 161.52 151.662 161.51 151.683C161.491 151.736 161.392 152.066 161.392 152.066C161.392 152.066 161.144 151.701 161.123 151.671C161.112 151.652 161.097 151.637 161.078 151.626C161.06 151.616 161.039 151.61 161.018 151.611H160.407C159.389 151.611 157.455 151.606 157.432 151.607C157.408 151.606 157.384 151.612 157.364 151.626C157.344 151.639 157.327 151.658 157.318 151.681C157.292 151.747 157.153 152.1 157.153 152.1C157.153 152.1 156.928 151.695 156.905 151.663C156.895 151.645 156.881 151.63 156.863 151.62C156.846 151.61 156.826 151.605 156.806 151.606C156.754 151.606 153.122 151.598 153.088 151.6C153.065 151.601 153.043 151.609 153.024 151.622C153.005 151.636 152.99 151.655 152.982 151.677C152.966 151.731 152.867 152.065 152.867 152.065C152.867 152.065 152.666 151.677 152.65 151.655C152.638 151.639 152.623 151.626 152.606 151.616C152.589 151.606 152.571 151.6 152.551 151.598C152.508 151.598 148.906 151.593 148.876 151.593C148.85 151.594 148.825 151.604 148.805 151.622C148.785 151.64 148.771 151.664 148.766 151.691C148.752 151.766 148.693 152.08 148.693 152.08C148.693 152.08 148.504 151.679 148.494 151.657C148.482 151.639 148.467 151.623 148.448 151.611C148.43 151.6 148.409 151.593 148.387 151.591C148.336 151.591 144.813 151.587 144.778 151.589C144.75 151.588 144.724 151.597 144.701 151.613C144.679 151.629 144.662 151.653 144.654 151.68C144.616 151.765 144.498 152.009 144.498 152.009C144.498 152.009 144.352 151.674 144.341 151.649C144.331 151.629 144.315 151.613 144.297 151.601C144.279 151.59 144.257 151.583 144.236 151.583C144.179 151.583 140.018 151.578 139.952 151.581C139.928 151.579 139.903 151.584 139.882 151.597C139.861 151.61 139.844 151.63 139.835 151.654C139.817 151.696 139.726 151.956 139.726 151.956C139.726 151.956 139.644 151.678 139.628 151.646C139.62 151.625 139.605 151.608 139.587 151.596C139.568 151.584 139.546 151.579 139.525 151.58C139.483 151.58 138.02 151.58 136.925 151.577C136.278 151.577 135.761 151.577 135.747 151.577C135.719 151.574 135.691 151.583 135.669 151.6C135.647 151.618 135.632 151.643 135.627 151.671C135.601 151.758 135.521 152.024 135.521 152.024C135.521 152.024 135.403 151.697 135.383 151.652C135.373 151.627 135.356 151.605 135.334 151.591C135.311 151.576 135.285 151.569 135.259 151.57C135.188 151.57 134.13 151.57 134.13 151.57L132.392 151.555C132.116 151.045 131.497 149.988 131.37 149.722C131.017 148.979 130.181 146.993 129.701 146.299C129.221 145.606 128.127 143.643 128.127 143.643C128.127 143.643 126.874 142.048 126.689 141.85C126.664 141.823 126.696 141.245 126.689 141.17C126.579 140.326 126.409 139.11 125.904 138.535C124.776 137.248 123.882 136.479 122.433 136.036C122.433 136.036 121.133 135.572 119.632 135.728C118.131 135.884 116.357 136.458 114.781 137.889C113.206 139.32 112.576 141.48 112.232 142.706C112.232 142.706 110.463 144.667 109.025 145.894C107.587 147.121 105.33 148.736 105.33 148.736C105.33 148.736 102.965 146.359 101.922 144.979C100.879 143.599 98.9517 141.141 98.3122 139.038C97.6726 136.935 97.204 135.963 97.7775 133.732C98.351 131.5 99.1046 130.019 99.2426 129.52C99.3806 129.021 99.9227 126.578 100.193 125.063C100.265 124.658 100.367 124.068 100.482 123.396C100.797 121.562 101.206 119.114 101.366 118.119C101.584 116.759 103.763 102.6 104.316 99.4228C104.869 96.2459 104.981 94.7423 105.526 93.7112C106.071 92.6802 107.006 91.0499 108.748 89.7239C110.491 88.3979 112.438 87.0532 114.296 86.1071C116.155 85.1611 119.932 83.4296 121.257 82.8771C122.582 82.3246 124.998 81.4011 125.595 80.9931C126.067 80.6701 126.715 80.1626 126.966 79.9646C127.032 79.9127 127.07 79.8821 127.07 79.8821C126.999 80.1488 126.953 80.422 126.933 80.6977V80.7003C126.919 80.8528 126.91 81.0241 126.91 81.2103C126.908 81.6897 126.961 82.1677 127.068 82.6344C127.068 82.6344 127.294 83.3612 127.481 83.7985C127.667 84.2358 129.712 88.326 130.587 89.539C131.461 90.7519 132.181 91.5913 132.181 91.5913C132.181 91.5913 132.788 89.389 132.874 89.1828C132.874 89.1828 134.192 90.2917 136.528 90.6151C138.864 90.9385 143.51 91.0894 145.487 90.4498C145.487 90.4498 146.971 93.5331 147.104 93.7554C147.262 93.7098 147.406 93.6248 147.524 93.5081C147.73 93.3075 154.317 85.5342 154.919 84.6902C155.521 83.8461 156.214 82.7063 156.635 81.4929C157.056 80.2795 157.038 78.3453 157.038 78.3453C157.038 78.3453 158.224 79.424 159.595 80.0717C160.965 80.7194 164.081 81.9663 165.16 82.416C166.24 82.8656 169.026 84.0845 169.325 84.153C169.624 84.2214 169.886 84.1695 170.478 84.178C171.071 84.1865 171.647 84.133 172.03 84.4709C172.413 84.8087 172.51 84.9239 172.769 85.4832C173.029 86.0425 174.238 86.615 174.876 86.9036C175.515 87.1921 176.287 87.7319 176.685 88.1033C177.084 88.4748 177.528 88.7693 178.293 90.0248C178.908 91.028 179.365 92.1251 179.647 93.2752C179.848 94.1065 180.591 96.5859 180.9 97.7054C181.209 98.8248 181.988 101.615 182.287 102.649C182.585 103.682 185.638 113.621 186.658 116.593C187.679 119.565 189.614 125.004 190.112 126.352C190.61 127.701 193.391 134.84 193.727 135.847C194.062 136.853 194.388 137.914 194.222 139.875C194.223 139.874 194.2 140.903 193.58 142.411V142.41ZM184.609 147.07C184.954 147.095 185.3 147.097 185.646 147.078L186.807 148.751C186.056 148.994 185.162 149.236 184.438 149.339L184.609 147.07ZM178.55 146.639C178.55 146.639 179.024 146.597 179.991 146.653C180.688 146.692 181.136 146.729 181.136 146.729L181.508 149.364C180.829 149.364 180.192 149.376 179.624 149.325C178.906 149.26 178.302 149.098 177.74 148.974C177.739 148.977 178.189 148.036 178.55 146.64V146.639ZM175.088 148.034C174.559 147.757 174.049 147.445 173.559 147.099C173.559 147.099 173.823 146.711 173.81 146.687L174.121 146.151C174.121 146.151 174.436 146.401 174.549 146.472C174.629 146.523 174.88 146.65 174.88 146.65C174.873 146.743 175.088 148.036 175.088 148.036V148.034Z" fill="#B762C1"/>
<path d="M140.61 67.83C140.61 67.83 140.623 66.5125 137.39 66.6727C134.752 66.8049 134.757 67.7594 134.521 68.1521C134.521 68.1521 135.255 69.1793 136.077 69.3812C137.264 69.6732 138.214 69.7187 138.962 69.2184C139.709 68.7182 140.125 68.4794 140.61 67.83Z" fill="white"/>
<path d="M128.133 58.7732C128.133 58.7732 125.896 57.2062 126.051 53.748C126.093 52.8003 127.474 52.0739 130.322 51.963C130.322 51.963 126.858 52.4271 126.528 53.9286C126.029 56.1977 128.133 58.7732 128.133 58.7732ZM125.597 80.9969C125 81.4049 122.584 82.3297 121.258 82.8809C119.933 83.4321 116.156 85.164 114.298 86.1109C112.439 87.0578 110.494 88.4016 108.75 89.7276C107.006 91.0536 106.071 92.6839 105.527 93.715C104.984 94.746 104.871 96.2501 104.318 99.4266C103.764 102.603 101.586 116.761 101.368 118.122C101.208 119.118 100.798 121.565 100.484 123.4V123.426C100.484 123.426 106.297 96.4014 107.215 93.7851C108.132 91.1688 120.126 84.7959 122.505 83.5273C124.884 82.2587 126.912 81.2149 126.912 81.2149L126.935 80.7049V80.7023L126.968 79.9692C126.717 80.1664 126.071 80.6739 125.597 80.9969ZM136.775 33.2141C133.623 33.4611 130.839 35.2503 129.077 36.7068C127.383 38.1093 121.77 43.7112 122.317 50.8057C122.317 50.8057 123.123 44.0516 128.762 38.448C134.809 32.4419 144.876 33.7798 148.785 35.7034C145.862 33.9349 141.95 32.81 136.775 33.2141Z" fill="white"/>
<g style="mix-blend-mode:multiply" opacity="0.8">
<path d="M193.948 141.293C193.289 143.989 190.956 146.45 190.956 146.45L187.862 143.542C187.611 142.391 186.43 139.897 185.732 139.152C184.785 138.142 183.629 136.711 180.941 136.302C178.252 135.894 177.487 136.418 175.648 137.159C174.566 137.595 173.398 139.251 172.792 140.103C172.751 140.231 172.702 140.358 172.65 140.475C172.65 140.475 171.658 142.501 171.658 143.542C171.658 143.542 169.148 147.731 168.595 149.114C168.05 150.481 167.128 151.622 167.128 151.622H165.883C165.861 151.623 165.839 151.631 165.82 151.645C165.802 151.659 165.787 151.678 165.779 151.699C165.761 151.758 165.678 152.031 165.678 152.031C165.678 152.031 165.43 151.699 165.406 151.674C165.395 151.658 165.38 151.645 165.364 151.636C165.347 151.627 165.329 151.621 165.31 151.62C165.265 151.62 163.67 151.616 163.634 151.617C163.599 151.619 168.111 143.041 168.206 142.584C168.317 142.048 169.367 126.582 167.746 126.653C143.775 127.695 163.749 125.622 167.319 122.003C168.758 120.543 170.452 102.136 171.391 102.3C172.376 102.473 172.837 107.652 172.837 107.652L172.796 108.493L172.842 108.087C172.842 108.087 172.808 129.719 173.727 131.568C174.646 133.418 180.122 129.774 182.433 130.316C187.355 131.472 191.498 138.997 191.504 136.937C191.51 134.877 194.293 139.879 193.948 141.293ZM143.461 46.4797C143.461 46.4797 146.635 48.0628 147.299 48.3786C147.962 48.6943 148.455 51.3727 148.455 51.3727L150.769 51.5159C150.769 51.5159 150.315 49.2808 150.112 48.8949C149.909 48.509 148.617 47.6833 148.013 47.3382C147.408 46.9931 147.101 46.71 147.101 46.71C147.101 46.71 145.389 46.9323 143.461 46.4797ZM147.247 52.8581C147.416 53.7871 147.251 54.6125 146.954 55.9206C146.657 57.2288 145.535 58.5403 143.381 58.7456C141.228 58.9509 140.208 57.5352 140.208 57.5352C140.208 57.5352 141.531 58.7209 143.456 58.2802C145.381 57.8395 146.239 56.3222 146.463 54.2453C146.686 52.1683 145.173 51.5945 145.173 51.5945C145.173 51.5945 147.078 51.9286 147.247 52.8581ZM133.53 57.8063C132.274 59.4817 129.576 59.7218 128.134 58.7732C127.995 58.6816 127.864 58.5783 127.741 58.4642C128.428 58.814 130.708 59.5221 132.136 58.3525C133.685 57.0826 134.089 54.3668 133.572 53.3859C133.054 52.405 130.715 52.0412 130.719 52.0085C131.089 51.9732 131.462 51.9902 131.827 52.0591C133.111 52.2541 134.071 52.6995 134.347 53.2163C134.749 53.975 134.325 56.7468 133.53 57.8063H133.53ZM156.742 58.82C156.156 61.0215 154.631 62.6118 153.198 63.2752C151.766 63.9387 151.027 63.5596 151.027 63.5596C150.556 65.4466 149.845 67.8062 148.927 68.8487C142.268 76.4056 136.453 74.8467 136.453 74.8467C141.646 74.6512 146.758 70.462 147.951 65.1414C148.284 63.6539 148.697 59.2054 148.781 56.6673C148.628 56.9171 148.462 57.1583 148.285 57.3898C146.516 59.6916 143.248 59.5386 143.248 59.5386C146.892 59.4141 147.793 56.4888 148.033 55.0413C148.273 53.5937 148.272 52.8559 148.272 52.8559C148.475 52.855 148.678 52.8429 148.881 52.8198V52.8143C148.881 52.8143 149.221 52.6978 149.515 52.7403C149.538 52.7437 149.567 52.7476 149.601 52.7509C149.792 52.742 149.948 52.7374 149.948 52.7374C149.948 52.7374 149.948 52.7527 149.948 52.7799C150.44 52.8177 151.123 52.8572 151.123 52.8572C151.123 52.8572 151.297 55.3719 151.577 56.3847C151.759 57.0439 153.526 56.2882 153.782 56.8008C154.134 57.5046 152.247 58.5399 152.085 59.4413C151.871 60.6275 151.915 61.1196 152.63 60.9288C155.853 60.072 157.701 53.7038 154.411 54.2771C153.399 54.4535 152.2 56.1471 152.2 56.1471C152.45 55.6903 153.664 53.564 154.51 53.0697C155.355 52.5754 156.303 53.1636 156.772 53.7497C157.241 54.3358 157.328 56.618 156.742 58.82ZM155.966 44.1757C156.367 45.0636 156.859 46.2735 156.881 47.9332C156.904 49.5928 156.769 53.7557 156.769 53.7557C155.63 52.3149 154.411 53.0004 153.792 53.5657C153.172 54.1309 152.263 56.0341 152.038 56.4043C151.814 56.7744 151.576 56.7519 151.517 56.2942C151.459 55.8365 151.122 52.8627 151.122 52.8627L152.951 52.9524C152.38 52.6234 152.105 51.6294 152.105 51.6294L150.768 51.5176C150.614 50.949 150.291 49.229 149.854 48.603C149.416 47.9769 148.275 47.4946 147.684 47.1758C147.094 46.8571 146.39 45.6841 146.39 45.6841C146.39 45.6841 148.506 46.6777 149.476 46.9914C150.445 47.305 154.141 47.5995 154.521 44.5145C154.923 41.256 149.916 36.4509 149.916 36.4509C154.414 40.1557 155.564 43.2875 155.966 44.1757ZM104.201 151.125C104.201 151.125 106.676 149.831 107.727 148.783C107.963 148.547 111.009 144.985 111.009 144.985C111.009 144.985 109.651 146.857 109.247 147.904C108.843 148.951 108.924 149.497 108.924 149.497C108.924 149.497 107.565 150.457 106.25 151.138C104.935 151.82 104.081 151.288 104.201 151.125ZM108.911 149.021C108.911 149.021 109.431 150.095 110.309 149.368C111.033 148.768 112.74 146.405 113.331 145.509C113.923 144.613 115.254 140.533 114.873 145.557L114.977 146.838L113.951 146.845C113.951 146.845 112.264 149.395 111.69 150.025C111.115 150.654 110.46 150.631 109.848 150.524C109.236 150.416 108.86 150.166 108.912 149.021H108.911ZM124.311 148.049C124.239 148.493 123.883 149.335 123.248 149.479C122.614 149.624 122.303 149.452 121.919 149.012C121.534 148.572 120.973 146.411 120.973 146.411L118.419 146.459C118.419 146.459 118.234 148.853 117.932 149.618C117.63 150.383 117.248 150.874 116.309 150.82C115.37 150.766 114.993 150.151 115.19 148.827C115.19 148.827 115.107 150.029 116.546 149.783C116.98 149.709 117.318 149.804 117.526 148.335C117.735 146.865 117.811 146.734 116.975 146.697C115.884 146.649 117.64 146.542 117.78 146.422C117.887 146.331 118.218 143.432 118.291 143.092C118.425 142.468 118.58 141.572 118.979 141.542C119.553 141.499 121.477 145.986 122.057 147.322C122.85 149.145 124.32 148.008 124.313 148.049H124.311ZM132.181 151.54C132.136 151.649 132.154 152.133 131.018 152.135C129.881 152.138 128.823 151.571 128.313 151.119C128.153 150.978 127.758 150.195 127.068 148.851C126.533 147.81 125.719 146.447 125.378 145.885L125.346 145.922C124.847 146.48 124.515 146.418 124.515 146.418C124.515 146.418 124.432 144.702 124.41 144.636C124.41 144.636 125.013 145.299 125.319 144.885C125.57 144.545 126.209 143.931 126.356 144.208C126.57 144.61 126.045 145.311 126.342 146.041C126.433 146.262 126.764 146.92 127.695 148.729C129.456 152.145 132.182 151.54 132.182 151.54H132.181ZM193.248 151.405C191.933 150.725 190.573 149.764 190.573 149.764C190.573 149.764 190.656 149.219 190.251 148.171C189.846 147.123 188.488 145.252 188.488 145.252C188.488 145.252 191.535 148.814 191.771 149.05C192.821 150.098 195.297 151.392 195.297 151.392C195.418 151.555 194.564 152.087 193.25 151.405H193.248ZM189.65 150.79C189.038 150.897 188.383 150.921 187.809 150.291C187.234 149.66 185.547 147.111 185.547 147.111L184.521 147.104L184.626 145.823C184.245 140.799 185.576 144.878 186.167 145.775C186.758 146.672 188.465 149.034 189.189 149.634C190.067 150.362 190.587 149.287 190.587 149.287C190.64 150.433 190.262 150.684 189.65 150.79ZM177.441 147.588C178.019 146.253 179.945 141.766 180.519 141.808C180.919 141.839 181.073 142.734 181.207 143.359C181.28 143.699 181.612 146.598 181.718 146.689C181.859 146.809 183.615 146.916 182.523 146.964C181.687 147.001 181.763 147.134 181.972 148.602C182.18 150.069 182.519 149.976 182.952 150.05C184.393 150.296 184.308 149.094 184.308 149.094C184.506 150.418 184.128 151.033 183.189 151.087C182.251 151.141 181.867 150.65 181.566 149.885C181.265 149.12 181.079 146.726 181.079 146.726L178.526 146.678C178.526 146.678 177.964 148.839 177.579 149.279C177.195 149.719 176.885 149.89 176.25 149.746C175.615 149.602 175.259 148.76 175.187 148.316C175.18 148.275 176.65 149.412 177.441 147.589V147.588ZM171.804 148.993C172.735 147.185 173.066 146.528 173.156 146.306C173.454 145.576 172.929 144.875 173.143 144.473C173.29 144.196 173.928 144.811 174.179 145.15C174.485 145.564 175.088 144.901 175.088 144.901C175.069 144.967 174.984 146.682 174.984 146.682C174.984 146.682 174.651 146.745 174.153 146.187C174.141 146.174 174.132 146.162 174.121 146.149C173.832 146.625 173.379 147.421 172.87 148.362C172.776 148.534 172.87 150.019 172.87 150.019L172.921 151.634C172.921 151.634 171.966 151.627 171.422 151.634C171.349 151.634 170.79 151.634 170.79 151.634C170.217 151.991 169.363 152.399 168.481 152.399C167.345 152.399 167.365 151.914 167.318 151.804C167.317 151.807 170.044 152.412 171.804 148.994V148.993ZM122.301 138.84C121.118 138.238 119.435 138.12 117.501 138.993C116.537 139.428 112.992 141.798 111.68 143.425C111.68 143.425 114.126 140.973 114.891 140.218C115.655 139.464 116.3 138.785 116.854 138.491C117.409 138.196 118.985 137.258 121.494 137.79C124.004 138.323 125.368 140.68 127.209 142.712C127.209 142.715 123.595 139.5 122.301 138.841V138.84ZM152.148 72.8875L157.042 78.3513C157.198 80.2463 156.539 81.7712 156.009 82.9413C155.478 84.1113 154.363 85.2499 152.448 87.7863C150.532 90.3227 147.527 93.5148 147.527 93.5148C147.527 93.5148 152.784 85.9222 153.611 84.7063C154.437 83.4903 155.38 79.6913 155.043 79.2323C154.201 78.0899 152.017 75.1395 152.017 75.1395C152.294 73.6002 152.148 72.8875 152.148 72.8875ZM143.221 85.9069C143.663 86.2235 145.489 90.4544 145.489 90.4544C145.489 90.4544 144.014 90.7846 142.783 90.8696C141.551 90.9546 140.233 91.1931 136.932 90.6707C133.63 90.1484 132.876 89.1875 132.876 89.1875L132.992 88.9155C132.992 88.9155 135.423 90.0592 137.867 90.2483C141.842 90.5555 144.32 90.0111 144.095 89.632C143.92 89.3375 142.525 85.9894 142.525 85.9894L143.221 85.9069ZM137.173 83.7772C135.637 84.728 133.663 87.2346 133.138 88.5151C132.612 89.7957 132.184 91.5972 132.184 91.5972C132.184 91.5972 131.776 91.2309 130.589 89.5445C129.403 87.8581 127.806 84.6068 127.806 84.6068C129.66 87.272 131.912 89.6596 131.912 89.6596C131.909 89.2134 132.403 88.111 132.403 88.111C133.586 85.3557 136.54 83.4508 136.54 83.4508L137.173 83.7772ZM137.173 83.7772C137.173 83.7772 138.891 84.7819 139.307 85.1181C139.723 85.4543 139.57 85.9621 139.57 85.9621C138.987 86.0408 136.952 85.3319 136.952 85.3319C136.952 85.3319 138.615 85.5741 138.301 85.1415C137.986 84.7088 136.692 84.1912 136.692 84.1912L137.173 83.7772ZM142.15 85.0152C142.484 85.0514 143.221 85.9077 143.221 85.9077C142.562 86.1406 140.566 86.0421 140.566 86.0421C140.566 86.0421 142.4 85.7773 142.33 85.6536C142.259 85.5299 141.793 85.1292 141.793 85.1292L142.15 85.0152ZM171.577 84.2502C170.363 84.1504 169.411 84.6502 169.148 85.2915C166.542 91.6512 167.844 85.0862 167.832 84.8359C166.746 84.3765 159.921 82.7453 157.552 82.5588C157.018 82.5163 156.745 84.3488 148.928 93.5059C147.405 95.2909 146.232 95.7584 146.267 94.9194C146.324 93.5242 144.621 90.6928 144.621 90.6928L145.489 90.4574C145.489 90.4574 146.441 92.2356 146.728 92.9509C147.015 93.6661 146.987 93.8344 147.194 93.7719C147.401 93.7095 148.477 92.5879 149.537 91.3745C150.597 90.1612 155.505 83.8244 155.505 83.8244C155.956 83.2375 156.326 82.589 156.604 81.8975C156.709 81.4725 156.801 81.07 156.857 80.75C156.988 79.9568 157.051 79.1532 157.043 78.3487C157.043 78.3487 158.922 79.8264 161.777 81.0126C163.808 81.8571 166.329 82.9107 167.615 83.4487C167.593 83.4309 167.579 83.4211 167.579 83.4211L169.506 84.2545C170.127 84.0981 171.577 84.2464 171.577 84.2464V84.2502ZM187.604 119.568C187.604 119.568 179.748 96.2726 178.568 92.8471C177.388 89.4216 174.753 88.5971 174.132 88.3456C173.239 87.9856 169.704 95.1591 171.615 89.8755C172.034 88.7174 173.196 85.9575 172.908 85.6957C172.621 85.4339 172.46 84.9154 172.46 84.9154C172.661 85.4075 173.304 86.0408 173.706 86.3013C173.985 86.471 174.272 86.6255 174.567 86.7641C174.521 86.7493 174.473 86.7369 174.424 86.7263C175.311 87.1645 176.933 88.1144 177.998 89.6163C179.526 91.7723 180.151 94.9947 180.151 94.9947C181.969 102.297 187.604 119.565 187.604 119.565V119.568ZM118.067 132.975C118.067 132.975 117.276 125.925 117.038 124.003C116.8 122.082 116.48 120.116 115.747 116.87C115.013 113.624 113.185 107.137 113.185 107.137C113.185 107.137 117.89 117.39 117.965 117.767C118.836 122.122 119.2 132.955 120.841 134.257L118.067 132.975ZM126.723 141.889L125.451 140.528C124.786 139.808 124.358 139.381 123.798 138.869C122.095 137.299 118.733 136.932 116.361 138.75C116.361 138.75 116.083 138.962 114.975 140.059C114.858 140.102 115.937 137.167 119.538 136.798C122.227 136.522 123.858 137.676 124.31 138.175C125.215 139.178 125.653 138.409 124.131 136.84C124.517 137.105 125.219 137.728 125.536 138.045C126.473 138.975 126.882 140.827 126.721 141.886L126.723 141.889ZM133.432 151.594C133.362 151.594 132.358 151.606 132.358 151.606C132.358 151.606 132.034 150.988 131.635 150.246C130.884 148.614 130.028 146.715 129.47 145.873C128.638 144.618 126.723 141.89 126.723 141.89L126.688 141.175C126.688 141.175 127.826 142.277 129.485 144.416C130.348 145.527 133.501 151.591 133.43 151.591L133.432 151.594ZM124.601 146.476C124.999 146.369 125.44 145.934 125.44 145.934C125.44 145.934 126.28 147.365 126.718 148.138C127.157 148.911 128.901 151.559 128.901 151.559L127.731 151.557C127.731 151.557 125.471 147.719 125.309 147.902C125.147 148.085 123.822 149.335 123.822 149.335C124.642 148.073 124.599 146.474 124.599 146.474L124.601 146.476ZM112.233 142.71C112.233 142.71 111.017 144.07 110.013 145.051C109.009 146.032 105.329 148.739 105.329 148.739C104.379 147.918 101.15 144.167 99.324 141.158C97.4982 138.148 97.4461 136.089 97.6254 134.423C97.8048 132.756 99.1653 129.748 99.1653 129.748C98.6228 131.299 98.0667 135.733 98.4691 136.004C98.8716 136.276 108.39 141.962 109.678 141.42C110.965 140.879 113.923 138.809 113.923 138.809C112.531 140.528 112.231 142.708 112.231 142.708L112.233 142.71ZM174.093 139.754C178.552 136.573 181.141 137.975 181.141 137.975C177.337 137.337 176.465 138.54 175.188 139.62C173.935 140.682 171.772 143.402 171.772 143.402C171.772 143.402 172.285 137.765 177.74 136.413C181.674 135.438 183.35 137.118 183.35 137.118C176.501 134.38 171.818 141.373 174.091 139.751L174.093 139.754ZM119.916 147.985C119.984 148.262 120.507 150.302 120.844 151.564L119.476 151.558L119.347 151.999L119.204 151.547L118.534 151.543C118.534 151.543 118.549 151.133 118.555 150.635C118.555 150.632 118.555 150.629 118.555 150.626C118.564 150.339 118.56 150.073 118.555 149.85V149.839C118.551 149.712 118.547 149.598 118.544 149.505V149.495C118.544 149.492 118.544 149.49 118.544 149.487C118.544 149.418 118.538 149.349 118.532 149.28C118.532 149.28 118.532 149.279 118.532 149.279C118.532 149.278 118.532 149.278 118.532 149.277C118.498 148.895 118.474 148.564 118.474 148.564L118.448 148.019L118.431 146.518L120.187 146.423L120.976 146.412L121.732 148.696C121.732 148.696 119.609 146.727 119.916 147.985ZM136.453 74.8467C136.453 74.8467 139.038 75.3932 141.455 74.2772C143.873 73.1611 145.785 72.2372 147.57 70.3515C149.356 68.4657 149.778 67.286 150.157 66.291C150.536 65.2961 150.798 64.5621 150.798 64.5621C150.798 64.5621 150.322 68.8601 150.684 71.4152C151.047 73.9703 151.07 74.1752 151.795 76.1846C151.795 76.1846 151.073 80.7321 144.49 84.1967C144.49 84.1967 147.23 79.9556 148.424 78.4099C149.619 76.8642 145.459 73.7349 144.858 73.6695C144.256 73.604 139.871 76.4217 136.453 74.8467ZM127.403 64.6493C126.746 64.7343 126.188 63.9943 126.188 63.9943C126.861 64.6442 126.875 60.4039 126.875 60.4039L127.403 64.6493ZM150.555 69.6681C150.555 69.6681 150.555 65.2859 151.027 63.5596C151.027 63.5596 152.447 63.795 153.465 63.1698C153.466 63.1698 151.484 65.3586 150.555 69.6681ZM134.772 56.6168C135.284 55.0613 135.185 53.5308 135.185 53.5308L138.077 53.4225L138.122 54.3957C138.122 54.3957 135.896 54.4021 135.941 54.4705C135.986 54.5389 135.867 56.0519 135.253 57.4149C134.089 59.9976 131.824 59.7524 131.824 59.7524C133.384 59.5301 134.26 58.1727 134.772 56.6168H134.772Z" fill="#FF8DCC"/>
</g>
<path d="M150.763 72.3239C150.763 72.3239 151.805 72.4289 152.148 72.8853C152.727 73.6541 155.36 76.6925 156.437 77.7622C156.636 77.9598 156.83 78.1536 157.042 78.3491C157.975 79.2106 159.25 80.1001 162.802 81.4767C167.159 83.1652 169.138 84.2056 169.628 84.2247C170.118 84.2439 171.322 83.9838 172.081 84.5057C172.841 85.0276 172.377 85.4207 173.474 86.1691C174.571 86.9175 177.293 87.4488 178.969 91.3337C180.646 95.2186 182.629 107.583 193.728 135.846C195.303 139.856 193.277 144.144 190.957 146.45M150.764 72.3175C150.755 72.1726 150.599 69.5784 150.959 68.1279C151.304 66.7317 152.677 63.7954 153.63 63.0308C153.689 62.9818 153.753 62.939 153.821 62.9033C155.23 62.1944 156.929 59.6419 157.109 56.5347C157.185 55.2032 156.873 54.1547 156.79 53.7488C156.778 53.6999 156.771 53.6497 156.77 53.5992C156.926 50.7347 156.992 47.4792 156.722 46.3883C155.904 43.0975 151.365 32.0726 136.776 33.2133C133.625 33.4602 130.84 35.2494 129.078 36.7059C127.316 38.1624 121.315 44.1655 122.415 51.6659C122.597 52.9095 123.551 55.2172 123.551 55.2172C123.494 56.7077 123.972 59.5174 125.272 62.4078C126.507 65.1516 127.404 64.6505 127.404 64.6505C127.669 69.1908 130.84 71.6005 130.84 71.6005C130.84 71.6005 130.934 74.3448 130.868 74.5513C130.814 74.7213 128.897 77.9551 126.972 79.8876C126.575 80.2858 126.177 80.6292 125.796 80.8791C123.565 82.339 107.216 87.2597 105.23 94.5599C104.248 98.1681 100.484 125.896 99.1803 129.719C99.1803 129.719 97.3033 133.856 97.5276 136.012C98.1379 141.848 104.332 147.742 104.642 148.034L105.33 148.74M126.971 79.8872C126.968 79.9344 126.834 82.0232 127.316 83.4466C127.71 84.6081 127.93 85.2316 129.586 87.9694C131.243 90.7073 132.184 91.5955 132.184 91.5955C132.328 90.7688 132.56 89.961 132.877 89.187C133.703 87.1615 134.961 85.7093 135.898 84.8287C136.622 84.1487 137.156 83.8087 137.156 83.8087M142.151 85.0123C142.151 85.0123 142.339 85.0845 142.362 85.0926C142.462 85.1266 142.772 85.2762 143.221 85.9039C143.506 86.3013 143.846 86.8895 144.226 87.7612C144.617 88.6588 145.065 89.5929 145.49 90.4527C146.283 92.0571 146.995 93.4013 147.107 93.7583C147.278 94.307 154.24 85.7309 155.762 83.382C157.284 81.033 157.043 78.3483 157.043 78.3483M135.913 84.8427C135.913 84.8427 137.229 85.6744 139.571 85.9596C140.785 86.1022 142.012 86.0835 143.222 85.9039M132.885 89.1887C132.885 89.1887 134.693 90.8203 139.604 90.9227C144.516 91.0252 145.49 90.4535 145.49 90.4535M111.176 144.718C111.06 144.718 109.475 147.13 109.155 147.895C108.995 148.28 108.778 148.961 108.838 149.545C108.896 150.123 109.222 150.608 110.136 150.617C111.503 150.634 111.539 150.206 112.66 148.673C113.213 147.917 113.635 147.298 113.919 146.865C114.212 146.421 114.361 146.172 114.361 146.172M114.78 144.778C114.78 144.778 114.863 145.755 114.956 146.858C115.043 147.91 115.134 149.077 115.163 149.62C115.223 150.73 115.691 150.807 116.419 150.829C117.148 150.851 117.861 150.484 118.086 149.064C118.144 148.699 118.215 148.182 118.289 147.616C118.335 147.262 118.382 146.887 118.428 146.518C118.594 145.188 118.737 143.932 118.737 143.932M119.863 143.687C119.863 143.687 120.697 145.607 121.014 146.428C121.332 147.249 121.639 149.515 122.85 149.586C124.06 149.658 124.461 148.149 124.57 147.246C124.594 146.99 124.602 146.732 124.594 146.475M124.594 146.475C124.574 145.252 124.388 143.372 124.388 143.372M124.594 146.475C124.905 146.351 125.19 146.167 125.433 145.933M125.433 145.933C125.719 145.663 125.922 145.314 126.018 144.927M125.433 145.933C125.433 145.933 127.354 149.133 127.967 150.513C128.581 151.894 130.457 152.242 131.471 152.213C132.486 152.185 132.5 151.464 132.087 151.005C131.675 150.546 130.248 147.288 129.774 146.437C129.299 145.586 128.786 144.606 128.195 143.767C127.939 143.404 127.354 142.684 126.65 141.873C125.726 140.806 124.599 139.581 123.752 138.801C122.26 137.427 118.685 136.79 116.076 138.976C116.076 138.976 114.06 140.957 112.44 142.585C111.637 143.392 110.93 144.112 110.613 144.463C109.959 145.186 108.047 146.716 106.481 147.906C105.749 148.461 103.779 149.705 103.871 150.427C103.963 151.149 104.671 152.005 106.217 151.15C107.762 150.295 108.839 149.546 108.839 149.546M114.956 146.858C114.142 146.831 113.92 146.865 113.92 146.865M121.016 146.426C120.153 146.407 119.289 146.437 118.43 146.517H118.427M185.206 146.386C185.206 146.386 185.355 146.634 185.647 147.079C185.931 147.512 186.353 148.13 186.906 148.887C188.028 150.42 188.063 150.848 189.43 150.831C190.344 150.82 190.669 150.336 190.728 149.759C190.788 149.175 190.571 148.493 190.411 148.109C190.091 147.344 188.507 144.933 188.39 144.932M180.829 144.144C180.829 144.144 180.973 145.4 181.138 146.73C181.184 147.099 181.231 147.473 181.278 147.828C181.352 148.394 181.422 148.911 181.48 149.276C181.705 150.696 182.418 151.061 183.147 151.041C183.875 151.021 184.345 150.943 184.403 149.832C184.432 149.291 184.525 148.124 184.61 147.07C184.701 145.965 184.786 144.99 184.786 144.99M175.177 143.584C175.177 143.584 174.991 145.462 174.97 146.687C174.962 146.944 174.97 147.202 174.994 147.458C175.105 148.361 175.505 149.869 176.715 149.798C177.925 149.727 178.232 147.46 178.55 146.64C178.868 145.82 179.702 143.899 179.702 143.899M173.545 145.14C173.641 145.526 173.844 145.875 174.13 146.145C174.373 146.379 174.658 146.563 174.969 146.687M190.727 149.759C190.727 149.759 191.804 150.509 193.349 151.363C194.895 152.217 195.602 151.363 195.695 150.64C195.788 149.918 193.817 148.674 193.085 148.119C191.518 146.929 189.605 145.399 188.954 144.677C188.636 144.326 187.929 143.605 187.126 142.799C185.504 141.17 183.488 139.19 183.488 139.19C180.879 137.004 177.304 137.641 175.812 139.015C174.965 139.795 173.838 141.02 172.914 142.086C172.211 142.898 171.625 143.616 171.369 143.981C170.778 144.82 170.265 145.8 169.79 146.65C169.316 147.501 167.89 150.76 167.477 151.218C167.063 151.677 167.079 152.4 168.093 152.427C169.107 152.454 170.982 152.106 171.597 150.727C172.211 149.348 174.131 146.146 174.131 146.146M185.646 147.081C185.646 147.081 185.423 147.047 184.609 147.074M181.139 146.734H181.136C180.276 146.655 179.412 146.625 178.549 146.644M118.065 132.967C118.065 132.967 117.349 126.205 117.086 124.094C116.307 117.829 113.182 107.137 113.182 107.137M125.143 137.635C121.949 134.405 116.65 132.379 115.209 131.642M126.656 141.876C126.656 141.876 127.038 139.388 125.143 137.637C122.969 135.627 120.341 135.355 118.065 136.043C112.788 137.637 112.239 142.788 112.239 142.788M187.861 143.547C187.861 143.547 186.245 135.855 179.168 136.224C172.475 136.577 171.657 143.547 171.657 143.547M184.438 149.296C185.121 149.247 186.467 148.905 186.807 148.758M177.738 148.982C178.082 149.059 178.441 149.124 178.818 149.173C179.71 149.29 180.608 149.356 181.507 149.372M173.559 147.104C174.042 147.459 174.553 147.772 175.087 148.039M172.836 107.652C172.836 107.652 171.527 118.26 171.472 123.25C171.403 129.393 172.34 141.149 172.34 141.149M126.512 51.6285C125.948 51.725 125.524 51.8172 125.356 51.8733C124.867 52.0369 124.266 52.133 124.201 52.4547C124.136 52.7764 124.071 52.9826 124.206 53.3472C124.342 53.7119 124.785 53.3897 125.057 53.8462C125.181 54.0536 125.373 54.9622 125.712 56.0035C126.116 57.2453 126.728 58.6763 127.678 59.3282C129.066 60.2811 132.185 60.2594 133.69 58.6907C135.196 57.1221 135.219 53.7752 135.219 53.7752C135.225 53.5767 135.188 53.5308 135.188 53.5308C135.321 53.5308 138.08 53.4224 138.08 53.4224C138.08 53.4224 138.043 54.8861 138.847 56.683C139.787 58.783 142.305 60.508 145.504 58.9283C148.612 57.3919 148.049 52.9048 148.272 52.8576C148.437 52.8223 149.045 52.8415 149.338 52.7433C149.437 52.7101 149.501 52.6638 149.499 52.5971C149.491 52.2843 149.588 51.5694 149.33 51.4037C149.295 51.3812 149.255 51.369 149.213 51.3684C148.812 51.3565 147.494 51.396 147.494 51.396C147.494 51.396 146.048 50.5282 143.062 50.6706C139.68 50.8325 138.373 52.1249 138.373 52.1249C137.75 52.1755 134.72 52.2426 134.72 52.2426C134.205 51.9252 132.507 51.2957 130.523 51.2651C129.217 51.2439 127.603 51.4441 126.516 51.6294M149.337 52.7424C149.337 52.7424 150.204 52.8045 151.123 52.8602C151.82 52.9027 152.548 52.9426 152.951 52.9498C152.713 52.7886 152.512 52.5754 152.363 52.3255C152.082 51.8321 152.105 51.6268 152.105 51.6268C151.845 51.6017 151.304 51.5571 150.768 51.515C150.06 51.4585 149.361 51.405 149.329 51.4028M130.97 45.8171C130.477 46.2225 127.284 46.7096 126.74 48.6076C126.203 50.4708 126.505 51.5979 126.514 51.6251M129.629 45.044C129.843 45.2297 130.331 45.5327 130.97 45.8145C131.135 45.888 131.309 45.9594 131.491 46.027C132.785 46.5085 139.598 46.2076 140.774 45.7185M140.774 45.7185C137.365 44.4341 135.283 42.3933 135.325 42.4846M140.774 45.7185C142.529 46.3806 144.636 46.8413 146.985 46.7074C147.085 46.7023 147.187 46.6951 147.288 46.6875C146.784 46.1823 146.325 45.6321 145.916 45.0431M150.77 51.5227C150.77 51.5204 150.769 51.5181 150.768 51.5159C150.614 50.9018 150.453 50.2277 150.281 49.5022C149.915 47.948 148.321 47.682 146.984 46.7108M151.123 52.861C151.371 54.278 151.371 56.53 151.745 56.6346C152.348 56.802 153.91 50.6961 156.77 53.7539M151.103 63.2897C151.674 61.2386 152.059 59.4438 152.059 59.4438M151.103 63.2914C151.101 63.2948 151.101 63.2984 151.1 63.302M130.839 71.5993C130.839 71.5993 134.511 75.6589 139.088 74.9049C143.665 74.151 148.089 70.6124 149.439 67.9893C150.013 66.8737 150.573 65.1601 151.028 63.5595C151.046 63.4915 151.066 63.4235 151.085 63.356M127.403 64.6492C127.178 62.9492 126.797 60.1379 126.797 60.1379M130.867 74.55C130.867 74.55 130.959 80.6989 136.218 83.2914C136.572 83.4657 136.889 83.6268 137.173 83.7751C140.065 85.2851 139.547 85.5218 139.569 85.96C139.569 85.96 140.449 85.5286 142.323 84.9604C142.516 84.9015 142.72 84.8414 142.935 84.7802C145.949 83.9209 150.124 80.9867 151.62 76.8863C151.666 76.7626 151.709 76.6372 151.748 76.5118C151.765 76.4557 151.771 76.3968 151.765 76.3384C151.729 75.7596 150.982 74.5534 150.763 72.3239C150.763 72.3239 150.763 72.3196 150.763 72.3175C150.279 67.3811 150.829 64.4308 151.033 63.5625C151.054 63.4711 151.074 63.4027 151.084 63.3572C151.091 63.3322 151.096 63.3147 151.099 63.3033C151.103 63.2918 151.102 63.2943 151.102 63.2926M151.563 77.0915C151.584 77.0223 151.605 76.9538 151.622 76.8863C151.675 76.6973 151.723 76.5147 151.767 76.3384C152.328 74.0762 152.15 72.8853 152.15 72.8853M151.026 63.5595H151.032C151.121 63.5884 152.249 63.9255 153.626 63.0279M118.465 151.667C118.651 150.153 118.364 147.035 118.364 147.035M172.919 151.747C172.934 151.5 172.818 148.404 172.818 148.404M125.713 56.0047C124.137 54.2427 123.55 55.2164 123.55 55.2164M130.504 51.9583C130.504 51.9583 126.954 51.9358 126.19 53.3408C125.639 54.3536 126.408 57.6376 128.132 58.7715C129.575 59.7201 132.272 59.48 133.528 57.8046C134.323 56.7451 134.795 53.9452 134.344 53.2146C133.719 52.2006 131.574 51.9774 130.504 51.96L130.504 51.9583ZM143.316 51.3926C143.316 51.3926 139.766 51.3701 139.002 52.7752C138.452 53.7875 139.22 57.0719 140.944 58.2058C142.387 59.1544 145.084 58.9143 146.341 57.2389C147.136 56.1794 147.607 53.3795 147.157 52.6489C146.532 51.6374 144.387 51.4096 143.317 51.3943L143.316 51.3926ZM133.616 66.5056C133.993 67.4406 134.963 69.8032 137.717 69.6022C140.333 69.4109 142.929 65.0385 140.801 64.5991C138.672 64.1596 135.321 64.7223 134.967 64.7691C134.214 64.8626 133.113 65.2617 133.615 66.5052L133.616 66.5056Z" stroke="black" stroke-linecap="round" stroke-linejoin="round"/>
</g>
<g clip-path="url(#clip0_0_1)">
<path fill-rule="evenodd" clip-rule="evenodd" d="M82.0172 85.5563C81.101 88.8848 81.0958 91.299 81.1893 92.7183C81.2631 93.8391 82.1931 99.3413 75.0127 100.489C80.6318 98.146 81.8897 94.9688 79.2556 90.0669L71.9676 99.001C69.0879 102.786 64.878 99.5346 64.6967 97.7091C64.506 95.8238 69.6338 94.5334 71.704 98.1989L82.0172 85.5563Z" fill="black"/>
</g>
<g clip-path="url(#clip1_0_1)">
<path fill-rule="evenodd" clip-rule="evenodd" d="M65.2219 119.086C68.251 122.344 70.8659 123.943 72.4645 124.772C73.7268 125.426 80.2832 127.981 76.9778 137.049C77.9976 128.999 75.349 125.446 68.3637 125.26L73.4346 139.591C75.715 145.422 69.5209 148.148 67.4263 147.153C65.2609 146.13 67.1107 139.343 72.3978 139.367L65.2219 119.086Z" fill="black"/>
</g>
<path d="M45.8145 78.1133C45.6618 78.1287 45.5248 78.2028 45.4343 78.3224C45.3434 78.4419 45.3073 78.5952 45.339 78.7402C46.6845 85.5726 47.1782 91.5851 46.848 97.2041C46.0598 96.2668 44.7761 95.6505 43.3271 95.6501C40.9329 95.6501 38.9906 97.3173 38.9906 99.3719C38.9906 101.426 40.9329 103.093 43.3271 103.093C45.453 103.093 47.2252 101.784 47.5954 100.051C47.6758 99.9694 47.7324 99.8708 47.745 99.7505C48.2953 94.4642 48.0634 88.8632 47.106 82.6576C50.3611 84.782 53.7241 86.8328 58.2394 87.8938C58.5417 89.7361 58.7779 92.0009 58.8645 94.292C58.9706 97.0938 58.8332 99.9063 58.4295 101.905C57.7383 100.636 56.2406 99.7505 54.501 99.7505C52.1068 99.7505 50.1649 101.418 50.1645 103.472C50.1645 105.527 52.1068 107.193 54.501 107.194C56.4733 107.194 58.135 106.064 58.6609 104.517C58.697 104.481 58.7305 104.446 58.7557 104.399C59.898 102.284 60.1047 98.2963 59.952 94.2661C59.7997 90.2359 59.2455 86.2608 58.5382 84.2898C58.4773 84.1184 58.3281 83.9902 58.1441 83.9501C53.2739 82.8607 49.7978 80.5796 46.1816 78.2045C46.0746 78.1329 45.9445 78.1005 45.8145 78.1133ZM46.6166 79.7326C49.8156 81.8161 53.1407 83.8105 57.5595 84.8643C57.7222 85.3545 57.8849 86.0051 58.0354 86.7576C53.5744 85.6211 50.2806 83.4837 46.875 81.2474C46.7893 80.7426 46.7114 80.2457 46.6166 79.7326Z" fill="black" stroke="black" stroke-width="0.54176"/>
<g clip-path="url(#clip2_0_1)">
<path d="M19.2219 51.9996C19.1518 51.9822 19.078 51.9975 19.0165 52.0435C18.9548 52.0895 18.9112 52.1618 18.899 52.241C18.2587 55.9498 17.3908 59.0996 16.2306 61.9125C16.0522 61.304 15.5973 60.7775 14.9583 60.5381C13.9024 60.1427 12.7447 60.6728 12.3737 61.7213C12.0028 62.7696 12.5584 63.9411 13.6143 64.3364C14.5519 64.6875 15.57 64.3118 16.0461 63.4886C16.0963 63.4603 16.1391 63.4194 16.1664 63.36C17.3636 60.7532 18.2727 57.8567 18.971 54.5319C20.023 56.1534 21.1359 57.7553 22.9357 59.0423C22.7364 60.0324 22.4316 61.2271 22.0561 62.4106C21.597 63.8578 21.0285 65.2704 20.4896 66.2237C20.4139 65.462 19.9132 64.7628 19.146 64.4756C18.0901 64.0802 16.9326 64.6104 16.5615 65.6586C16.1905 66.7071 16.7461 67.8784 17.802 68.274C18.6719 68.5996 19.6087 68.2974 20.1201 67.5946C20.1424 67.5825 20.1635 67.5701 20.1831 67.5504C21.0688 66.6598 21.88 64.6588 22.5404 62.5769C23.201 60.4951 23.6743 58.3751 23.7183 57.2525C23.7224 57.155 23.6797 57.0649 23.6058 57.014C21.6546 55.6539 20.5334 53.9159 19.3674 52.1068C19.3331 52.0526 19.2816 52.0145 19.2219 51.9996ZM19.2833 52.9584C20.318 54.5498 21.4244 56.1166 23.1829 57.384C23.1661 57.661 23.1204 58.0199 23.0509 58.4288C21.2887 57.1122 20.2219 55.4776 19.1237 53.774C19.1771 53.5023 19.2325 53.2359 19.2833 52.9584Z" fill="black" stroke="black" stroke-width="0.54176"/>
</g>
<g clip-path="url(#clip3_0_1)">
<path fill-rule="evenodd" clip-rule="evenodd" d="M40.0654 65.8125C38.0105 68.658 37.1493 70.9439 36.7351 72.3204C36.408 73.4074 35.3438 78.9343 28.0851 77.6039C34.278 77.276 36.6052 74.6888 35.8304 69.1567L25.7072 75.1686C21.6168 77.7858 18.753 73.287 19.2274 71.4962C19.7142 69.6455 25.0649 70.1494 25.7402 74.3199L40.0654 65.8125Z" fill="black"/>
</g>
<path d="M32.5 98.25C34.9853 98.25 37 96.4032 37 94.125C37 91.8468 34.9853 90 32.5 90C30.0147 90 28 91.8468 28 94.125C28 96.4032 30.0147 98.25 32.5 98.25Z" fill="#E91E63"/>
<path d="M35 81.75V94.125H37V85.4167L42.5 86.7917V83.5833L35 81.75Z" fill="#E91E63"/>
<g clip-path="url(#clip4_0_1)">
<path d="M9.1255 49.1812C10.0679 50.5655 11.8773 50.9347 13.1671 50.0058C14.4568 49.0768 14.7385 47.2015 13.7961 45.8172C12.8537 44.4328 11.0443 44.0636 9.75451 44.9926C8.46476 45.9215 8.18314 47.7968 9.1255 49.1812Z" fill="#E91E63"/>
<path d="M19.4147 43.8457L12.4087 48.8917L13.1671 50.0058L18.0972 46.4549L19.4042 50.0792L21.2206 48.7709L19.4147 43.8457Z" fill="#E91E63"/>
</g>
<g clip-path="url(#clip5_0_1)">
<path fill-rule="evenodd" clip-rule="evenodd" d="M8.1083 40.7212C7.32909 41.7862 6.99951 42.6395 6.84025 43.153C6.71449 43.5585 6.29986 45.6187 3.57837 45.1445C5.90426 45.0045 6.78502 44.0349 6.50923 41.9782L2.69228 44.245C1.14946 45.2309 0.0865832 43.5648 0.269593 42.8968C0.457374 42.2066 2.46483 42.3787 2.70697 43.929L8.1083 40.7212Z" fill="black"/>
</g>
<g clip-path="url(#clip6_0_1)">
<path d="M63.8703 125.391C65.1025 123.196 64.6116 120.531 62.7737 119.44C60.9359 118.348 58.4471 119.243 57.2149 121.439C55.9827 123.634 56.4736 126.298 58.3115 127.39C60.1493 128.481 62.6381 127.586 63.8703 125.391Z" fill="#E91E63"/>
<path d="M51.799 115.278L61.7821 121.206L62.7737 119.44L55.7486 115.268L59.5847 111.068L56.9965 109.531L51.799 115.278Z" fill="#E91E63"/>
</g>
<defs>
<clipPath id="clip0_0_1">
<rect width="12.3633" height="21.1669" fill="white" transform="matrix(0.757015 0.653397 -0.632106 0.774882 77.4334 81.6)"/>
</clipPath>
<clipPath id="clip1_0_1">
<rect width="15.6872" height="27.9089" fill="white" transform="matrix(0.936517 -0.350623 0.333574 0.942724 58.0268 121.78)"/>
</clipPath>
<clipPath id="clip2_0_1">
<rect width="13.6571" height="21.1112" fill="white" transform="matrix(0.936517 0.350623 -0.333574 0.942724 15.6361 48.28)"/>
</clipPath>
<clipPath id="clip3_0_1">
<rect width="12.3922" height="21.615" fill="white" transform="matrix(0.489454 0.872029 -0.859806 0.510621 37.0948 60.52)"/>
</clipPath>
<clipPath id="clip4_0_1">
<rect width="16.172" height="15.3493" fill="white" transform="matrix(0.562716 0.82665 -0.811437 0.584441 16.4214 36.04)"/>
</clipPath>
<clipPath id="clip5_0_1">
<rect width="4.59213" height="8.14998" fill="white" transform="matrix(0.489454 0.872029 -0.859806 0.510621 7.0074 38.7599)"/>
</clipPath>
<clipPath id="clip6_0_1">
<rect width="24.3115" height="20.6415" fill="white" transform="matrix(0.489454 -0.872029 0.859806 0.510621 43.6309 124.56)"/>
</clipPath>
</defs>
</svg>
