<svg width="295" height="224" viewBox="0 0 295 224" fill="none" xmlns="http://www.w3.org/2000/svg">
<path d="M50.0824 199.926C41.793 186.803 36.5556 173.145 32.9241 157.156C29.0448 140.077 28.3223 122.014 30.8691 104.591C32.9363 90.4507 38.0035 78.7183 48.451 70.7327C58.522 63.0345 68.9857 57.9331 77.6926 47.9165C85.8251 38.5618 93.1851 27.9441 103.585 21.8872C116.973 14.0898 132.936 12.2155 147.258 17.4445C153.327 19.6598 159.053 23.0404 165.133 25.2128C176.539 29.288 188.099 28.7809 199.869 28.6824C212.631 28.5763 226.146 29.9694 238.6 33.5823C249.284 36.6818 259.699 42.6112 264.826 54.6542C276.817 82.8156 258.263 110.246 242.365 129.117C234.094 138.936 228.421 151.785 228.503 165.802C228.548 173.567 230.246 181.299 229.605 189.026C228.552 201.704 207.428 198.903 199.808 198.517C185.733 197.805 171.514 207.337 158.061 202.435C135.392 203.465 112.265 203.848 89.6196 202.279C84.4332 201.92 79.2502 201.493 74.0672 201.065C66.9212 200.476 57.2289 200.516 50.0824 199.926Z" fill="#C7E0F9"/>
<path d="M140.795 210.422C205.891 210.422 258.662 205.412 258.662 199.232C258.662 193.052 205.891 188.043 140.795 188.043C75.6997 188.043 22.9291 193.052 22.9291 199.232C22.9291 205.412 75.6997 210.422 140.795 210.422Z" fill="#C6D7E9"/>
<path d="M116.744 175.775C116.744 175.775 113.296 182.42 115.418 190.576L113.827 191.784L53.0928 191.179C53.0928 191.179 47.7883 183.024 51.2363 175.775C51.2363 175.775 51.767 172.453 56.8058 172.453L116.213 175.172L116.744 175.775Z" fill="#FEEEDF"/>
<path d="M132.784 160.117C132.784 160.117 132.23 167.568 133.902 167.745L126.027 178.493L115.418 190.575C115.418 190.575 110.644 187.554 112.501 182.722C114.357 177.889 118.601 173.057 118.601 173.057C118.601 173.057 131.851 159.258 132.784 160.117Z" fill="#FCEACC"/>
<path d="M113.296 170.339C113.296 170.339 111.175 167.318 112.5 162.183L130.483 145.855C130.483 145.855 128.678 150.101 130.8 152.82L113.296 170.339Z" fill="#FFDEB4"/>
<path d="M110.114 160.975H112.766L113.562 170.942L75.3708 167.62L60.5188 166.11C60.5188 166.11 56.2751 162.486 59.9881 154.632L110.114 160.975Z" fill="#FEEEDF"/>
<path d="M63.4361 132.582L54.9493 136.811L113.031 140.134L119.131 134.395L63.4361 132.582Z" fill="#F08066"/>
<path d="M60.5188 121.407L105.87 125.938L137.961 119.293L135.043 118.991L65.0275 120.199L63.9667 120.803L60.5188 121.407Z" fill="#803429"/>
<path d="M60.5188 123.521C60.5188 123.521 63.4361 128.656 59.458 130.166C59.458 130.166 98.7096 136.811 106.401 136.207C114.092 135.603 106.401 126.844 106.401 126.844L60.5188 123.521Z" fill="#FFEDDF"/>
<path d="M135.33 105.738C135.33 105.738 131.331 112.345 135.574 117.178L133.718 118.387L84.6533 122.313C84.6533 122.313 79.0838 108.117 85.9792 106.305L134.778 104.795L135.33 105.738Z" fill="#FDEBDD"/>
<path d="M58.3972 102.68L109.053 100.264L136.37 104.191L86.7749 105.701L58.3972 102.68Z" fill="#EC7F62"/>
<path d="M116.213 170.339L116.744 175.775L53.8885 173.358C53.8885 173.358 47.2582 180.305 53.3578 190.575H115.418V192.387H53.0928C53.0928 192.387 49.6448 189.367 49.3798 180.91C49.3798 180.91 49.6958 173.954 53.2508 171.844C56.8058 169.734 114.622 173.057 114.622 173.057L116.213 170.339Z" fill="#D96047"/>
<path d="M115.418 192.387L134.248 169.13V167.318L115.418 190.576V192.387Z" fill="#C15139"/>
<path d="M116.744 175.775L133.453 159.464V157.048L116.437 172.632L116.744 175.775Z" fill="#C15139"/>
<path d="M112.235 160.371L112.5 162.183L60.5188 155.236C60.5188 155.236 56.8058 160.069 61.3145 165.808L113.296 170.339L113.561 171.547L61.8446 169.734L61.6539 167.485C61.6539 167.485 60.2537 167.922 59.193 165.808C58.1322 163.694 56.2757 156.444 59.9887 154.33L100.036 155.538L112.235 160.371Z" fill="#B55440"/>
<path d="M61.447 167.469L52.9602 171.999L116.611 174.416L133.319 157.199L128.678 156.444L113.561 171.547L61.447 167.469Z" fill="#ED8166"/>
<path d="M113.296 170.339L130.8 152.82V154.632L113.561 171.547L113.296 170.339Z" fill="#A44437"/>
<path d="M112.5 162.183L112.235 160.371L132.126 142.852V144.362L112.5 162.183Z" fill="#A44437"/>
<path d="M63.1711 152.216L59.9882 154.33L112.235 160.371L132.126 142.852H120.987L63.1711 152.216Z" fill="#803429"/>
<path d="M113.031 141.946C113.031 141.946 112.5 149.799 117.805 154.028L85.1834 153.121L56.5407 151.007C56.5407 151.007 49.9104 144.966 55.4799 137.717C55.4799 137.717 110.909 139.832 113.031 141.946Z" fill="#FFEFE0"/>
<path d="M125.761 132.885C125.761 132.885 126.711 139.419 130.081 139.172L117.804 155.058C117.804 155.058 106.4 147.081 112.5 140.738L122.048 132.582C122.048 132.582 125.231 130.468 125.761 132.885Z" fill="#FBE0B5"/>
<path d="M117.805 154.028L130.535 138.624V140.436L117.805 155.538V154.028Z" fill="#BC533B"/>
<path d="M117.805 154.028V155.538L57.0709 151.913C57.0709 151.913 53.0928 150.403 52.8272 144.664C52.5621 138.925 54.9488 136.811 54.9488 136.811L113.03 140.134V141.946L56.0095 138.322C56.0095 138.322 51.7659 146.477 57.601 150.706L117.805 154.028Z" fill="#D76147"/>
<path d="M113.031 140.134V141.946L121.783 133.791L122.844 130.166L119.131 134.395L113.031 140.134Z" fill="#C05346"/>
<path d="M105.87 128.052C105.87 128.052 110.379 129.864 105.87 135.603L137.165 129.562C137.165 129.562 143.53 124.729 136.634 120.803L105.87 128.052Z" fill="#FFE2BC"/>
<path d="M105.87 128.052L136.635 121.709C136.635 121.709 141.674 124.428 137.166 128.958L105.871 135.603V137.415L137.961 130.166C137.961 130.166 141.674 128.958 140.614 123.219C140.614 123.219 140.095 118.851 137.57 119.374L105.871 125.938V128.052H105.87Z" fill="#9B4535"/>
<path d="M105.87 135.603V137.416L59.458 131.979V130.166L105.87 135.603Z" fill="#AE5847"/>
<path d="M105.87 125.938V128.052L60.5188 123.521V121.407L105.87 125.938Z" fill="#B05548"/>
<path d="M85.9792 107.513C85.9792 107.513 82.7969 111.742 85.4486 121.407L56.5402 118.991C56.5402 118.991 50.7057 109.93 58.1317 103.587L85.9792 107.513Z" fill="#FFE0B9"/>
<path d="M56.01 119.897L85.4485 123.219V121.406L56.8058 118.084C56.8058 118.084 52.8277 109.929 58.1316 104.492L85.9792 107.512L86.7749 105.7L58.3972 102.679C58.3972 102.679 53.6234 105.096 53.6234 110.835C53.6234 116.574 56.01 119.897 56.01 119.897Z" fill="#B65340"/>
<path d="M85.4485 121.407V123.22L135.574 119.293V117.178L85.4485 121.407Z" fill="#D7624A"/>
<path d="M85.9791 107.513L136.37 105.701V104.191L86.7748 105.701L85.9791 107.513Z" fill="#DD634A"/>
<path d="M60.5188 92.229L105.87 96.7602L137.961 90.1147L135.043 89.8128L65.0275 91.0209L63.9667 91.6253L60.5188 92.229Z" fill="#803429"/>
<path d="M60.5188 94.3433C60.5188 94.3433 63.4361 99.4782 59.458 100.988C59.458 100.988 98.7096 107.633 106.401 107.029C114.092 106.425 106.401 97.6658 106.401 97.6658L60.5188 94.3433Z" fill="#FFEDDF"/>
<path d="M135.33 76.5604C135.33 76.5604 131.331 83.168 135.574 88.001L133.718 89.2091L84.6533 93.1359C84.6533 93.1359 79.0838 78.94 85.9792 77.1275L134.778 75.6175L135.33 76.5604Z" fill="#FDEBDD"/>
<path d="M58.3972 73.5026L109.053 71.0864L136.37 75.0125L86.7749 76.5231L58.3972 73.5026Z" fill="#EC7F62"/>
<path d="M105.87 98.8745C105.87 98.8745 110.379 100.687 105.87 106.426L137.165 100.384C137.165 100.384 143.53 95.5514 136.634 91.6253L105.87 98.8745Z" fill="#FFE2BC"/>
<path d="M105.87 98.8745L136.635 92.5315C136.635 92.5315 141.674 95.2502 137.166 99.7807L105.871 106.426V108.238L137.961 100.989C137.961 100.989 141.674 99.7807 140.614 94.0421C140.614 94.0421 140.095 89.6739 137.57 90.1968L105.871 96.7608V98.8745H105.87Z" fill="#9B4535"/>
<path d="M105.87 106.426V108.237L59.458 102.801V100.989L105.87 106.426Z" fill="#AE5847"/>
<path d="M105.87 96.7602V98.8745L60.5188 94.3433V92.229L105.87 96.7602Z" fill="#B05548"/>
<path d="M85.9792 78.335C85.9792 78.335 82.7969 82.5636 85.4486 92.229L56.5402 89.8128C56.5402 89.8128 50.7057 80.7518 58.1317 74.4088L85.9792 78.335Z" fill="#FFE0B9"/>
<path d="M56.01 90.719L85.4485 94.0415V92.229L56.8058 88.9066C56.8058 88.9066 52.8277 80.7511 58.1316 75.3144L85.9792 78.335L86.7749 76.5225L58.3972 73.5019C58.3972 73.5019 53.6234 75.9181 53.6234 81.6574C53.6234 87.3966 56.01 90.719 56.01 90.719Z" fill="#B65340"/>
<path d="M85.4485 92.229V94.0415L135.574 90.1147V88.0004L85.4485 92.229Z" fill="#D7624A"/>
<path d="M85.9791 78.335L136.37 76.5231V75.0125L86.7748 76.5231L85.9791 78.335Z" fill="#DD634A"/>
<path d="M102.033 187.431C102.033 187.431 93.6741 198.339 84.5773 192.78C75.48 187.221 77.4824 184.965 72.1873 157.086C66.8923 129.208 94.5275 187.175 94.5275 187.175L102.033 187.431Z" fill="#D5DEDB"/>
<path d="M86.6967 87.7168C86.6967 87.7168 84.9638 79.2387 74.2357 80.7903C63.5081 82.3419 61.4298 92.3073 61.4298 92.3073C61.4298 92.3073 65.2593 110.828 74.3577 107.77C83.4561 104.712 88.389 96.3642 86.6967 87.7168Z" fill="#CFD6D4"/>
<path d="M78.6369 86.3363C78.6369 86.3363 76.5026 84.9451 72.539 86.5207C68.5759 88.0964 69.4088 90.9868 69.4088 90.9868C69.4088 90.9868 71.2919 100.646 76.4427 97.4447C81.5936 94.2436 82.6228 89.3032 78.6369 86.3363Z" fill="#AAACAB"/>
<path d="M64.162 159.913L61.095 173.843L64.3466 169.596L65.1557 175.836L71.4105 152.479L64.162 159.913Z" fill="#D42E2D"/>
<path d="M68.8492 139.615L52.734 152.64L61.2546 155.298L57.983 166.251L71.4111 152.479C71.4105 152.479 72.7214 141.73 68.8492 139.615Z" fill="#E4362E"/>
<path d="M82.1059 95.4283C82.1059 95.4283 82.4353 88.4285 78.7112 86.3597C78.7112 86.3597 81.7194 89.7471 79.2319 91.1485C76.7443 92.5498 76.9938 92.1741 77.5045 93.6941C78.0153 95.2142 77.9875 96.1571 77.9875 96.1571C77.9875 96.1571 80.6215 98.6206 82.1059 95.4283Z" fill="#E7F3EF"/>
<path d="M86.4938 103.778C86.4938 103.778 88.1058 91.014 86.3313 86.4689C86.3313 86.4689 88.1352 95.1959 79.3218 96.075C70.5084 96.954 69.3622 90.791 69.3622 90.791C69.3622 90.791 69.5696 92.5789 70.3742 96.1867C71.1793 99.794 71.6678 104.155 71.6678 104.155C71.6678 104.155 80.0182 115.569 86.4938 103.778Z" fill="#F2F9F7"/>
<path d="M98.3137 180.375C98.3137 180.375 100.269 185.158 102.033 187.431C102.033 187.431 96.3108 195.988 86.7488 190.374C77.1868 184.761 76.1493 177.815 71.2824 152.349C66.416 126.882 98.3137 180.375 98.3137 180.375Z" fill="#E9F2F4"/>
<path d="M71.3762 152.477C71.3612 152.424 71.3451 152.371 71.3301 152.317C71.3301 152.317 70.2566 147.054 68.8132 139.623C68.8132 139.622 68.8132 139.622 68.8132 139.622C65.6985 123.582 60.8615 97.4454 61.3828 92.3383C61.3828 92.3383 63.1311 102.953 74.5358 104.878C85.9404 106.803 92.4825 100.135 92.4825 100.135C92.4825 100.135 89.436 116.535 90.6449 138.61C90.8512 142.377 91.1805 146.309 91.6713 150.352C92.8357 159.956 94.9035 170.191 98.3609 180.344C98.3609 180.344 82.3804 190.646 71.3762 152.477Z" fill="white"/>
<path d="M71.3762 152.477C71.3612 152.424 71.3451 152.371 71.3302 152.317C71.3302 152.317 70.2566 147.054 68.8132 139.623C68.8548 139.719 71.0207 144.821 78.8344 146.449C86.7223 148.093 90.6449 138.61 90.6449 138.61C90.8512 142.376 91.1806 146.308 91.6713 150.352C91.6341 150.439 88.9963 156.715 83.856 158.044C78.7212 159.373 75.3986 157.992 71.3762 152.477Z" fill="#F04F4E"/>
<path d="M171.147 65.7103V67.6187C171.147 68.6222 172.035 68.7763 172.495 68.7883C172.534 68.7889 172.571 68.7889 172.604 68.7883C172.702 68.7864 172.764 68.7788 172.764 68.7788C172.764 68.782 172.764 68.7851 172.764 68.7883C172.738 69.4609 172.719 70.1593 172.706 70.8811C172.59 77.4628 173.048 86.0622 174.931 96.3049C179.353 120.364 189.486 125.484 190.237 125.833C190.267 125.846 190.282 125.852 190.282 125.852C190.307 126.435 190.372 126.968 190.47 127.453C191.172 130.963 193.521 132.016 193.836 132.143C193.859 132.152 193.871 132.156 193.871 132.156C193.989 132.604 194.106 133.089 194.216 133.608C194.908 136.855 195.361 141.45 194.308 146.628C192.601 155.02 185.439 158.52 183.072 159.463C182.592 159.654 182.309 159.74 182.309 159.74V163.125H215.47V159.74C215.47 159.74 215.187 159.654 214.707 159.463C212.34 158.521 205.178 155.02 203.471 146.628C202.868 143.664 202.759 140.893 202.905 138.456C203.014 136.633 203.266 134.997 203.562 133.608H203.563C203.59 133.478 203.618 133.351 203.646 133.226C203.67 133.122 203.694 133.02 203.718 132.919C203.78 132.654 203.843 132.4 203.908 132.156C203.908 132.156 203.921 132.149 203.949 132.136C204.277 131.967 206.49 130.716 207.251 127.371C207.291 127.198 207.327 127.019 207.358 126.834C207.429 126.414 207.476 125.964 207.497 125.482C207.497 125.482 207.571 125.451 207.712 125.379H207.712C209.202 124.61 218.053 119.148 222.253 96.3036C224.136 86.061 224.594 77.4622 224.478 70.8799C224.466 70.1581 224.446 69.4596 224.421 68.787C224.42 68.7839 224.42 68.7807 224.42 68.7775C224.42 68.7775 224.473 68.7845 224.559 68.787C224.591 68.7877 224.627 68.7877 224.667 68.787C225.119 68.7794 226.037 68.6373 226.037 67.6174V65.709C226.037 65.709 225.928 64.4775 224.955 64.4775L210.381 64.4605L199.173 64.4479V64.4472L198.885 64.4479L198.605 64.4472V64.4479L172.228 64.4782C171.255 64.4788 171.147 65.7103 171.147 65.7103Z" fill="#FFBD1C"/>
<path d="M224.667 68.7876H224.559C224.591 68.7883 224.627 68.7883 224.667 68.7876Z" stroke="black" stroke-width="1.493" stroke-miterlimit="10"/>
<path d="M172.495 68.7876C172.535 68.7883 172.571 68.7883 172.605 68.7876H172.495Z" stroke="black" stroke-width="1.493" stroke-miterlimit="10"/>
<path d="M195.953 129.456C198.894 129.936 202.824 129.746 207.25 127.371H207.25C207.379 126.803 207.467 126.176 207.496 125.482C207.496 125.482 207.571 125.451 207.711 125.379H207.712C209.202 124.61 218.053 119.148 222.253 96.3036C224.136 86.061 224.593 77.4622 224.477 70.8799C224.465 70.1581 224.446 69.4596 224.42 68.787C224.42 68.7839 224.42 68.7807 224.42 68.7775C224.42 68.7775 224.473 68.7845 224.559 68.787C224.591 68.7877 224.627 68.7877 224.666 68.787C225.119 68.7794 226.036 68.6373 226.036 67.6174V65.709C226.036 65.709 225.928 64.4775 224.955 64.4775L210.38 64.4605V68.7877L213.16 70.8799C213.16 70.8799 213.891 124.097 199.5 128.035C199.392 128.065 199.282 128.092 199.172 128.116C197.619 128.456 196.576 128.911 195.953 129.456Z" fill="#DB8200"/>
<path d="M203.646 133.226C203.731 132.848 203.818 132.492 203.907 132.156C203.907 132.156 203.921 132.149 203.948 132.136C204.277 131.967 206.489 130.716 207.251 127.371C207.29 127.198 207.326 127.019 207.357 126.834L206.983 126.652L204.555 128.583C204.555 128.583 203.6 132.377 201.129 132.531C199.581 132.628 201.785 132.978 203.646 133.226Z" fill="#E08405"/>
<path d="M190.237 125.832C190.266 125.845 190.281 125.852 190.281 125.852C190.306 126.435 190.371 126.967 190.469 127.452C190.469 127.452 192.55 128.901 195.953 129.455C198.894 129.935 202.824 129.745 207.25 127.371H207.25C207.379 126.803 207.467 126.175 207.496 125.482C207.496 125.482 207.571 125.451 207.711 125.378C207.575 125.424 207.496 125.451 207.496 125.451C207.496 125.451 204.365 127.803 199.5 128.035C196.855 128.162 193.699 127.662 190.254 125.82L190.237 125.832Z" fill="#DF8000"/>
<path d="M193.836 132.143C193.858 132.152 193.87 132.156 193.87 132.156C193.989 132.604 194.105 133.089 194.216 133.608C194.216 133.608 198.141 134.593 203.562 133.608H203.562C203.673 133.088 203.789 132.603 203.907 132.156C203.907 132.156 203.921 132.149 203.948 132.136C203.918 132.133 203.902 132.131 203.902 132.131C203.902 132.131 198.01 133.362 193.849 132.131L193.836 132.143Z" fill="#E28305"/>
<path d="M205.47 159.462H214.706C212.34 158.521 205.177 155.02 203.47 146.627C202.867 143.664 202.758 140.893 202.905 138.456C203.014 136.633 203.266 134.997 203.562 133.608H203.562C203.59 133.478 203.618 133.351 203.646 133.226C203.669 133.122 203.693 133.02 203.717 132.919C202.059 132.983 200.615 133.26 200.339 133.998C200.339 133.997 197.902 152.137 205.47 159.462Z" fill="#DC8502"/>
<path d="M182.308 159.74V160.017H215.469V159.74C215.469 159.74 215.186 159.654 214.706 159.462H183.072C182.591 159.654 182.308 159.74 182.308 159.74Z" fill="#FFE45C"/>
<path d="M215.469 160.017H205.686V163.095H215.469V160.017Z" fill="#DD8000"/>
<path d="M178.003 116.483C179.285 116.741 180.633 116.933 182.048 117.052C180.884 115.083 179.709 112.698 178.608 109.821C178.608 109.821 176.994 109.535 174.719 108.534C174.719 108.534 174.719 108.534 174.719 108.534C170.357 106.614 163.561 102.068 161.039 91.8728C159.662 86.3047 158.925 81.8948 158.546 78.5288H172.832C172.711 76.0697 172.674 73.7906 172.694 71.704H155.58C155.58 71.704 152.661 71.8051 152.661 75.4369C152.661 78.897 152.042 111.261 178.003 116.483Z" fill="#FFBD1E"/>
<path d="M169.552 71.7034L169.692 78.5282H172.832C172.711 76.0691 172.674 73.7899 172.694 71.7034H169.552Z" fill="#DD8200"/>
<path d="M174.719 108.534C174.746 108.617 176.493 113.967 178.003 116.483C179.286 116.741 180.633 116.933 182.049 117.052C180.885 115.083 179.71 112.698 178.608 109.821C178.608 109.82 176.994 109.534 174.719 108.534Z" fill="#DD8200"/>
<path d="M215.198 117.113C216.246 117.026 217.848 116.864 219.13 116.681C219.58 116.618 219.991 116.55 220.324 116.483C246.285 111.261 245.666 78.897 245.666 75.4363C245.666 71.8044 242.747 71.7034 242.747 71.7034H224.497C224.518 73.7899 224.481 76.0691 224.36 78.5282H239.78C239.402 81.8942 238.664 86.3041 237.287 91.8722C234.765 102.067 227.97 106.614 223.608 108.533C223.608 108.533 223.608 108.533 223.608 108.534C223.225 108.702 222.829 108.852 222.438 108.984C222.438 108.984 222.438 108.984 222.438 108.985C220.501 109.641 218.638 109.882 218.638 109.882C217.536 112.759 216.361 115.144 215.198 117.113Z" fill="#FFBE1A"/>
<path d="M224.36 78.5282H227.58L227.702 71.7034H224.498C224.518 73.7899 224.481 76.0691 224.36 78.5282Z" fill="#DD8102"/>
<path d="M215.198 117.113C216.246 117.026 217.848 116.864 219.13 116.681C221.582 112.044 222.423 109.036 222.438 108.985C220.501 109.641 218.638 109.882 218.638 109.882C217.536 112.759 216.361 115.144 215.198 117.113Z" fill="#DD8102"/>
<path d="M172.763 68.7876C172.737 69.4602 172.718 70.1587 172.706 70.8805H224.477C224.465 70.1587 224.446 69.4602 224.42 68.7876H172.763Z" fill="#DD8200"/>
<path d="M178.714 185.502H219.469V163.095H178.714V185.502Z" fill="#484E5E"/>
<path d="M178.714 187.225H219.469V185.502H178.714V187.225Z" fill="#2F3545"/>
<path d="M176.281 191.781H222.009V187.225H176.281V191.781Z" fill="#484E5E"/>
<path d="M210.983 187.225H219.469V163.156H210.983V187.225Z" fill="#2F3545"/>
<path d="M212.74 191.75H221.874V187.195H212.74V191.75Z" fill="#2F3545"/>
<path d="M212.739 167.68H183.119V181.408H212.739V167.68Z" fill="#F2DCAD"/>
<path d="M183.119 168.479V181.408H212.739V176.829C212.739 176.829 203.956 181.378 192.713 177.808C186.393 175.799 184.001 171.691 183.119 168.479Z" fill="#E3C89B"/>
<path d="M194.044 92.0162H197.499L187.328 64.3872H183.874L194.044 92.0162Z" fill="#21468D"/>
<path d="M197.486 92.0162H200.94L190.77 64.3872H187.316L197.486 92.0162Z" fill="white"/>
<path d="M200.928 92.0162H204.383L194.213 64.3872H190.757L200.928 92.0162Z" fill="#AA1E29"/>
<path d="M205.351 94.9843L205.352 94.9547V91.319C205.352 91.319 205.222 90.2157 204.355 90.2157C203.487 90.2157 201.402 90.2157 201.402 90.2157V91.2047H204.103C204.103 91.2047 204.47 91.0847 204.47 91.6228C204.47 92.1608 204.47 92.5966 204.47 92.5966H199.232H199.23H193.992C193.992 92.5966 193.992 92.1608 193.992 91.6228C193.992 91.0847 194.359 91.2047 194.359 91.2047H197.059V90.2157C197.059 90.2157 194.974 90.2157 194.107 90.2157C193.24 90.2157 193.11 91.319 193.11 91.319V94.9547C188.979 97.4466 186.165 102.393 186.165 108.088C186.165 116.291 192.004 122.94 199.206 122.94C206.409 122.94 212.248 116.291 212.248 108.088C212.248 102.415 209.455 97.4858 205.351 94.9843Z" fill="#E49214"/>
<path d="M200.456 113.271V105.282V104.676V102.411H200.074L196.81 104.211V104.676H197.958V113.271H197.116V113.881H199.207H201.298V113.271H200.456Z" fill="#D87206"/>
<path d="M204.284 92.0162H200.828L210.999 64.3872H214.453L204.284 92.0162Z" fill="#B21B24"/>
<path d="M200.841 92.0162H197.387L207.557 64.3872H211.012L200.841 92.0162Z" fill="white"/>
<path d="M197.552 92.0162H194.098L204.268 64.3872H207.723L197.552 92.0162Z" fill="#27488B"/>
<path d="M199.207 119.514C197.858 119.514 196.549 119.213 195.317 118.619C194.127 118.046 193.058 117.225 192.14 116.18C191.222 115.135 190.501 113.917 189.998 112.562C189.477 111.158 189.213 109.668 189.213 108.131C189.213 106.595 189.477 105.104 189.998 103.701C190.502 102.345 191.222 101.128 192.14 100.083C193.058 99.0374 194.127 98.2165 195.317 97.6437C196.549 97.05 197.858 96.7488 199.207 96.7488C200.556 96.7488 201.865 97.05 203.097 97.6437C204.287 98.2171 205.357 99.0374 206.274 100.083C207.192 101.128 207.913 102.345 208.416 103.701C208.937 105.104 209.202 106.595 209.202 108.131C209.202 109.668 208.937 111.158 208.416 112.562C207.912 113.917 207.192 115.135 206.274 116.18C205.357 117.225 204.287 118.046 203.097 118.619C201.865 119.213 200.556 119.514 199.207 119.514ZM199.207 97.6203C194.118 97.6203 189.977 102.336 189.977 108.132C189.977 113.928 194.118 118.644 199.207 118.644C204.296 118.644 208.437 113.928 208.437 108.132C208.437 102.336 204.296 97.6203 199.207 97.6203Z" fill="white"/>
<path d="M232.534 69.1325L228.274 80.3306C228.274 80.3306 212.669 73.7015 210.257 64.4201L213.449 55.976C213.449 55.976 231.948 63.7949 232.534 69.1325Z" fill="#333333"/>
<path d="M249.02 72.5408L245.414 81.9744C245.414 81.9744 242.271 85.8601 228.257 80.2965L232.534 69.1318C232.534 69.1325 243.336 63.4166 249.02 72.5408Z" fill="#4E4E4E"/>
<path d="M226.96 67.7627L265.504 76.1107L265.977 74.8894L227.433 66.5413L226.96 67.7627Z" fill="#686666"/>
<path d="M226.94 67.7532L199.976 44.2083L200.45 42.9869L227.414 66.5319L226.94 67.7532Z" fill="#333333"/>
<path d="M266.006 74.8768L237.676 51.5491L200.459 42.9648L227.426 66.5622L266.006 74.8768Z" fill="#4E4E4E"/>
<path d="M238.201 60.8899L259.274 73.4262L256.283 81.0789L257.726 81.8045L260.844 73.764L238.992 60.1725C238.992 60.1731 232.314 56.6012 238.201 60.8899Z" fill="#FBC43A"/>
<path d="M238.818 60.5073C239.144 59.6672 237.2 57.8752 234.475 56.5046C231.75 55.1341 229.277 54.7041 228.952 55.5441C228.626 56.3841 230.571 58.1762 233.295 59.5467C236.02 60.9173 238.493 61.3473 238.818 60.5073Z" fill="#333333"/>
<path d="M249.977 91.6809C250.624 90.733 254.792 84.0717 254.792 84.0717C254.792 84.0717 255.148 83.5122 256.044 84.0635C257.005 84.4462 256.882 85.1225 256.882 85.1225C256.882 85.1225 255.366 93.1176 255.186 94.301C255.006 95.4845 254.404 95.2351 254.404 95.2351L252.158 94.1053L252.142 94.0971L249.897 92.9673C249.897 92.9679 249.329 92.6288 249.977 91.6809Z" fill="#FFC643"/>
<path d="M256.153 82.2674C255.933 81.9586 255.857 81.5753 255.985 81.2475C256.184 80.7322 256.809 80.5478 257.38 80.8345C257.95 81.1212 258.251 81.7717 258.051 82.287C257.921 82.6223 257.61 82.8181 257.252 82.8339C257.472 83.1427 257.548 83.5261 257.42 83.8538C257.221 84.3691 256.596 84.5535 256.025 84.2668C255.454 83.9801 255.153 83.3296 255.354 82.8143C255.484 82.479 255.794 82.2838 256.153 82.2674Z" fill="#E7B43F"/>
<path d="M184.372 195.775H98.5111C95.9759 195.775 93.9209 193.435 93.9209 190.548V47.6147C93.9209 44.7274 95.9759 42.387 98.5111 42.387H184.372C186.907 42.387 188.962 44.7274 188.962 47.6147V190.547C188.962 193.434 186.907 195.775 184.372 195.775Z" fill="#C58174"/>
<path d="M184.423 50.4546V188.046C184.423 190.441 182.719 192.382 180.617 192.382H101.488C99.3857 192.382 97.6816 190.441 97.6816 188.046V50.4546C97.6816 48.0605 99.3857 46.1192 101.488 46.1192H180.616C182.719 46.1192 184.423 48.0605 184.423 50.4546Z" fill="#F3F4F6"/>
<path d="M174.038 88.2372H108.553V91.8053H174.038V88.2372Z" fill="#D0D0D0"/>
<path d="M160.801 80.208H121.791V83.7761H160.801V80.208Z" fill="#D0D0D0"/>
<path d="M174.038 96.2657H108.553V99.8338H174.038V96.2657Z" fill="#D0D0D0"/>
<path d="M174.038 104.116H108.553V107.684H174.038V104.116Z" fill="#D0D0D0"/>
<path d="M174.038 111.967H108.553V115.535H174.038V111.967Z" fill="#D0D0D0"/>
<path d="M174.038 119.817H108.553V123.385H174.038V119.817Z" fill="#D0D0D0"/>
<path d="M174.038 127.668H108.553V131.236H174.038V127.668Z" fill="#D0D0D0"/>
<path d="M174.038 135.518H108.553V139.087H174.038V135.518Z" fill="#D0D0D0"/>
<path d="M147.484 143.369H108.553V146.937H147.484V143.369Z" fill="#D0D0D0"/>
<path d="M147.484 151.219H108.553V154.787H147.484V151.219Z" fill="#D0D0D0"/>
<path d="M121.752 66.3803V71.1085H108.475L112 66.3803L108.475 61.385H121.713L121.752 66.3803Z" fill="#B21F27"/>
<path d="M160.879 66.3803V71.1085H174.156L170.631 66.3803L174.156 61.385H160.918L160.879 66.3803Z" fill="#B21F27"/>
<path d="M167.537 56.4781H116.465V66.3803H167.537V56.4781Z" fill="#E41F28"/>
<path d="M161.645 166.736L160.132 173.295L162.612 176.287L163.869 170.966C163.868 170.966 165.344 161.494 161.645 166.736Z" fill="#0D2F3E"/>
<path d="M160.132 173.295L156.727 174.42L158.703 165.851C158.703 165.851 162.318 162.571 161.645 166.736L160.132 173.295Z" fill="#2C5871"/>
<path d="M166.237 167.466L167.604 173.259L171.051 174.408L168.802 164.953C168.802 164.953 165.291 162.847 166.237 167.466Z" fill="#0D2F3E"/>
<path d="M167.593 173.247L165.071 176.287L162.885 166.617C162.885 166.617 165.428 163.936 166.249 167.479L167.593 173.247Z" fill="#2C5871"/>
<path d="M172.507 158.137C171.916 158.214 171.798 159.132 172.344 159.399C172.969 159.704 172.703 160.772 172.03 160.659C171.443 160.559 171.12 161.411 171.587 161.83C172.12 162.309 171.621 163.262 170.997 162.954C170.452 162.685 169.947 163.413 170.303 163.954C170.709 164.574 170.01 165.348 169.478 164.866C169.013 164.445 168.359 165 168.579 165.628C168.831 166.346 167.98 166.887 167.575 166.266C167.222 165.722 166.464 166.064 166.535 166.737C166.615 167.505 165.67 167.776 165.42 167.057C165.202 166.428 164.393 166.535 164.308 167.205C164.211 167.97 163.236 167.954 163.158 167.186C163.091 166.513 162.284 166.379 162.05 167.001C161.782 167.712 160.844 167.409 160.944 166.643C161.032 165.974 160.283 165.607 159.915 166.138C159.495 166.746 158.658 166.177 158.928 165.467C159.165 164.846 158.526 164.27 158.05 164.676C157.506 165.139 156.827 164.342 157.249 163.737C157.619 163.207 157.132 162.462 156.581 162.713C155.95 163 155.475 162.03 156.021 161.57C156.498 161.167 156.197 160.304 155.607 160.384C154.933 160.476 154.694 159.399 155.326 159.115C155.879 158.867 155.784 157.945 155.196 157.848C154.524 157.738 154.538 156.628 155.213 156.539C155.803 156.462 155.921 155.544 155.375 155.277C154.751 154.972 155.017 153.904 155.689 154.018C156.277 154.117 156.599 153.265 156.133 152.846C155.599 152.367 156.099 151.414 156.722 151.722C157.267 151.992 157.773 151.263 157.417 150.722C157.01 150.102 157.71 149.328 158.241 149.81C158.707 150.231 159.36 149.676 159.14 149.048C158.888 148.33 159.74 147.789 160.144 148.41C160.498 148.954 161.255 148.612 161.185 147.939C161.104 147.171 162.05 146.9 162.299 147.619C162.517 148.249 163.327 148.141 163.412 147.471C163.509 146.706 164.484 146.722 164.561 147.49C164.629 148.163 165.435 148.297 165.67 147.675C165.937 146.964 166.875 147.267 166.775 148.033C166.688 148.702 167.436 149.07 167.804 148.538C168.224 147.93 169.061 148.499 168.791 149.209C168.554 149.83 169.194 150.406 169.669 150C170.213 149.538 170.893 150.334 170.47 150.94C170.1 151.469 170.587 152.214 171.139 151.963C171.769 151.676 172.244 152.646 171.699 153.106C171.221 153.509 171.522 154.372 172.113 154.292C172.787 154.2 173.025 155.277 172.394 155.561C171.841 155.809 171.936 156.731 172.523 156.828C173.195 156.939 173.181 158.049 172.507 158.137Z" fill="#FFC10E"/>
<path d="M163.86 165.429C162.901 165.429 161.971 165.215 161.094 164.793C160.248 164.386 159.489 163.802 158.836 163.06C158.184 162.317 157.672 161.452 157.314 160.488C156.944 159.49 156.756 158.431 156.756 157.339C156.756 156.247 156.944 155.187 157.314 154.189C157.672 153.226 158.184 152.36 158.836 151.618C159.489 150.875 160.248 150.292 161.094 149.884C161.971 149.462 162.901 149.248 163.86 149.248C164.819 149.248 165.749 149.462 166.625 149.884C167.471 150.292 168.231 150.875 168.883 151.618C169.535 152.36 170.048 153.226 170.405 154.189C170.776 155.187 170.964 156.247 170.964 157.339C170.964 158.431 170.776 159.49 170.405 160.488C170.048 161.452 169.535 162.317 168.883 163.06C168.231 163.802 167.471 164.386 166.625 164.793C165.749 165.215 164.819 165.429 163.86 165.429ZM163.86 150.205C160.406 150.205 157.597 153.405 157.597 157.338C157.597 161.271 160.406 164.471 163.86 164.471C167.313 164.471 170.123 161.271 170.123 157.338C170.123 153.405 167.313 150.205 163.86 150.205Z" fill="#F99B1C"/>
<path d="M112.732 179.868C112.732 179.868 93.7695 175.567 81.2825 181.536C81.2825 181.536 101.59 150.818 103.268 148.181C104.946 145.544 112.732 179.868 112.732 179.868Z" fill="#333333"/>
<path d="M85.9327 194.056C85.9327 194.056 83.9985 198.003 82.3062 198.461C80.6138 198.92 79.7271 199.379 79.8885 200.573C80.0499 201.765 82.4675 202.041 84.4017 201.949C86.3358 201.858 87.8674 200.389 87.8674 200.389H88.2705V201.123H90.2856C90.2856 201.123 90.4469 197.176 90.0438 195.708C89.6407 194.24 90.2856 192.128 90.2856 192.128L85.9327 194.056Z" fill="#4B4744"/>
<path d="M107.652 194.102C107.652 194.102 109.586 198.049 111.279 198.507C112.971 198.967 113.858 199.425 113.696 200.619C113.535 201.812 111.117 202.087 109.183 201.995C107.249 201.904 105.718 200.435 105.718 200.435H105.314V201.169H103.299C103.299 201.169 103.138 197.222 103.541 195.754C103.944 194.286 103.299 192.175 103.299 192.175L107.652 194.102Z" fill="#4B4744"/>
<path d="M108.285 136.325C108.721 144.538 108.839 152.327 108.699 160.362C108.503 171.632 108.308 182.902 108.113 194.173C106.216 193.849 104.612 194.027 102.695 194.216C102.781 194.202 102.867 194.188 102.954 194.175C101.552 187.974 101.082 181.274 100.866 174.856C100.815 173.341 100.811 171.855 100.993 170.349C101.547 165.787 99.8625 165.144 99.7815 157.79C99.781 157.726 99.7205 157.673 99.6701 157.701C97.5008 162.781 96.9679 168.653 95.9953 174.175C94.8176 180.863 92.8928 187.359 90.9737 193.834C89.365 194.407 87.4426 194.659 85.8611 194.045C86.3385 175.792 89.3107 156.799 92.6062 138.879C92.8402 137.606 92.8363 137.566 93.612 136.603C94.4571 135.554 96.1445 135.158 97.3633 134.872C98.988 134.49 100.63 134.212 102.28 134.039C103.683 133.893 105.173 133.843 106.398 134.609C106.991 134.979 107.61 136.239 108.285 136.325Z" fill="#545356"/>
<path d="M108.426 139.348H99.1406L97.2719 111.207L102.849 113.794L102.956 110.687L105.693 111.237L107.835 116.244L109.444 136.414L108.426 139.348Z" fill="white"/>
<path d="M96.0797 103.148C96.0874 103.169 96.0946 103.19 96.103 103.211C96.2876 103.694 96.5787 104.112 96.841 104.547C97.1759 105.103 97.4648 105.693 97.7293 106.295C97.8203 106.503 97.909 106.712 97.9955 106.921C98.0354 107.017 98.0748 107.113 98.1142 107.209C98.1319 107.252 98.1491 107.296 98.1652 107.341V107.341C98.3021 107.71 98.3931 108.096 98.5023 108.475C98.5833 108.761 98.7563 109.119 98.9066 108.655C99.0901 108.088 99.1528 107.48 99.1117 106.876C99.0557 106.056 98.8106 105.245 98.418 104.555C98.3781 104.484 98.3354 104.414 98.2927 104.343C98.2883 104.336 98.285 104.33 98.28 104.323C98.27 104.306 98.2583 104.289 98.2456 104.272C98.077 104.033 97.8291 103.875 97.6778 103.622C97.4909 103.309 97.4876 102.868 97.67 102.551C97.7016 102.497 97.7382 102.446 97.7837 102.408C97.7842 102.407 97.7842 102.407 97.7853 102.407C97.8036 102.391 97.8236 102.378 97.8452 102.367C97.8596 102.36 97.8735 102.356 97.8885 102.352C97.9561 102.333 98.0277 102.341 98.097 102.356C98.0975 102.356 98.0986 102.356 98.0997 102.357C98.3509 102.416 98.5716 102.598 98.7191 102.837C98.7574 102.899 98.7907 102.964 98.8195 103.032C98.8195 103.034 98.8195 103.034 98.8206 103.034C98.8988 103.229 98.9332 103.445 98.9066 103.658C99.0225 103.862 99.3047 103.853 99.4783 103.709C99.6502 103.566 99.7428 103.333 99.8415 103.118C99.8692 103.058 99.898 103 99.9274 102.94C100.139 102.628 100.34 102.323 100.546 102.023C100.81 101.739 101.117 101.513 101.466 101.394C101.88 101.251 102.322 101.266 102.754 101.287C103.639 101.33 104.542 101.397 105.393 101.125C105.447 101.108 105.502 101.087 105.556 101.066C106.345 100.762 107.065 100.1 107.265 99.1871C107.521 98.008 107.399 97.3513 106.633 96.5044C106.508 96.3655 106.332 96.2221 106.172 96.3055C106.084 96.3522 106.034 96.4564 105.98 96.548C105.514 97.3513 105.255 96.7355 103.151 96.7962C102.304 96.8208 101.56 96.1268 100.732 95.9272C99.6962 95.6771 98.5994 95.8748 97.6306 96.3617C97.2818 96.5366 96.9436 96.7526 96.6697 97.0545C96.0664 97.7169 95.8584 98.7968 96.1373 99.6929C95.9588 100.239 95.8684 100.828 95.8512 101.411C95.8329 101.999 95.885 102.602 96.0797 103.148Z" fill="#9A734E"/>
<path d="M97.6134 112.345C97.7271 112.578 97.8713 112.782 98.036 112.962V112.963C98.4458 113.412 98.9881 113.718 99.5376 113.947C99.5692 113.774 99.6119 113.616 99.6602 113.473C99.7084 113.517 99.7577 113.562 99.8082 113.608C99.8387 113.636 99.8703 113.663 99.9014 113.692C100.017 113.793 100.14 113.896 100.27 114.001C100.306 114.028 100.342 114.057 100.378 114.085C100.38 114.088 100.382 114.09 100.385 114.091C100.42 114.119 100.456 114.145 100.492 114.172C100.583 114.239 100.676 114.306 100.773 114.373C101.081 114.46 101.391 114.533 101.705 114.594C101.895 114.63 102.102 114.66 102.276 114.563C102.597 114.387 102.891 113.902 102.902 113.498C102.907 113.278 103 113.242 103.102 113.009C103.105 113.003 103.113 112.964 103.123 112.92V112.919C103.129 112.894 103.134 112.867 103.139 112.842C103.14 112.839 103.141 112.835 103.142 112.83C103.144 112.826 103.145 112.821 103.146 112.817C103.152 112.788 103.156 112.765 103.159 112.76C103.159 112.76 103.159 112.76 103.159 112.758C103.216 112.625 103.259 112.493 103.263 112.367C103.275 111.872 103.131 111.391 103.04 110.908L103.017 110.92C103.017 110.916 103.015 110.912 103.014 110.909C103.006 110.889 102.989 110.837 102.969 110.76C102.969 110.758 102.969 110.757 102.969 110.755C102.963 110.731 102.957 110.704 102.951 110.674C102.951 110.674 102.951 110.673 102.951 110.672C102.928 110.556 102.908 110.404 102.908 110.228C102.908 110.023 102.935 109.785 103.017 109.536C103.018 109.532 103.018 109.53 103.019 109.528C103.02 109.522 103.022 109.516 103.025 109.509C103.038 109.473 103.057 109.438 103.079 109.408C103.084 109.4 103.088 109.395 103.093 109.39C103.113 109.366 103.136 109.345 103.162 109.329C103.184 109.315 103.206 109.303 103.23 109.295C103.423 109.231 103.385 109.291 103.647 109.275C104.064 109.249 104.493 109.293 104.769 108.932C105.043 108.571 105.172 108.008 105.271 107.544C105.724 105.413 105.948 103.457 105.558 101.065C105.544 100.984 105.531 100.902 105.516 100.82C105.402 100.179 105.433 99.6014 104.87 99.29C104.157 98.896 102.804 98.7526 102.015 98.7577C100.964 98.7652 100.252 99.2067 99.5293 100.074C99.4023 100.227 99.1966 100.479 99.1323 100.676C98.9288 101.291 99.0912 102.316 99.0413 103.046C99.0363 103.119 98.9659 103.167 98.911 103.131C98.8794 103.11 98.85 103.075 98.8223 103.033C98.8217 103.032 98.8217 103.032 98.8217 103.031C98.7862 102.975 98.7535 102.907 98.7219 102.835C98.6471 102.666 98.5744 102.477 98.4746 102.393C98.3193 102.261 98.0914 102.263 97.8907 102.35C97.8547 102.366 97.8208 102.383 97.787 102.405C97.7865 102.405 97.7865 102.405 97.7853 102.406C97.6672 102.48 97.5674 102.587 97.5114 102.712C97.3523 103.07 97.2957 103.765 97.39 104.151C97.5009 104.609 97.4931 104.784 97.7427 105.067C97.955 105.309 98.0826 105.295 98.1308 105.451C98.1375 105.472 98.1419 105.497 98.1452 105.526C98.2107 106.045 98.2251 106.661 98.1663 107.338V107.339C98.1269 107.808 98.0521 108.307 97.9362 108.821C97.894 109.008 97.8458 109.199 97.7931 109.389C97.7593 109.505 97.7288 109.613 97.6988 109.716V109.716C97.6966 109.725 97.6939 109.734 97.6916 109.743C97.6273 109.965 97.5702 110.157 97.5209 110.323C97.482 110.452 97.4477 110.565 97.4172 110.667C97.1416 111.582 97.2053 111.513 97.6134 112.345Z" fill="#F2BB97"/>
<path d="M97.9344 108.823C98.6298 109.883 100.81 110.917 102.907 110.229C102.907 110.023 102.935 109.785 103.017 109.536C103.017 109.533 103.017 109.531 103.018 109.528C103.02 109.523 103.022 109.516 103.025 109.509C103.038 109.473 103.056 109.438 103.078 109.408C103.083 109.401 103.088 109.395 103.093 109.391C103.112 109.367 103.136 109.346 103.162 109.33L102.628 109.313C102.628 109.313 100.843 108.978 99.1117 106.876C98.7767 106.472 98.4446 106.001 98.1291 105.454C98.1357 105.475 98.1407 105.5 98.1441 105.529C98.2089 106.049 98.2234 106.664 98.1651 107.341V107.342C98.1258 107.811 98.0503 108.309 97.9344 108.823Z" fill="#F2A37B"/>
<path d="M98.9099 112.688C98.9099 112.688 99.1938 113.034 99.6602 113.473C99.9629 113.758 100.343 114.08 100.771 114.372C100.998 114.526 101.239 114.672 101.489 114.799L101.569 133.248L104.712 137.47C104.712 137.47 106.083 135.176 105.518 129.669C104.954 124.162 103.1 114.891 103.1 114.891C103.1 114.891 103.386 113.832 103.15 112.865C103.147 112.853 103.144 112.842 103.141 112.83C103.139 112.824 103.114 112.958 103.1 112.918C103.1 112.918 102.44 113.588 101.408 112.689C101.161 112.474 100.935 112.297 100.73 112.153C99.8005 111.495 99.3125 111.495 99.3125 111.495L98.9099 112.688Z" fill="#DD634A"/>
<path d="M96.9757 111.954L98.0536 113.033L99.6357 114.616C99.6445 114.407 99.6662 114.215 99.6983 114.039C99.7272 113.883 99.7643 113.74 99.8076 113.609C99.8114 113.595 99.8164 113.58 99.8214 113.565C100.135 112.644 100.744 112.313 100.892 112.244C100.913 112.234 100.925 112.229 100.925 112.229L97.8512 109.838L97.6976 109.719V109.72C97.6954 109.728 97.6927 109.737 97.6904 109.746C97.6261 109.968 97.569 110.16 97.5197 110.326C97.4808 110.455 97.4465 110.568 97.416 110.67V110.668C97.416 110.668 97.391 110.558 96.8886 110.686C96.826 111.299 96.9757 111.954 96.9757 111.954Z" fill="#F2F2F2"/>
<path d="M102.94 110.669C102.94 110.669 103.424 112.045 103.101 112.964C103.101 112.964 103.746 111.587 104.31 111.771C104.31 111.77 103.988 110.944 102.94 110.669Z" fill="#F2F2F2"/>
<path d="M98.0537 113.033C98.0487 113.009 98.0426 112.986 98.0365 112.964V112.962L97.4155 110.67V110.669C97.4155 110.669 97.3911 110.558 96.8881 110.686C96.7805 110.714 96.6497 110.754 96.4933 110.806C96.394 110.841 96.2843 110.88 96.1628 110.926C94.9551 111.384 91.8154 112.485 91.8154 112.485C91.8154 112.485 89.5608 112.76 87.3882 115.877C85.2145 118.995 80.7862 124.587 79.1765 128.162C77.5667 131.738 80.3842 133.021 80.3842 133.021C80.3842 133.021 83.6846 137.147 90.0443 139.073C90.0443 139.073 91.3929 137.603 91.8382 136.374C91.9147 137.405 91.9385 138.406 91.8748 139.304C91.8326 139.9 91.7805 140.483 91.7212 141.044C91.4162 143.932 90.936 146.256 90.7868 146.938C90.7857 146.939 90.7868 146.941 90.7868 146.941C90.758 147.073 90.7419 147.142 90.7419 147.142C90.7419 147.142 90.748 147.145 90.7613 147.149C91.0264 147.239 93.9747 148.21 97.177 148.178C97.7471 148.174 98.3265 148.137 98.8993 148.056C98.8993 148.056 99.0335 144.34 99.1123 139.275C99.252 130.456 99.2287 117.543 98.0537 113.033ZM86.7428 130.363C86.7428 130.363 85.8578 129.996 87.0649 128.987C88.2727 127.979 89.4804 126.419 89.4804 126.419C89.4804 126.419 90.2051 125.412 90.3654 126.97C90.483 128.111 91.399 131.908 91.7633 135.532C91.0352 134.714 88.5749 131.984 86.7428 130.363Z" fill="#4B4744"/>
<path d="M91.9757 135.772L92.5391 136.322C92.5391 136.322 91.5731 138.981 90.5268 139.348L89.9634 138.798L91.9757 135.772Z" fill="white"/>
<path d="M121.512 101.106C121.512 101.106 121.512 99.823 121.995 98.2644C122.478 96.7059 122.155 94.5056 120.546 94.5056C118.935 94.5056 118.131 94.5056 118.131 94.5056C118.131 94.5056 117.97 92.397 117.084 92.1217C117.084 92.1217 116.521 91.9385 116.762 92.9471C117.004 93.9556 117.245 95.7889 117.245 95.7889C117.245 95.7889 117.245 96.7974 117.004 97.4391C116.762 98.0807 116.601 98.5392 117.245 99.3646C117.889 100.19 118.856 100.373 118.936 101.473C119.016 102.573 121.512 101.106 121.512 101.106Z" fill="#F2BB97"/>
<path d="M118.775 102.665V101.565C118.775 101.565 121.673 100.556 122.88 101.106L123.122 101.932L118.775 102.665Z" fill="white"/>
<path d="M125.367 117.376C125.366 119.528 125.066 121.196 124.249 121.734C121.19 123.752 110.483 123.752 110.483 123.752C110.483 123.752 110.438 124.651 110.391 126.119C110.369 126.776 110.348 127.545 110.329 128.4C110.328 128.408 110.328 128.418 110.328 128.426C110.29 131.642 110.282 137.582 110.649 142.276C110.649 142.28 110.651 142.285 110.651 142.288C110.689 142.785 110.733 143.269 110.78 143.734C110.781 143.743 110.783 143.752 110.783 143.76C110.803 143.96 110.825 144.156 110.847 144.346C110.847 144.351 110.848 144.355 110.848 144.357C110.857 144.427 110.86 144.509 110.856 144.597C110.827 145.413 110.293 146.927 109.417 147.632C109.105 147.884 108.75 148.032 108.358 148.01C108.358 148.01 108.384 147.566 108.41 146.739V146.737C108.542 142.589 108.694 128.839 105.741 113.4L105.567 112.558C105.506 112.258 105.379 111.973 105.351 111.669C105.291 111.051 105.258 111.029 106.064 111.29C106.168 111.324 106.285 111.363 106.41 111.407C106.685 111.501 106.999 111.612 107.321 111.728C107.321 111.728 107.322 111.728 107.325 111.73C107.391 111.764 108.292 112.205 109.741 112.722C111.872 113.482 115.189 114.398 118.774 114.398V102.664C118.774 102.664 120.627 101.747 123.121 101.929C123.122 101.931 125.368 111.478 125.367 117.376Z" fill="#4B4744"/>
<path d="M98.9337 148.002C98.0309 158.023 94.8647 174.106 93.693 181.535C93.693 181.535 92.9993 181.811 91.7539 182.056C89.6295 182.476 85.901 182.809 81.2836 181.535C81.2836 181.535 88.0636 169.91 90.7613 147.15C90.7624 147.142 90.7635 147.132 90.7646 147.124C90.7718 147.062 90.779 147.001 90.7873 146.941C90.7873 146.941 90.7862 146.939 90.7873 146.938C91.0696 144.584 91.384 142.639 91.7217 141.044C93.7102 131.643 96.4766 134.38 98.0076 136.999C98.5993 138.01 99.0063 139.003 99.1128 139.275C99.1322 139.321 99.1416 139.347 99.1416 139.347C99.1416 139.347 99.3972 142.867 98.9337 148.002Z" fill="#4B4744"/>
<path d="M112.731 179.868C110.912 181.003 108.923 181.278 107.529 181.301C106.441 181.32 105.717 181.184 105.717 181.184L108.41 146.741V146.738L108.724 142.734C108.724 142.734 108.724 134.708 109.164 133.263C109.443 132.344 109.901 134.091 110.65 142.276C110.65 142.28 110.651 142.285 110.651 142.288C110.695 142.773 110.739 143.255 110.781 143.734C110.782 143.743 110.783 143.752 110.783 143.76C110.809 144.04 110.833 144.32 110.857 144.597C112.588 164.546 112.731 179.868 112.731 179.868Z" fill="#4B4744"/>
<path d="M92.4687 136.458C92.9189 136.526 93.2084 136.595 93.6587 136.663C93.8688 136.694 94.2442 136.911 94.4355 137.016C94.6767 137.148 94.8608 137.381 95.0377 137.609C95.3948 138.067 95.4298 138.159 95.7869 138.617C96.0131 138.908 96.2438 139.206 96.3663 139.568C96.4889 139.93 96.4839 140.19 96.2643 140.487C96.2094 140.562 96.1379 140.627 96.0536 140.64C95.9344 140.658 95.824 140.571 95.7292 140.486C95.1337 139.956 94.893 139.745 94.369 139.125C94.369 139.125 92.8413 142.029 91.7245 141.009C90.6077 139.989 90.7109 139.26 90.7109 139.26L92.4687 136.458Z" fill="#F2BB97"/>
<path d="M104.926 95.1435L108.017 91.4327L97.009 89.468L90.7269 99.6462L95.3532 99.7637L104.926 95.1435Z" fill="#343436"/>
<path d="M104.634 94.5985L105.469 96.9989C105.469 96.9989 100.516 96.0945 95.89 101.24L95.0072 98.8619C95.0072 98.8619 95.7464 96.7962 99.3884 95.1567C103.03 93.5173 104.634 94.5985 104.634 94.5985Z" fill="#545356"/>
<path d="M98.9337 148.002C98.031 158.023 94.8647 174.106 93.693 181.535C93.693 181.535 92.9993 181.811 91.7539 182.056C92.3045 179.434 95.57 163.549 97.177 148.179C97.4903 145.184 97.741 142.207 97.8957 139.352C97.9389 138.552 97.9766 137.767 98.0071 136.999C98.6664 120.845 96.7573 111.949 96.4933 110.806C96.6497 110.754 96.7811 110.714 96.8881 110.686C97.3905 110.558 97.4155 110.669 97.4155 110.669V110.67L98.0365 112.962V112.964C98.0426 112.986 98.0487 113.009 98.0537 113.033C99.2287 117.543 99.252 130.456 99.1117 139.275C99.1311 139.322 99.1405 139.347 99.1405 139.347C99.1405 139.347 99.3973 142.867 98.9337 148.002Z" fill="#FBC43A"/>
<path d="M109.417 147.633C109.099 162.375 107.551 181.036 107.529 181.301C106.441 181.32 105.716 181.184 105.716 181.184L108.41 146.741V146.738C108.542 142.59 108.694 128.84 105.741 113.401L105.567 112.56C105.506 112.259 105.379 111.975 105.351 111.67C105.291 111.053 105.258 111.031 106.064 111.291C106.168 111.326 106.285 111.365 106.41 111.408C106.41 111.408 108.387 121.271 109.163 133.263C109.318 135.656 109.425 138.133 109.459 140.634C109.489 142.786 109.47 145.155 109.417 147.633Z" fill="#FBC43A"/>
</svg>
