<svg xmlns="http://www.w3.org/2000/svg" enable-background="new 0 0 2500 2500" viewBox="0 0 2500 2500"><path fill="#161c1c" d="M1861.24,285.05h-229.9v1565.26h229.9c108.6,0,196.68-88.08,196.68-196.68V481.73
					C2057.92,373.12,1969.84,285.05,1861.24,285.05z"/><path d="M1861.24,1852.22h-231.82V283.13h231.82c109.5,0,198.59,89.09,198.59,198.59v1171.9
					C2059.83,1763.13,1970.74,1852.22,1861.24,1852.22z M1633.24,1848.4h227.99c107.39,0,194.77-87.37,194.77-194.77V481.73
					c0-107.39-87.37-194.77-194.77-194.77h-227.99V1848.4z"/><path fill="#e5e8ff" d="M1105.52,485.83v1171.9c0,104.5,88.08,192.57,196.68,192.57h529.27c108.65,0,196.68-88.08,196.68-196.68
					V481.73c0-108.61-88.03-196.68-196.68-196.68H1302.2C1193.6,285.05,1105.52,373.12,1105.52,485.83z"/><path d="M1831.48,1852.22H1302.2c-52.82,0-102.69-20.47-140.41-57.65c-37.52-36.98-58.18-85.58-58.18-136.84V485.83
					c0-54.82,20.66-105.96,58.16-144c37.31-37.85,87.19-58.7,140.43-58.7h529.28c109.5,0,198.59,89.09,198.59,198.59v1171.9
					C2030.07,1763.13,1940.98,1852.22,1831.48,1852.22z M1302.2,286.96c-109.22,0-194.77,87.36-194.77,198.88v1171.9
					c0,105.13,87.37,190.66,194.77,190.66h529.28c107.39,0,194.77-87.37,194.77-194.77V481.73c0-107.39-87.37-194.77-194.77-194.77
					H1302.2z"/><path fill="#fff" d="M1302.2,1813.1c-86.44,0-159.48-71.15-153.58-197.03V545.53c-5.9-50.06,64.15-121.92,153.58-121.92h529.27
				c87.94,0,159.48,71.54,159.48,159.47v1070.55c0,87.94-71.54,159.47-159.48,159.47H1302.2z"/><path fill="#161c1c" d="M1503.44,358.79c0,11.7,9.49,21.18,21.18,21.18h152.16c5.85,0,11.15-2.38,14.99-6.19
				c3.84-3.84,6.22-9.15,6.22-15c0-11.7-9.49-21.18-21.22-21.18h-152.16c-5.85,0-11.15,2.38-15,6.19
				C1505.82,347.64,1503.44,352.94,1503.44,358.79z"/><path fill="#161c1c" d="M1420.48,358.79c0,11.7,9.49,21.18,21.18,21.18h18.18c5.85,0,11.15-2.38,15-6.19
				c3.84-3.84,6.22-9.15,6.22-15c0-11.7-9.49-21.18-21.22-21.18h-18.18c-5.85,0-11.15,2.38-15,6.19
				C1422.86,347.64,1420.48,352.94,1420.48,358.79z"/><path fill="#ffd24f" d="M1761.45,786.87c0,50.45-19.22,96.42-50.69,131.02c-35.64,39.08-86.89,63.59-143.91,63.59
					c-57.02,0-108.28-24.51-143.91-63.59c-31.47-34.6-50.69-80.57-50.69-131.02c0-107.48,87.13-194.61,194.61-194.61
					C1674.32,592.26,1761.45,679.39,1761.45,786.87z"/><path fill="#242b2b" d="M1566.84,983.39c-55.14,0-108.11-23.41-145.33-64.21c-33.01-36.29-51.19-83.28-51.19-132.31
					c0-108.36,88.16-196.52,196.52-196.52s196.52,88.16,196.52,196.52c0,49.04-18.18,96.02-51.19,132.31
					C1674.95,959.98,1621.98,983.39,1566.84,983.39z M1566.84,594.17c-106.25,0-192.69,86.44-192.69,192.69
					c0,48.08,17.82,94.15,50.2,129.73c36.49,40.02,88.43,62.97,142.5,62.97c54.07,0,106.01-22.95,142.5-62.97
					c32.37-35.58,50.2-81.65,50.2-129.73C1759.54,680.62,1673.09,594.17,1566.84,594.17z"/><circle cx="1566.84" cy="713.35" r="53.82" fill="#fff"/><path fill="#fff" d="M1682.27,883.38c-28.59,31.35-69.7,51-115.43,51c-45.73,0-86.85-19.66-115.43-51
				c9.57-55.05,57.62-97,115.43-97S1672.7,828.33,1682.27,883.38z"/><path fill="#fff" d="M1889.59,1196.43h-639.95c-4.6,0-8.33-3.73-8.33-8.33v-133.88c0-4.6,3.73-8.33,8.33-8.33h639.95
				c4.6,0,8.33,3.73,8.33,8.33v133.88C1897.93,1192.7,1894.2,1196.43,1889.59,1196.43z"/><path d="M1866.05,1198.35h-592.87c-18.63,0-33.79-15.16-33.79-33.79v-86.8c0-18.63,15.16-33.79,33.79-33.79h592.87
				c18.63,0,33.79,15.16,33.79,33.79v86.8C1899.84,1183.19,1884.68,1198.35,1866.05,1198.35z M1273.18,1047.79
				c-16.52,0-29.96,13.44-29.96,29.96v86.8c0,16.52,13.44,29.96,29.96,29.96h592.87c16.52,0,29.96-13.44,29.96-29.96v-86.8
				c0-16.52-13.44-29.96-29.96-29.96H1273.18z"/><path fill="#fff" d="M1889.59,1405.37h-639.95c-4.6,0-8.33-3.73-8.33-8.33v-133.88c0-4.6,3.73-8.33,8.33-8.33h639.95
				c4.6,0,8.33,3.73,8.33,8.33v133.88C1897.93,1401.64,1894.2,1405.37,1889.59,1405.37z"/><path d="M1866.05,1407.28h-592.87c-18.63,0-33.79-15.16-33.79-33.79v-86.8c0-18.63,15.16-33.79,33.79-33.79h592.87
				c18.63,0,33.79,15.16,33.79,33.79v86.8C1899.84,1392.13,1884.68,1407.28,1866.05,1407.28z M1273.18,1256.74
				c-16.52,0-29.96,13.44-29.96,29.96v86.8c0,16.52,13.44,29.96,29.96,29.96h592.87c16.52,0,29.96-13.44,29.96-29.96v-86.8
				c0-16.52-13.44-29.96-29.96-29.96H1273.18z"/><path fill="#c5cde3" d="M1332.83,1362.85l-11.59-8.59c-0.93-0.67-1.47-1.63-1.6-2.9c-0.13-1.27,0.06-2.3,0.6-3.1
					c0-0.13,0.4-0.6,1.2-1.4l13.59-11.99l-18.18-1.8c-0.54-0.13-0.9-0.23-1.1-0.3c-0.2-0.07-0.36-0.1-0.5-0.1
					c-0.93-0.26-1.7-0.96-2.3-2.09s-0.77-2.3-0.5-3.5l4.6-13.79c0.26-1.07,1-1.86,2.19-2.4c1.2-0.53,2.27-0.66,3.2-0.4
					c0.27,0,0.8,0.27,1.6,0.8l15.79,9.19l-4-17.78c-0.13-0.53-0.2-0.9-0.2-1.1c0-0.2,0-0.36,0-0.5c0-1.06,0.43-2.07,1.3-3
					c0.87-0.93,1.9-1.4,3.1-1.4h14.59c1.2,0,2.23,0.46,3.1,1.4c0.86,0.93,1.3,1.93,1.3,3c0,0.13,0,0.3,0,0.5
					c0,0.2-0.07,0.57-0.2,1.1l-4.19,17.98l15.98-9.39c0.93-0.53,1.47-0.8,1.6-0.8c1.06-0.26,2.17-0.13,3.3,0.4
					c1.13,0.54,1.83,1.33,2.1,2.4l4.6,13.79c0.26,1.2,0.13,2.37-0.4,3.5c-0.54,1.13-1.34,1.83-2.4,2.09c-0.13,0-0.3,0.03-0.5,0.1
					c-0.2,0.07-0.57,0.17-1.1,0.3l-18.39,1.8l13.79,11.99c0.8,0.8,1.2,1.27,1.2,1.4c0.67,0.8,0.93,1.83,0.8,3.1
					c-0.13,1.27-0.74,2.23-1.8,2.9l-11.59,8.59c-1.07,0.53-2.2,0.73-3.4,0.6c-1.2-0.13-2.13-0.67-2.8-1.6c0-0.13-0.07-0.3-0.2-0.5
					c-0.13-0.2-0.33-0.5-0.6-0.9l-7.39-16.98l-7.39,16.98c-0.13,0.4-0.3,0.7-0.5,0.9c-0.2,0.2-0.37,0.37-0.5,0.5
					c-0.53,0.93-1.43,1.47-2.7,1.6S1333.89,1363.38,1332.83,1362.85z"/><path fill="#c5cde3" d="M1421.75,1362.85l-11.59-8.59c-0.93-0.67-1.47-1.63-1.6-2.9c-0.13-1.27,0.06-2.3,0.6-3.1
					c0-0.13,0.4-0.6,1.2-1.4l13.59-11.99l-18.18-1.8c-0.54-0.13-0.9-0.23-1.1-0.3c-0.2-0.07-0.36-0.1-0.5-0.1
					c-0.93-0.26-1.7-0.96-2.3-2.09s-0.77-2.3-0.5-3.5l4.6-13.79c0.26-1.07,1-1.86,2.19-2.4c1.2-0.53,2.27-0.66,3.2-0.4
					c0.27,0,0.8,0.27,1.6,0.8l15.79,9.19l-4-17.78c-0.13-0.53-0.2-0.9-0.2-1.1c0-0.2,0-0.36,0-0.5c0-1.06,0.43-2.07,1.3-3
					c0.87-0.93,1.9-1.4,3.1-1.4h14.59c1.2,0,2.23,0.46,3.1,1.4c0.86,0.93,1.3,1.93,1.3,3c0,0.13,0,0.3,0,0.5
					c0,0.2-0.07,0.57-0.2,1.1l-4.19,17.98l15.98-9.39c0.93-0.53,1.47-0.8,1.6-0.8c1.06-0.26,2.17-0.13,3.3,0.4
					c1.13,0.54,1.83,1.33,2.1,2.4l4.6,13.79c0.26,1.2,0.13,2.37-0.4,3.5c-0.54,1.13-1.34,1.83-2.4,2.09c-0.13,0-0.3,0.03-0.5,0.1
					c-0.2,0.07-0.57,0.17-1.1,0.3l-18.39,1.8l13.79,11.99c0.8,0.8,1.2,1.27,1.2,1.4c0.67,0.8,0.93,1.83,0.8,3.1
					c-0.13,1.27-0.74,2.23-1.8,2.9l-11.59,8.59c-1.07,0.53-2.2,0.73-3.4,0.6c-1.2-0.13-2.13-0.67-2.8-1.6c0-0.13-0.07-0.3-0.2-0.5
					s-0.33-0.5-0.6-0.9l-7.39-16.98l-7.39,16.98c-0.13,0.4-0.3,0.7-0.5,0.9c-0.2,0.2-0.37,0.37-0.5,0.5
					c-0.53,0.93-1.43,1.47-2.7,1.6S1422.81,1363.38,1421.75,1362.85z"/><path fill="#c5cde3" d="M1510.67,1362.85l-11.59-8.59c-0.93-0.67-1.47-1.63-1.6-2.9c-0.13-1.27,0.06-2.3,0.6-3.1
					c0-0.13,0.4-0.6,1.2-1.4l13.59-11.99l-18.18-1.8c-0.54-0.13-0.9-0.23-1.1-0.3c-0.2-0.07-0.36-0.1-0.5-0.1
					c-0.93-0.26-1.7-0.96-2.3-2.09c-0.6-1.13-0.77-2.3-0.5-3.5l4.6-13.79c0.26-1.07,1-1.86,2.19-2.4c1.2-0.53,2.27-0.66,3.2-0.4
					c0.27,0,0.8,0.27,1.6,0.8l15.79,9.19l-4-17.78c-0.13-0.53-0.2-0.9-0.2-1.1c0-0.2,0-0.36,0-0.5c0-1.06,0.43-2.07,1.3-3
					c0.87-0.93,1.9-1.4,3.1-1.4h14.59c1.2,0,2.23,0.46,3.1,1.4c0.86,0.93,1.3,1.93,1.3,3c0,0.13,0,0.3,0,0.5
					c0,0.2-0.07,0.57-0.2,1.1l-4.19,17.98l15.98-9.39c0.93-0.53,1.47-0.8,1.6-0.8c1.06-0.26,2.17-0.13,3.3,0.4
					c1.13,0.54,1.83,1.33,2.1,2.4l4.6,13.79c0.26,1.2,0.13,2.37-0.4,3.5c-0.54,1.13-1.34,1.83-2.4,2.09c-0.13,0-0.3,0.03-0.5,0.1
					c-0.2,0.07-0.57,0.17-1.1,0.3l-18.39,1.8l13.79,11.99c0.8,0.8,1.2,1.27,1.2,1.4c0.67,0.8,0.93,1.83,0.8,3.1
					c-0.13,1.27-0.74,2.23-1.8,2.9l-11.59,8.59c-1.07,0.53-2.2,0.73-3.4,0.6c-1.2-0.13-2.13-0.67-2.8-1.6c0-0.13-0.07-0.3-0.2-0.5
					s-0.33-0.5-0.6-0.9l-7.39-16.98l-7.39,16.98c-0.13,0.4-0.3,0.7-0.5,0.9c-0.2,0.2-0.37,0.37-0.5,0.5
					c-0.53,0.93-1.43,1.47-2.7,1.6S1511.73,1363.38,1510.67,1362.85z"/><path fill="#c5cde3" d="M1599.59,1362.85l-11.59-8.59c-0.93-0.67-1.47-1.63-1.6-2.9c-0.13-1.27,0.06-2.3,0.6-3.1
					c0-0.13,0.4-0.6,1.2-1.4l13.59-11.99l-18.18-1.8c-0.54-0.13-0.9-0.23-1.1-0.3c-0.2-0.07-0.36-0.1-0.5-0.1
					c-0.93-0.26-1.7-0.96-2.3-2.09s-0.77-2.3-0.5-3.5l4.6-13.79c0.26-1.07,1-1.86,2.19-2.4c1.2-0.53,2.27-0.66,3.2-0.4
					c0.27,0,0.8,0.27,1.6,0.8l15.79,9.19l-4-17.78c-0.13-0.53-0.2-0.9-0.2-1.1c0-0.2,0-0.36,0-0.5c0-1.06,0.43-2.07,1.3-3
					c0.87-0.93,1.9-1.4,3.1-1.4h14.59c1.2,0,2.23,0.46,3.1,1.4c0.86,0.93,1.3,1.93,1.3,3c0,0.13,0,0.3,0,0.5
					c0,0.2-0.07,0.57-0.2,1.1l-4.19,17.98l15.98-9.39c0.93-0.53,1.47-0.8,1.6-0.8c1.06-0.26,2.17-0.13,3.3,0.4
					c1.13,0.54,1.83,1.33,2.1,2.4l4.6,13.79c0.26,1.2,0.13,2.37-0.4,3.5c-0.54,1.13-1.34,1.83-2.4,2.09c-0.13,0-0.3,0.03-0.5,0.1
					c-0.2,0.07-0.57,0.17-1.1,0.3l-18.39,1.8l13.79,11.99c0.8,0.8,1.2,1.27,1.2,1.4c0.67,0.8,0.93,1.83,0.8,3.1
					c-0.13,1.27-0.74,2.23-1.8,2.9l-11.59,8.59c-1.07,0.53-2.2,0.73-3.4,0.6c-1.2-0.13-2.13-0.67-2.8-1.6c0-0.13-0.07-0.3-0.2-0.5
					c-0.13-0.2-0.33-0.5-0.6-0.9l-7.39-16.98l-7.39,16.98c-0.13,0.4-0.3,0.7-0.5,0.9c-0.2,0.2-0.37,0.37-0.5,0.5
					c-0.53,0.93-1.43,1.47-2.7,1.6S1600.65,1363.38,1599.59,1362.85z"/><path fill="#c5cde3" d="M1688.51,1362.85l-11.59-8.59c-0.93-0.67-1.47-1.63-1.6-2.9c-0.13-1.27,0.06-2.3,0.6-3.1
					c0-0.13,0.4-0.6,1.2-1.4l13.59-11.99l-18.18-1.8c-0.54-0.13-0.9-0.23-1.1-0.3c-0.2-0.07-0.36-0.1-0.5-0.1
					c-0.93-0.26-1.7-0.96-2.3-2.09s-0.77-2.3-0.5-3.5l4.6-13.79c0.26-1.07,1-1.86,2.19-2.4c1.2-0.53,2.27-0.66,3.2-0.4
					c0.27,0,0.8,0.27,1.6,0.8l15.79,9.19l-4-17.78c-0.13-0.53-0.2-0.9-0.2-1.1c0-0.2,0-0.36,0-0.5c0-1.06,0.43-2.07,1.3-3
					c0.87-0.93,1.9-1.4,3.1-1.4h14.59c1.2,0,2.23,0.46,3.1,1.4c0.86,0.93,1.3,1.93,1.3,3c0,0.13,0,0.3,0,0.5
					c0,0.2-0.07,0.57-0.2,1.1l-4.19,17.98l15.98-9.39c0.93-0.53,1.47-0.8,1.6-0.8c1.06-0.26,2.17-0.13,3.3,0.4
					c1.13,0.54,1.83,1.33,2.1,2.4l4.6,13.79c0.26,1.2,0.13,2.37-0.4,3.5c-0.54,1.13-1.34,1.83-2.4,2.09c-0.13,0-0.3,0.03-0.5,0.1
					c-0.2,0.07-0.57,0.17-1.1,0.3l-18.39,1.8l13.79,11.99c0.8,0.8,1.2,1.27,1.2,1.4c0.67,0.8,0.93,1.83,0.8,3.1
					c-0.13,1.27-0.74,2.23-1.8,2.9l-11.59,8.59c-1.07,0.53-2.2,0.73-3.4,0.6c-1.2-0.13-2.13-0.67-2.8-1.6c0-0.13-0.07-0.3-0.2-0.5
					c-0.13-0.2-0.33-0.5-0.6-0.9l-7.39-16.98l-7.39,16.98c-0.13,0.4-0.3,0.7-0.5,0.9c-0.2,0.2-0.37,0.37-0.5,0.5
					c-0.53,0.93-1.43,1.47-2.7,1.6S1689.57,1363.38,1688.51,1362.85z"/><path fill="#c5cde3" d="M1777.43,1362.85l-11.59-8.59c-0.93-0.67-1.47-1.63-1.6-2.9c-0.13-1.27,0.06-2.3,0.6-3.1
					c0-0.13,0.4-0.6,1.2-1.4l13.59-11.99l-18.18-1.8c-0.54-0.13-0.9-0.23-1.1-0.3c-0.2-0.07-0.36-0.1-0.5-0.1
					c-0.93-0.26-1.7-0.96-2.3-2.09c-0.6-1.13-0.77-2.3-0.5-3.5l4.6-13.79c0.26-1.07,1-1.86,2.19-2.4c1.2-0.53,2.27-0.66,3.2-0.4
					c0.27,0,0.8,0.27,1.6,0.8l15.79,9.19l-4-17.78c-0.13-0.53-0.2-0.9-0.2-1.1c0-0.2,0-0.36,0-0.5c0-1.06,0.43-2.07,1.3-3
					c0.87-0.93,1.9-1.4,3.1-1.4h14.59c1.2,0,2.23,0.46,3.1,1.4c0.86,0.93,1.3,1.93,1.3,3c0,0.13,0,0.3,0,0.5
					c0,0.2-0.07,0.57-0.2,1.1l-4.19,17.98l15.98-9.39c0.93-0.53,1.47-0.8,1.6-0.8c1.06-0.26,2.17-0.13,3.3,0.4
					c1.13,0.54,1.83,1.33,2.1,2.4l4.6,13.79c0.26,1.2,0.13,2.37-0.4,3.5c-0.54,1.13-1.34,1.83-2.4,2.09c-0.13,0-0.3,0.03-0.5,0.1
					c-0.2,0.07-0.57,0.17-1.1,0.3l-18.39,1.8l13.79,11.99c0.8,0.8,1.2,1.27,1.2,1.4c0.67,0.8,0.93,1.83,0.8,3.1
					c-0.13,1.27-0.74,2.23-1.8,2.9l-11.59,8.59c-1.07,0.53-2.2,0.73-3.4,0.6c-1.2-0.13-2.13-0.67-2.8-1.6c0-0.13-0.07-0.3-0.2-0.5
					s-0.33-0.5-0.6-0.9l-7.39-16.98l-7.39,16.98c-0.13,0.4-0.3,0.7-0.5,0.9c-0.2,0.2-0.37,0.37-0.5,0.5
					c-0.53,0.93-1.43,1.47-2.7,1.6S1778.49,1363.38,1777.43,1362.85z"/><circle cx="1355.85" cy="1118.36" r="20.2" fill="#c5cde3"/><circle cx="1435.84" cy="1118.36" r="20.2" fill="#c5cde3"/><circle cx="1515.83" cy="1118.36" r="20.2" fill="#c5cde3"/><circle cx="1595.82" cy="1118.36" r="20.2" fill="#c5cde3"/><circle cx="1675.81" cy="1118.36" r="20.2" fill="#c5cde3"/><circle cx="1755.8" cy="1118.36" r="20.2" fill="#c5cde3"/><path fill="#444ba1" d="M1757.74,1648.71h-376.25c-19.81,0-35.86-16.06-35.86-35.86v-92.88c0-19.81,16.06-35.86,35.86-35.86h376.25
				c19.81,0,35.86,16.06,35.86,35.86v92.88C1793.61,1632.66,1777.55,1648.71,1757.74,1648.71z"/><path d="M1757.74,1650.63h-376.25c-20.83,0-37.78-16.95-37.78-37.78v-92.89c0-20.83,16.95-37.78,37.78-37.78h376.25
				c20.83,0,37.78,16.95,37.78,37.78v92.89C1795.52,1633.68,1778.57,1650.63,1757.74,1650.63z M1381.49,1486.01
				c-18.72,0-33.95,15.23-33.95,33.95v92.89c0,18.72,15.23,33.95,33.95,33.95h376.25c18.72,0,33.95-15.23,33.95-33.95v-92.89
				c0-18.72-15.23-33.95-33.95-33.95H1381.49z"/><path d="M825.94,2135.24l-105.63-57.09l-28.52-25.18l-115.07,17.32l0.09,90.23c-0.96,4.71,2.6,9.03,7.3,9.03h246.34
										c4.14,0,7.5-3.36,7.5-7.5v-8.94C837.96,2145.23,833.25,2138.22,825.94,2135.24z"/><path fill="#ffcfc5" d="M691.8,2052.96l-2.64-87.23l-125.46,2.93l13.03,101.62C623.42,2089.97,665.62,2083.19,691.8,2052.96z"/><path fill="#fff" d="M726.4,2114.08l-3.37-1.81c8.46-15.79,23.91-17.37,24.56-17.43l0.35,3.81
										C747.37,2098.7,733.86,2100.15,726.4,2114.08z"/><path fill="#fff" d="M749.45,2126.93l-3.37-1.81c8.46-15.79,23.91-17.37,24.56-17.43l0.35,3.81
										C770.42,2111.56,756.91,2113,749.45,2126.93z"/><path d="M354.34,2083.64l7.5-119.83l10.89-36.45l-64.01-97.18l-81.86,37.94c-4.68,1.1-7.11,6.15-5.14,10.42l103.37,223.6
										c1.74,3.76,6.19,5.4,9.95,3.66l8.11-3.75C350.31,2098.74,354.7,2091.52,354.34,2083.64z"/><path fill="#ffcfc5" d="M372.72,1927.36l78.07-39l-55.31-112.65l-86.78,54.47C310.44,1880.82,334.3,1916.28,372.72,1927.36z"/><path fill="#fff" d="M354.81,1997.49c-0.29-0.5-7.27-12.15-23.04-13.08l0.22-3.82c17.89,1.05,25.8,14.41,26.13,14.98
										L354.81,1997.49z"/><path fill="#fff" d="M352.82,2023.8c-0.29-0.5-7.27-12.15-23.04-13.08l0.22-3.82c17.88,1.05,25.8,14.41,26.12,14.98
										L352.82,2023.8z"/><path fill="#ff4148" d="M448.18,1944.92c-4.32,2.36-9.19,2.74-13.56,1.46c-4.38-1.28-8.29-4.25-10.65-8.57l-86.58-158.24
												c-4.74-8.67-1.57-19.5,7.07-24.23c4.35-2.38,9.21-2.76,13.59-1.48c4.38,1.28,8.27,4.22,10.65,8.57l86.58,158.24
												C460,1929.31,456.85,1940.18,448.18,1944.92z"/><path fill="#ff4148" d="M718.92,1098.23l-268.7,35.52c2.67,5.31,5.22,10.73,7.23,16.3
													c26.15,72.61,272.04,356.53,272.04,356.53l-361.48,255.84l86.58,158.28c0,0,418.3-224.51,450.74-371.58
													C927.37,1449.22,809.16,1230.08,718.92,1098.23z"/><polygon points="494.27 1899.76 383.62 1790.97 454.58 1920.67"/><polygon fill="#ff4148" points="618.7 1133.75 416.18 1133.75 546.51 1999.07 718.92 1999.07 670.57 1553.4"/><path d="M711.66,1940.3c0,0-137.01,37.26-134.98,37.26s139.58,0,139.58,0L711.66,1940.3z"/><path fill="#ff4148" d="M740.1,1995.42c0,4.93-2,9.37-5.23,12.6c-3.23,3.23-7.71,5.23-12.63,5.23H541.85
																				c-9.88,0-17.86-7.98-17.86-17.83c0-4.96,2-9.41,5.23-12.63c3.23-3.23,7.68-5.23,12.63-5.23h180.38
																				C732.08,1977.55,740.1,1985.54,740.1,1995.42z"/><rect width="3.83" height="204.5" x="509.17" y="1672.44" fill="#fff" transform="rotate(-10.247 511.042 1774.565)"/><rect width="3.82" height="219.27" x="681.57" y="1548.28" fill="#fff" transform="rotate(-7.048 683.287 1657.517)"/><rect width="3.82" height="201.38" x="641.1" y="1229.8" fill="#fff" transform="rotate(-7.048 642.899 1330.288)"/><path fill="#007afd" d="M1060.93,837.97c0,0-124.54,164.54-216.22,165.69c-17.79,0.23-39.4-8.61-62-22.18
																						c-17.48-10.48-35.57-23.83-52.9-37.94c-53.17-43.38-99.14-94.29-99.14-94.29l27.73-114.02
																						c0,0,43.87,11.05,69.35,27.88c25.47,16.79,124.43,119.76,124.43,119.76l138.04-128.43
																						C998.05,703.84,1094.44,832.23,1060.93,837.97z"/><path d="M782.71,981.48c-17.48-10.48-35.57-23.83-52.9-37.94c0-46.7-0.15-114.44-0.15-114.44
																					S758.53,933.85,782.71,981.48z"/><path fill="#007afd" d="M762.16,1142.73c-15.6,24.44-309.96,78.79-366.17,52.33
																						c-14.99-7.05-24.25-42.41,0.85-66.17c2.73-2.62-4.13-66.17-11.68-132.16
																						c-5.59-49.39-11.53-100.09-14.09-127.62c-0.81-8.86-1.28-15.31-1.25-18.56c0.15-31.75,4.02-57.11,14.49-68.82
																						c15.32-17.12,50.34-34.25,71.54-43.15c63.58-26.71,123.89-17.59,123.89-17.59s7.48,0.45,32.67,4
																						c34.79,4.9,81.4,17.69,102.56,42.23c27.28,31.63,17.38,294.98,33.73,326.27
																						C751.53,1098.9,773.47,1124.98,762.16,1142.73z"/><polygon points="742.67 1010.68 540.5 1026.41 475.37 833.46 576.69 975.64 736.56 1009.37"/><path d="M498.01,970.98l-8.28,121.36c-23.84-7.14-62.92-48.5-104.57-95.6
																					c-5.59-49.39-11.53-100.09-14.09-127.62l13.99-14.53L498.01,970.98z"/><path d="M642.74,471.52c0,0,3.08,53.26-30.23,65.46c-33.31,12.2-46.62-19.61-46.62-19.61l10.94-42.45l30.87-3.88"/><path fill="#ffcfc5" d="M476.73,703.5l25.57,39.73l59.17-1.19l33.08,3.34l-15.63-49.63l-0.77-12.71l-1.98-33.63
																l-106.54-51.15c0.91,4.33,1.73,8.64,2.44,12.88C480.75,661.61,476.73,703.5,476.73,703.5z"/><path fill="#fc9b88" d="M469.63,598.25c0.91,4.33,1.73,8.64,2.44,12.88c0.64,0.02,1.25,0.02,1.85-0.01
																c1.42,2.49,2.57,5.41,3.47,8.71c18.83,43.33,66.27,66.92,100.76,63.2l-1.98-33.63L469.63,598.25z"/><path fill="#0068b5" d="M476.72,703.5c13.04,22.54,52.63,31.33,84.74,38.53c0,0-2.4,55.56-11.68,56.54
																		c-8.56,0.9-89.65-17.5-93.92-59.98C467,728.3,468.84,717.09,476.72,703.5z"/><path fill="#0068b5" d="M561.47,742.04c0,0,22.72,39.15,35.26,41.05c14.28,2.17,20.26-37.87,15.69-58.09l-33.5-29.25
																		C583.26,709.54,589.78,721.44,561.47,742.04z"/><path fill="#ffcfc5" d="M572.98,670.77c-34.69,5.94-84.98-17.78-104.53-62.71c-0.88-3.28-2.02-6.22-3.45-8.71
																c-8.28,0.38-17.75-3.61-25.18-11.3c-11.78-12.21-14.02-29.3-4.86-38.02c5.21-5.02,12.81-6.31,20.73-4.09
																c-0.53-49.54,21.97-90.3,56.76-97.11c23.22-4.55,47.01,6.91,65.72,28.67c2.26,2.61,4.46,5.39,6.54,8.3
																c12,16.62,21.25,37.83,25.84,61.68C622.88,610.08,609.44,664.5,572.98,670.77z"/><path d="M400.18,615.2c7.26,12.79,21.03,21.01,35.44,24.15c15.4,3.29,29.47,10.54,43.57,3.5l-1.88-2.36
																c-1.28-12-6.23-23.06-8.88-32.45c-0.84-3.26-1.98-6.22-3.42-8.71c-8.27,0.38-17.76-3.61-25.19-11.27
																c-11.76-12.26-13.98-29.33-4.86-38.06c5.21-5.03,12.83-6.3,20.7-4.07c0,0,18.05,6.83,18.84,22.37l12.15,3l3.1-28.61
																c0,0,18.07-15.78,7.57-30.6c0,0,149.51,26.26,145.64-37.82c-3.88-64.08-68.28-36.94-68.28-36.94
																s4.88-9.79,7.91-21.74c6.12-23.69,5.09-55.88-55.23-36.88c-69.26,21.83-87.37,79.74-92.09,105.92
																c-9.34-1.61-20.58,2.59-26.75,9.56c-8.09,9.22-7.74,24.66,0.8,33.46c-5.34-5.83-15.35-5.42-21.46-0.44
																c-6.07,4.98-8.66,13.32-8.52,21.2c0.22,14.41,8.95,28.37,21.73,34.93C391.03,594.13,392.96,602.41,400.18,615.2z"/><g><polygon fill="#fc9b88" points="584.08 559.59 598.94 597.62 579.78 602.37"/></g><g><path fill="#007afd" d="M405.53,764.15c0,0-47.36,22.55-43.38,86.96c4.31,69.6,90.42,224.39,129.43,241.23
				c73.64,31.78,275.22,28.15,275.22,28.15c25.14,18.89,39.4-133.43,7.47-105.02L561.8,988.84
				C561.8,988.84,446.6,745.31,405.53,764.15z"/></g><g><path fill="#ffcfc5" d="M778.35,1031.27c0,0,57.27-32.24,72.42-23.01c15.15,9.23-21.69,26.01-21.69,26.01"/></g><g><path fill="#242b2b" d="M838.67,1207.91h178.16c12.84,0,23.67-9.54,25.27-22.29l29.72-235.27c1.93-15.23-9.91-28.67-25.27-28.67
						H868.44c-12.84,0-23.67,9.54-25.28,22.29l-29.72,235.27C811.51,1194.47,823.34,1207.91,838.67,1207.91z"/><path fill="#242b2b" d="M1016.83,1209.82H838.66c-7.84,0-15.32-3.37-20.51-9.26c-5.2-5.89-7.61-13.76-6.62-21.56l29.73-235.28
						c1.72-13.66,13.4-23.97,27.17-23.97h178.12c7.87,0,15.36,3.38,20.56,9.27c5.19,5.89,7.6,13.75,6.62,21.55L1044,1185.86
						C1042.28,1199.52,1030.6,1209.82,1016.83,1209.82z M868.43,923.58c-11.85,0-21.9,8.86-23.38,20.62l-29.73,235.28
						c-0.85,6.72,1.23,13.48,5.7,18.55c4.46,5.06,10.88,7.96,17.63,7.96h178.16c11.85,0,21.9-8.86,23.38-20.62l29.72-235.28
						c0.85-6.72-1.23-13.48-5.69-18.54c-4.47-5.07-10.91-7.97-17.69-7.97H868.43z"/><path fill="#fff" d="M847.76,1207.91h178.16c12.84,0,23.67-9.54,25.27-22.29l29.72-235.27c1.93-15.23-9.91-28.67-25.27-28.67
							H877.53c-12.84,0-23.67,9.54-25.28,22.29l-29.72,235.27C820.6,1194.47,832.44,1207.91,847.76,1207.91z"/><path fill="#e5e8ff" d="M847.76,1207.91h178.16c10.27,0,19.31-6.15,23.26-15.14c-1.24,0.18-2.57,0.27-3.85,0.27H867.16
							c-15.32,0-27.16-13.44-25.23-28.67l29.72-235.27c0.32-2.52,1.01-4.95,2.02-7.16c-11.1,1.7-20,10.55-21.42,22.02l-29.72,235.27
							C820.6,1194.47,832.44,1207.91,847.76,1207.91z"/><path fill="#242b2b" d="M1025.92,1209.82H847.76c-7.84,0-15.32-3.37-20.51-9.26c-5.2-5.89-7.61-13.76-6.62-21.56l29.72-235.28
							c1.72-13.66,13.4-23.97,27.17-23.97h178.12c7.87,0,15.36,3.38,20.56,9.27c5.19,5.89,7.6,13.75,6.62,21.55l-29.73,235.28
							C1051.38,1199.52,1039.7,1209.82,1025.92,1209.82z M877.53,923.58c-11.85,0-21.9,8.86-23.38,20.62l-29.72,235.28
							c-0.85,6.72,1.23,13.48,5.7,18.55c4.46,5.06,10.88,7.96,17.63,7.96h178.16c11.85,0,21.9-8.86,23.38-20.62l29.73-235.28
							c0.85-6.72-1.23-13.47-5.69-18.54c-4.47-5.07-10.91-7.97-17.69-7.97H877.53z"/><path fill="#e5e8ff" d="M958.54,1101.83c15.23,0,29.27-12.36,31.4-27.59c2.09-15.23-8.54-27.54-23.77-27.54
					s-29.27,12.32-31.4,27.54C932.68,1089.47,943.31,1101.83,958.54,1101.83z"/><path fill="#c5cde3" d="M958.53,1101.82c7.02,0,13.87-2.63,19.33-7.06c-2.91,0.94-5.91,1.44-8.99,1.44
					c-15.23,0-25.86-12.36-23.77-27.59c1.15-8.13,5.66-15.43,11.99-20.44c-11.37,3.65-20.65,13.96-22.33,26.07
					C932.67,1089.46,943.3,1101.82,958.53,1101.82z"/></g><g><path fill="#ffcfc5" d="M829.08,1034.26c0,0,71.98-11.46,75.2,1.7c2.45,10-10.96,14.65-21.08,15.5
				c12.19,0.63,33.04,8.96,32.75,14.22c-0.77,14.02-29.72,7.39-38.19,6.25c8.2,1.33,31.54,11.59,30.13,16.26
				c-2.61,8.65-27,4.64-37.92,3.63c9.54,1.15,21.96,13.86,19.31,17.17c-9.62,12.04-111.72,3.26-113.13,0.58
				c-14.46-0.41-12.26-78.71,2.2-78.31"/></g><g><path fill="#ffcfc5" d="M1050.59,825.56c0.14-0.1,0.25-0.19,0.38-0.33c0,0,10-8.94,18.35-13.86c8.38-4.93,65.24-50.36,66.79-63.75
						c1.16-9.69-7.95-10.27-7.95-10.27s7.78-8.21,2.85-14.03c-4.85-5.74-13.06-2-13.06-2s7.47-4.51,4.29-12.75
						c-3.28-8.46-15.48-3.33-15.48-3.33s48.01-38.29,38.89-48.28c-9.04-9.88-88.71,63.69-90.59,65.4
						c0.03-1.51,0.74-34.44-10.41-32.17c-14.12,2.89-40.52,73.08-42.97,79.73C987.34,782.55,1036.25,838.17,1050.59,825.56z"/><path fill="#ffb29f" d="M1080.54,749.48c-0.14,0-0.27,0-0.4-0.01c-1.48-0.11-2.69-0.74-3.5-1.84c-1.68-2.27-2.3-4.92-1.85-7.89
							c1.71-11.15,18.67-23.55,19.4-24.07l2.24,3.1c-0.16,0.12-16.39,11.99-17.86,21.56c-0.3,1.95,0.07,3.6,1.14,5.03
							c0.07,0.09,0.19,0.26,0.71,0.3c0.07,0.01,0.16,0.01,0.24,0.01c6.33,0,25.23-16.64,35.8-27.29l2.71,2.7
							C1116.24,724.01,1090.66,749.48,1080.54,749.48z"/><path fill="#ffb29f" d="M1091.64,764.17c-0.21,0-0.43-0.01-0.64-0.02c-2.38-0.18-4.32-1.36-5.6-3.41
							c-4.99-8,5.39-19.32,5.83-19.79l2.8,2.6c-2.47,2.67-8.25,10.58-5.39,15.17c0.65,1.03,1.46,1.53,2.64,1.62
							c8.61,0.68,27.66-19.16,34.28-26.85l2.9,2.5C1125.95,738.91,1103.85,764.17,1091.64,764.17z"/><path fill="#ffb29f" d="M1095.98,778.41c-0.66,0-1.28-0.06-1.86-0.18c-1.79-0.37-3.19-1.31-4.06-2.74
							c-1.45-2.38-1.86-4.89-1.23-7.47c1.47-5.94,8.17-10.02,8.45-10.19l1.97,3.28c-0.06,0.03-5.63,3.44-6.71,7.83
							c-0.38,1.57-0.13,3.06,0.78,4.55c0.2,0.32,0.58,0.78,1.56,0.98c6.29,1.3,21.99-8.62,27.51-12.54l2.22,3.12
							C1122.59,766.51,1105.55,778.41,1095.98,778.41z"/><path fill="#ffb29f" d="M1041.12,759.72l-1.67-3.44c16.81-8.19,13.14-34.61,13.1-34.88l3.79-0.55
					C1056.51,722.05,1060.42,750.32,1041.12,759.72z"/></g><g><path fill="#fff" d="M2266.79,847.13c-11.74,33.96-90.83,229.03-252.29,227.51c-136.38-92.88-87.36-295.23-77.35-330.8
				c111.47,17.68,187-19.14,187-19.14S2165.16,798.04,2266.79,847.13z"/><path d="M2016.37,1076.57c-0.63,0-1.26,0-1.89-0.01c-0.38,0-0.75-0.12-1.06-0.33c-137.23-93.46-89.15-293.71-78.11-332.9
				c0.26-0.93,1.16-1.52,2.14-1.37c109.61,17.39,185.11-18.61,185.86-18.97c0.91-0.44,2.01-0.1,2.51,0.78
				c0.41,0.73,41.94,73.41,141.8,121.64c0.87,0.42,1.29,1.43,0.97,2.35C2265.36,857.13,2187.52,1076.57,2016.37,1076.57z
				 M2015.1,1072.74c0.41,0,0.86,0,1.27,0c162.87,0,240.2-202.78,248.05-224.64c-91.89-44.88-134.48-110.2-141.04-120.95
				c-11.51,5.09-83.77,34.44-184.84,18.84C1926.87,788.32,1882.41,981.84,2015.1,1072.74z"/></g><g><path fill="#161c1c" d="M2023.23,1077.38c161.46,1.52,242.09-198.48,253.83-232.44c-101.63-49.09-144.18-117.51-144.18-117.51
				l-8.72-2.73c0,0,41.01,73.34,142.64,122.43c-11.74,33.96-90.83,229.03-252.29,227.51L2023.23,1077.38z"/><path d="M2025.06,1079.3c-0.62,0-1.23,0-1.85-0.01c-0.19,0-0.37-0.03-0.55-0.09l-8.73-2.73c-0.9-0.28-1.46-1.19-1.32-2.13
				c0.15-0.94,0.89-1.79,1.91-1.61c0.61,0.01,1.24,0.01,1.85,0.01c162.87,0,240.2-202.78,248.05-224.64
				c-99.89-48.79-141.53-121.73-141.94-122.47c-0.38-0.68-0.31-1.53,0.19-2.14c0.5-0.61,1.31-0.84,2.05-0.62l8.73,2.73
				c0.44,0.14,0.81,0.43,1.05,0.81c0.42,0.68,43.49,68.55,143.39,116.8c0.87,0.42,1.29,1.43,0.97,2.35
				C2275.55,855.15,2196.06,1079.3,2025.06,1079.3z M2128.47,728.06c10.56,16.35,53.31,75.88,139.16,117.35
				c0.87,0.42,1.29,1.43,0.97,2.35c-3.05,8.81-72,203.2-222.39,226.53c148.5-16.83,220.88-207.19,228.48-228.37
				c-94.82-46.26-138.51-109.96-143.04-116.87L2128.47,728.06z"/></g><g><path fill="#04b5a4" d="M2023.09,1047.22c-95.83-72.24-77.33-215.62-65.16-273.2c71.44,6.96,126.78-6.35,155.8-16.02
			c18.29,24.49,56.1,66.95,118.65,101.98C2209.62,912.77,2141.79,1042.46,2023.09,1047.22z"/></g><g><circle cx="2067.33" cy="896.11" r="64.91" fill="#fff"/></g><g><path fill="#242b2b" d="M2049.11,919.04c-2.76,0-5.42-1.49-6.79-4.11l-10.73-20.52c-1.96-3.74-0.51-8.37,3.23-10.32
			c3.75-1.95,8.36-0.51,10.32,3.23l7.19,13.74l44.94-23.5c3.75-1.96,8.37-0.51,10.32,3.23s0.51,8.37-3.23,10.32l-51.72,27.04
			C2051.52,918.76,2050.3,919.04,2049.11,919.04z"/></g><g><circle cx="904.93" cy="539.77" r="97.48" fill="#fff"/><path d="M904.93,639.16c-54.8,0-99.39-44.58-99.39-99.39s44.58-99.39,99.39-99.39c54.8,0,99.39,44.58,99.39,99.39
				S959.74,639.16,904.93,639.16z M904.93,444.2c-52.69,0-95.56,42.87-95.56,95.56c0,52.69,42.87,95.56,95.56,95.56
				c52.69,0,95.56-42.87,95.56-95.56C1000.5,487.07,957.63,444.2,904.93,444.2z"/></g><g><path fill="#242b2b" d="M885.4,578.82c-2.42,0-4.83-0.92-6.68-2.77l-20.14-20.13c-3.69-3.69-3.69-9.67,0-13.36
			c3.68-3.69,9.67-3.69,13.36,0l13.46,13.45l52.53-52.53c3.69-3.69,9.67-3.69,13.36,0c3.69,3.69,3.69,9.67,0,13.36l-59.21,59.21
			C890.23,577.9,887.81,578.82,885.4,578.82z"/></g><g><path fill="#00887d" d="M1963.48,1643.55c0,0,47.23,131.63,47.23,208.46c0,76.83-37.89,214.55-37.89,214.55l-32.01-2.94
			c0,0-25.88-153.03-26.52-221.06C1913.82,1792.8,1962.5,1746.2,1963.48,1643.55z"/></g><g><path fill="#00887d" d="M1948.99,2066.55h-20.26c0,0-7.24-60.46-29.91-80.61c-22.67-20.15-45.27-50.73-56.26-105.38
			c-12.6-62.56-8.4-113.78-8.4-113.78s-32.33-24.35-19.31-99.09c0,0,16.13,48.6,44.51,75.57c53.99,51.29,63.96,108.88,72.95,157.45
			h0.04c0.84,4.72,1.71,9.34,2.59,13.86C1945,1965.79,1948.99,2066.55,1948.99,2066.55z"/></g><g><path fill="#04b5a4" d="M1932.3,1900.71c0,0-34.74-70.96-61.61-91.11c-26.87-20.15-36.53-42.83-36.53-42.83s-32.33-24.35-19.31-99.09
			c0,0,16.13,48.6,44.51,75.57C1913.34,1794.55,1923.31,1852.14,1932.3,1900.71z"/></g><g><path fill="#04b5a4" d="M2091.95,1838.99c-5.04,49.54-89.01,170.46-98.25,227.56h-20.89l7.31-152.3c0,0,0.31-14.7,5.77-33.76
					c4.09-14.24,11.06-30.93,22.92-45.69c27.71-34.43,70.54-69.7,73.06-99.93C2081.87,1734.86,2096.99,1789.45,2091.95,1838.99z"/><path fill="#00887d" d="M1993.7,2066.55h-20.89l7.31-152.3c0,0,0.31-14.7,5.77-33.76
					C2003.88,1958.3,1993.7,2066.55,1993.7,2066.55z"/></g><g><path fill="#04b5a4" d="M1981.95,2066.55c0,0,17.42-185.58-33.59-245.41c0,0-22.6,59.17-22.67,114.62
			c-0.1,74.31,19.52,76.83,23.3,130.79H1981.95z"/></g><g><polygon fill="#fff" points="2028.61 2214.95 2051.46 2063.77 1859.26 2063.77 1882.11 2214.95"/></g><g><path fill="#e5e8ff" d="M2028.61,2214.95l22.85-151.19h-18.21l-1.29,0.46c0,0-18.03,79.2-55.59,150.72H2028.61z"/></g><g><path fill="#242b2b" d="M2030.26,2216.87h-149.79l-23.43-155.01h196.66L2030.26,2216.87z M1883.75,2213.04h143.22l22.28-147.36
			h-187.77L1883.75,2213.04z"/></g><g><polygon fill="none" points="2028.61 2214.95 2051.47 2063.77 1859.26 2063.77 1882.11 2214.95"/></g></svg>