<svg xmlns="http://www.w3.org/2000/svg" enable-background="new 0 0 1364 960" viewBox="0 0 1364 960"><path fill="#B4D2FA" d="M287.682,628.251c-4.818-2.751-5.579-9.864-2.793-14.648c2.785-4.785,8.057-7.583,13.316-9.375
	c8.506-2.897,16.862-3.72,25.631-4.195c-7.767-3.022-15.423-6.325-22.949-9.857c-4.977-2.335-9.907-4.784-14.784-7.338
	c-6.259,10.793-15.804,19.664-27.046,25.08c-4.262,2.052-9.462,3.576-13.564,1.221c-4.792-2.752-5.553-9.866-2.786-14.649
	c2.768-4.783,8.01-7.579,13.238-9.368c8.779-3.003,17.4-3.77,26.484-4.234c-14.939-8.041-29.321-17.138-42.804-27.414
	c-7.861,9.452-18.542,16.543-30.327,20.055c-4.533,1.352-9.91,2.032-13.586-0.945c-4.294-3.477-3.917-10.622-0.426-14.905
	c3.49-4.284,9.109-6.214,14.556-7.15c8.824-1.518,17.173-1.004,25.874-0.084c-14.042-11.056-27.595-23.811-36.617-39.3
	c-0.188-0.322-0.361-0.653-0.547-0.977c-9.175,8.387-20.886,13.979-33.188,15.793c-4.68,0.69-10.099,0.596-13.312-2.874
	c-3.754-4.055-2.361-11.073,1.706-14.814c4.066-3.741,9.902-4.849,15.427-4.999c9.733-0.264,18.566,1.769,27.851,4.185
	c-9.935-18.176-16.56-38.262-27.104-56.067c-9.243,8.628-21.141,14.386-33.653,16.231c-4.679,0.691-10.099,0.596-13.312-2.875
	c-3.754-4.055-2.361-11.072,1.706-14.813c4.066-3.741,9.903-4.849,15.427-4.999c9.995-0.271,19.04,1.88,28.601,4.381
	c-2.714-4.403-5.687-8.654-9.043-12.683c-6.796-8.159-15.273-14.782-24.683-19.886c-6.707,11.063-16.911,19.978-28.793,25.099
	c-4.343,1.872-9.605,3.176-13.604,0.65c-4.672-2.951-5.133-10.091-2.167-14.753c2.966-4.662,8.321-7.236,13.619-8.803
	c9.718-2.874,19.132-3.094,29.164-3.136c-15.357-7.921-33.023-11.873-49.908-11.84c-7.263,9.221-17.143,16.375-28.2,20.328
	c-4.455,1.592-9.788,2.559-13.617-0.216c-4.475-3.242-4.481-10.397-1.224-14.861c3.257-4.464,8.764-6.692,14.153-7.919
	c8.595-1.957,16.834-1.923,25.425-1.49c0.282-0.15,0.614-0.248,1.005-0.258c14.37-0.35,28.751,2.266,42.224,7.228
	c2.971,1.095,5.916,2.303,8.816,3.621c-7.841-8.302-13.397-18.759-15.799-29.926c-0.995-4.624-1.255-10.039,1.998-13.472
	c3.801-4.012,10.894-3.08,14.893,0.733c4,3.813,5.486,9.565,5.998,15.068c0.952,10.263-0.729,19.688-2.675,29.727
	c5.957,3.032,11.626,6.614,16.7,10.951c7.685,6.568,13.787,14.337,18.999,22.734c-3.484-11.251-3.759-23.491-0.706-34.871
	c1.225-4.569,3.465-9.505,7.926-11.075c5.212-1.834,11.098,2.232,12.917,7.45c1.818,5.218,0.516,11.014-1.541,16.143
	c-3.942,9.828-9.954,17.601-16.467,25.891c8.193,14.099,14.217,29.699,21.121,44.28c2.173,4.59,4.459,9.084,6.976,13.432
	c-4.396-12.011-5.025-25.377-1.726-37.737c1.22-4.57,3.453-9.509,7.912-11.085c5.21-1.841,11.102,2.218,12.927,7.433
	c1.825,5.216,0.531,11.014-1.52,16.146c-4.018,10.057-10.205,17.967-16.878,26.481c2.734,4.605,5.755,9.031,9.237,13.198
	c6.37,7.622,13.598,14.51,21.19,20.9c2.018,1.7,4.07,3.361,6.143,4.996c-5.006-10.463-7.075-22.328-5.83-33.864
	c0.507-4.703,1.96-9.924,6.126-12.163c4.868-2.616,11.311,0.496,13.91,5.371c2.6,4.876,2.207,10.804,0.963,16.189
	c-2.296,9.949-6.787,18.305-11.73,27.133c13.174,10.038,27.32,18.853,41.916,26.679c-7.746-9.302-12.754-20.872-14.159-32.899
	c-0.548-4.698-0.289-10.112,3.277-13.219c4.167-3.629,11.139-2.025,14.755,2.154c3.617,4.178,4.548,10.045,4.53,15.571
	c-0.034,10.487-2.699,19.849-5.656,29.849c1.943,1.022,3.892,2.033,5.848,3.021c10.74,5.425,21.766,10.384,33.03,14.714
	c-7.405-9.175-12.19-20.458-13.557-32.174c-0.548-4.698-0.289-10.112,3.276-13.219c4.167-3.629,11.139-2.024,14.756,2.154
	c3.616,4.178,4.547,10.046,4.529,15.572c-0.033,10.199-2.553,19.333-5.411,29.024c12.9,4.782,26.105,8.723,39.549,11.559
	c2.8,0.591,1.691,4.893-1.104,4.304c-13.576-2.864-26.903-6.871-39.924-11.709c-6.3,10.837-15.922,19.746-27.262,25.183
	C297.037,629.079,291.806,630.605,287.682,628.251z"/><path fill="#B4D2FA" d="M544.507,338.13c-1.785-6.247-7.762-10.77-14.159-11.853c-6.397-1.082-13.04,0.899-18.521,4.373
	c-5.481,3.475-9.934,8.35-13.954,13.448c-6.652,8.437-12.412,18.002-14.746,28.399c-8.176-13.482-15.309-27.602-21.33-42.199
	c-0.548-1.327-1.071-2.664-1.601-3.999c10.676-3.547,21.351-7.093,32.026-10.639c7.122-2.366,14.437-4.837,20.163-9.693
	c5.727-4.856,9.561-12.731,7.496-19.957c-1.785-6.247-7.762-10.77-14.159-11.852c-6.397-1.082-13.039,0.898-18.52,4.373
	c-5.481,3.474-9.934,8.35-13.954,13.448c-6.862,8.702-12.779,18.606-14.96,29.384c-6.184-16.398-10.993-33.309-14.354-50.506
	c10.679-4.008,21.356-8.017,32.035-12.025c7.026-2.638,14.24-5.388,19.776-10.461c5.536-5.073,9.067-13.088,6.726-20.23
	c-2.023-6.174-8.169-10.464-14.602-11.299c-6.434-0.835-12.995,1.399-18.339,5.081c-5.344,3.682-9.606,8.724-13.429,13.974
	c-6.118,8.404-11.37,17.831-13.457,27.925c-2.146-12.494-3.544-25.116-4.138-37.784c-0.176-3.75-0.257-7.502-0.29-11.254
	c10.846-4.484,21.693-8.968,32.539-13.453c6.936-2.867,14.056-5.854,19.423-11.106c5.367-5.251,8.632-13.379,6.06-20.441
	c-2.226-6.103-8.508-10.189-14.965-10.812c-6.458-0.624-12.943,1.825-18.162,5.681c-5.22,3.856-9.316,9.036-12.962,14.408
	c-5.212,7.676-9.697,16.144-11.852,25.095c0.341-12.725,1.497-25.423,3.475-38.008c7.217-8.88,14.433-17.761,21.651-26.641
	c4.737-5.828,9.578-11.848,11.802-19.026c2.223-7.178,1.233-15.884-4.385-20.869c-4.857-4.309-12.323-4.909-18.298-2.379
	c-5.974,2.528-10.512,7.774-13.271,13.654c-2.758,5.88-3.897,12.388-4.552,18.852c-1.207,11.911-0.738,24.412,4.157,35.263
	c-0.009,0.041-0.024,0.075-0.03,0.118c-2.129,13.39-3.327,26.915-3.618,40.458c-3.087-9.149-8.762-17.478-15.121-24.851
	c-4.242-4.917-8.906-9.594-14.535-12.824c-5.63-3.231-12.353-4.92-18.696-3.559c-6.344,1.361-12.114,6.14-13.622,12.459
	c-1.744,7.31,2.436,15.009,8.371,19.61c5.935,4.601,13.352,6.75,20.572,8.802c10.996,3.126,21.992,6.251,32.987,9.376
	c0.135,16.581,1.624,33.151,4.422,49.503c-5.273-8.691-13.208-15.769-21.622-21.627c-5.328-3.71-11.004-7.081-17.257-8.811
	c-6.253-1.732-13.185-1.696-18.991,1.2c-5.807,2.895-10.213,8.96-10.106,15.456c0.122,7.515,6.079,13.935,12.968,16.917
	c6.89,2.982,14.606,3.221,22.108,3.415c11.421,0.294,22.841,0.589,34.261,0.883c0.101,0.512,0.19,1.026,0.293,1.538
	c3.38,16.78,8.131,33.272,14.159,49.279c-7.102-8.905-17.368-15.03-27.911-19.54c-5.967-2.553-12.207-4.703-18.679-5.13
	c-6.474-0.427-13.254,1.014-18.355,5.026c-5.102,4.013-8.188,10.846-6.771,17.187c1.639,7.334,8.77,12.414,16.12,13.938
	c7.349,1.523,14.953,0.192,22.339-1.14c11.605-2.093,23.21-4.185,34.815-6.278c0.087,0.222,0.177,0.443,0.266,0.665l-0.192,0.274
	c0.089-0.029,0.177-0.059,0.266-0.088c6.125,15.477,13.467,30.467,21.982,44.782c-9.011-4.845-19.494-6.993-29.782-7.848
	c-6.59-0.548-13.314-0.619-19.713,1.048c-6.399,1.668-12.495,5.238-16.142,10.754c-3.647,5.515-4.443,13.107-1.039,18.776
	c3.937,6.558,12.462,9.174,20.06,8.283c7.598-0.891,14.526-4.62,21.242-8.281c9.539-5.198,19.079-10.396,28.618-15.595
	c0.313-0.104,0.626-0.207,0.939-0.312c9.793,15.514,20.983,30.124,33.458,43.576c1.317,1.421,3.789-0.365,2.454-1.805
	c-12.265-13.225-23.272-27.561-32.929-42.762c10.128-3.364,20.255-6.728,30.383-10.093c7.122-2.366,14.436-4.837,20.163-9.693
	C542.737,353.23,546.572,345.356,544.507,338.13z"/><path fill="#4479BD" d="M305.34,558.796c9.919,4.05,25.695,8.903,53.47,8.045c17.042-0.586,40.663-1.258,68.292-12.869
	c1.193-0.502,3.301-1.37,5.977-2.678c0.135-0.052,0.291-0.115,0.414-0.186c0.251-0.091,0.509-0.213,0.779-0.315
	c0.911-0.419,1.872-0.896,2.921-1.315c20.003-9.872,60.521-33.845,67.797-72.98c0.455-2.245,5.528-30.746-7.594-38.6
	c-16.506-9.655-49.672,19.534-55.481,13.093c-2.923-3.279,4.515-11.345,9.669-23.528c11.84-27.267,9.822-68.339-12.639-82.039
	c-10.57-6.588-26.172-7.169-38.258-0.471c-19.761,10.665-17.927,43.429-20.653,43.282c-3.934-0.381,10.912-62.399-17.683-84.799
	c-10.071-7.813-26.342-11.389-35.687-5.322c-13.681,8.919-6.467,35.088-13.994,37.183c-7.979,2.22-14.624-27.087-43.322-44.036
	c-7.31-4.247-24.451-14.33-40.673-7.84c-14.112,5.484-23.518,21.185-22.958,35.768c0.593,13.461,9.519,22.518,12.046,24.927
	c16.135,15.921,33.515,8.206,66.949,24.41c11.68,5.612,23.787,13.424,22.55,17.637c-1.118,3.043-8.797,1.237-19.448,6.001
	c-0.23,0.078-0.574,0.196-1.005,0.447c-3.23,1.493-14.707,6.874-18.789,17.968c-0.238,0.441-4.405,12.573,1.934,19.832
	c3.203,3.805,7.945,4.677,9.999,5.133c20.551,4.221,44.736,15.681,44.139,19.053c-0.574,3.883-33.648-3.234-39.899,8.294
	c-5.18,9.587,11.034,26.59,13.134,28.779c17.577,18.164,42.052,22.276,41.473,24.071c-0.554,1.505-18.881-6.596-38.372-0.432
	c-9.092,2.811-23.258,10.141-23.639,19.604C276.182,546.542,296.694,555.187,305.34,558.796z"/><path fill="#FFF" d="M326.152,488.044c2.28-4.047,7.468-4.397,11.58-3.668c5.185,0.917,10.043,3.178,14.531,5.87
	c9.44,5.665,17.678,13.707,28.3,17.217c5.369,1.774,11.148,2.285,16.582,0.546c-8.543-15.078-15.29-31.183-21.764-47.234
	c-2.424-6.006-4.833-12.04-7.313-18.051c-14.176-10.148-33.296-5.379-48.55-12.931c-4.058-2.009-7.59-4.865-10.114-8.646
	c-0.424-0.637,0.604-1.232,1.028-0.598c4.836,7.245,13.371,10.399,21.582,12c8.129,1.582,16.488,1.676,24.534,3.736
	c3.787,0.969,7.421,2.43,10.716,4.518c-6.737-16.21-14.074-32.192-23.845-46.815c-11.837-17.706-27.323-33.646-46.821-42.771
	c-2.448-1.134-4.941-2.16-7.47-3.055c-0.709-0.275-0.409-1.413,0.31-1.171c19.611,7.051,35.811,20.954,48.433,37.269
	c2.154,2.777,4.17,5.64,6.123,8.542c-0.002-0.134,0.026-0.273,0.142-0.398c7.167-7.742,4.432-19.016,1.304-27.877
	c-1.711-4.845-3.643-9.66-4.537-14.743c-0.745-4.222-0.948-8.878,1.454-12.63c0.412-0.642,1.448-0.059,1.036,0.586
	c-2.808,4.385-1.867,10.151-0.651,14.905c1.324,5.177,3.462,10.092,5.06,15.182c2.626,8.367,3.629,18.448-2.816,25.408
	c-0.207,0.225-0.454,0.193-0.658,0.078c10.947,16.397,18.978,34.573,26.409,52.807c4.121,10.107,8.128,20.288,12.416,30.336
	c11.379-6.256,20.189-17.35,24.037-29.715c2.103-6.755,2.28-13.534,1.476-20.522c-0.872-7.587-2.463-15.216-1.543-22.88
	c0.908-7.565,4.659-15.209,11.9-18.48c0.69-0.311,1.295,0.713,0.598,1.028c-7.294,3.295-10.788,11.109-11.437,18.717
	c-0.666,7.801,1.078,15.504,1.847,23.229c0.664,6.684,0.244,13.21-1.822,19.627c-1.919,5.964-4.951,11.54-8.785,16.488
	c-4.287,5.533-9.641,10.263-15.796,13.621c5.25,12.222,10.95,24.228,17.905,35.603c4.816,7.889,10.295,15.476,16.463,22.41
	c3.256-18.953,22.209-29.156,31.753-44.536c2.794-4.5,4.772-9.47,5.181-14.785c0.057-0.757,1.248-0.763,1.189,0.003
	c-1.5,19.533-20.572,30.407-30.767,45.189c-3.081,4.466-5.414,9.385-6.279,14.772c-0.026,0.161-0.115,0.25-0.211,0.32
	c4.721,5.2,9.83,10.023,15.413,14.245c-0.27,0.102-0.528,0.225-0.779,0.315c-0.124,0.071-0.279,0.134-0.414,0.186
	c-9.505-7.263-17.783-16.201-24.888-25.959c-3.803-5.23-7.248-10.675-10.454-16.257c-9.132,3.064-18.812-0.099-26.772-4.805
	c-9.24-5.465-17.223-13.142-27.368-17.016c-4.678-1.786-13.281-4.183-16.411,1.373C326.809,489.297,325.776,488.71,326.152,488.044z
	"/><path fill="#B4D2FA" d="M1092.794,628.251c4.818-2.751,5.579-9.864,2.793-14.648c-2.785-4.785-8.058-7.583-13.317-9.375
	c-8.506-2.897-16.863-3.72-25.631-4.195c7.767-3.022,15.423-6.325,22.949-9.857c4.977-2.335,9.907-4.784,14.784-7.338
	c6.259,10.793,15.804,19.664,27.046,25.08c4.262,2.052,9.463,3.576,13.564,1.221c4.792-2.752,5.553-9.866,2.785-14.649
	c-2.768-4.783-8.01-7.579-13.238-9.368c-8.779-3.003-17.4-3.77-26.484-4.234c14.939-8.041,29.321-17.138,42.804-27.414
	c7.861,9.452,18.542,16.543,30.327,20.055c4.533,1.352,9.91,2.032,13.586-0.945c4.294-3.477,3.917-10.622,0.426-14.905
	c-3.49-4.284-9.109-6.214-14.556-7.15c-8.824-1.518-17.173-1.004-25.874-0.084c14.042-11.056,27.595-23.811,36.617-39.3
	c0.188-0.322,0.361-0.653,0.547-0.977c9.175,8.387,20.886,13.979,33.188,15.793c4.68,0.69,10.099,0.596,13.312-2.874
	c3.754-4.055,2.361-11.073-1.706-14.814c-4.067-3.741-9.903-4.849-15.427-4.999c-9.733-0.264-18.566,1.769-27.851,4.185
	c9.935-18.176,16.56-38.262,27.104-56.067c9.243,8.628,21.141,14.386,33.654,16.231c4.679,0.691,10.099,0.596,13.312-2.875
	c3.754-4.055,2.361-11.072-1.706-14.813c-4.066-3.741-9.903-4.849-15.427-4.999c-9.995-0.271-19.04,1.88-28.601,4.381
	c2.714-4.403,5.687-8.654,9.043-12.683c6.796-8.159,15.273-14.782,24.683-19.886c6.707,11.063,16.911,19.978,28.793,25.099
	c4.344,1.872,9.605,3.176,13.604,0.65c4.672-2.951,5.133-10.091,2.167-14.753c-2.966-4.662-8.321-7.236-13.619-8.803
	c-9.718-2.874-19.132-3.094-29.164-3.136c15.357-7.921,33.023-11.873,49.908-11.84c7.263,9.221,17.144,16.375,28.2,20.328
	c4.455,1.592,9.788,2.559,13.617-0.216c4.475-3.242,4.481-10.397,1.224-14.861c-3.257-4.464-8.764-6.692-14.152-7.919
	c-8.595-1.957-16.834-1.923-25.425-1.49c-0.282-0.15-0.614-0.248-1.005-0.258c-14.37-0.35-28.751,2.266-42.224,7.228
	c-2.971,1.095-5.916,2.303-8.816,3.621c7.841-8.302,13.397-18.759,15.799-29.926c0.995-4.624,1.255-10.039-1.998-13.472
	c-3.801-4.012-10.894-3.08-14.893,0.733c-4,3.813-5.486,9.565-5.998,15.068c-0.952,10.263,0.729,19.688,2.675,29.727
	c-5.957,3.032-11.626,6.614-16.7,10.951c-7.685,6.568-13.787,14.337-18.999,22.734c3.484-11.251,3.759-23.491,0.706-34.871
	c-1.225-4.569-3.465-9.505-7.927-11.075c-5.212-1.834-11.099,2.232-12.917,7.45c-1.818,5.218-0.516,11.014,1.541,16.143
	c3.943,9.828,9.954,17.601,16.468,25.891c-8.193,14.099-14.217,29.699-21.121,44.28c-2.173,4.59-4.459,9.084-6.976,13.432
	c4.396-12.011,5.025-25.377,1.726-37.737c-1.22-4.57-3.453-9.509-7.912-11.085c-5.21-1.841-11.102,2.218-12.927,7.433
	c-1.825,5.216-0.531,11.014,1.52,16.146c4.018,10.057,10.205,17.967,16.878,26.481c-2.734,4.605-5.755,9.031-9.237,13.198
	c-6.37,7.622-13.598,14.51-21.19,20.9c-2.019,1.7-4.07,3.361-6.143,4.996c5.005-10.463,7.074-22.328,5.83-33.864
	c-0.507-4.703-1.96-9.924-6.126-12.163c-4.868-2.616-11.311,0.496-13.91,5.371c-2.6,4.876-2.207,10.804-0.963,16.189
	c2.296,9.949,6.787,18.305,11.73,27.133c-13.174,10.038-27.32,18.853-41.916,26.679c7.746-9.302,12.754-20.872,14.158-32.899
	c0.548-4.698,0.29-10.112-3.277-13.219c-4.167-3.629-11.139-2.025-14.755,2.154c-3.617,4.178-4.548,10.045-4.53,15.571
	c0.034,10.487,2.699,19.849,5.656,29.849c-1.943,1.022-3.892,2.033-5.848,3.021c-10.74,5.425-21.766,10.384-33.03,14.714
	c7.405-9.175,12.19-20.458,13.557-32.174c0.548-4.698,0.289-10.112-3.276-13.219c-4.167-3.629-11.139-2.024-14.756,2.154
	c-3.616,4.178-4.547,10.046-4.529,15.572c0.033,10.199,2.553,19.333,5.411,29.024c-12.9,4.782-26.105,8.723-39.548,11.559
	c-2.8,0.591-1.691,4.893,1.104,4.304c13.576-2.864,26.903-6.871,39.924-11.709c6.3,10.837,15.922,19.746,27.262,25.183
	C1083.439,629.079,1088.671,630.605,1092.794,628.251z"/><path fill="#B4D2FA" d="M835.97,338.13c1.785-6.247,7.762-10.77,14.158-11.853c6.397-1.082,13.04,0.899,18.521,4.373
	c5.481,3.475,9.934,8.35,13.954,13.448c6.652,8.437,12.412,18.002,14.746,28.399c8.176-13.482,15.309-27.602,21.33-42.199
	c0.548-1.327,1.071-2.664,1.601-3.999c-10.676-3.547-21.351-7.093-32.026-10.639c-7.122-2.366-14.437-4.837-20.163-9.693
	c-5.727-4.856-9.561-12.731-7.496-19.957c1.785-6.247,7.762-10.77,14.159-11.852c6.397-1.082,13.039,0.898,18.52,4.373
	c5.481,3.474,9.934,8.35,13.954,13.448c6.862,8.702,12.779,18.606,14.959,29.384c6.184-16.398,10.994-33.309,14.354-50.506
	c-10.679-4.008-21.356-8.017-32.035-12.025c-7.026-2.638-14.24-5.388-19.776-10.461c-5.536-5.073-9.067-13.088-6.726-20.23
	c2.023-6.174,8.169-10.464,14.602-11.299c6.434-0.835,12.995,1.399,18.339,5.081c5.344,3.682,9.607,8.724,13.429,13.974
	c6.118,8.404,11.37,17.831,13.457,27.925c2.145-12.494,3.543-25.116,4.137-37.784c0.176-3.75,0.257-7.502,0.29-11.254
	c-10.846-4.484-21.693-8.968-32.539-13.453c-6.936-2.867-14.056-5.854-19.423-11.106c-5.366-5.251-8.632-13.379-6.06-20.441
	c2.226-6.103,8.508-10.189,14.965-10.812c6.458-0.624,12.943,1.825,18.162,5.681c5.22,3.856,9.316,9.036,12.962,14.408
	c5.212,7.676,9.697,16.144,11.851,25.095c-0.341-12.725-1.497-25.423-3.475-38.008c-7.217-8.88-14.433-17.761-21.651-26.641
	c-4.737-5.828-9.578-11.848-11.802-19.026c-2.223-7.178-1.233-15.884,4.385-20.869c4.857-4.309,12.323-4.909,18.298-2.379
	c5.974,2.528,10.512,7.774,13.271,13.654c2.758,5.88,3.898,12.388,4.552,18.852c1.207,11.911,0.738,24.412-4.157,35.263
	c0.009,0.041,0.024,0.075,0.031,0.118c2.129,13.39,3.326,26.915,3.617,40.458c3.087-9.149,8.761-17.478,15.121-24.851
	c4.242-4.917,8.906-9.594,14.535-12.824c5.63-3.231,12.353-4.92,18.695-3.559c6.344,1.361,12.114,6.14,13.622,12.459
	c1.744,7.31-2.436,15.009-8.371,19.61c-5.935,4.601-13.352,6.75-20.572,8.802c-10.995,3.126-21.992,6.251-32.987,9.376
	c-0.135,16.581-1.624,33.151-4.423,49.503c5.273-8.691,13.209-15.769,21.622-21.627c5.328-3.71,11.004-7.081,17.257-8.811
	c6.253-1.732,13.185-1.696,18.991,1.2c5.807,2.895,10.213,8.96,10.106,15.456c-0.122,7.515-6.079,13.935-12.968,16.917
	c-6.89,2.982-14.606,3.221-22.109,3.415c-11.421,0.294-22.84,0.589-34.261,0.883c-0.101,0.512-0.19,1.026-0.293,1.538
	c-3.38,16.78-8.131,33.272-14.159,49.279c7.102-8.905,17.368-15.03,27.911-19.54c5.967-2.553,12.206-4.703,18.679-5.13
	c6.474-0.427,13.254,1.014,18.355,5.026c5.102,4.013,8.188,10.846,6.771,17.187c-1.639,7.334-8.77,12.414-16.12,13.938
	c-7.349,1.523-14.953,0.192-22.339-1.14c-11.605-2.093-23.21-4.185-34.815-6.278c-0.087,0.222-0.177,0.443-0.266,0.665l0.192,0.274
	c-0.089-0.029-0.177-0.059-0.266-0.088c-6.125,15.477-13.467,30.467-21.982,44.782c9.011-4.845,19.494-6.993,29.782-7.848
	c6.59-0.548,13.314-0.619,19.713,1.048c6.399,1.668,12.495,5.238,16.142,10.754c3.647,5.515,4.443,13.107,1.039,18.776
	c-3.937,6.558-12.462,9.174-20.06,8.283c-7.598-0.891-14.526-4.62-21.242-8.281c-9.539-5.198-19.079-10.396-28.618-15.595
	c-0.313-0.104-0.626-0.207-0.939-0.312c-9.793,15.514-20.983,30.124-33.458,43.576c-1.317,1.421-3.789-0.365-2.454-1.805
	c12.265-13.225,23.272-27.561,32.929-42.762c-10.128-3.364-20.256-6.728-30.383-10.093c-7.122-2.366-14.436-4.837-20.163-9.693
	C837.739,353.23,833.904,345.356,835.97,338.13z"/><path fill="#4479BD" d="M1079.805,563.464c-9.919,4.051-25.695,8.903-53.47,8.045c-17.042-0.586-40.663-1.258-68.292-12.869
	c-1.193-0.502-3.301-1.37-5.977-2.679c-0.135-0.052-0.291-0.115-0.414-0.186c-0.251-0.091-0.509-0.213-0.779-0.315
	c-0.911-0.42-1.872-0.896-2.921-1.315c-20.003-9.872-60.521-33.845-67.798-72.98c-0.455-2.245-5.528-30.746,7.595-38.6
	c16.506-9.655,49.672,19.534,55.481,13.093c2.923-3.279-4.515-11.345-9.669-23.528c-11.84-27.267-9.822-68.339,12.639-82.039
	c10.57-6.588,26.172-7.169,38.258-0.471c19.761,10.665,17.927,43.429,20.653,43.282c3.934-0.381-10.912-62.399,17.683-84.799
	c10.071-7.813,26.343-11.389,35.687-5.322c13.681,8.919,6.467,35.088,13.994,37.183c7.979,2.22,14.624-27.087,43.322-44.036
	c7.31-4.247,24.451-14.33,40.673-7.84c14.112,5.484,23.518,21.185,22.958,35.767c-0.593,13.461-9.519,22.518-12.046,24.927
	c-16.135,15.921-33.516,8.206-66.949,24.41c-11.68,5.612-23.787,13.424-22.55,17.637c1.118,3.043,8.797,1.237,19.448,6.001
	c0.23,0.078,0.573,0.196,1.005,0.447c3.23,1.493,14.706,6.874,18.789,17.968c0.238,0.441,4.405,12.573-1.934,19.832
	c-3.203,3.805-7.946,4.677-10,5.133c-20.551,4.221-44.736,15.681-44.139,19.053c0.574,3.883,33.648-3.234,39.899,8.294
	c5.18,9.587-11.034,26.59-13.134,28.778c-17.577,18.164-42.052,22.276-41.473,24.071c0.554,1.505,18.881-6.596,38.372-0.432
	c9.092,2.811,23.258,10.141,23.639,19.604C1108.963,551.211,1088.451,559.856,1079.805,563.464z"/><path fill="#FFF" d="M1058.993,492.712c-2.28-4.047-7.468-4.397-11.58-3.668c-5.185,0.917-10.043,3.177-14.531,5.87
	c-9.44,5.665-17.678,13.707-28.3,17.217c-5.369,1.774-11.148,2.285-16.582,0.546c8.543-15.078,15.29-31.183,21.764-47.234
	c2.424-6.006,4.833-12.04,7.313-18.051c14.176-10.148,33.295-5.379,48.55-12.931c4.058-2.009,7.59-4.865,10.114-8.646
	c0.425-0.637-0.604-1.232-1.028-0.598c-4.836,7.245-13.371,10.399-21.583,11.999c-8.129,1.582-16.488,1.677-24.534,3.736
	c-3.787,0.969-7.421,2.43-10.716,4.518c6.737-16.21,14.074-32.192,23.845-46.816c11.837-17.706,27.323-33.646,46.821-42.771
	c2.449-1.134,4.942-2.16,7.47-3.055c0.709-0.275,0.409-1.413-0.31-1.171c-19.611,7.051-35.811,20.954-48.433,37.269
	c-2.154,2.777-4.169,5.64-6.123,8.542c0.002-0.134-0.026-0.273-0.142-0.398c-7.167-7.742-4.432-19.016-1.304-27.877
	c1.712-4.845,3.643-9.66,4.537-14.743c0.745-4.222,0.948-8.878-1.454-12.63c-0.412-0.642-1.448-0.059-1.036,0.586
	c2.808,4.384,1.867,10.15,0.651,14.905c-1.324,5.177-3.462,10.092-5.06,15.182c-2.626,8.367-3.629,18.447,2.816,25.408
	c0.207,0.225,0.454,0.193,0.658,0.078c-10.947,16.397-18.978,34.573-26.41,52.807c-4.12,10.107-8.128,20.288-12.416,30.336
	c-11.379-6.256-20.189-17.35-24.037-29.715c-2.103-6.755-2.28-13.534-1.476-20.522c0.872-7.587,2.464-15.216,1.544-22.88
	c-0.908-7.565-4.659-15.209-11.9-18.48c-0.69-0.311-1.295,0.713-0.598,1.028c7.294,3.295,10.788,11.11,11.438,18.717
	c0.666,7.801-1.079,15.504-1.847,23.229c-0.664,6.684-0.244,13.21,1.822,19.627c1.919,5.964,4.951,11.54,8.785,16.488
	c4.287,5.533,9.641,10.263,15.796,13.621c-5.25,12.222-10.95,24.228-17.905,35.603c-4.816,7.889-10.295,15.476-16.463,22.41
	c-3.256-18.953-22.209-29.156-31.754-44.536c-2.794-4.5-4.772-9.47-5.18-14.784c-0.057-0.757-1.247-0.763-1.188,0.003
	c1.5,19.533,20.572,30.407,30.767,45.189c3.081,4.467,5.414,9.385,6.279,14.772c0.026,0.161,0.115,0.251,0.211,0.32
	c-4.721,5.2-9.831,10.023-15.414,14.246c0.27,0.102,0.528,0.225,0.779,0.315c0.124,0.071,0.279,0.134,0.414,0.186
	c9.505-7.263,17.782-16.201,24.888-25.959c3.803-5.23,7.248-10.675,10.454-16.257c9.132,3.065,18.811-0.098,26.772-4.805
	c9.24-5.465,17.223-13.142,27.368-17.016c4.678-1.786,13.281-4.183,16.411,1.374
	C1058.336,493.965,1059.369,493.379,1058.993,492.712z"/><path fill="#384075" d="M1036.057,578.942c-51.428-86.51-116.147-56.079-124.695-171.771
	c-3.429-46.406-43.142-76.683-60.239-117.546c-18.777-42.876-23.531-90.506-44.574-132.576
	C765.528,75.04,630.044,65.555,612.41,125.883c0,0-44.44-4.582-65.523,44.156c-21.854,41.65-19.613,76.71-38.389,119.586
	c-17.094,40.842-52.579,71.664-60.234,117.547c-21.326,127.845-96.255,119.771-123.385,174.999
	c-19.328,39.345-14.333,101.412,29.067,129.833c31.681,20.746,55.07,25.947,72.424,58.465c31.27,61.526,86.092,4.458,134.932,24.481
	c83.779,34.347,158.502,27.617,236.867-0.057c49.8-17.586,103.734,37.255,135.077-24.434c17.288-32.535,42.091-59.447,78.54-69.572
	C1055.736,689.858,1058.528,616.74,1036.057,578.942z"/><path fill="#384075" d="M613.558,125.769c-89.276-9.53-76.074,72.434-89.689,132.782c-3.509,15.511-9.29,31.293-19.81,43.444
	c-30.699,34.443-78.976,63.705-55.781,116.902c-26.971-52.71,21.046-85.285,51.728-120.17c10.06-11.927,15.134-26.413,18.521-41.418
	C532.089,195.841,522.215,111.411,613.558,125.769z"/><path fill="#384075" d="M812.265,175.385c11.355,69.641,57.292,123.678,100.844,176.189c21.148,28.561,5.613,64.26,8.718,96.263
	c2.846,27.475,14.821,56.903,42.786,66.872c32.298,14.413,72.233,24.95,89.709,59.053c32.024,55.328,15.468,146.872-53.443,163.094
	c66.795-17.943,81.853-107.204,49.761-161.109c-17.871-32.866-56.317-41.935-88.259-56.224
	c-29.553-10.515-43.175-41.79-45.933-71.192c-3.475-31.417,12.751-66.016-7.3-94.126
	C866.303,301.174,820.871,245.501,812.265,175.385z"/><path fill="#D1D3D4" d="M815.938,460.701c-11.051-38.046-63.469-43.067-72.512-70.197c-9.044-27.129,17.051-68.149,36.902-86.569
	c16.599-15.4,14.94-75.517-2.865-104.066l-192.784,5.014c-23.024,21.234-24.251,89.358,5.279,119.62
	c18.002,18.447,41.005,41.82,36.88,57.201c-16.451,61.324-91.327,16.368-94.36,91.844l156.352,6.881
	C688.831,480.429,826.99,498.746,815.938,460.701z"/><path fill="#4BA3FB" d="M828.272,694.709H542.58c8.919-33.866,9.874-91.344,7.986-157.201c-1.64-57.512-5.437-121.426-7.986-181.599
	c9.649-4.685,19.376-8.897,29.182-12.603c0.898-0.337,1.797-0.674,2.696-1c60.724-22.421,124.604-26.015,192.034-8.245
	c3.055,0.798,6.099,1.64,9.166,2.527c17.298,5.021,34.833,11.446,52.614,19.321c-9.177,51.31-15.883,101.409-18.455,149.451
	C806.144,573.34,810.738,637.22,828.272,694.709z"/><path fill="#3189E0" d="M766.492,334.061c-8.222,28.89-30.845,69.25-93.197,69.25c-58.096,0-85.885-33.833-98.837-61.005
	C635.182,319.885,699.062,316.291,766.492,334.061z"/><path fill="#3189E0" d="M597.471,623.504c-1.852,29.379,34.608,46.525,41.999,71.203h-96.893
	c8.919-33.867,9.874-91.344,7.986-157.201l113.909-106.739C645.206,520.872,600.781,571.008,597.471,623.504z"/><path fill="#3189E0" d="M786.428,627.895c3.426-36.922-5.037-137.129-5.037-137.129l28.424,14.591
	c-3.673,67.98,0.921,131.861,18.455,189.35H680.908C715.01,682.868,783.855,655.629,786.428,627.895z"/><path fill="#F9CBCB" d="M944.753,675.37c-24.105,34.305-208.266,18.258-287.344,7.722c-20.915-2.786-33.956-4.796-33.956-4.796
	c-19.342,12.895-58.081,13.781-73.616,1.47c-16.175-12.817-13.434-59.551,10.098-65.931c22.522-6.088,42.901-2.472,65.467,7.817
	c0,0,7.62-0.227,23.38-0.823c36.147-1.382,98.646-4.201,118.236-7.874c28.127-5.28,93.198-15.243,93.198-15.243l-67.396-109.002
	c0,0,16.926-139.402,43.66-126.586C892.126,388.802,975.227,632.001,944.753,675.37z"/><path fill="#4BA3FB" d="M951.566,677.568c-20.055,36.819-242.149,17.016-321.228,6.479l0.551-63.33
	c25.24-0.966,64.24-4.437,92.221-7.301c12.098-1.236,22.14-2.348,28.104-3.1c37.54-4.707,101.678-11.424,101.678-11.424
	c-28.126-28.486-50.39-64.779-72.529-103.296c0,0,10.033-123.967,34.128-143.942c3.442-2.854,21.577,5.943,24.919,7.545
	C895.055,385.877,986.509,613.416,951.566,677.568z"/><path fill="#3D94EB" d="M839.445,359.218c54.409,57.791,126.831,247.084,95.268,305.029c-18.765,34.451-214.406,19.329-304.279,8.61
	l-0.097,11.19c79.079,10.536,301.172,30.34,321.228-6.48C986.501,613.43,895.093,385.983,839.445,359.218z"/><path fill="#F9CBCB" d="M779.354,305.448c-1.446,0.724-2.891,1.207-4.583,1.931V304l-0.724-36.451
	c2.899-7.725,4.826-15.932,6.276-24.623v-0.241c6.034-3.139,15.69-6.759,24.381-2.414
	C816.29,246.064,826.669,283.964,779.354,305.448z"/><path fill="#F9CBCB" d="M775.258,223.609c-1.289,7.723-3.001,15.017-5.578,21.883l-0.214-15.662v-2.574c0,0,0.214-0.214,0.643-0.643
	C770.967,226.184,772.683,224.898,775.258,223.609z"/><path fill="#F0B4B4" d="M592.904,227.257l-0.215,6.436l-0.214,11.585c-3.002-6.651-5.149-13.516-6.224-20.166
	c0-0.643,0.214-1.287,0.429-1.716h0.216c1.502,0.857,2.792,1.502,3.862,2.36C592.044,226.613,592.904,227.257,592.904,227.257z"/><path fill="#F9CBCB" d="M786.428,256.111c0,27.515-8.93,53.839-23.414,74.839c-4.689,6.918-10.013,13.294-15.847,18.942
	c-18.137,17.688-41.134,28.614-65.26,28.614c-29.45,0-64.208-22.702-85.934-55.773c-13.047-19.314-21.248-42.481-21.248-66.622
	c0-44.801,22.624-83.722,55.772-103.561c6.206-3.73,12.783-6.778,19.654-9.068c9.61-3.203,19.794-4.921,30.316-4.921
	c42.898,0,79.947,28.397,96.598,69.206C783.085,222.515,786.428,238.872,786.428,256.111z"/><path fill="#F9CBCB" d="M592.231,263.928l-0.968,43.451c-0.481-0.241-1.953,1.525-4.121,0.56
	c-49.488-25.829-36.431-65.253-25.086-71.047c8.451-4.104,17.62-0.965,23.654,2.414c-0.241,0.483-0.483,1.207-0.483,1.931
	C586.438,248.719,588.854,256.445,592.231,263.928z"/><path fill="#F0B4B4" d="M775.851,256.367c0,26.462-8.586,51.749-22.506,71.947c-7.325,10.808-16.242,20.197-26.233,27.595
	c55.949-47.176,14.138-112.196-15.969-122.334c-24.117-8.12-29.986-36.581-38.446-54.96c-11.997-26.054-64.407-8.385-64.407-8.385
	l0.158-0.158c16.512-17.452,40.611-26.706,65.54-26.706C730.137,143.366,775.851,193.955,775.851,256.367z"/><path fill="#384075" d="M679.9,133c-1.109,1.817-61.55,10.368-61.55,10.368l-3.526,16.434
	c-19.63,14.599-33.971,37.298-36.495,61.901c-3.339,34.797,29.032,67.108,13.062,101.946
	c28.338-55.121-46.192-93.605,22.683-160.354l-0.483,2.252c95.749-26.39,54.108,30.295,116.112,58.355
	c40.805,13.836,32.626,89.183,17.087,113.167c15.756-12.592,36.597-61.182,42.882-132.424C801.706,179.94,690.471,115.669,679.9,133
	z"/><path fill="#4BA3FB" d="M568.426,344.588c0,0-60.511,16.704-78.891,49.769c-23.161,41.667-55.364,174.974-60.254,204.629
	l112.999,0.364C583.661,500.072,548.517,417.472,568.426,344.588z"/><path fill="#F9CBCB" d="M670.487,408.275c-2.269,7.155-5.212,15.176-8.728,23.847c-37.765,93.097-141.835,262.273-196.246,262.587
	c-58.028,0.348-37.652-96.59-30.441-121.156l34.54-20.814c52.03-19.657,124.661-111.957,144.441-143.588
	c2.775-4.448,4.516-7.694,4.999-9.368c3.965-13.625-33.99-24.476-42.089-66.362c-6.796-35.125-1.887-37.63,7.043-29.003
	c10.604,10.233,26.869,36.158,35.934,41.887c23.095,14.592,44.088,23.039,51.356,36.551
	C674.935,389.607,675.148,397.615,670.487,408.275z"/><path fill="#4BA3FB" d="M664.472,430.766c-37.765,93.097-121.895,263.941-198.963,263.941c-58.029,0-37.652-96.59-30.441-121.156
	l34.541-20.814c52.03-19.657,123.518-113.298,143.298-144.929L664.472,430.766z"/><path fill="#3D94EB" d="M647.789,423.338c-39.158,94.505-120.797,256.131-195.758,256.131c-7.797,0-14.166-1.756-19.354-4.835
	c5.889,12.027,16.094,20.073,32.833,20.073c77.067,0,161.199-170.844,198.963-263.941L647.789,423.338z"/><path fill="#3189E0" d="M883.422,611.18c-0.607-0.258-23.96-10.48-36.978-6.133c-9.593,3.19-83.65,6.695-123.335,8.369
	c12.098-1.236,22.14-2.348,28.104-3.1c37.54-4.707,101.678-11.424,101.678-11.424S873.313,599.768,883.422,611.18z"/><path fill="#3189E0" d="M599.714,428.788l-21.629,11.8c-9.778,19.364-41.22,57.097-63.059,83.858
	C546.188,495.794,574.417,463.907,599.714,428.788z"/><path fill="#F9BDBD" d="M671.295,382.855c-13.936-11.238-23.815-12.542-51.914-28.403c-19.163-10.816-34.544-39.398-35.375-50.035
	c10.604,10.233,25.067,36.295,34.124,42.036C653.842,369.09,664.028,369.343,671.295,382.855z"/><path fill="#D1E6FF" d="M1273.993,838.958H90.007c-39.834,0-72.126-32.292-72.126-72.126v0c0-39.834,32.292-72.126,72.126-72.126
	h1183.986c39.834,0,72.126,32.292,72.126,72.126v0C1346.119,806.667,1313.827,838.958,1273.993,838.958z"/><polygon fill="#9FA2CC" points="698.714 752.404 672.223 762.063 650.221 752.268 645.732 738.937 698.714 738.937"/><polygon fill="#CB2D00" points="445.953 625.766 445.953 625.747 447.168 625.747"/><path fill="#FFF" d="M673.291,684.187v57.093c0,0-0.02,0-0.04-0.015c0,0-0.019-0.015-0.04-0.015
	c-0.986-0.484-13.331-6.638-85.194-48.187c-59.241-34.262-114.5-36.666-146.605-33.944c-4.339,0.363-8.244,0.816-11.675,1.3
	c-10.926,1.542-17.138,3.357-17.138,3.357l41.158-81.648C572.892,582.309,614.641,654.31,673.291,684.187z"/><path fill="#D4D5E6" d="M673.212,741.343c-2.971,1.689-69.555-5.383-123.291-22.751c-60.939-19.696-139.432,0.968-139.432,0.968
	l12.583-32.532c16.085-3.013,49.314-7.056,89.527,0.218C580.972,699.625,673.212,741.343,673.212,741.343z"/><path fill="#D4D5E6" d="M673.212,741.25c-37.667-8.875-83.38-41.277-136.883-59.421c-56.56-19.172-100.715-2.964-100.715-2.964
	l5.798-19.747c32.106-2.722,87.364-0.318,146.605,33.944C659.881,734.612,672.226,740.766,673.212,741.25z"/><path fill="#FFF" d="M673.212,741.25v0.015c-0.138,0-0.493-0.03-1.064-0.076c-0.355-0.03-0.71-0.076-1.065-0.091
	c-51.768-4.989-91.309-41.066-157.532-53.056c-38.949-7.046-71.133-3.13-86.713-0.212c-6.508,1.225-10.117,2.268-10.117,2.268
	l8.638-19.716l4.378-9.964c3.431-0.484,7.336-0.937,11.675-1.3l-5.798,19.747c0,0,44.155-16.209,100.715,2.964
	C589.832,699.972,635.545,732.375,673.212,741.25z"/><path fill="#D4D5E6" d="M673.291,741.28v5.186L373.05,768.719l0.068-19.154c0,0,0,0,0.02-0.015
	c0.592-0.484,21.91-17.191,97.205-14.485C498.208,736.079,545.006,741.28,673.291,741.28z"/><path fill="#FFF" d="M671.871,741.504c0.02,0.015,0.02,0.015,0.02,0.015c-128.246,0-175.024-5.201-202.89-6.214
	c-75.295-2.706-96.613,14.001-97.205,14.485l34.315-75.721l18.92-2.939l-8.04,18.847c0,0,1.997-0.682,8.505-1.907l-12.187,31.51
	c0,0,75.63-19.278,135.049-0.938c52.911,16.33,109.609,21.713,121.383,22.695c0.414,0.045,0.769,0.076,1.065,0.091
	C671.378,741.474,671.733,741.504,671.871,741.504z"/><path fill="#FFF" d="M673.338,684.187v57.093c0,0,0.02,0,0.039-0.015c0,0,0.019-0.015,0.04-0.015
	c0.986-0.484,13.331-6.638,85.194-48.187c59.242-34.262,114.5-36.666,146.606-33.944c4.339,0.363,8.244,0.816,11.675,1.3
	c10.925,1.542,17.137,3.357,17.137,3.357l-41.158-81.648C773.737,582.309,731.988,654.31,673.338,684.187z"/><path fill="#D4D5E6" d="M673.417,741.343c2.97,1.689,69.555-5.383,123.291-22.751c60.939-19.696,139.432,0.968,139.432,0.968
	l-12.583-32.532c-16.086-3.013-49.314-7.056-89.527,0.218C765.656,699.625,673.417,741.343,673.417,741.343z"/><path fill="#D4D5E6" d="M673.417,741.25c37.667-8.875,83.38-41.277,136.883-59.421c56.56-19.172,100.715-2.964,100.715-2.964
	l-5.798-19.747c-32.106-2.722-87.364-0.318-146.606,33.944C686.747,734.612,674.402,740.766,673.417,741.25z"/><path fill="#FFF" d="M673.417,741.25v0.015c0.137,0,0.493-0.03,1.064-0.076c0.355-0.03,0.71-0.076,1.065-0.091
	c51.768-4.989,91.308-41.066,157.531-53.056c38.949-7.046,71.133-3.13,86.713-0.212c6.508,1.225,10.117,2.268,10.117,2.268
	l-8.638-19.716l-4.378-9.964c-3.432-0.484-7.337-0.937-11.675-1.3l5.798,19.747c0,0-44.155-16.209-100.715,2.964
	C756.796,699.972,711.083,732.375,673.417,741.25z"/><path fill="#D4D5E6" d="M673.338,741.28v5.186l302.875,21.833l-2.701-18.734c0,0,0,0-0.02-0.015
	c-0.592-0.484-21.91-17.191-97.205-14.485C848.42,736.079,801.622,741.28,673.338,741.28z"/><path fill="#FFF" d="M674.757,741.504c-0.02,0.015-0.02,0.015-0.02,0.015c128.246,0,175.024-5.201,202.89-6.214
	c75.294-2.706,96.613,14.001,97.205,14.485l-34.315-75.721l-18.92-2.939l8.04,18.847c0,0-1.998-0.682-8.506-1.907l12.187,31.51
	c0,0-75.63-19.278-135.049-0.938c-52.912,16.33-109.609,21.713-121.383,22.695c-0.414,0.045-0.769,0.076-1.065,0.091
	C675.25,741.474,674.895,741.504,674.757,741.504z"/><path fill="#2F64A8" d="M698.032,741.772l-2.625,0.012l-1.76,1.934c-0.098,0.108-9.934,10.783-20.333,10.783
	c-10.398,0-20.233-10.675-20.322-10.772l-1.762-1.957h-2.633c-1.217,0-93.923,9.066-275.547,26.948l1.159,11.775
	c87.6-8.624,249.571-24.544,272.163-26.668c4.372,4.101,14.81,12.507,26.941,12.507c12.133,0,22.571-8.405,26.943-12.507
	c22.593,2.124,184.563,18.044,272.163,26.668l1.16-11.775C791.955,750.838,699.249,741.772,698.032,741.772z"/><path fill="#FFF" d="M1259.083,711.128v28.6h-83.133c-7.887,0-14.305-6.407-14.305-14.294c0-7.887,6.418-14.306,14.305-14.306
	H1259.083z"/><path fill="#326AB3" d="M1175.95,711.128c-12.48,0-21.282,16.069-6.8,28.6h89.933v5.65h-235.122c-3.36,0-6.085-2.724-6.085-6.085
	v-27.73c0-3.36,2.724-6.085,6.085-6.085h235.122v5.65H1175.95z"/><path fill="#2A5FA3" d="M1175.007,711.162c0.312-0.02,0.626-0.034,0.943-0.034h83.133v-5.65h-77.734
	C1178.706,706.69,1176.493,708.683,1175.007,711.162z"/><path fill="#2A5FA3" d="M1167.754,738.436h-113.607c-13.771,0-24.934-11.163-24.934-24.934v-8.024h-5.25
	c-3.36,0-6.085,2.724-6.085,6.085v27.731c0,3.36,2.724,6.085,6.084,6.085h235.122v-5.65h-89.933
	C1168.657,739.302,1168.193,738.871,1167.754,738.436z"/><path fill="#6692CC" d="M1161.645,725.434c0,7.887,6.418,14.294,14.305,14.294h83.133v5.65h-83.133
	c-11.006,0-19.955-8.95-19.955-19.944c0-11.006,8.949-19.956,19.955-19.956h83.133v5.65h-83.133
	C1168.063,711.128,1161.645,717.547,1161.645,725.434z"/><rect width="5.352" height="39.9" x="1102.146" y="705.478" fill="#FFF"/><rect width="5.352" height="39.9" x="1088.763" y="705.478" fill="#FFF"/><circle cx="1130.696" cy="727.57" r="11.595" fill="#FFF" transform="rotate(-80.781 1130.71 727.552)"/><path fill="#E6E8F0" d="M1219.091,716.898h-43.726c-0.593,0-1.074-0.481-1.074-1.074l0,0c0-0.593,0.481-1.074,1.074-1.074h43.726
	c0.593,0,1.074,0.481,1.074,1.074l0,0C1220.166,716.417,1219.685,716.898,1219.091,716.898z"/><path fill="#E6E8F0" d="M1250.512,737.289h-49.619c-0.593,0-1.074-0.481-1.074-1.074l0,0c0-0.593,0.481-1.074,1.074-1.074h49.619
	c0.593,0,1.074,0.481,1.074,1.074l0,0C1251.586,736.808,1251.105,737.289,1250.512,737.289z"/><path fill="#E6E8F0" d="M1219.092,727.313h-27.226c-0.593,0-1.074-0.481-1.074-1.074l0,0c0-0.593,0.481-1.074,1.074-1.074h27.226
	c0.593,0,1.074,0.481,1.074,1.074l0,0C1220.166,726.832,1219.685,727.313,1219.092,727.313z"/><path fill="#E6E8F0" d="M1186.513,727.313h-11.64c-0.593,0-1.074-0.481-1.074-1.074l0,0c0-0.593,0.481-1.074,1.074-1.074h11.64
	c0.593,0,1.074,0.481,1.074,1.074l0,0C1187.588,726.832,1187.107,727.313,1186.513,727.313z"/><path fill="#E6E8F0" d="M1245.792,727.313h-11.64c-0.593,0-1.074-0.481-1.074-1.074l0,0c0-0.593,0.481-1.074,1.074-1.074h11.64
	c0.593,0,1.074,0.481,1.074,1.074l0,0C1246.866,726.832,1246.385,727.313,1245.792,727.313z"/><path fill="#E6E8F0" d="M1237.84,717.972h-3.689c-0.593,0-1.074-0.481-1.074-1.074l0,0c0-0.593,0.481-1.074,1.074-1.074h3.689
	c0.593,0,1.074,0.481,1.074,1.074l0,0C1238.915,717.491,1238.434,717.972,1237.84,717.972z"/><path fill="#E6E8F0" d="M1195.224,737.289h-3.689c-0.593,0-1.074-0.481-1.074-1.074l0,0c0-0.593,0.481-1.074,1.074-1.074h3.689
	c0.593,0,1.074,0.481,1.074,1.074l0,0C1196.298,736.808,1195.817,737.289,1195.224,737.289z"/><path fill="#E6E8F0" d="M1256.349,727.313h-3.689c-0.593,0-1.074-0.481-1.074-1.074l0,0c0-0.593,0.481-1.074,1.074-1.074h3.689
	c0.593,0,1.074,0.481,1.074,1.074l0,0C1257.423,726.832,1256.943,727.313,1256.349,727.313z"/><polygon fill="#C24E4E" points="1222.269 721.361 1222.269 733.779 1228.585 729.39 1234.901 733.779 1234.901 721.361"/><path fill="#FFF" d="M1040.712,671.229v28.6h83.133c7.887,0,14.306-6.407,14.306-14.295c0-7.887-6.419-14.305-14.306-14.305
	H1040.712z"/><path fill="#FFBC47" d="M1123.845,671.229c12.48,0,21.282,16.069,6.8,28.6h-89.933v5.65h236.761c2.455,0,4.445-1.99,4.445-4.444
	v-31.01c0-2.455-1.99-4.445-4.445-4.445h-236.761v5.65H1123.845z"/><path fill="#FFB32E" d="M1127.726,671.765c-2.626-3.111-6.551-5.092-10.931-5.092h-76.082v4.556h83.133
	C1125.189,671.229,1126.491,671.416,1127.726,671.765z"/><path fill="#FFB129" d="M1277.474,665.579h-2.606v15.06c0,11.203-9.082,20.284-20.284,20.284h-213.872v4.556h236.761
	c2.455,0,4.445-1.99,4.445-4.445v-31.01C1281.918,667.569,1279.928,665.579,1277.474,665.579z"/><path fill="#FFCD75" d="M1138.151,685.534c0,7.887-6.419,14.295-14.306,14.295h-83.133v5.65h83.133
	c11.006,0,19.956-8.95,19.956-19.944c0-11.006-8.95-19.955-19.956-19.955h-83.133v5.65h83.133
	C1131.732,671.229,1138.151,677.647,1138.151,685.534z"/><rect width="5.352" height="39.9" x="1192.297" y="665.579" fill="#FFF" transform="rotate(-180 1194.973 685.529)"/><rect width="5.353" height="39.9" x="1205.68" y="665.579" fill="#FFF" transform="rotate(-180 1208.357 685.529)"/><path fill="#FFF" d="M1157.432,685.529c0-6.045,4.901-10.946,10.946-10.946c6.045,0,10.946,4.901,10.946,10.946
	c0,6.045-4.901,10.946-10.946,10.946C1162.333,696.475,1157.432,691.574,1157.432,685.529z"/><path fill="#E6E8F0" d="M1093.445,676.702h-48.966c-0.593,0-1.074-0.481-1.074-1.074l0,0c0-0.593,0.481-1.074,1.074-1.074h48.966
	c0.593,0,1.074,0.481,1.074,1.074l0,0C1094.519,676.221,1094.038,676.702,1093.445,676.702z"/><path fill="#E6E8F0" d="M1128.455,697.093h-55.531c-0.593,0-1.074-0.481-1.074-1.074l0,0c0-0.593,0.481-1.074,1.074-1.074h55.531
	c0.593,0,1.074,0.481,1.074,1.074l0,0C1129.529,696.612,1129.048,697.093,1128.455,697.093z"/><path fill="#E6E8F0" d="M1093.445,687.117h-30.582c-0.593,0-1.074-0.481-1.074-1.074l0,0c0-0.593,0.481-1.074,1.074-1.074h30.582
	c0.593,0,1.074,0.481,1.074,1.074l0,0C1094.519,686.637,1094.038,687.117,1093.445,687.117z"/><path fill="#E6E8F0" d="M1057.146,687.117h-13.215c-0.593,0-1.074-0.481-1.074-1.074l0,0c0-0.593,0.481-1.074,1.074-1.074h13.215
	c0.593,0,1.074,0.481,1.074,1.074l0,0C1058.22,686.636,1057.739,687.117,1057.146,687.117z"/><path fill="#E6E8F0" d="M1123.195,687.117h-13.215c-0.593,0-1.074-0.481-1.074-1.074l0,0c0-0.593,0.481-1.074,1.074-1.074h13.215
	c0.593,0,1.074,0.481,1.074,1.074l0,0C1124.269,686.636,1123.788,687.117,1123.195,687.117z"/><path fill="#E6E8F0" d="M1115.513,676.702h-4.355c-0.593,0-1.074-0.481-1.074-1.074l0,0c0-0.593,0.481-1.074,1.074-1.074h4.355
	c0.593,0,1.074,0.481,1.074,1.074l0,0C1116.588,676.221,1116.107,676.702,1115.513,676.702z"/><path fill="#E6E8F0" d="M1066.851,697.093h-4.356c-0.593,0-1.074-0.481-1.074-1.074l0,0c0-0.593,0.481-1.074,1.074-1.074h4.356
	c0.593,0,1.074,0.481,1.074,1.074l0,0C1067.925,696.612,1067.444,697.093,1066.851,697.093z"/><path fill="#E6E8F0" d="M1134.959,687.117h-4.356c-0.593,0-1.074-0.481-1.074-1.074l0,0c0-0.593,0.481-1.074,1.074-1.074h4.356
	c0.593,0,1.074,0.481,1.074,1.074l0,0C1136.033,686.636,1135.552,687.117,1134.959,687.117z"/><polygon fill="#C24E4E" points="1107.743 679.278 1107.743 691.78 1102.146 687.361 1096.55 691.78 1096.55 679.278"/><path fill="#FFF" d="M1260.83,664.383c-1.234-0.441-206.364,0.839-207.248-0.436c-4.987-2.323-9.203-6.246-11.906-11.031h-0.033
	v-26.214h0.02c2.87-5.088,7.444-9.191,12.832-11.461h205.964C1255.593,631.161,1257.486,648.336,1260.83,664.383z"/><path fill="#FF9C61" d="M1263.977,658.972c0.722,0.716,1.166,1.709,1.166,2.809c0,2.192-1.776,3.975-3.975,3.975h-200.029
	c-3.663,0-7.155-0.736-10.328-2.074c-0.331-0.139-0.656-0.285-0.974-0.437c-0.331-0.152-0.656-0.311-0.981-0.484
	c-0.265-0.139-0.53-0.278-0.795-0.431c-0.278-0.159-0.557-0.318-0.828-0.49c-0.232-0.139-0.464-0.285-0.689-0.431
	c-0.238-0.159-0.477-0.318-0.709-0.483c-0.205-0.146-0.411-0.292-0.61-0.437c-0.212-0.159-0.417-0.318-0.623-0.484
	c-0.185-0.146-0.364-0.291-0.536-0.437c-0.192-0.159-0.378-0.318-0.563-0.484c-0.159-0.139-0.318-0.284-0.47-0.43
	c-0.179-0.159-0.351-0.325-0.524-0.49c-0.073-0.073-0.146-0.146-0.219-0.218c-0.073-0.073-0.139-0.139-0.205-0.212
	c-0.159-0.159-0.311-0.318-0.457-0.484c-0.139-0.139-0.272-0.285-0.404-0.437c-0.139-0.159-0.285-0.318-0.417-0.484
	c-0.126-0.139-0.245-0.284-0.358-0.431c-0.132-0.159-0.265-0.324-0.391-0.49c-0.113-0.139-0.219-0.285-0.325-0.431
	c-0.119-0.159-0.239-0.318-0.351-0.483c-0.106-0.146-0.212-0.292-0.305-0.437c-0.113-0.159-0.219-0.325-0.325-0.484
	c-0.093-0.146-0.185-0.285-0.272-0.43c-0.099-0.159-0.199-0.325-0.298-0.49c-0.086-0.146-0.172-0.292-0.252-0.437
	c-0.013-0.02-0.026-0.039-0.033-0.06c-2.173-3.862-3.412-8.314-3.412-13.057c0-4.744,1.239-9.195,3.412-13.057
	c0.007-0.013,0.013-0.027,0.02-0.04c0.079-0.146,0.166-0.291,0.251-0.431c0.093-0.166,0.192-0.331,0.298-0.49
	c0.086-0.145,0.179-0.284,0.272-0.43c0.099-0.159,0.205-0.324,0.318-0.484c0.099-0.145,0.199-0.291,0.305-0.437
	c0.112-0.166,0.232-0.324,0.351-0.484c0.106-0.146,0.212-0.292,0.325-0.431c0.126-0.165,0.258-0.331,0.384-0.49
	c0.119-0.146,0.238-0.291,0.358-0.431c0.139-0.166,0.278-0.325,0.424-0.484c0.126-0.152,0.258-0.298,0.398-0.437
	c0.145-0.166,0.298-0.325,0.457-0.484c0.139-0.146,0.285-0.292,0.431-0.437c0.166-0.159,0.338-0.325,0.51-0.483
	c0.152-0.146,0.311-0.292,0.477-0.431c0.186-0.166,0.378-0.331,0.57-0.49c0.172-0.146,0.344-0.292,0.524-0.431
	c0.205-0.166,0.41-0.324,0.623-0.483c0.198-0.146,0.397-0.292,0.602-0.437c0.232-0.166,0.471-0.325,0.709-0.484
	c0.225-0.145,0.45-0.291,0.682-0.43c0.271-0.172,0.55-0.331,0.828-0.49c0.265-0.152,0.53-0.298,0.801-0.437
	c0.318-0.165,0.636-0.325,0.961-0.477c0.318-0.153,0.643-0.298,0.974-0.437c3.193-1.351,6.704-2.1,10.388-2.1h200.029
	c1.1,0,2.093,0.444,2.809,1.166c0.722,0.715,1.166,1.709,1.166,2.809c0,2.2-1.776,3.975-3.975,3.975h-199.333
	c-0.669,0-1.331,0.033-1.981,0.1c-0.967,0.092-1.908,0.258-2.829,0.484c-0.504,0.126-1.007,0.271-1.497,0.437
	c-0.444,0.146-0.881,0.305-1.312,0.484c-0.318,0.133-0.643,0.278-0.954,0.431c-0.324,0.152-0.643,0.311-0.961,0.49
	c-0.251,0.133-0.497,0.272-0.742,0.431c-0.258,0.152-0.516,0.311-0.768,0.484c-0.212,0.139-0.424,0.285-0.629,0.437
	c-0.219,0.159-0.424,0.318-0.636,0.484c-0.179,0.139-0.351,0.285-0.523,0.43c-0.186,0.159-0.371,0.318-0.55,0.49
	c-0.152,0.139-0.305,0.285-0.457,0.431c-0.166,0.159-0.325,0.318-0.477,0.484c-0.139,0.146-0.272,0.291-0.397,0.437
	c-0.146,0.159-0.285,0.318-0.411,0.484c-0.126,0.139-0.245,0.285-0.351,0.431c-0.132,0.159-0.252,0.325-0.371,0.49
	c-0.112,0.145-0.219,0.292-0.318,0.437c-0.106,0.159-0.212,0.318-0.312,0.477c-0.099,0.146-0.192,0.291-0.271,0.437
	c-0.106,0.159-0.199,0.325-0.292,0.49c-0.086,0.146-0.165,0.285-0.232,0.431c-0.093,0.159-0.172,0.318-0.252,0.483
	c-0.073,0.146-0.146,0.291-0.205,0.438c-0.079,0.159-0.152,0.318-0.219,0.483c-0.066,0.146-0.119,0.285-0.172,0.431
	c-0.073,0.166-0.133,0.325-0.186,0.49c-0.06,0.139-0.106,0.285-0.152,0.431c-0.06,0.159-0.113,0.318-0.152,0.483
	c-0.053,0.146-0.093,0.291-0.133,0.437c-0.046,0.159-0.086,0.325-0.126,0.484c-0.04,0.139-0.073,0.284-0.099,0.431
	c-0.04,0.159-0.073,0.324-0.099,0.49c-0.033,0.139-0.06,0.285-0.079,0.431c-0.033,0.159-0.053,0.318-0.073,0.483
	c-0.027,0.146-0.046,0.292-0.06,0.437c-0.02,0.159-0.033,0.318-0.047,0.484c-0.02,0.146-0.026,0.291-0.033,0.437
	c-0.013,0.159-0.02,0.318-0.02,0.484c-0.013,0.139-0.02,0.285-0.013,0.431c-0.006,0.079-0.006,0.152-0.006,0.232
	c0,0.086,0,0.172,0.006,0.258c0,0.145,0,0.291,0.013,0.43c0,0.166,0.007,0.324,0.02,0.484c0.007,0.146,0.02,0.292,0.04,0.437
	c0.006,0.166,0.02,0.325,0.046,0.484c0.013,0.146,0.033,0.291,0.06,0.431c0.013,0.165,0.04,0.331,0.073,0.49
	c0.02,0.146,0.046,0.292,0.079,0.437c0.027,0.159,0.06,0.318,0.099,0.477c0.026,0.146,0.06,0.291,0.1,0.437
	c0.04,0.166,0.079,0.325,0.126,0.49c0.04,0.145,0.086,0.291,0.133,0.43c0.046,0.166,0.093,0.325,0.159,0.484
	c0.04,0.146,0.086,0.292,0.146,0.431c0.053,0.166,0.119,0.325,0.186,0.49c0.053,0.146,0.112,0.285,0.179,0.431
	c0.066,0.166,0.139,0.325,0.219,0.484c0.06,0.146,0.133,0.292,0.205,0.437c0.08,0.166,0.159,0.325,0.252,0.484
	c0.073,0.145,0.153,0.285,0.232,0.431c0.093,0.166,0.186,0.331,0.292,0.49c0.086,0.146,0.172,0.292,0.271,0.431
	c0.099,0.166,0.206,0.324,0.318,0.483c0.099,0.146,0.205,0.292,0.318,0.437c0.112,0.166,0.238,0.325,0.364,0.484
	c0.113,0.146,0.225,0.291,0.351,0.431c0.133,0.166,0.271,0.331,0.424,0.49c0.126,0.152,0.258,0.291,0.397,0.437
	c0.152,0.159,0.312,0.324,0.471,0.477c0.152,0.152,0.311,0.298,0.464,0.437c0.179,0.172,0.365,0.331,0.556,0.49
	c0.172,0.146,0.344,0.291,0.524,0.43c0.212,0.166,0.424,0.331,0.642,0.484c0.205,0.152,0.417,0.298,0.63,0.437
	c0.252,0.172,0.503,0.331,0.768,0.483c0.245,0.152,0.497,0.298,0.755,0.431c0.311,0.179,0.636,0.338,0.961,0.49
	c0.311,0.152,0.636,0.298,0.96,0.431c0.437,0.179,0.881,0.338,1.332,0.484c0.503,0.172,1.014,0.318,1.537,0.437
	c0.994,0.245,2.02,0.404,3.067,0.484c0.537,0.053,1.073,0.073,1.623,0.073h199.333
	C1262.268,657.807,1263.261,658.25,1263.977,658.972z"/><path fill="#E6E8F0" d="M1162.017,630.47h-102.695c-0.593,0-1.074-0.481-1.074-1.074l0,0c0-0.593,0.481-1.074,1.074-1.074h102.695
	c0.593,0,1.074,0.481,1.074,1.074l0,0C1163.091,629.989,1162.61,630.47,1162.017,630.47z"/><path fill="#E6E8F0" d="M1233.827,650.862h-116.161c-0.593,0-1.074-0.481-1.074-1.074l0,0c0-0.593,0.481-1.074,1.074-1.074h116.161
	c0.593,0,1.074,0.481,1.074,1.074l0,0C1234.901,650.381,1234.42,650.862,1233.827,650.862z"/><path fill="#E6E8F0" d="M1162.017,640.886h-64.986c-0.593,0-1.074-0.481-1.074-1.074l0,0c0-0.593,0.481-1.074,1.074-1.074h64.986
	c0.593,0,1.074,0.481,1.074,1.074l0,0C1163.091,640.405,1162.61,640.886,1162.017,640.886z"/><path fill="#E6E8F0" d="M1087.562,640.885h-29.364c-0.593,0-1.074-0.481-1.074-1.074l0,0c0-0.593,0.481-1.074,1.074-1.074h29.364
	c0.593,0,1.074,0.481,1.074,1.074l0,0C1088.636,640.405,1088.155,640.885,1087.562,640.885z"/><path fill="#E6E8F0" d="M1223.039,640.885h-29.364c-0.593,0-1.074-0.481-1.074-1.074l0,0c0-0.593,0.481-1.074,1.074-1.074h29.364
	c0.593,0,1.074,0.481,1.074,1.074l0,0C1224.113,640.405,1223.632,640.885,1223.039,640.885z"/><path fill="#E6E8F0" d="M1204.867,631.544h-11.192c-0.593,0-1.074-0.481-1.074-1.074l0,0c0-0.593,0.481-1.074,1.074-1.074h11.192
	c0.593,0,1.074,0.481,1.074,1.074l0,0C1205.941,631.063,1205.46,631.544,1204.867,631.544z"/><path fill="#E6E8F0" d="M1107.469,650.862h-11.192c-0.593,0-1.074-0.481-1.074-1.074l0,0c0-0.593,0.481-1.074,1.074-1.074h11.192
	c0.593,0,1.074,0.481,1.074,1.074l0,0C1108.543,650.381,1108.063,650.862,1107.469,650.862z"/><path fill="#E6E8F0" d="M1247.167,640.885h-11.192c-0.593,0-1.074-0.481-1.074-1.074l0,0c0-0.593,0.481-1.074,1.074-1.074h11.192
	c0.593,0,1.074,0.481,1.074,1.074l0,0C1248.241,640.405,1247.76,640.885,1247.167,640.885z"/><polygon fill="#C24E4E" points="1182.419 644.571 1175.716 640.76 1169.013 644.571 1169.013 628.322 1182.419 628.322"/><path fill="#D1E6FF" d="M937.08,873H81.734c-3.884,0-7.033-3.148-7.033-7.033l0,0c0-3.884,3.149-7.033,7.033-7.033H937.08
	c3.884,0,7.033,3.149,7.033,7.033l0,0C944.113,869.852,940.964,873,937.08,873z"/><path fill="#D1E6FF" d="M1281.973,873h-273.101c-3.884,0-7.033-3.148-7.033-7.033l0,0c0-3.884,3.149-7.033,7.033-7.033h273.101
	c3.884,0,7.033,3.149,7.033,7.033l0,0C1289.005,869.852,1285.857,873,1281.973,873z"/><linearGradient id="a" x1="-953.858" x2="-1101.775" y1="392.166" y2="540.083" gradientTransform="matrix(-1 0 0 1 -565.888 0)" gradientUnits="userSpaceOnUse"><stop offset="0" stop-color="#fff"/><stop offset="1"/></linearGradient><path fill="url(#a)" d="M443.712,595.053c60.827-35.709,115.067-81.895,152.961-141.329l-176.973-102.77
	c-14.874,20.318-34.776,40.563-64.469,59.566L443.712,595.053z"/><path fill="#50578A" d="M319.079,743.701c0,11.577-35.037,20.961-78.256,20.961c-43.219,0-78.256-9.384-78.256-20.961
	c0-1.685-0.443-8.697,0.613-11.337c4.589-11.471,40.713-9.624,77.642-9.624c37.245,0,69.591-0.3,77.496,9.036
	C319.587,733.274,319.079,742.101,319.079,743.701z"/><polygon fill="#686E99" points="255.219 730.682 166.572 487.257 345.303 308.526 349.255 312.479 173.044 488.691 260.47 728.771"/><polygon fill="#686E99" points="238.673 727.664 150.026 484.238 328.757 305.509 332.709 309.461 156.497 485.673 243.924 725.753"/><path fill="#686E99" d="M149.426,486.577c0-7.718,6.257-13.974,13.974-13.974c7.718,0,13.974,6.256,13.974,13.974
	c0,7.718-6.256,13.974-13.974,13.974C155.682,500.551,149.426,494.294,149.426,486.577z"/><path fill="#FFF" d="M155.911,486.577c0-4.136,3.353-7.488,7.488-7.488c4.136,0,7.488,3.352,7.488,7.488
	c0,4.135-3.352,7.488-7.488,7.488C159.264,494.065,155.911,490.712,155.911,486.577z"/><path fill="#686E99" d="M347.201,358.621l-30.095-33.074c-7.272-7.992-6.688-20.365,1.303-27.637l0,0
	c7.992-7.272,20.365-6.689,27.636,1.303l30.095,33.074L347.201,358.621z"/><path fill="#525885" d="M318.409,297.91c0.655-0.596,1.343-1.134,2.052-1.625c-5.232,7.338-4.842,17.573,1.469,24.51l30.095,33.074
	l23.935-21.78l0.18,0.198l-28.94,26.334l-30.095-33.074C309.834,317.555,310.417,305.182,318.409,297.91z"/><path fill="#C24E4E" d="M432.906,350.49l-76.148,69.29l-27.427-30.142c-19.135-21.028-17.599-53.584,3.428-72.719h0.001
	c21.027-19.134,53.584-17.599,72.719,3.43L432.906,350.49z"/><path fill="#B34040" d="M332.759,316.92L332.759,316.92c1.629-1.482,3.334-2.825,5.09-4.06
	c-16.042,19.429-15.793,48.192,1.658,67.37l27.427,30.142l65.898-59.963l0.074,0.081l-76.148,69.29l-27.427-30.142
	C310.197,368.61,311.732,336.054,332.759,316.92z"/><ellipse cx="240.824" cy="733.919" fill="#686E99" rx="78.256" ry="20.961"/><path fill="#A83232" d="M357.069,420.428c5.16,5.535,26.246-5.756,47.098-25.208c20.844-19.46,33.555-39.715,28.388-45.25
	c-4.099-4.394-18.231,1.811-34.32,14.301c-4.173,3.231-8.479,6.896-12.777,10.908c-4.298,4.011-8.251,8.052-11.761,11.997
	C360.131,402.358,352.97,416.033,357.069,420.428z"/><path fill="#FFF" d="M373.696,387.174c2.995,2.731,6.977,4.401,11.356,4.401c9.296,0,16.833-7.536,16.833-16.84
	c0-3.96-1.369-7.595-3.651-10.466c-4.173,3.231-8.479,6.896-12.777,10.908C381.159,379.189,377.206,383.23,373.696,387.174z"/><path fill="#686E99" d="M220.158,721.732h43.057v-2.664c0-11.89-9.639-21.528-21.528-21.528l0,0
	c-11.89,0-21.528,9.638-21.528,21.528V721.732z"/><path fill="#50578A" d="M241.686,697.54L241.686,697.54c0.961,0,1.905,0.069,2.832,0.191c-10.55,1.388-18.696,10.408-18.696,21.337
	v2.664h-5.664v-2.664C220.158,707.178,229.797,697.54,241.686,697.54z"/><path fill="#C7E1FF" d="M270.671,182.229c0-9.97,8.082-18.052,18.052-18.052c9.97,0,18.053,8.082,18.053,18.052
	c0,9.97-8.082,18.053-18.053,18.053C278.753,200.281,270.671,192.199,270.671,182.229z"/><circle cx="1070.022" cy="205.557" r="18.052" fill="#C7E1FF" transform="rotate(-79.1 1069.965 205.555)"/><circle cx="349.255" cy="105.052" r="9.319" fill="#C7E1FF" transform="rotate(-22.5 349.24 105.05)"/><circle cx="1298.324" cy="292.816" r="9.319" fill="#C7E1FF" transform="rotate(-80.781 1298.33 292.794)"/><circle cx="1307.643" cy="529.057" r="9.319" fill="#C7E1FF" transform="rotate(-45.001 1307.643 529.075)"/><circle cx="1034.488" cy="124.154" r="9.319" fill="#C7E1FF" transform="rotate(-45.001 1034.491 124.166)"/><path fill="#C7E1FF" d="M122.243,259.347c0-5.147,4.172-9.319,9.319-9.319c5.147,0,9.319,4.172,9.319,9.319
	c0,5.147-4.172,9.319-9.319,9.319C126.415,268.665,122.243,264.493,122.243,259.347z"/><circle cx="84.02" cy="559.022" r="9.319" fill="#C7E1FF" transform="rotate(-7.022 83.977 558.943)"/></svg>