<svg xmlns="http://www.w3.org/2000/svg" enable-background="new 0 0 2000 2000" viewBox="0 0 2000 2000"><path fill="#e9eef8" fill-rule="evenodd" d="M997.8,1484.6c177.3,0,340.5,2.6,469.9,7.1c316.9-181.1,207.1-534.2,93.4-733.8
		C1402.8,479.9,1028.6,380,873.8,601.8c-210.1,301-412.7,196-522.1,424.5c-109.4,228.6,56.8,447.7,176.1,465.4
		C657.3,1487.2,820.5,1484.6,997.8,1484.6L997.8,1484.6z M720.1,713.9c-81.1,61.7-215.3,109.6-259.8,43.9c-33.3-49,7.7-141,88-210.8
		c80.2-69.7,187.7-111.9,246.3-60.6C864.2,547.4,782.6,666.3,720.1,713.9z" clip-rule="evenodd"/><path fill="#d2deec" fill-rule="evenodd" d="M997.8,1484.6c421,0,762.2,14.9,762.2,33.4c0,18.4-341.3,33.4-762.2,33.4c-421,0-762.2-14.9-762.2-33.4
		C235.6,1499.5,576.8,1484.6,997.8,1484.6z" clip-rule="evenodd"/><path fill="#fff" fill-rule="evenodd" d="M1243.6,563.1c190.4,42.4,311.5,217.5,323.4,302c4.9,34.7-4.2-46.5-101.3-120.4
		c-86.8-66-154.4-78.3-257.6-86.3c-73-5.6-149.4-14.6-143.9-58.1C1068.4,565.9,1120.7,535.7,1243.6,563.1L1243.6,563.1z
		 M745.8,492.3c32.8,2,52.7,28.9,54.1,59.9c0.6,13.2-9.8-21.3-46.1-26.1c-22.5-3-25.9,3.7-34-5.6
		C711.7,511.1,719.4,490.7,745.8,492.3z" clip-rule="evenodd"/><path fill="#d2deec" fill-rule="evenodd" d="M506.8,1407.6c-8.7-10.9-20.9-19.9-24.5-33.3c-4.2-15.9,5.1-32.6,2.8-48.9c-2.9-20.5-22.6-33.8-33.3-51.5
		c-10.5-17.3-5.6-23.2-6.5-43.4c-1.4-30.5-26.4-69-59.8-58.7c-33.8,10.5-28.3,41.9-22.4,65.6c4.2,16.8,1.5,19.3-2.6,36.2
		c-5,20.4-21,40.1-14.3,60c4.1,12.3,16.2,20.6,20.6,32.8c4.9,13.9-1,28.9-3.3,43.4c-4.9,30.6,2.1,56,24.3,81.3
		c2.4,2.3,4.9,4.4,7.4,6.3c31.1-1.8,66.2-3.4,104.5-4.8l0.3-0.3C520.3,1470.2,526.3,1432.1,506.8,1407.6z" clip-rule="evenodd"/><path fill="#fff" fill-rule="evenodd" d="M400.8,1199.5c-0.5-1.4-2.1-2.1-3.5-1.5c-1.4,0.5-2.1,2.1-1.5,3.5c2.6,6.9,4.9,14.1,6.8,21.7
		c-0.8-0.7-1.6-1.4-2.4-2c-3.6-2.9-7.8-5.5-12.4-7.6c-1.3-0.6-2.9-0.1-3.6,1.3c-0.6,1.3-0.1,2.9,1.3,3.6c4.2,2,8,4.3,11.3,7
		c3.1,2.5,5.8,5.3,8.1,8.4c3.4,16.3,5.7,33.9,7.7,52.4c-3.1-4.8-6.4-9.1-9.9-13c-6.1-6.6-12.9-11.8-20.3-15.5
		c-1.3-0.7-2.9-0.1-3.6,1.2c-0.7,1.3-0.1,2.9,1.2,3.6c6.8,3.4,13,8.1,18.7,14.3c5.6,6.1,10.7,13.6,15.2,22.5l0.5,5
		c1.1,11,2.3,22.3,3.7,33.9c0,0.1,0,0.2,0,0.3c1.4,12.1,3.1,24.4,5.3,36.9c-5.8-8.9-12-16.8-18.6-23.7c-9.8-10-20.5-17.9-32.1-23.5
		c-1.3-0.6-2.9-0.1-3.6,1.3c-0.6,1.3-0.1,2.9,1.3,3.6c11.1,5.3,21.3,12.8,30.6,22.4c9.3,9.6,17.7,21.2,25.3,35
		c3.3,16.6,7.5,33.5,13,50.6l0,0l0,0.1v0c2.7,8.4,5.8,16.8,9.2,25.3c-8.1-6.9-16.7-12.9-25.8-18c-12.7-7-26.3-12.3-40.8-15.6
		c-1.4-0.3-2.9,0.6-3.2,2c-0.3,1.4,0.6,2.9,2,3.2c14.1,3.3,27.2,8.3,39.4,15.1c12.1,6.7,23.2,15.2,33.5,25.4
		c2.4,5.3,4.9,10.5,7.6,15.8l5.9-0.3c-9.5-18.2-16.9-36.3-22.7-54.3c-1-13,0.5-26.1,4.6-39.1c4.2-13.2,10.9-26.5,20.3-39.7
		c0.9-1.2,0.6-2.9-0.6-3.7c-1.2-0.9-2.9-0.6-3.7,0.6c-9.7,13.7-16.7,27.4-21.1,41.2c-2.5,7.8-4,15.6-4.8,23.4
		c-8-29-12.5-57.3-15.7-84.3c3.1-11.5,6.6-21.1,10.5-29.1c3.8-7.9,8-14,12.5-18.2c1.1-1,1.1-2.7,0.1-3.8c-1-1.1-2.7-1.1-3.8-0.1
		c-5,4.7-9.6,11.3-13.7,19.8c-2.6,5.3-5,11.3-7.2,18c-0.8-7.1-1.5-14.2-2.2-21.1l-0.6-5.4c0-0.1,0-0.2,0-0.3
		C415.5,1261.3,411.6,1227.8,400.8,1199.5z" clip-rule="evenodd"/><path fill="#c4def3" fill-rule="evenodd" d="M417.3,1422c-9.3-5-20.5-7.6-27-16c-7.7-9.8-6.1-24.2-12.5-34.9c-8.1-13.4-25.8-16.8-38.5-26
		c-12.4-9-10.7-14.5-17.4-28.3c-10-20.8-38.9-40.2-59-23.2c-20.5,17.3-7.3,37.6,3.9,52.3c7.9,10.5,6.7,13,8.9,26
		c2.6,15.7-2.8,34.2,7.8,46c6.5,7.3,17.4,9.5,24.1,16.8c7.5,8.2,7.8,20.4,10.5,31.2c3.6,14.3,9.8,25.9,19.7,35.2
		c26.7-2,58-3.9,93.4-5.6c2.7-3.9,4.9-8.1,6.5-12.6C445.2,1461.6,438.1,1433.2,417.3,1422z" clip-rule="evenodd"/><path fill="#fff" fill-rule="evenodd" d="M281.8,1308.4c-0.8-0.8-2.1-0.8-2.9-0.1c-0.8,0.8-0.8,2.1-0.1,2.9c3.9,4,7.6,8.4,11.1,13.1
		c-0.7-0.3-1.5-0.5-2.3-0.7c-3.4-1-7-1.5-10.9-1.7c-1.1,0-2.1,0.8-2.1,1.9c0,1.1,0.8,2.1,1.9,2.1c3.5,0.1,6.9,0.6,9.9,1.5
		c2.9,0.8,5.6,2,8.2,3.5c7.2,10.4,14,21.9,20.8,34.2c-3.6-2.4-7.2-4.5-10.7-6.1c-6.2-2.8-12.5-4.4-18.7-4.8
		c-1.1-0.1-2.1,0.8-2.1,1.9c-0.1,1.1,0.8,2.1,1.9,2.1c5.7,0.3,11.5,1.8,17.3,4.4c5.8,2.6,11.5,6.3,17.3,11.2l1.8,3.3
		c4.1,7.3,8.2,14.9,12.6,22.5c0,0.1,0.1,0.1,0.1,0.2c4.6,8,9.4,16.1,14.6,24.2c-6.7-4.5-13.3-8.2-20-11c-9.8-4.1-19.5-6.4-29.3-6.8
		c-1.1-0.1-2.1,0.8-2.1,1.9c-0.1,1.1,0.8,2.1,1.9,2.1c9.3,0.4,18.6,2.6,27.9,6.5c9.3,3.9,18.6,9.5,28,16.9
		c7.2,10.6,15.1,21.1,24.1,31.4l0,0l0,0l0,0c4.4,5,9,10,13.9,14.9c-7.7-2.4-15.5-4.1-23.3-4.9c-10.9-1.2-21.9-0.8-33,1.2
		c-1.1,0.2-1.8,1.2-1.6,2.3c0.2,1.1,1.2,1.8,2.3,1.6c10.8-1.9,21.4-2.3,31.9-1.2c10.4,1.1,20.7,3.7,30.9,7.7c3.5,3.2,7.2,6.4,11,9.6
		l6-0.3c-13.2-10.6-24.7-21.9-34.9-33.5c-4.6-8.8-7.3-18.3-8.4-28.6c-1-10.4-0.2-21.7,2.4-33.7c0.2-1.1-0.5-2.2-1.5-2.4
		c-1.1-0.2-2.2,0.5-2.4,1.5c-2.7,12.4-3.5,24.1-2.5,34.9c0.6,6.2,1.8,12.1,3.6,17.7c-14.2-17.8-25.7-36.2-35.9-54.1
		c-1.2-8.9-1.6-16.7-1.3-23.4c0.3-6.6,1.5-12.1,3.3-16.4c0.4-1,0-2.2-1-2.7c-1-0.4-2.2,0-2.7,1c-2.1,4.8-3.3,10.7-3.7,17.8
		c-0.2,4.4-0.1,9.3,0.3,14.7c-2.7-4.7-5.3-9.4-7.8-14l-2-3.6c0-0.1-0.1-0.1-0.1-0.2C310.3,1347.1,297.7,1324.9,281.8,1308.4z" clip-rule="evenodd"/><path fill="#d2deec" fill-rule="evenodd" d="M1455.1,1397.3c9.5-11.9,22.8-21.7,26.7-36.4c4.6-17.3-5.6-35.6-3-53.3c3.2-22.4,24.7-36.8,36.4-56.2
		c11.4-18.9,6.1-25.3,7.1-47.4c1.6-33.3,28.9-75.3,65.2-64c36.9,11.5,30.9,45.8,24.4,71.6c-4.6,18.4-1.6,21,2.9,39.5
		c5.4,22.2,23,43.8,15.6,65.5c-4.5,13.4-17.7,22.5-22.5,35.8c-5.4,15.1,1.1,31.5,3.7,47.4c5.3,33.4-2.3,61.1-26.6,88.7
		c-2.9,2.8-6,5.4-9.2,7.7c-33.5-1.7-71-3.3-111.7-4.6c-0.6-0.6-1.1-1.2-1.7-1.8C1440.4,1465.6,1433.8,1424,1455.1,1397.3z" clip-rule="evenodd"/><path fill="#fff" fill-rule="evenodd" d="M1570.8,1170.1c0.6-1.5,2.3-2.3,3.8-1.7c1.5,0.6,2.3,2.3,1.7,3.8c-2.9,7.5-5.3,15.4-7.4,23.7
		c0.8-0.8,1.7-1.5,2.6-2.2c4-3.2,8.5-6,13.5-8.3c1.5-0.7,3.2-0.1,3.9,1.4c0.7,1.5,0.1,3.2-1.4,3.9c-4.6,2.2-8.7,4.7-12.3,7.6
		c-3.4,2.7-6.4,5.8-8.9,9.2c-3.7,17.8-6.2,37-8.4,57.1c3.4-5.3,7-10,10.8-14.1c6.7-7.2,14-12.9,22.1-16.9c1.4-0.7,3.2-0.1,3.9,1.3
		c0.7,1.4,0.1,3.2-1.3,3.9c-7.4,3.7-14.2,8.9-20.4,15.6c-6.2,6.7-11.7,14.9-16.6,24.6l-0.6,5.5c-1.2,12-2.5,24.4-4,37
		c0,0.1,0,0.2,0,0.4c-1.6,13.2-3.4,26.6-5.7,40.3c6.3-9.7,13.1-18.3,20.3-25.8c10.6-11,22.3-19.5,35-25.6c1.5-0.7,3.2-0.1,3.9,1.4
		c0.7,1.5,0.1,3.2-1.4,3.9c-12.1,5.8-23.2,14-33.4,24.4c-10.1,10.4-19.3,23.2-27.6,38.2c-3.6,18.1-8.2,36.6-14.2,55.2l0,0l0,0.1l0,0
		c-3,9.2-6.3,18.3-10.1,27.6c8.8-7.6,18.2-14.1,28.1-19.6c13.8-7.7,28.7-13.4,44.5-17c1.6-0.4,3.1,0.6,3.5,2.2
		c0.4,1.6-0.6,3.1-2.2,3.5c-15.4,3.6-29.7,9-43,16.4c-13.2,7.3-25.4,16.6-36.6,27.7c-2.8,6.1-5.7,12.3-8.9,18.4l-6.4-0.3
		c10.6-20.3,18.9-40.5,25.4-60.4c1.1-14.2-0.6-28.5-5.1-42.7c-4.5-14.4-11.9-28.9-22.2-43.3c-0.9-1.3-0.6-3.1,0.7-4.1
		c1.3-0.9,3.1-0.6,4.1,0.7c10.6,15,18.3,29.9,23,44.9c2.7,8.5,4.4,17,5.2,25.6c8.8-31.6,13.6-62.5,17.1-92
		c-3.4-12.5-7.2-23.1-11.5-31.7c-4.2-8.6-8.8-15.2-13.7-19.9c-1.2-1.1-1.2-2.9-0.1-4.1c1.1-1.2,2.9-1.2,4.1-0.1
		c5.5,5.2,10.4,12.4,14.9,21.6c2.8,5.7,5.4,12.3,7.9,19.7c0.9-7.8,1.6-15.5,2.4-23l0.6-5.9c0-0.1,0-0.2,0-0.3
		C1554.8,1237.6,1559,1201.1,1570.8,1170.1z" clip-rule="evenodd"/><path fill="#c4def3" fill-rule="evenodd" d="M1552.8,1413c10.1-5.5,22.3-8.3,29.4-17.4c8.4-10.7,6.7-26.4,13.7-38c8.8-14.6,28.1-18.3,42-28.3
		c13.6-9.8,11.7-15.8,19-30.9c11-22.7,42.4-43.9,64.4-25.3c22.3,18.9,8,41-4.2,57.1c-8.7,11.4-7.3,14.2-9.7,28.3
		c-2.8,17.1,3,37.3-8.5,50.2c-7.1,8-19,10.4-26.3,18.3c-8.2,8.9-8.5,22.3-11.5,34.1c-4,15.9-10.9,28.6-22,38.8
		c-29.1-2-62.9-3.8-100.7-5.5c-3.3-4.5-6-9.5-7.9-14.8C1522.3,1456.2,1530,1425.2,1552.8,1413z" clip-rule="evenodd"/><path fill="#fff" fill-rule="evenodd" d="M1700.7,1289c0.8-0.9,2.2-0.9,3.1-0.1c0.9,0.8,0.9,2.2,0.1,3.1c-4.2,4.4-8.3,9.2-12.2,14.3
		c0.8-0.3,1.6-0.5,2.5-0.8c3.7-1,7.7-1.7,11.9-1.8c1.2,0,2.2,0.9,2.3,2.1c0,1.2-0.9,2.2-2.1,2.3c-3.9,0.2-7.5,0.7-10.8,1.7
		c-3.2,0.9-6.2,2.2-8.9,3.8c-7.9,11.3-15.2,23.9-22.8,37.3c3.9-2.7,7.8-4.9,11.7-6.6c6.8-3.1,13.6-4.8,20.4-5.2
		c1.2-0.1,2.3,0.9,2.3,2.1c0.1,1.2-0.9,2.3-2.1,2.3c-6.2,0.4-12.5,2-18.9,4.8c-6.3,2.8-12.6,6.9-18.9,12.2l-2,3.6
		c-4.4,8-9,16.2-13.8,24.6c0,0.1-0.1,0.2-0.1,0.2c-5,8.7-10.3,17.5-15.9,26.4c7.3-4.9,14.5-8.9,21.8-11.9c10.7-4.5,21.3-7,32-7.5
		c1.2-0.1,2.3,0.9,2.3,2.1c0.1,1.2-0.9,2.3-2.1,2.3c-10.1,0.5-20.3,2.8-30.5,7.1c-10.2,4.3-20.3,10.4-30.5,18.5
		c-7.9,11.6-16.5,23.1-26.3,34.3l0,0l0,0l0,0c-4.8,5.5-9.8,10.9-15.2,16.2c8.4-2.7,16.9-4.4,25.4-5.4c11.9-1.3,23.9-0.8,36.1,1.3
		c1.2,0.2,2,1.4,1.8,2.6c-0.2,1.2-1.4,2-2.6,1.8c-11.8-2.1-23.4-2.5-34.8-1.3c-11.3,1.2-22.6,4-33.7,8.5c-4.2,3.9-8.5,7.6-13.1,11.4
		l-6.7-0.3c14.9-11.8,27.8-24.4,39.2-37.5c5-9.6,8-20,9.1-31.2c1.1-11.4,0.2-23.6-2.6-36.8c-0.3-1.2,0.5-2.4,1.7-2.6
		c1.2-0.3,2.4,0.5,2.6,1.7c3,13.6,3.9,26.3,2.7,38.1c-0.7,6.7-2,13.2-4,19.3c15.5-19.4,28-39.5,39.2-59c1.3-9.7,1.8-18.2,1.4-25.5
		c-0.4-7.2-1.6-13.2-3.6-17.9c-0.5-1.1,0-2.4,1.1-2.9c1.1-0.5,2.4,0,2.9,1.1c2.3,5.2,3.6,11.7,4,19.5c0.3,4.8,0.1,10.2-0.3,16
		c2.9-5.2,5.7-10.3,8.5-15.3l2.2-3.9c0-0.1,0.1-0.1,0.1-0.2C1669.5,1331.2,1683.3,1307.1,1700.7,1289z" clip-rule="evenodd"/><path fill="#fff" fill-rule="evenodd" d="M942.4,685.1c-2.7,37.4-8.2,42.6-43.9,45.5c35.7,2.9,41.2,8,43.9,45.5c2.7-37.4,8.3-42.6,43.9-45.5
		C950.7,727.7,945.2,722.5,942.4,685.1L942.4,685.1z M1087.6,783.8c-1.5,20-4.4,22.7-23.5,24.3c19.1,1.5,22,4.3,23.5,24.3
		c1.5-20,4.4-22.7,23.5-24.3C1092,806.6,1089,803.8,1087.6,783.8L1087.6,783.8z M1024,630c-1.5,20.2-4.5,23-23.8,24.6
		c19.3,1.6,22.3,4.4,23.8,24.6c1.5-20.2,4.5-23,23.8-24.6C1028.5,653,1025.5,650.2,1024,630z" clip-rule="evenodd"/><path fill="#fff" fill-rule="evenodd" d="M889.8,1299c2.2,30.3,6.7,34.5,35.6,36.9c-28.9,2.3-33.4,6.5-35.6,36.9c-2.2-30.3-6.7-34.5-35.6-36.9
		C883.1,1333.5,887.6,1329.3,889.8,1299L889.8,1299z M772.3,1379c1.2,16.2,3.6,18.4,19,19.7c-15.4,1.2-17.8,3.5-19,19.7
		c-1.2-16.2-3.6-18.4-19-19.7C768.7,1397.4,771.1,1395.2,772.3,1379L772.3,1379z M823.8,1254.3c1.2,16.4,3.6,18.7,19.3,19.9
		c-15.6,1.3-18.1,3.5-19.3,19.9c-1.2-16.4-3.6-18.7-19.3-19.9C820.1,1273,822.6,1270.7,823.8,1254.3z" clip-rule="evenodd"/><path fill="#fff" fill-rule="evenodd" d="M1351.8,1224.2c-1.7,23.2-5.1,26.4-27.3,28.2c22.1,1.8,25.6,5,27.3,28.2c1.7-23.2,5.1-26.4,27.3-28.2
		C1356.9,1250.6,1353.5,1247.4,1351.8,1224.2L1351.8,1224.2z M1441.8,1285.4c-0.9,12.4-2.7,14.1-14.6,15.1
		c11.8,1,13.6,2.7,14.6,15.1c0.9-12.4,2.7-14.1,14.6-15.1C1444.6,1299.5,1442.7,1297.8,1441.8,1285.4L1441.8,1285.4z M1402.4,1190
		c-0.9,12.6-2.8,14.3-14.7,15.3c12,1,13.8,2.7,14.7,15.3c0.9-12.6,2.8-14.3,14.7-15.3C1405.2,1204.3,1403.3,1202.6,1402.4,1190z" clip-rule="evenodd"/><path fill="#fff" fill-rule="evenodd" d="M671.5,845l-8.7,5.1c-2.9,1.7-3.9,5.5-2.2,8.4l1.9,3.3c2.3,3.9,1.3,5.7,0.6,6.3c-1.9,1.7-3.7,3.6-5.5,5.5
	c-0.5,0.6-2.2,2.4-6.6-0.1l-3-1.8c-2.9-1.7-6.7-0.7-8.4,2.2l-5.1,8.7c-1.7,2.9-0.7,6.7,2.2,8.4l3,1.7c4.2,2.4,4,3.7,3.5,5.4
	c-0.7,2.4-1.5,4.8-2,7.3c-0.5,2.2-0.3,3.8-5.9,3.8h-3.5c-3.4,0-6.2,2.8-6.2,6.2v10.1c0,3.4,2.8,6.2,6.2,6.2h3.5
	c5.6,0,5.4,1.6,5.9,3.8c0.5,2.5,1.3,4.9,2,7.3c0.5,1.8,0.6,3-3.5,5.4l-3,1.7c-2.9,1.7-3.9,5.5-2.2,8.4l5.1,8.7
	c1.7,2.9,5.5,3.9,8.4,2.2l3-1.8c4.4-2.6,6.1-0.7,6.6-0.1c1.8,1.9,3.6,3.8,5.5,5.5c0.7,0.6,1.7,2.4-0.6,6.3l-1.9,3.3
	c-1.7,2.9-0.7,6.7,2.2,8.4l8.7,5.1c2.9,1.7,6.7,0.7,8.4-2.2l1.9-3.3c2.3-4,4.6-3.8,5.5-3.5c2.8,0.9,5.3,1.5,8.2,2.2
	c1,0.3,2.8,1,2.8,5.7v3.5c0,3.4,2.8,6.2,6.2,6.2h10.1c3.4,0,6.2-2.8,6.2-6.2v-3.5c0-4.7,1.8-5.5,2.8-5.7c2.9-0.7,5.4-1.3,8.2-2.2
	c1-0.3,3.2-0.5,5.5,3.5l1.9,3.3c1.7,2.9,5.5,3.9,8.4,2.2l8.7-5.1c2.9-1.7,3.9-5.5,2.2-8.4l-1.9-3.3c-2.3-3.9-1.3-5.7-0.6-6.3
	c1.9-1.7,3.7-3.6,5.5-5.5c0.5-0.6,2.2-2.4,6.6,0.1l3,1.8c2.9,1.7,6.7,0.7,8.4-2.2l5.1-8.7c1.7-2.9,0.7-6.7-2.2-8.4l-3-1.7
	c-4.1-2.4-4-3.6-3.5-5.4c0.7-2.4,1.5-4.8,2-7.3c0.5-2.2,0.3-3.8,5.9-3.8h3.5c3.4,0,6.2-2.8,6.2-6.2v-10.1c0-3.4-2.8-6.2-6.2-6.2
	h-3.5c-5.6,0-5.4-1.6-5.9-3.8c-0.5-2.5-1.3-4.9-2-7.3c-0.5-1.8-0.6-3,3.5-5.4l3-1.7c2.9-1.7,3.9-5.5,2.2-8.4l-5.1-8.7
	c-1.7-2.9-5.5-3.9-8.4-2.2l-3,1.8c-4.4,2.6-6.1,0.7-6.6,0.1c-1.8-1.9-3.6-3.8-5.5-5.5c-0.7-0.6-1.7-2.4,0.6-6.3l1.9-3.3
	c1.7-2.9,0.7-6.7-2.2-8.4l-8.7-5.1c-2.9-1.7-6.7-0.7-8.4,2.2l-1.9,3.3c-2.3,4-4.6,3.8-5.5,3.5c-2.8-0.9-5.3-1.5-8.2-2.2
	c-1-0.3-2.8-1-2.8-5.7v-3.5c0-3.4-2.8-6.2-6.2-6.2h-10.1c-3.4,0-6.2,2.8-6.2,6.2v3.5c0,4.7-1.8,5.5-2.8,5.7
	c-2.9,0.7-5.4,1.3-8.2,2.2c-1,0.3-3.2,0.5-5.5-3.5l-1.9-3.3C678.2,844.3,674.4,843.3,671.5,845L671.5,845z M709.6,907.3
	c7.3,0,13.3,6,13.3,13.3c0,7.3-6,13.3-13.3,13.3c-7.3,0-13.3-6-13.3-13.3C696.3,913.3,702.3,907.3,709.6,907.3L709.6,907.3z
	 M667.9,920.6c0-1.6,1.3-2.8,2.8-2.8c1.6,0,2.8,1.3,2.8,2.8c0,9.9,4,18.9,10.5,25.5c6.5,6.5,15.5,10.5,25.5,10.5
	c1.6,0,2.8,1.3,2.8,2.8c0,1.6-1.3,2.8-2.8,2.8c-11.5,0-21.9-4.7-29.5-12.2C672.6,942.5,667.9,932.1,667.9,920.6L667.9,920.6z
	 M750.8,913.9c0.2,1.5-0.8,3-2.4,3.2c-1.5,0.2-3-0.8-3.2-2.4c-1.2-7.5-4.8-14.3-9.9-19.5c-5.2-5.2-11.9-8.8-19.4-10.1
	c-1.5-0.3-2.6-1.7-2.3-3.3c0.3-1.5,1.7-2.6,3.3-2.3c8.7,1.5,16.5,5.7,22.5,11.7C745.2,897.3,749.3,905.1,750.8,913.9L750.8,913.9z
	 M709.6,871.2c27.3,0,49.4,22.1,49.4,49.4c0,27.3-22.1,49.4-49.4,49.4c-27.3,0-49.4-22.1-49.4-49.4
	C660.2,893.3,682.3,871.2,709.6,871.2z" clip-rule="evenodd"/><path fill="#bcdbf3" fill-rule="evenodd" d="M1207.4,590.7l-14.7,8.6c-5,2.9-6.7,9.3-3.8,14.3l3.3,5.6c3.8,6.6,2.2,9.6,1,10.6c-3.3,2.9-6.3,6.1-9.4,9.3
	c-0.9,0.9-3.7,4.1-11.2-0.2l-5.1-3c-5-2.9-11.4-1.2-14.3,3.8l-8.6,14.7c-2.9,5-1.2,11.4,3.8,14.3l5.1,3c7,4.1,6.8,6.2,6,9.2
	c-1.2,4.1-2.5,8.2-3.4,12.4c-0.8,3.8-0.4,6.5-10,6.5h-5.9c-5.8,0-10.4,4.7-10.4,10.4v17c0,5.8,4.7,10.4,10.4,10.4h5.9
	c9.6,0,9.2,2.7,10,6.5c0.9,4.2,2.2,8.3,3.4,12.4c0.9,3,1.1,5.1-6,9.2l-5.1,3c-5,2.9-6.7,9.3-3.8,14.3l8.6,14.7
	c2.9,5,9.3,6.7,14.3,3.8l5.1-3c7.5-4.4,10.3-1.2,11.2-0.2c3.1,3.2,6.1,6.4,9.4,9.3c1.2,1.1,2.9,4-1,10.6l-3.3,5.6
	c-2.9,5-1.2,11.4,3.8,14.3l14.7,8.6c5,2.9,11.4,1.2,14.3-3.8l3.2-5.6c3.9-6.7,7.7-6.4,9.3-5.9c4.7,1.5,9,2.5,13.9,3.7
	c1.8,0.5,4.8,1.7,4.8,9.7v6c0,5.8,4.7,10.4,10.4,10.4h17c5.8,0,10.4-4.7,10.4-10.4v-6c0-8,3-9.3,4.8-9.7c4.8-1.3,9.2-2.2,13.9-3.7
	c1.6-0.5,5.5-0.8,9.3,5.9l3.2,5.6c2.9,5,9.3,6.7,14.3,3.8l14.7-8.6c5-2.9,6.7-9.3,3.8-14.3l-3.3-5.6c-3.8-6.6-2.2-9.6-1-10.6
	c3.3-2.9,6.3-6.1,9.4-9.3c0.9-0.9,3.7-4.1,11.2,0.2l5.1,3c5,2.9,11.4,1.2,14.3-3.8l8.6-14.7c2.9-5,1.2-11.4-3.8-14.3l-5.1-3
	c-7-4.1-6.8-6.2-6-9.2c1.2-4.1,2.5-8.2,3.4-12.4c0.8-3.8,0.4-6.5,10-6.5h5.9c5.8,0,10.4-4.7,10.4-10.4v-17c0-5.8-4.7-10.4-10.4-10.4
	h-5.9c-9.6,0-9.2-2.7-10-6.5c-0.9-4.2-2.2-8.3-3.4-12.4c-0.9-3-1.1-5.1,6-9.2l5.1-3c5-2.9,6.7-9.3,3.8-14.3l-8.6-14.7
	c-2.9-5-9.3-6.7-14.3-3.8l-5.1,3c-7.5,4.4-10.3,1.2-11.2,0.2c-3.1-3.2-6.1-6.4-9.4-9.3c-1.2-1.1-2.9-4,1-10.6l3.3-5.6
	c2.9-5,1.2-11.4-3.8-14.3l-14.7-8.6c-5-2.9-11.4-1.2-14.3,3.8l-3.2,5.6c-3.9,6.7-7.7,6.4-9.3,5.9c-4.7-1.5-9-2.5-13.9-3.7
	c-1.8-0.5-4.8-1.7-4.8-9.7v-6c0-5.8-4.7-10.4-10.4-10.4h-17c-5.8,0-10.4,4.7-10.4,10.4v6c0,8-3,9.3-4.8,9.7
	c-4.8,1.3-9.2,2.2-13.9,3.7c-1.6,0.5-5.5,0.8-9.3-5.9l-3.2-5.6C1218.8,589.5,1212.4,587.8,1207.4,590.7L1207.4,590.7z M1272,696.1
	c12.4,0,22.5,10.1,22.5,22.5c0,12.4-10.1,22.5-22.5,22.5c-12.4,0-22.5-10.1-22.5-22.5C1249.5,706.2,1259.5,696.1,1272,696.1
	L1272,696.1z M1201.4,718.6c0-2.7,2.2-4.8,4.8-4.8c2.7,0,4.8,2.2,4.8,4.8c0,16.8,6.8,32,17.8,43.1c11,11,26.2,17.8,43.1,17.8
	c2.7,0,4.8,2.2,4.8,4.8c0,2.7-2.2,4.8-4.8,4.8c-19.5,0-37.1-7.9-49.9-20.7C1209.3,755.7,1201.4,738.1,1201.4,718.6L1201.4,718.6z
	 M1341.6,707.2c0.4,2.6-1.4,5.1-4,5.5c-2.6,0.4-5.1-1.4-5.5-4c-2.1-12.8-8.1-24.2-16.8-33c-8.7-8.8-20.1-15-32.9-17.2
	c-2.6-0.4-4.4-2.9-3.9-5.5c0.4-2.6,2.9-4.4,5.5-3.9c14.8,2.5,27.9,9.7,38,19.9C1332.2,679.2,1339.2,692.4,1341.6,707.2L1341.6,707.2
	z M1272,635c46.2,0,83.6,37.4,83.6,83.6c0,46.2-37.4,83.6-83.6,83.6c-46.2,0-83.6-37.4-83.6-83.6C1188.4,672.4,1225.8,635,1272,635z
	" clip-rule="evenodd"/><path fill="#d2deec" fill-rule="evenodd" d="M645.1,1258.2c-17.3,15.8-9.8,31.5,3,60.8c12.8,29.3,15,137.4,15,137.4l-10.5-1.5c0,0,1.5-111.1-12.8-141.2
		c-14.3-30-20.3-45.1-33-35.3C594.1,1288.2,645.1,1258.2,645.1,1258.2z" clip-rule="evenodd"/><path fill="#c4def3" fill-rule="evenodd" d="M654.6,1237.8c-2.1-9.3-14.6-19.5-31.2-28c2.5,13.8,10.4,36.3,2.2,40.9c-11.1,6.2-1.1-25.2-5.4-42.5
		c-15.6-7.6-34.5-13.9-51.8-17c0,0.1,0,0.1,0.1,0.2c9.8,24.8,22.5,34.5,17.3,38.3c-3.9,2.8-16.8-25.8-33.8-40.5
		c-12.8-0.7-23.6,1-29.9,6.1c-9.9,7.8-16.5,14.8-6.6,38.6c5.7,4.1,13,7,21.6,7.8c22.5,2.3,33,3,17.3,10.5
		c-7.7,3.7-20.6-0.2-31.2-2.6c3.4,6.3,7.6,13.4,12.7,21.5c3.2,5.1,6.8,9.6,10.6,13.4c7.3,1.4,13.6,1.4,16.9,0
		c10.5-4.5,37.5-18.8,44.3-12.8c6.6,5.9-50.1,9.6-46.1,24.5c27.5,15.8,58.9,8.3,64.5-6.2C633.4,1270.5,660.9,1265.9,654.6,1237.8z" clip-rule="evenodd"/><path fill="#d2deec" fill-rule="evenodd" d="M597.8,1344.6c30-22.5,60.8-1.5,76.6,22.5c15.8,24,4.5,78.1,4.5,78.1s-6,0-6-2.2c0-2.3,16.5-63.8-22.5-91.6
		c-24.4-17.4-42-9-44.3-0.7c-2.3,8.3,9.8,23.3,9.8,23.3L597.8,1344.6z" clip-rule="evenodd"/><path fill="#d2deec" fill-rule="evenodd" d="M666.9,1298.3c-30,0-39.8,46.6-31.5,73.6c8.3,27,19.5,77.3,19.5,77.3l7.5-7.5c0,0-28.5-70.6-21.8-102.1
		c6.8-31.5,23.3-36.8,26.3-36.8C669.9,1302.8,666.9,1298.3,666.9,1298.3z" clip-rule="evenodd"/><path fill="#d2deec" fill-rule="evenodd" d="M641.7,1372.1c-2.1-2.8-4.7-5.1-7.9-6.7c0.4,2.2,0.9,4.4,1.6,6.4c3.8,12.3,8.1,29.5,11.8,44.5
		c0.3-1.9,0.8-4.9,1.6-9.5c0.2-1.1,0.3-2.3,0.4-3.5C646.3,1393.4,643.5,1382.5,641.7,1372.1z" clip-rule="evenodd"/><path fill="#c4def3" fill-rule="evenodd" d="M633.5,1372.3c-57.1-24-27-57-77.3-35.2c-3.5,1.5-7.9,5.4-12.2,10.7c4.5,1.3,9.9,2.2,15.9,1.3
		c15-2.3,9.8,9.8-15,12.8c-4.7,0.6-8.5,1.3-11.6,2.4c-11.8,22.7-17.1,52.5,7.9,62.9c4.9,2,11,3.2,17.8,3.7c7.7-6.1-1.9-41.6,10-36.7
		c11.4,4.7-3.6,30.4-1.5,36.9c11.3-0.2,23.7-2,35.6-5c4.7-2.6,8.3-6.2,9.4-10.8c3.8-15.8-21-25.5-21.8-39.1
		c-0.7-12.4,9.1,27.3,35,33.2C649.1,1398.4,660.2,1383.5,633.5,1372.3z" clip-rule="evenodd"/><path fill="#c4def3" fill-rule="evenodd" d="M674.2,1329.8c-6-12.8,9.8-15.8,9-6c-0.6,8.7-0.7,29.7,8.1,35.4c15.3-1.7,36.1-7.8,51.9-17.2
		c0.2-1.3,0-2.6-0.7-3.9c-6.8-13.5-50.3-24.8-36.8-29.3c10.8-3.6,29.6,17.6,44.8,28.3c9.1-6.9,15.2-15.2,15.2-24.4
		c0-12.5-15.2-26.6-34.8-33.4c-8.8,0.9-17,5.7-29.8,13c-18.9,10.7-14.5-6.6,3.3-16.9c-15.4,0.8-30.8,7.4-42.2,23.1
		c0,0,1.1,6.7-6,17.2c-19.4,28.4,3,45,29.8,43.9C684.6,1352.1,678.3,1338.6,674.2,1329.8z" clip-rule="evenodd"/><path fill="#d2deec" fill-rule="evenodd" d="M599.6,1343.3c-14.7,11.3-31,24.6-51,33.6c-20,9-16,38.4-16,38.4s-3-25.4,13.7-34c16.7-8.7,27.7-19,40.4-21
		c12.7-2,19.7-4,19.7-4s-4-8-1.7-11C607,1342.2,599.6,1343.3,599.6,1343.3z" clip-rule="evenodd"/><path fill="#d2deec" fill-rule="evenodd" d="M527.3,1210c53.7,14.4,93.1,48.7,100.5,57.1c7.3,8.3,7.3,10.7,7.3,10.7l-5.7,10.7l-2.7-1.3c0,0,4.3-9-7-20.7
		c-19.6-20.1-43.4-36-59.7-43.1C543.6,1216.4,527.3,1210,527.3,1210z" clip-rule="evenodd"/><path fill="#d2deec" fill-rule="evenodd" d="M675.6,1507.5h-20.5c-14.6,0-26.4-11.8-26.4-26.4v-47.2H702v47.2C702,1495.6,690.2,1507.5,675.6,1507.5z" clip-rule="evenodd"/><rect width="73.4" height="5.2" x="628.6" y="1442.3" fill="#fff" fill-rule="evenodd" clip-rule="evenodd"/><rect width="73.4" height="3" x="628.6" y="1451.7" fill="#fff" fill-rule="evenodd" clip-rule="evenodd"/><polygon fill="#bcdbf3" fill-rule="evenodd" points="549 1020.2 520.4 946.1 479.8 968.8 530.7 1031.3 530.2 1032.2 455.2 1018.8 455.2 1064.4 531.1 1051 531.6 1051.9 479.8 1114.4 518.2 1138 548.1 1063 549 1062.1 578 1137.6 619 1114.4 566.8 1053.2 567.3 1051.9 644.5 1064.4 644.5 1018.8 567.3 1032.7 567.3 1031.3 619 968.4 578.9 945.6 550.3 1020.2" clip-rule="evenodd"/><polygon fill="#fff" fill-rule="evenodd" points="1010.3 1399.4 990 1346.9 961.3 1363.1 997.3 1407.3 997 1408 943.9 1398.5 943.9 1430.7 997.6 1421.2 997.9 1421.9 961.3 1466.1 988.5 1482.9 1009.6 1429.8 1010.3 1429.1 1030.8 1482.6 1059.9 1466.1 1022.9 1422.8 1023.2 1421.9 1077.9 1430.7 1077.9 1398.5 1023.2 1408.3 1023.2 1407.3 1059.9 1362.7 1031.4 1346.6 1011.2 1399.4" clip-rule="evenodd"/><path fill="#97c1e7" fill-rule="evenodd" d="M1128.8,585.3H815.2c-30.2,0-54.9,24.7-54.9,54.9V735h0l0,0c-5,0-9.1,4.1-9.1,9.1v77.1c0,5,4.1,9.1,9.1,9.1l0,0
	h0v489.6c0,30.2,24.7,54.9,54.9,54.9h313.6c30.2,0,54.9-24.7,54.9-54.9V904.8c0.3,0,0.5,0,0.8,0l0,0c5,0,9.1-4.1,9.1-9.1v-77.1
	c0-5-4.1-9.1-9.1-9.1l0,0c-0.3,0-0.5,0-0.8,0v-26.2c0.3,0,0.5,0,0.8,0l0,0c5,0,9.1-4.1,9.1-9.1V697c0-5-4.1-9.1-9.1-9.1l0,0
	c-0.3,0-0.5,0-0.8,0v-47.8C1183.8,610,1159.1,585.3,1128.8,585.3z" clip-rule="evenodd"/><path fill="#a4ccec" fill-rule="evenodd" d="M1128.8,599.9H815.2c-22.2,0-40.3,18.1-40.3,40.3v679.7c0,22.2,18.1,40.3,40.3,40.3h313.6
	c22.2,0,40.3-18.1,40.3-40.3V640.2C1169.1,618.1,1151,599.9,1128.8,599.9z" clip-rule="evenodd"/><path fill="#eef8fd" fill-rule="evenodd" d="M1129.2,614.9c-102.8,0-210.8,0-313.6,0c-13.1,0-23.8,10.7-23.8,23.8v680.3c0,13.1,10.7,23.8,23.8,23.8h313.6
	c13.1,0,23.8-10.7,23.8-23.8V638.6C1153,625.6,1142.3,614.9,1129.2,614.9z" clip-rule="evenodd"/><circle cx="814.6" cy="640.1" r="10" fill="#97c1e7" fill-rule="evenodd" clip-rule="evenodd"/><path fill="#d7e4f1" fill-rule="evenodd" d="M900.7,607h173.2c1.2,0,2.1,0.6,2.1,1.3v0c0,0.7-1,1.3-2.1,1.3H900.7c-1.2,0-2.1-0.6-2.1-1.3v0
	C898.6,607.6,899.5,607,900.7,607L900.7,607z M887.9,607h-17c-1.2,0-2.1,0.6-2.1,1.3v0c0,0.7,1,1.3,2.1,1.3h17
	c1.2,0,2.1-0.6,2.1-1.3v0C890.1,607.6,889.1,607,887.9,607z" clip-rule="evenodd"/><path fill="#97c1e7" fill-rule="evenodd" d="M861.5,747.2h7.2V732h2.4c3.4,0,4.9,1.5,5.9,6.4c0.9,4.5,1.8,7.8,2.3,8.9h7.4c-0.7-1.4-1.7-5.9-2.8-10.4
	c-0.9-3.8-2.3-6.4-5-7.4v-0.1c3.5-1.4,6.5-4.7,6.5-9.3c0-10.1-9.6-10.7-14.3-10.7c-3.7,0-7.2,0.3-9.7,0.8V747.2L861.5,747.2z
	 M868.7,715.2c0.6-0.2,1.7-0.3,3.3-0.3c2.6,0,6.3,0.9,6.3,5.8c0,3.6-2.5,6-6.6,6h-3V715.2L868.7,715.2z M898.7,741.2v-10.5H911v-5.9
	h-12.3v-9.1h13v-6.1h-20.2v37.6h21v-6.1H898.7L898.7,741.2z M933,726.3v5.7h5.4v9.2c-0.6,0.3-2,0.5-3.7,0.5
	c-6.2,0-10.9-4.4-10.9-13.1c0-9.1,5.1-13.2,11.8-13.2c3.3,0,5.5,0.6,7.2,1.4l1.5-6c-1.8-0.9-5-1.6-8.8-1.6
	c-10.8,0-19.3,6.8-19.3,19.5c0,6,1.9,11.1,5.1,14.3c3.2,3.1,7.5,4.6,13.2,4.6c4.3,0,8.5-1,10.7-1.9v-19.5H933L933,726.3z M959,747.2
	v-37.6h-7.2v37.6H959L959,747.2z M964.6,745.6c1.8,1.1,5.5,2.1,9.2,2.1c8.7,0,13.7-4.8,13.7-11.3c0-4.9-2.7-8.4-8.7-11.1
	c-4.6-2.1-6.5-3.3-6.5-6c0-2.1,1.7-4.2,5.5-4.2c3.1,0,5.4,0.9,6.7,1.6l1.5-5.9c-1.8-0.9-4.5-1.7-8.1-1.7c-8.1,0-13,4.7-13,10.9
	c0,4.9,3.5,8.4,9.2,10.9c4.2,1.8,6,3.4,6,6.1c0,2.8-2.1,4.7-6.1,4.7c-3,0-6.2-0.9-8.1-2.1L964.6,745.6L964.6,745.6z M990,709.6v6.3
	h9.2v31.3h7.2v-31.3h9.3v-6.3H990L990,709.6z M1027.3,741.2v-10.5h12.3v-5.9h-12.3v-9.1h13v-6.1h-20.2v37.6h21v-6.1H1027.3
	L1027.3,741.2z M1046.6,747.2h7.2V732h2.4c3.4,0,4.9,1.5,5.9,6.4c0.9,4.5,1.8,7.8,2.3,8.9h7.4c-0.7-1.4-1.7-5.9-2.8-10.4
	c-0.9-3.8-2.3-6.4-5-7.4v-0.1c3.5-1.4,6.5-4.7,6.5-9.3c0-10.1-9.6-10.7-14.3-10.7c-3.7,0-7.2,0.3-9.7,0.8V747.2L1046.6,747.2z
	 M1053.8,715.2c0.6-0.2,1.7-0.3,3.3-0.3c2.6,0,6.3,0.9,6.3,5.8c0,3.6-2.5,6-6.6,6h-3V715.2z" clip-rule="evenodd"/><path fill="#97c1e7" fill-rule="evenodd" d="M833.7,858.2l38.2-0.3l0.3,38.2l-38.2,0.3L833.7,858.2L833.7,858.2z M834.1,920.2l38.2-0.3l0.3,38.2l-38.2,0.3
	L834.1,920.2z" clip-rule="evenodd"/><path fill="#97c1e7" fill-rule="evenodd" d="M897.4,859.4l207.3-0.2c3.5,0,6.4,2.9,6.4,6.4v0c0,3.5-2.9,6.4-6.4,6.4l-207.3,0.2c-3.5,0-6.4-2.9-6.4-6.4v0
	C891,862.3,893.9,859.4,897.4,859.4L897.4,859.4z M897.5,921.4l207.3-0.2c3.5,0,6.4,2.9,6.4,6.4l0,0c0,3.5-2.9,6.4-6.4,6.4
	l-207.3,0.2c-3.5,0-6.4-2.9-6.4-6.4l0,0C891.1,924.3,894,921.4,897.5,921.4L897.5,921.4z M897.5,944.1L1022,944
	c3.5,0,6.4,2.9,6.4,6.4v0c0,3.5-2.9,6.4-6.4,6.4l-124.5,0.1c-3.5,0-6.4-2.9-6.4-6.4v0C891.1,947,894,944.1,897.5,944.1L897.5,944.1z
	 M897.4,882.1l124.5-0.1c3.5,0,6.4,2.9,6.4,6.4l0,0c0,3.5-2.9,6.4-6.4,6.4l-124.5,0.1c-3.5,0-6.4-2.9-6.4-6.4l0,0
	C891.1,885,893.9,882.1,897.4,882.1z" clip-rule="evenodd"/><path fill="#5e9bd3" fill-rule="evenodd" d="M847.1,868.8c-0.8-1.8,0-4,1.9-4.8c1.8-0.8,4,0,4.8,1.9l6.5,15l23.6-24.5c1.4-1.4,3.7-1.5,5.1-0.1
	c1.4,1.4,1.5,3.7,0.1,5.1l-27.2,28.3c-0.3,0.4-0.8,0.7-1.3,0.9c-1.8,0.8-4,0-4.8-1.9L847.1,868.8L847.1,868.8z M838.5,930.2
	c-0.8-1.8,0-4,1.9-4.8c1.8-0.8,4,0,4.8,1.9l6.5,15l23.6-24.5c1.4-1.4,3.7-1.5,5.1-0.1c1.4,1.4,1.5,3.7,0.1,5.1l-27.2,28.4
	c-0.3,0.4-0.8,0.7-1.3,0.9c-1.8,0.8-4,0-4.8-1.9L838.5,930.2z" clip-rule="evenodd"/><path fill="#fff" fill-rule="evenodd" d="M881.2,768.9h171.1c14.7,0,26.7,12,26.7,26.7v0c0,14.7-12,26.7-26.7,26.7H881.2c-14.7,0-26.7-12-26.7-26.7v0
	C854.5,780.9,866.5,768.9,881.2,768.9z" clip-rule="evenodd"/><path fill="#97c1e7" fill-rule="evenodd" d="M881.2,767.1h171.1c7.8,0,15,3.2,20.1,8.4l0,0c5.2,5.2,8.4,12.3,8.4,20.1v0c0,7.8-3.2,15-8.4,20.1v0
	c-5.2,5.2-12.3,8.4-20.2,8.4H881.2c-7.8,0-15-3.2-20.2-8.4c-5.2-5.2-8.4-12.3-8.4-20.2v0c0-7.8,3.2-15,8.4-20.2h0
	C866.2,770.3,873.4,767.1,881.2,767.1L881.2,767.1z M1052.3,770.7H881.2c-6.9,0-13.1,2.8-17.6,7.3l0,0c-4.5,4.5-7.3,10.8-7.3,17.6v0
	c0,6.9,2.8,13.1,7.3,17.6c4.5,4.5,10.8,7.3,17.6,7.3h171.1c6.9,0,13.1-2.8,17.6-7.3l0,0c4.5-4.5,7.3-10.8,7.3-17.6v0
	c0-6.9-2.8-13.1-7.3-17.6C1065.4,773.5,1059.1,770.7,1052.3,770.7z" clip-rule="evenodd"/><path fill="#97c1e7" fill-rule="evenodd" d="M892.9,794l-2.8-7.3l-4,2.2l5,6.2l0,0.1l-7.4-1.3v4.5l7.5-1.3l0,0.1l-5.1,6.2l3.8,2.3l2.9-7.4l0.1-0.1l2.9,7.4
	l4-2.3l-5.1-6l0-0.1l7.6,1.2v-4.5l-7.6,1.4v-0.1l5.1-6.2l-4-2.2l-2.8,7.3H892.9L892.9,794z M919.4,794l-2.8-7.3l-4,2.2l5,6.2l0,0.1
	l-7.4-1.3v4.5l7.5-1.3l0,0.1l-5.1,6.2l3.8,2.3l2.9-7.4l0.1-0.1l2.9,7.4l4-2.3l-5.1-6l0-0.1l7.6,1.2v-4.5l-7.6,1.4v-0.1l5.1-6.2
	l-4-2.2l-2.8,7.3H919.4L919.4,794z M945.9,794l-2.8-7.3l-4,2.2l5,6.2l0,0.1l-7.4-1.3v4.5l7.5-1.3l0,0.1l-5.1,6.2l3.8,2.3l2.9-7.4
	l0.1-0.1l2.9,7.4l4-2.3l-5.1-6l0-0.1l7.6,1.2v-4.5l-7.6,1.4v-0.1l5.1-6.2l-4-2.2L946,794H945.9L945.9,794z M972.3,794l-2.8-7.3
	l-4,2.2l5,6.2l0,0.1l-7.4-1.3v4.5l7.5-1.3l0,0.1l-5.1,6.2l3.8,2.3l2.9-7.4l0.1-0.1l2.9,7.4l4-2.3l-5.1-6l0-0.1l7.6,1.2v-4.5
	l-7.6,1.4v-0.1l5.1-6.2l-4-2.2l-2.8,7.3H972.3L972.3,794z M998.8,794l-2.8-7.3l-4,2.2l5,6.2l0,0.1l-7.4-1.3v4.5l7.5-1.3l0,0.1
	l-5.1,6.2l3.8,2.3l2.9-7.4l0.1-0.1l2.9,7.4l4-2.3l-5.1-6l0-0.1l7.6,1.2v-4.5l-7.6,1.4v-0.1l5.1-6.2l-4-2.2l-2.8,7.3H998.8L998.8,794
	z M1025.3,794l-2.8-7.3l-4,2.2l5,6.2l0,0.1l-7.4-1.3v4.5l7.5-1.3l0,0.1l-5.1,6.2l3.8,2.3l2.9-7.4l0.1-0.1l2.9,7.4l4-2.3l-5.1-6
	l0-0.1l7.6,1.2v-4.5l-7.6,1.4v-0.1l5.1-6.2l-4-2.2l-2.8,7.3H1025.3L1025.3,794z M1051.7,794l-2.8-7.3l-4,2.2l5,6.2l0,0.1l-7.4-1.3
	v4.5l7.5-1.3l0,0.1l-5.1,6.2l3.8,2.3l2.9-7.4l0.1-0.1l2.9,7.4l4-2.3l-5.1-6l0-0.1l7.6,1.2v-4.5l-7.6,1.4v-0.1l5.1-6.2l-4-2.2
	l-2.8,7.3H1051.7z" clip-rule="evenodd"/><path fill="#5e9bd3" fill-rule="evenodd" d="M842.2,1080.3c-2.4,0-4.3-0.4-4.3-0.9c0-0.5,1.9-0.9,4.3-0.9h238.7c2.4,0,4.3,0.4,4.3,0.9
	c0,0.5-1.9,0.9-4.3,0.9H842.2z" clip-rule="evenodd"/><path fill="#5e9bd3" fill-rule="evenodd" d="M817.2,1094.5c-2.4,0-4.3-0.4-4.3-0.9c0-0.5,1.9-0.9,4.3-0.9h288.6c2.4,0,4.3,0.4,4.3,0.9
	c0,0.5-1.9,0.9-4.3,0.9H817.2z" clip-rule="evenodd"/><path fill="#5e9bd3" fill-rule="evenodd" d="M817.2,1103.4c-2.4,0-4.3-0.4-4.3-0.9c0-0.5,1.9-0.9,4.3-0.9h288.6c2.4,0,4.3,0.4,4.3,0.9
	c0,0.5-1.9,0.9-4.3,0.9H817.2z" clip-rule="evenodd"/><path fill="#5e9bd3" fill-rule="evenodd" d="M817.2,1112.2c-2.4,0-4.3-0.4-4.3-0.9c0-0.5,1.9-0.9,4.3-0.9h288.6c2.4,0,4.3,0.4,4.3,0.9
	c0,0.5-1.9,0.9-4.3,0.9H817.2z" clip-rule="evenodd"/><path fill="#5e9bd3" fill-rule="evenodd" d="M817.2,1121c-2.4,0-4.3-0.4-4.3-0.9s1.9-0.9,4.3-0.9h288.6c2.4,0,4.3,0.4,4.3,0.9s-1.9,0.9-4.3,0.9H817.2z" clip-rule="evenodd"/><path fill="#5e9bd3" fill-rule="evenodd" d="M817.2,1129.9c-2.4,0-4.3-0.4-4.3-0.9c0-0.5,1.9-0.9,4.3-0.9h288.6c2.4,0,4.3,0.4,4.3,0.9
	c0,0.5-1.9,0.9-4.3,0.9H817.2z" clip-rule="evenodd"/><path fill="#5e9bd3" fill-rule="evenodd" d="M817.2,1138.7c-2.4,0-4.3-0.4-4.3-0.9c0-0.5,1.9-0.9,4.3-0.9h288.6c2.4,0,4.3,0.4,4.3,0.9
	c0,0.5-1.9,0.9-4.3,0.9H817.2z" clip-rule="evenodd"/><path fill="#5e9bd3" fill-rule="evenodd" d="M817.2,1147.5c-2.4,0-4.3-0.4-4.3-0.9c0-0.5,1.9-0.9,4.3-0.9h288.6c2.4,0,4.3,0.4,4.3,0.9
	c0,0.5-1.9,0.9-4.3,0.9H817.2z" clip-rule="evenodd"/><path fill="#5e9bd3" fill-rule="evenodd" d="M817.2,1184.5c-2.4,0-4.3-0.4-4.3-0.9c0-0.5,1.9-0.9,4.3-0.9h288.6c2.4,0,4.3,0.4,4.3,0.9
	c0,0.5-1.9,0.9-4.3,0.9H817.2z" clip-rule="evenodd"/><path fill="#5e9bd3" fill-rule="evenodd" d="M817.2,1193.4c-2.4,0-4.3-0.4-4.3-0.9c0-0.5,1.9-0.9,4.3-0.9h288.6c2.4,0,4.3,0.4,4.3,0.9
	c0,0.5-1.9,0.9-4.3,0.9H817.2z" clip-rule="evenodd"/><path fill="#5e9bd3" fill-rule="evenodd" d="M817.2,1202.2c-2.4,0-4.3-0.4-4.3-0.9s1.9-0.9,4.3-0.9h288.6c2.4,0,4.3,0.4,4.3,0.9s-1.9,0.9-4.3,0.9H817.2z" clip-rule="evenodd"/><path fill="#5e9bd3" fill-rule="evenodd" d="M817.2,1211c-2.4,0-4.3-0.4-4.3-0.9c0-0.5,1.9-0.9,4.3-0.9h288.6c2.4,0,4.3,0.4,4.3,0.9c0,0.5-1.9,0.9-4.3,0.9
	H817.2z" clip-rule="evenodd"/><path fill="#5e9bd3" fill-rule="evenodd" d="M817.2,1219.9c-2.4,0-4.3-0.4-4.3-0.9c0-0.5,1.9-0.9,4.3-0.9h288.6c2.4,0,4.3,0.4,4.3,0.9
	c0,0.5-1.9,0.9-4.3,0.9H817.2z" clip-rule="evenodd"/><path fill="#5e9bd3" fill-rule="evenodd" d="M817.2,1228.7c-2.4,0-4.3-0.4-4.3-0.9c0-0.5,1.9-0.9,4.3-0.9h288.6c2.4,0,4.3,0.4,4.3,0.9
	c0,0.5-1.9,0.9-4.3,0.9H817.2z" clip-rule="evenodd"/><path fill="#5e9bd3" fill-rule="evenodd" d="M817.2,1237.5c-2.4,0-4.3-0.4-4.3-0.9c0-0.5,1.9-0.9,4.3-0.9h288.6c2.4,0,4.3,0.4,4.3,0.9
	c0,0.5-1.9,0.9-4.3,0.9H817.2z" clip-rule="evenodd"/><path fill="#4189c9" fill-rule="evenodd" d="M1238.6,1010.6C1226,1002,1199,980,1199,980l-13.1,8.6c0,0,6.5,10.4,15.1,22H1238.6z" clip-rule="evenodd"/><path fill="#f9af79" fill-rule="evenodd" d="M1087.5,947.7c0,0-12.5-14.7-14.6-15.5c-2.1-0.8-12.1,0.5-14.2,2.4c-2.1,1.9-2.4,9.5-1.3,11.3
			c1.2,1.8,5.5-0.1,7.4,0.9c1.9,1.1,3.2,2.5,4.3,3.5c2.2,2,7.3,5.2,7.3,5.2L1087.5,947.7z" clip-rule="evenodd"/><rect width="53.9" height="566.2" x="1199.1" y="689.3" fill="#97c1e7" fill-rule="evenodd" clip-rule="evenodd" transform="rotate(-75.102 1226.048 972.374)"/><rect width="23.2" height="566.2" x="1214.5" y="689.3" fill="#bcdbf3" fill-rule="evenodd" clip-rule="evenodd" transform="rotate(-75.102 1226.029 972.374)"/><polygon fill="#eac5a7" fill-rule="evenodd" points="945.6 925.6 872.3 878.3 959.4 873.6" clip-rule="evenodd"/><path fill="#5e9bd3" fill-rule="evenodd" d="M1506.6,1019.1l42.9,11.4c10.8,2.9,17.2,14,14.4,24.8l-3.5,13c-2.9,10.8-14,17.2-24.8,14.4l-42.9-11.4
			L1506.6,1019.1z" clip-rule="evenodd"/><path fill="#5e9bd3" fill-rule="evenodd" d="M905.4,876.5l-33,1.8l27.8,18c7.8-0.1,13.6-2.5,14.7-6.7C915.9,885.4,912.1,880.5,905.4,876.5z" clip-rule="evenodd"/><path fill="#5e9bd3" fill-rule="evenodd" d="M1323.1,1002.9c0,0-70.8,16.1-81.2,9.9c-0.9-0.6-2-1.3-3.3-2.1H1201c7,9.5,15.4,19.9,22.6,26.1
		c16,13.7,48.8,23.7,48.8,23.7L1323.1,1002.9z" clip-rule="evenodd"/><path fill="#263c84" fill-rule="evenodd" d="M1348.8,960.2c-5.6-2.6-9.5-2.1-11.7,1.7c1.5,8.9,5.7,15.4,12.6,19.7C1347.4,977.7,1347.1,970.6,1348.8,960.2
		z" clip-rule="evenodd"/><path fill="#4189c9" fill-rule="evenodd" d="M1324.6,992.2l-24.3,46.2l-5.8,0.4l-2.6,7.4l-24.4,73.5C1267.4,1119.7,1253.9,1026.2,1324.6,992.2z" clip-rule="evenodd"/><path fill="#5e9bd3" fill-rule="evenodd" d="M1284,1033c0,0-26.9,99.3-29.5,194c0,0,22.3,7.8,57.4,1.6C1347.1,1222.4,1284,1033,1284,1033z" clip-rule="evenodd"/><path fill="#f9af79" fill-rule="evenodd" d="M1302.8,1010.9c20.2,6.4,55.2-10.8,55.2-10.8c0.1-0.1-3.5-1.8-7.5-7.9c-4.8-7.2-10.2-19.9-10.2-35.2
		l-15.6,12.6l-10.6,8.6c0,0,0,5,1.2,13.9c0.2,1.6,0.5,3.4,0.8,5.2c0.2,1.5-0.4,3-1.7,3.8C1307,1005.6,1302.8,1010.9,1302.8,1010.9z" clip-rule="evenodd"/><path fill="#bcdbf3" fill-rule="evenodd" d="M1273.7,1206.2c0.6,0.5,9,0.1,9.9,0.1c7.6-0.1,22.9-2.6,41.6-4.5c15.8-1.5,29.8-6.2,44.8-12.9
		c2-0.9,6.6-3.3,6.5-5.6c-0.1-2.4-0.3-6-0.6-10.4c-1.1-15.5-2.9-42.2-1.1-72.9c0.3-5.7,0.5-11.4,0.5-17c0.2-41.7-8.1-78.3-24.7-90.7
		c0,0-11.6,6.5-19.6,9.1c-7.9,2.5-11.9,2-16-0.7c0,0-7.9,3.9-11.3,7.6c-7.9,8.6-14,19.9-18,36.2c-3.4,13.9-6.7,34.1-7.8,60
		C1277.3,1116.1,1273.2,1205.8,1273.7,1206.2z" clip-rule="evenodd"/><path fill="#ed7d57" fill-rule="evenodd" d="M1314.1,978.1c0,0,0,5,1.2,13.9c11.8-2,25.1-21,25.1-21c-6-1.7-11.2-2-15.7-1.4L1314.1,978.1z" clip-rule="evenodd"/><path fill="#f9af79" fill-rule="evenodd" d="M1303.4,987.8c0,0,39.4,2.2,43.3-23.3c3.8-25.5,11.7-41.7-14.2-47.1c-25.9-5.4-32.4,3.6-35.7,11.7
		C1293.4,937.4,1292.9,985.4,1303.4,987.8z" clip-rule="evenodd"/><path fill="#263c84" fill-rule="evenodd" d="M1342.3,974.5c1.3,1.2,0.3-13.1,0.9-18.9c0.7-5.8,0.7-13.3-4-11.9c-4.7,1.4-4.9,5.2-6.8,3
		c-1.9-2.2-2-11.4-15.9-12.1c-13.9-0.6-22.3,2.3-28.8-0.6c-6.5-2.8-13-13.5-13-13.5s8,4.3,10.8,5.5c0,0-4.9-12.5,7.7-22.6
		c12.8-10.3,27.1-4.8,40.3,1.1c4.1,1.8,8.3,6.7,11.6,9.4c4.4,3.7,10.6,4.5,12.6,8.6c1.2,2.4,1.7,6.1,1.6,10.4
		C1358.8,947.1,1351.8,968.2,1342.3,974.5z" clip-rule="evenodd"/><path fill="#263c84" fill-rule="evenodd" d="M1211.4,1497.9c0,0-11.5,10.9-22.9,13c-11.4,2-24.2,6.3-24.6,12.8c-0.3,6.5,37,10.2,50.2,4.1
		c19.7-9.2,21.5-6.2,23.8-11c2.3-4.8-1.9-17.9-1.7-19.5C1236.4,1495.3,1211.4,1497.9,1211.4,1497.9z" clip-rule="evenodd"/><path fill="#f9af79" fill-rule="evenodd" d="M1212.8,1492.5l-1.4,5.4c0.2,0.1,25.4,3.6,24.8-0.7c-0.5-3.5-1.2-7.2-1.2-7.2L1212.8,1492.5z" clip-rule="evenodd"/><path fill="#263c84" fill-rule="evenodd" d="M1446.2,1478.2c0,0-5.6,13.9-14.9,19.8c-9.3,5.9-13.4,14.5-10.8,20.4c2.5,5.9,31.8,2.7,41.1-14.6
		c6.4-11.8,13.7-16.2,13.7-21.4c0-5.1-6.7-12.4-7.2-13.8C1467.5,1467,1446.2,1478.2,1446.2,1478.2z" clip-rule="evenodd"/><path fill="#f9af79" fill-rule="evenodd" d="M1443.9,1473.2l2.3,5.1c0.2,0,24-5.8,21.9-9.5c-1.7-3-5-6.2-5-6.2L1443.9,1473.2z" clip-rule="evenodd"/><path fill="#4361ac" fill-rule="evenodd" d="M1265.6,1216.3c0,0-57.3,92.4-67.9,114.8c-9.8,20.7-2,42-1.3,58.1c0.8,18.4,11.7,97,10.5,102.4
		c-1.2,5.4,31.7,2.4,31.7,2.4s-6.7-125,3-143c6.5-12,68.2-92.7,72.5-87.7c4.3,5,51.3,79,57.5,93.6c5.8,13.6,69,118.5,69,118.5
		s17.9-1.4,29.9-11.5c0,0-57.2-115.5-62.2-135.1c-2.5-10-26.8-80.2-44.7-125.5C1354.1,1179.3,1265.6,1216.3,1265.6,1216.3z" clip-rule="evenodd"/><path fill="#4189c9" fill-rule="evenodd" d="M1269.8,1204c0,0-2.3,2.3-3.5,12.4c0,0,91.5-4.7,101.3-8c0,0,1-11.2-1-11.5
		C1364.3,1196.6,1269.8,1204,1269.8,1204z" clip-rule="evenodd"/><path fill="#5e9bd3" fill-rule="evenodd" d="M1277.5,1203c0,0-2.2,10.2-2.4,14.1l4.5-0.3c0,0,1.6-12.8,2.2-14.2L1277.5,1203z" clip-rule="evenodd"/><path fill="#545b9c" fill-rule="evenodd" d="M1313.2,1197.5c0,0-13,1.4-17.4,2.4l0.6,13.2l17.1-1.6L1313.2,1197.5z" clip-rule="evenodd"/><path fill="#5e9bd3" fill-rule="evenodd" d="M1375,1219.3c-51,32-78.1,14.5-78.1,14.5c-7.5-58.4-3.3-128.9-2.4-146c2.5-75.5,55.9-95.6,55.9-95.6l5.3,4.8
		l4.4,5.7l7.4,11.9l11,45l-2.6,32.1l0.8,55.3L1375,1219.3z" clip-rule="evenodd"/><path fill="#f9af79" fill-rule="evenodd" d="M1338.2,1200.4c0,0,1.2,6.4,0.4,8.3c-5.2,13.1-11.9,12-0.4,26.4c0,0,5.2,5.6,7.7,0.7c2.5-4.9-2-7.2,2.3-13.8
		c4.9-7.5,4.8-7.7,1.6-14.4l-0.7-7.5L1338.2,1200.4z" clip-rule="evenodd"/><path fill="#4189c9" fill-rule="evenodd" d="M1345.3,1208.3c-6.2-1.7-12.1-5.1-12.1-5.1s8.6-59.9,8.8-65.7c0.1-3.7,6.8-53-0.8-75.3
		c-7.5-21.9-0.5-55.2,12.7-59.4c0,0,25.9,5.8,22.8,45.8c2.3,32.7,2.6,60.9-2,89.9c-5.5,28.4-20.1,70.4-20.1,70.4
		S1350.2,1209.6,1345.3,1208.3z" clip-rule="evenodd"/><path fill="#4189c9" fill-rule="evenodd" d="M1350.5,992.2l-24.4,46.2l-12.5-4.5l4.1,12.3l-24.4,73.5C1293.3,1119.7,1279.8,1026.2,1350.5,992.2z" clip-rule="evenodd"/><path fill="#263c84" fill-rule="evenodd" d="M1322.7,917.1c-13.8,7-24.5,7.6-36.3-1.1c5.4-10.3,7.4-21.1,36.3-21.5
		C1311.7,899.9,1311.7,907.4,1322.7,917.1z" clip-rule="evenodd"/></svg>