<svg xmlns="http://www.w3.org/2000/svg" enable-background="new 0 0 1364 960" viewBox="0 0 1364 960"><path fill="#035875" d="M875.291,520.904c-0.214,0-0.419-0.124-0.509-0.332c-0.122-0.28,0.004-0.606,0.284-0.729
	c0.185-0.081,0.694-0.232,2.141-0.659c1.065-0.314,2.511-0.74,4.286-1.28c0.293-0.087,0.602,0.076,0.692,0.369
	c0.089,0.293-0.076,0.602-0.369,0.692c-1.779,0.541-3.227,0.968-4.295,1.282c-1.046,0.309-1.873,0.552-2.009,0.611
	C875.44,520.89,875.365,520.904,875.291,520.904z"/><path fill="#035875" d="M894.398,514.88c-0.231,0-0.446-0.145-0.524-0.375c-0.099-0.29,0.056-0.605,0.345-0.704
	c4.24-1.447,8.48-2.976,12.604-4.545c0.287-0.11,0.607,0.035,0.715,0.321c0.109,0.286-0.035,0.606-0.321,0.715
	c-4.135,1.573-8.387,3.106-12.639,4.558C894.518,514.871,894.458,514.88,894.398,514.88z M919.466,505.329
	c-0.215,0-0.421-0.127-0.51-0.338c-0.12-0.282,0.012-0.607,0.294-0.727c4.174-1.768,8.284-3.61,12.216-5.474
	c0.278-0.13,0.607-0.014,0.738,0.263c0.132,0.277,0.014,0.607-0.263,0.738c-3.947,1.871-8.071,3.719-12.258,5.494
	C919.611,505.315,919.538,505.329,919.466,505.329z M943.68,493.819c-0.198,0-0.39-0.106-0.489-0.293
	c-0.145-0.27-0.043-0.606,0.227-0.75c4.04-2.16,7.948-4.391,11.614-6.632c0.261-0.161,0.602-0.077,0.762,0.184
	c0.16,0.261,0.077,0.602-0.184,0.762c-3.685,2.252-7.61,4.493-11.669,6.663C943.857,493.798,943.768,493.819,943.68,493.819z
	 M966.515,479.8c-0.173,0-0.344-0.081-0.452-0.233c-0.177-0.25-0.12-0.595,0.13-0.773c3.757-2.676,7.302-5.435,10.536-8.198
	c0.233-0.199,0.582-0.172,0.781,0.061c0.199,0.233,0.172,0.582-0.061,0.781c-3.258,2.785-6.83,5.564-10.613,8.259
	C966.738,479.767,966.626,479.8,966.515,479.8z M986.779,462.329c-0.135,0-0.271-0.049-0.378-0.148
	c-0.224-0.209-0.237-0.56-0.028-0.784c3.15-3.384,5.957-6.867,8.344-10.354c0.173-0.251,0.518-0.317,0.771-0.144
	c0.252,0.173,0.317,0.518,0.144,0.771c-2.418,3.532-5.26,7.058-8.447,10.483C987.076,462.269,986.928,462.329,986.779,462.329z
	 M1001.682,440.228c-0.074,0-0.148-0.015-0.22-0.045c-0.281-0.122-0.41-0.448-0.289-0.729c1.79-4.137,3.084-8.39,3.847-12.641
	c0.054-0.301,0.342-0.503,0.644-0.448c0.301,0.054,0.502,0.342,0.448,0.644c-0.778,4.334-2.097,8.669-3.92,12.885
	C1002.1,440.103,1001.896,440.228,1001.682,440.228z M1006.31,414.148c-0.29,0-0.534-0.225-0.553-0.519
	c-0.276-4.278-1.057-8.666-2.321-13.043c-0.085-0.294,0.085-0.601,0.379-0.686c0.294-0.082,0.601,0.085,0.686,0.379
	c1.286,4.453,2.081,8.921,2.362,13.279c0.019,0.305-0.212,0.569-0.517,0.589C1006.334,414.147,1006.322,414.148,1006.31,414.148z
	 M999.112,388.523c-0.205,0-0.402-0.114-0.498-0.311c-0.989-2.025-2.096-4.088-3.288-6.13c-1.11-1.904-2.142-3.805-3.067-5.652
	c-0.137-0.273-0.026-0.606,0.248-0.744c0.273-0.136,0.606-0.026,0.744,0.247c0.914,1.826,1.934,3.706,3.033,5.589
	c1.205,2.066,2.324,4.152,3.325,6.202c0.134,0.275,0.021,0.607-0.254,0.742C999.276,388.505,999.193,388.523,999.112,388.523z
	 M987.787,364.317c-0.24,0-0.461-0.157-0.531-0.398c-1.333-4.554-2.068-9.036-2.183-13.321c-0.008-0.306,0.233-0.56,0.54-0.569
	c0.304-0.008,0.56,0.233,0.569,0.539c0.113,4.19,0.832,8.577,2.138,13.039c0.086,0.294-0.082,0.602-0.376,0.688
	C987.891,364.31,987.839,364.317,987.787,364.317z M987.299,337.947c-0.051,0-0.102-0.007-0.154-0.022
	c-0.294-0.085-0.464-0.392-0.379-0.686c1.204-4.174,3.008-8.195,5.515-12.292c0.16-0.261,0.502-0.344,0.762-0.184
	c0.261,0.16,0.344,0.501,0.184,0.762c-2.455,4.012-4.219,7.944-5.396,12.021C987.762,337.789,987.54,337.947,987.299,337.947z
	 M1000.799,315.109c-0.131,0-0.263-0.046-0.368-0.14c-0.229-0.203-0.25-0.554-0.046-0.782c2.678-3.012,5.779-6.134,9.481-9.543
	c0.226-0.207,0.576-0.193,0.783,0.032c0.207,0.225,0.193,0.576-0.032,0.783c-3.674,3.384-6.75,6.48-9.404,9.464
	C1001.103,315.046,1000.951,315.109,1000.799,315.109z M1020.322,296.779c-0.157,0-0.314-0.067-0.424-0.197
	c-0.198-0.233-0.168-0.583,0.065-0.781c1.354-1.146,2.716-2.289,4.078-3.434c2.063-1.733,4.128-3.467,6.169-5.211
	c0.234-0.198,0.583-0.17,0.782,0.062c0.199,0.233,0.171,0.582-0.062,0.782c-2.043,1.746-4.11,3.481-6.176,5.217
	c-1.361,1.143-2.721,2.286-4.075,3.431C1020.575,296.736,1020.448,296.779,1020.322,296.779z M1040.569,279.205
	c-0.147,0-0.293-0.058-0.402-0.173c-0.21-0.222-0.201-0.573,0.021-0.784c3.596-3.414,6.603-6.572,9.192-9.654
	c0.196-0.234,0.547-0.264,0.781-0.068c0.234,0.197,0.265,0.547,0.068,0.781c-2.616,3.114-5.651,6.301-9.277,9.745
	C1040.843,279.155,1040.706,279.205,1040.569,279.205z M1057.454,258.55c-0.091,0-0.183-0.022-0.268-0.069
	c-0.268-0.148-0.365-0.486-0.216-0.753c2.254-4.072,3.82-8.082,4.787-12.26c0.07-0.298,0.369-0.481,0.665-0.415
	c0.298,0.069,0.484,0.367,0.415,0.665c-0.978,4.22-2.626,8.441-4.898,12.547C1057.839,258.448,1057.65,258.55,1057.454,258.55z
	 M1063.296,232.877c-0.288,0-0.531-0.222-0.552-0.514c-0.303-4.163-1.188-8.523-2.628-12.961c-0.095-0.291,0.065-0.604,0.356-0.698
	c0.291-0.095,0.604,0.064,0.698,0.356c1.468,4.522,2.37,8.971,2.679,13.223c0.022,0.305-0.207,0.57-0.513,0.593
	C1063.323,232.876,1063.31,232.877,1063.296,232.877z M1055.398,207.48c-0.2,0-0.393-0.108-0.492-0.298
	c-1.923-3.685-4.233-7.526-6.866-11.417c-0.172-0.253-0.105-0.598,0.148-0.77c0.254-0.172,0.598-0.104,0.77,0.148
	c2.657,3.926,4.989,7.803,6.931,11.525c0.141,0.272,0.036,0.606-0.235,0.748C1055.572,207.46,1055.484,207.48,1055.398,207.48z
	 M1040.532,185.249c-0.163,0-0.324-0.071-0.433-0.208c-0.9-1.123-1.83-2.259-2.79-3.407c-1.901-2.272-3.891-4.54-5.914-6.742
	c-0.207-0.226-0.192-0.576,0.033-0.783c0.226-0.207,0.576-0.193,0.783,0.033c2.035,2.214,4.036,4.496,5.948,6.781
	c0.965,1.154,1.9,2.295,2.805,3.425c0.192,0.239,0.153,0.588-0.086,0.779C1040.775,185.209,1040.653,185.249,1040.532,185.249z
	 M1022.417,165.511c-0.138,0-0.276-0.051-0.383-0.153c-3.173-3.028-6.52-6.027-9.949-8.915c-0.234-0.197-0.264-0.547-0.067-0.781
	c0.196-0.233,0.547-0.264,0.781-0.067c3.446,2.902,6.811,5.917,10,8.96c0.221,0.212,0.229,0.562,0.018,0.784
	C1022.71,165.453,1022.563,165.511,1022.417,165.511z M1001.952,148.251c-0.115,0-0.232-0.036-0.331-0.11
	c-3.508-2.622-7.181-5.214-10.916-7.704c-0.255-0.17-0.324-0.514-0.154-0.769c0.169-0.255,0.513-0.324,0.769-0.154
	c3.752,2.501,7.441,5.105,10.965,7.739c0.245,0.183,0.296,0.53,0.112,0.776C1002.288,148.175,1002.121,148.251,1001.952,148.251z
	 M979.68,133.387c-0.096,0-0.194-0.025-0.283-0.078c-3.768-2.246-7.686-4.459-11.645-6.578c-0.27-0.145-0.372-0.48-0.227-0.75
	c0.145-0.27,0.48-0.371,0.75-0.227c3.974,2.127,7.908,4.348,11.689,6.603c0.263,0.157,0.349,0.497,0.193,0.76
	C980.053,133.291,979.869,133.387,979.68,133.387z M956.056,120.731c-0.081,0-0.162-0.017-0.24-0.055
	c-3.961-1.905-8.061-3.776-12.186-5.56c-0.281-0.122-0.41-0.448-0.289-0.729c0.121-0.281,0.447-0.409,0.729-0.288
	c4.138,1.79,8.252,3.668,12.226,5.579c0.276,0.133,0.392,0.464,0.259,0.74C956.461,120.615,956.263,120.731,956.056,120.731z
	 M931.43,110.06c-0.067,0-0.135-0.012-0.201-0.038c-4.097-1.596-8.32-3.157-12.554-4.64c-0.288-0.101-0.441-0.417-0.339-0.706
	c0.101-0.288,0.418-0.443,0.706-0.339c4.245,1.487,8.481,3.053,12.589,4.653c0.285,0.111,0.426,0.432,0.315,0.718
	C931.861,109.926,931.651,110.06,931.43,110.06z M906.138,101.183c-0.055,0-0.111-0.008-0.167-0.025
	c-4.183-1.317-8.5-2.606-12.83-3.829c-0.295-0.083-0.466-0.389-0.383-0.684c0.083-0.295,0.391-0.468,0.684-0.383
	c4.341,1.226,8.668,2.517,12.862,3.838c0.292,0.092,0.454,0.403,0.362,0.696C906.592,101.032,906.374,101.183,906.138,101.183z
	 M880.341,93.89c-0.045,0-0.09-0.005-0.136-0.017c-4.279-1.079-8.662-2.123-13.029-3.102c-0.299-0.067-0.487-0.363-0.419-0.662
	c0.067-0.298,0.367-0.486,0.662-0.419c4.377,0.981,8.77,2.027,13.057,3.108c0.297,0.075,0.477,0.376,0.402,0.673
	C880.814,93.723,880.589,93.89,880.341,93.89z M854.178,88.016c-0.036,0-0.072-0.003-0.108-0.01
	c-4.326-0.857-8.757-1.679-13.171-2.444c-0.302-0.053-0.504-0.339-0.451-0.641s0.34-0.5,0.641-0.451
	c4.423,0.766,8.863,1.59,13.197,2.448c0.3,0.06,0.495,0.351,0.436,0.652C854.669,87.834,854.437,88.016,854.178,88.016z
	 M827.755,83.433c-0.027,0-0.055-0.002-0.083-0.006c-4.376-0.655-8.842-1.273-13.273-1.835c-0.304-0.038-0.518-0.316-0.48-0.62
	c0.039-0.303,0.318-0.513,0.62-0.48c4.439,0.563,8.913,1.182,13.298,1.839c0.303,0.045,0.511,0.327,0.466,0.631
	C828.261,83.236,828.025,83.433,827.755,83.433z M801.143,80.052c-0.019,0-0.039-0.001-0.058-0.003
	c-4.428-0.464-8.918-0.886-13.345-1.253c-0.305-0.025-0.531-0.293-0.506-0.599c0.025-0.305,0.291-0.526,0.598-0.507
	c4.435,0.368,8.933,0.791,13.369,1.256c0.304,0.032,0.525,0.304,0.493,0.609C801.664,79.84,801.424,80.052,801.143,80.052z
	 M774.404,77.834c-0.011,0-0.023-0.001-0.034-0.001c-4.508-0.273-9.012-0.494-13.389-0.656c-0.306-0.011-0.544-0.268-0.533-0.574
	c0.011-0.306,0.277-0.549,0.574-0.533c4.386,0.162,8.899,0.383,13.415,0.657c0.306,0.018,0.538,0.281,0.52,0.587
	C774.939,77.608,774.695,77.834,774.404,77.834z"/><path fill="#035875" d="M741.048,76.892c-0.3,0-0.547-0.239-0.554-0.541c-0.007-0.306,0.235-0.56,0.541-0.568
	c0.024-0.001,2.401-0.055,6.664-0.023c0.306,0.003,0.552,0.253,0.55,0.559c-0.003,0.307-0.21,0.58-0.559,0.55
	c-4.242-0.032-6.605,0.022-6.628,0.023C741.057,76.892,741.052,76.892,741.048,76.892z"/><path fill="#D5D8ED" d="M954.915,387.611h-3.04c-0.866-3.941-2.311-7.67-4.245-11.077l2.52-2.52c3.766-3.765,3.766-9.87,0-13.636
	c-3.765-3.765-9.87-3.765-13.636,0l-2.152,2.152c-3.315-2.126-6.951-3.765-10.827-4.833c-0.001,0-0.002-0.001-0.004-0.001v-3.564
	c0-5.325-4.317-9.642-9.642-9.642c-5.325,0-9.642,4.317-9.642,9.642v3.04c-3.941,0.866-7.67,2.311-11.077,4.244l-2.52-2.52
	c-3.765-3.766-9.871-3.766-13.636,0c-3.766,3.765-3.766,9.871,0,13.636l2.152,2.152c-2.127,3.315-3.766,6.952-4.834,10.829
	c0,0.001,0,0.002-0.001,0.003h-3.562c-5.325,0-9.642,4.317-9.642,9.642s4.317,9.642,9.642,9.642h3.038
	c0.866,3.942,2.311,7.671,4.245,11.079l-2.518,2.518c-3.766,3.766-3.766,9.871,0,13.636c3.765,3.766,9.871,3.766,13.636,0
	l2.145-2.145c0.001,0.001,0.002,0.001,0.002,0.001c3.315,2.118,6.96,3.757,10.837,4.834v3.554c0,5.325,4.317,9.642,9.642,9.642
	c5.325,0,9.642-4.317,9.642-9.642v-3.037c3.941-0.866,7.671-2.312,11.078-4.246l2.519,2.519c3.765,3.765,9.871,3.765,13.636,0
	c3.765-3.765,3.765-9.871,0-13.636l-2.146-2.145c0,0,0,0,0-0.001c2.118-3.315,3.757-6.961,4.835-10.838h3.556
	c5.325,0,9.642-4.317,9.642-9.642S960.24,387.611,954.915,387.611z M941.551,396.208c0,15.852-12.858,28.71-28.71,28.71
	c-15.852,0-28.71-12.858-28.71-28.71c0-15.861,12.858-28.71,28.71-28.71C928.693,367.498,941.551,380.347,941.551,396.208z"/><path fill="#D5D8ED" d="M894.696,396.208c0,10.021,8.124,18.145,18.145,18.145c10.021,0,18.154-8.124,18.154-18.145
	c0-10.021-8.133-18.154-18.154-18.154C902.82,378.053,894.696,386.186,894.696,396.208z"/><path fill="#D5D8ED" d="M954.741,276.501h-2.152c-0.613-2.79-1.636-5.429-3.005-7.841l1.784-1.784c2.666-2.665,2.666-6.987,0-9.652
	c-2.665-2.665-6.987-2.665-9.652,0l-1.524,1.524c-2.346-1.505-4.921-2.665-7.664-3.421c-0.001,0-0.002,0-0.003-0.001v-2.523
	c0-3.77-3.056-6.825-6.825-6.825s-6.825,3.056-6.825,6.825v2.152c-2.79,0.613-5.429,1.636-7.841,3.004l-1.784-1.784
	c-2.665-2.666-6.987-2.666-9.652,0c-2.666,2.665-2.666,6.987,0,9.652l1.523,1.523c-1.505,2.347-2.666,4.921-3.422,7.665
	c0,0.001,0,0.001,0,0.002h-2.522c-3.77,0-6.825,3.056-6.825,6.825s3.056,6.825,6.825,6.825h2.151c0.613,2.79,1.636,5.43,3.005,7.842
	l-1.783,1.783c-2.666,2.666-2.666,6.987,0,9.652c2.665,2.666,6.987,2.666,9.652,0l1.518-1.518c0.001,0,0.001,0.001,0.002,0.001
	c2.346,1.499,4.927,2.659,7.671,3.422v2.516c0,3.77,3.056,6.825,6.825,6.825c3.77,0,6.825-3.056,6.825-6.825v-2.15
	c2.79-0.613,5.43-1.636,7.842-3.005l1.783,1.783c2.665,2.665,6.987,2.665,9.653,0c2.665-2.665,2.665-6.987,0-9.653l-1.519-1.519
	c0,0,0,0,0,0c1.499-2.346,2.659-4.927,3.422-7.672h2.517c3.77,0,6.825-3.056,6.825-6.825
	C961.567,279.556,958.511,276.501,954.741,276.501z M945.281,282.586c0,11.221-9.102,20.322-20.323,20.322
	s-20.323-9.102-20.323-20.322c0-11.227,9.102-20.323,20.323-20.323S945.281,271.359,945.281,282.586z"/><path fill="#D5D8ED" d="M912.115,282.586c0,7.094,5.75,12.844,12.844,12.844c7.094,0,12.851-5.751,12.851-12.844
	c0-7.094-5.757-12.851-12.851-12.851C917.865,269.735,912.115,275.492,912.115,282.586z"/><path fill="#126C8A" d="M411.86,239.008c10.513-1.668,21.538,4.262,31.517,10.229c9.957,5.937,20.705,12.309,31.397,11.627
	c18.911-1.238,40.469-22.058,41.068-40.759c0.091-1.748-0.058-3.504-0.401-5.208c0.418,0.246,0.814,0.463,1.24,0.658
	c0.919,0.479,1.852,0.853,2.816,1.204L418.387,81.805c-1.557,6.768-2.734,13.671-2.349,20.852
	c0.526,9.175,4.047,19.047,11.232,25.334c4.787,4.209,11.696,7.947,11.97,14.045c-11.408-1.582-22.754-7.692-31.207-16.857
	c-0.355,7.688-0.74,15.585,1.61,23.208c2.342,7.674,8.069,15.194,15.464,17.214c5.163,1.408,11.401,0.513,14.948,4.998
	c2.964,3.707,1.721,9.4-1.769,11.595c-3.49,2.195-8.406,1.49-12.477-0.641c-4.071-2.132-7.566-5.488-11.001-8.702
	c-3.457-3.244-7.11-6.437-11.315-8.187c8.235,10.867,1.63,28.093,11.405,37.527c4.033,3.887,9.718,4.996,14.791,4.789
	c5.096-0.176,10.005-1.474,15.146-1.404c3.041,0.009,6.268,0.579,8.86,2.604c2.599,1.974,4.301,5.741,3.112,8.452
	c-1.631,3.742-6.764,3.433-10.895,3.215C431.67,219.219,418.352,226.676,411.86,239.008z M450.677,189.948
	c0.442-1.778,2.87-2.711,5.365-2.06c2.518,0.681,4.16,2.625,3.689,4.425c-0.442,1.778-2.87,2.711-5.365,2.06
	C451.848,193.692,450.206,191.749,450.677,189.948z"/><path fill="#1D7A99" d="M418.387,81.805l101.11,134.955c17.412,6.232,42.672-5.972,50.033-23.622
	c4.144-9.92,1.573-22.137-0.805-33.472c-2.423-11.395-4.494-23.754,0.51-33.15c-13.786,2.16-25.17,12.323-29.167,26.053
	c-1.152,3.945-2.478,8.905-6.527,9.232c-2.997,0.237-6.036-2.573-7.058-5.682c-1.052-3.087-0.527-6.373,0.416-9.227
	c1.631-4.863,4.428-9.105,6.282-13.857c1.803-4.758,2.598-10.488,0.203-15.555c-5.74-12.271-24.165-11.63-31.779-22.916
	c0.282,4.551,2.147,9.034,4.065,13.339c1.948,4.282,3.963,8.654,4.671,13.212c0.685,4.528-0.229,9.414-3.406,12.027
	c-3.251,2.576-9.026,1.908-11.549-2.082c-3.099-4.821-0.242-10.415,0.097-15.757c0.46-7.673-4.767-15.521-11.271-20.216
	c-6.453-4.688-14.065-6.873-21.446-8.999c5.905,10.934,8.057,23.651,5.877,34.946c-5.737-2.236-7.003-9.97-9.443-15.844
	c-3.642-8.848-11.834-15.359-20.358-18.823C432.209,83.681,425.298,82.556,418.387,81.805z M548.57,168.277
	c-0.229-5.103,2.515-9.352,6.139-9.5c3.601-0.177,6.714,3.791,6.944,8.895c0.206,5.073-2.538,9.323-6.139,9.5
	C551.891,177.32,548.777,173.351,548.57,168.277z M476.649,111.72c-0.133-2.981,1.452-5.476,3.574-5.572
	c2.121-0.097,3.951,2.221,4.084,5.202c0.103,3.003-1.505,5.468-3.627,5.564C478.589,116.988,476.76,114.672,476.649,111.72z"/><path fill="#FF8D3A" d="M980.655,608.233c-9.13,18.017,2.545,42.75-5.838,61.728c-5.257,10.721-16.201,13.05-25.416,17.202
	c-15.908,8.935-33.229,19.892-44.61,37.361c-4.796,8.455-7.315,19.027-13.178,26.276c-4.555-7.007-8.889-16.212-11.944-26.092
	c0.06-0.271,0.128-0.55,0.195-0.82c2.704-10.606,8.252-20.698,17.749-26.61c8.646-5.385,19.757-7.52,26.366-15.792
	c3.617-4.526,5.065-10.263,6.54-15.745c1.528-5.66,3.334-11.015,6.993-15.68c6.1-7.79,15.557-13.696,18.644-23.533
	c1.877-6.004,0.551-12.249,0.032-18.346c-0.295-3.41-0.296-6.861,0.647-10.177c0.804-2.831,2.159-5.455,3.762-7.911
	c3.161-4.844,7.165-9.065,10.401-13.856c3.288-4.858,5.407-10.308,6.548-16.052c2.487-12.544,0.597-25.339,0.017-37.964
	c-0.52-11.423-0.04-23.779,5.607-34.03c0.191-0.348,0.391-0.696,0.598-1.034c1.752,0.163,3.555,0.819,5.369,2.042
	c13.906,12.248,1.133,38.066,4.471,55.389c5.717,19.424,16.477,31.184-0.657,48.567
	C988.575,597.823,983.689,602.041,980.655,608.233z"/><path fill="#FFAB6E" d="M977.564,522.223c0.579,12.625,2.469,25.419-0.017,37.964c-1.141,5.744-3.26,11.194-6.548,16.052
	c-3.236,4.791-7.24,9.012-10.401,13.856c-1.603,2.456-2.958,5.08-3.762,7.911c-0.943,3.317-0.942,6.767-0.647,10.177
	c0.519,6.098,1.846,12.342-0.032,18.346c-3.087,9.836-12.544,15.743-18.644,23.533c-3.659,4.665-5.464,10.02-6.993,15.68
	c-1.476,5.482-2.923,11.219-6.54,15.745c-6.609,8.272-17.721,10.407-26.366,15.792c-9.496,5.912-15.045,16.004-17.749,26.61
	c-0.068,0.27-0.136,0.549-0.195,0.82c-0.159-0.5-0.311-1.001-0.454-1.508c-6.759-22.961-6.408-49.114,14.096-59.768
	c11.098-2.805,20.526-4.035,19.576-21.683c1.672-29.268-6.577-60.077,21.149-72.686c11.932-6.453,32.661-10.662,35.303-29.781
	c0.005-7.713-3.485-14.64-3.687-22.321c-1.326-13.587,6.941-29.88,17.197-29.85c0.3-0.009,0.606,0.006,0.918,0.045
	c-0.207,0.339-0.406,0.686-0.598,1.034C977.523,498.444,977.044,510.8,977.564,522.223z"/><path fill="#FFF" d="M977.564,522.223c0.579,12.625,2.469,25.419-0.017,37.964c-1.141,5.744-3.26,11.194-6.548,16.052
	c-3.236,4.791-7.24,9.012-10.401,13.856c-1.603,2.456-2.958,5.08-3.762,7.911c-0.943,3.317-0.942,6.767-0.647,10.177
	c0.519,6.098,1.846,12.342-0.032,18.346c-3.087,9.836-12.544,15.743-18.644,23.533c-3.659,4.665-5.464,10.02-6.993,15.68
	c-1.476,5.482-2.923,11.219-6.54,15.745c-6.609,8.272-17.721,10.407-26.366,15.792c-9.496,5.912-15.045,16.004-17.749,26.61
	c-0.068,0.27-0.136,0.549-0.195,0.82c-0.159-0.5-0.311-1.001-0.454-1.508c0.662-2.518,1.496-5.024,2.519-7.516
	c1.897-4.585,4.444-8.915,7.762-12.605c3.533-3.925,7.838-6.808,12.559-9.132c4.818-2.364,9.899-4.243,14.469-7.082
	c5.231-3.238,8.812-7.704,10.917-13.494c2.057-5.667,2.937-11.715,5.424-17.24c2.098-4.648,5.451-8.477,8.984-12.087
	c3.694-3.764,7.667-7.357,10.614-11.768c3.586-5.355,4.251-11.167,3.638-17.484c-0.596-6.111-1.678-12.267,0.362-18.235
	c1.808-5.284,5.371-9.72,8.799-14.031c3.785-4.758,7.374-9.538,9.508-15.286c2.264-6.124,3.065-12.682,3.206-19.171
	c0.436-19.529-5.655-43.298,4.874-60.957c0.3-0.009,0.606,0.006,0.918,0.045c-0.207,0.339-0.406,0.686-0.598,1.034
	C977.523,498.444,977.044,510.8,977.564,522.223z"/><path fill="#1D7A99" d="M879.344,804.583c-13.601-4.29-28.373-24.207-30.765-42.061c0,0-18.922,17.798-20.104,31.104
	c-2.636,29.996,11.823,49.14,36.713,83.646c0.184,0.056,0.369,0.113,0.555,0.153c40.958-75.48,114.989-123.311,190.663-200.657
	c-10.932,5.016-19.625,8.068-40.76,11.716c-32.131,5.583-34.568,63.43-40.157,48.703c-3.463-9.049,17.737-48.385,26.847-54.892
	c-0.891-0.131-20.834,1.398-31.554,7.635c-11.599,6.764-11.522,56.91-17.669,43.952c-6.203-12.953,14.415-45.249,14.415-45.249
	s-23.005,4.163-35.658,11.997c-12.645,7.843,3.427,65.619-7.046,60.48c-6.319-3.093-10.578-40.703,2.224-59.974
	c0,0-32.152,16.799-41.401,25.604c-9.271,8.764,36.073,67.748,22.327,67.396c-13.568-0.335-33.591-49.664-28.018-64.989
	c0,0-20.713,14.91-27.159,27.887C846.339,770.048,888.286,807.419,879.344,804.583z M942.848,741.416
	c-1.41,0.694-3.475-0.637-4.599-2.967c-1.125-2.314-0.916-4.749,0.533-5.433c1.417-0.686,3.428,0.65,4.551,2.98
	C944.475,738.295,944.241,740.752,942.848,741.416z M868.626,816.633c-2.438,2.65-8.268,1.3-13.031-3.066
	c-4.756-4.358-6.64-10.03-4.209-12.688c2.439-2.65,8.251-1.27,13.032,3.05C869.181,808.294,871.057,813.975,868.626,816.633z"/><path fill="#126C8A" d="M865.743,877.425c35.243,10.073,64.907,11.255,90.845,7.787c17.775-2.381,31.585-24.57,31.585-24.57
	c-31.571-7.16-42.365-24.783-39.964-29.778c2.418-5.025,23.83,21.65,41.664,24.732c17.834,3.083,30.8-27.741,30.8-27.741
	c-10.174,14.264-74.22-10.75-75.023-19.274c-0.78-8.515,46.023,15.321,64.882,16.526c18.608,1.224,21.368-34.937,21.437-35.832
	c-4.494,13.786-56.327,4.264-55.382-5.749c0.927-9.983,55.226,3.124,60.94-2.812c8.862-9.167,7.502-36.624,7.452-37.485
	c-2.525,14.535-43.212,23.254-57.923,16.19c-14.947-7.178,54.906-1.196,58.499-29.425c1.894-14.886,4.719-35.819,10.85-53.225
	C980.732,754.114,906.701,801.945,865.743,877.425z M1026.668,725.038c4.372-0.724,8.231,0.667,8.638,3.109
	c0.408,2.442-2.815,4.998-7.195,5.729c-4.372,0.724-8.223-0.674-8.638-3.109C1019.065,728.324,1022.296,725.761,1026.668,725.038z
	 M1026.517,765.502c2.362,0.096,4.225,1.401,4.168,3c-0.04,1.552-2,2.773-4.361,2.677c-2.362-0.096-4.226-1.401-4.168-3
	C1022.195,766.627,1024.138,765.436,1026.517,765.502z M946.862,850.817c7.11,2.914,11.576,8.499,9.944,12.502
	c-1.624,3.996-8.729,4.854-15.877,1.93c-7.117-2.922-11.568-8.507-9.944-12.502C932.609,848.752,939.69,847.916,946.862,850.817z
	 M957.583,791.969c4.256,1.255,7.114,4.203,6.432,6.575c-0.73,2.385-4.729,3.292-8.975,1.999c-4.256-1.255-7.114-4.203-6.401-6.558
	C949.321,791.613,953.327,790.714,957.583,791.969z"/><path fill="#FFF" d="M855.338,875.692H520.922c-22.713,0-41.126-18.413-41.126-41.126V230.121
	c0-22.713,18.413-41.126,41.126-41.126h334.416c22.713,0,41.126,18.413,41.126,41.126v604.444
	C896.464,857.279,878.051,875.692,855.338,875.692z"/><path fill="#7C82A8" d="M862.632,146.085H513.606c-23.702,0-42.904,19.203-42.904,42.899V843.6c0,12.927,5.737,24.54,14.803,32.41
	c0.304,0.255,0.608,0.515,0.912,0.773c7.401,6.088,16.884,9.716,27.189,9.716h349.026c10.304,0,19.789-3.628,27.189-9.716
	c9.603-7.87,15.736-19.815,15.736-33.183V188.984C905.558,165.288,886.331,146.085,862.632,146.085z M896.464,826.88
	c0,24.88-21.328,45.047-47.64,45.047H527.437c-26.31,0-47.641-20.167-47.641-45.047V231.452c0-15.474,13.267-28.014,29.631-28.014
	h357.409c16.364,0,29.628,12.54,29.628,28.014V826.88z"/><path fill="#FFF" d="M539.879,176.139c0,7.617-6.185,13.802-13.805,13.802c-7.62,0-13.805-6.185-13.805-13.802
	c0-7.623,6.185-13.808,13.805-13.808C533.694,162.331,539.879,168.516,539.879,176.139z"/><path fill="#7C82A8" d="M535.413,176.137c0,5.155-4.183,9.34-9.34,9.34c-5.155,0-9.341-4.185-9.341-9.34
	c0-5.156,4.186-9.341,9.341-9.341C531.23,166.796,535.413,170.981,535.413,176.137z"/><path fill="#FFF" d="M568.139,176.137c0,5.155-4.185,9.34-9.341,9.34c-5.156,0-9.339-4.185-9.339-9.34
	c0-5.156,4.183-9.341,9.339-9.341C563.954,166.796,568.139,170.981,568.139,176.137z"/><path fill="#F9CBCB" d="M450.949,747.954c-0.371,36.019,4.765,68.58,15.663,100.877c2.026,6.066,4.28,12.133,6.733,18.2
	l-2.824,19.519h54.164l-34.964-21.718c-0.799-5.187-1.455-10.551-2.026-16.002c-3.68-36.899-2.112-77.666-1.055-96.042
	c0.371-6.652-0.628-13.276-2.91-19.519c-9.416-25.556-34.721-96.452-42.881-140.296h-59.456
	C371.208,663.137,398.653,693.383,450.949,747.954z"/><path fill="#30334D" d="M407.726,699.508c11.383,15.036,25.934,30.422,43.223,48.446c-0.371,36.019,2.004,76.913,12.902,109.21
	l27.081-1.466c-3.68-36.899,2.537-98.536-3.001-121.865c-6.308-26.573-38.922-97.013-47.082-140.857h-59.456
	C374.574,639.955,384.617,669.058,407.726,699.508z"/><path fill="#D1D3D4" d="M407.697,699.391l0.028,0.116c11.383,15.036,25.934,30.422,43.223,48.446
	c-0.371,36.019,2.004,76.913,12.902,109.21l8.031-0.435c-11.302-30.414-14.447-70.258-13.157-110.872
	c-59.058-50.087-19.855-68.13-38.218-104.428L407.697,699.391z"/><path fill="#30334D" d="M489.721,864.833c13.031,6.948,35.766,5.025,37.104,21.718h-56.304c-0.636-7.858-0.266-15.231,1.944-21.718
	C477.877,865.835,483.634,865.821,489.721,864.833z"/><path fill="#F9CBCB" d="M320.215,859.489c-2.532,5.201-4.916,10.022-7.377,15.083c14.978,4.301,29.952,8.621,44.926,12.935
	c-8.859-8.237-17.785-16.324-26.598-24.661c3.75-7.233,8.369-17.46,12.391-23.986c16.108-26.139,34.093-49.157,52.331-73.443
	c4.338-5.777,7.207-11.408,8.759-19.09c9.854-48.772,10.662-99.418,20.931-148.271c-13.337-2.659-26.645-5.244-39.973-7.861
	c-39.551,59.41-32.819,92.097-19.51,157.874c-19.541,25.534-30.861,54.766-39.463,86.154
	C324.86,840.689,321.826,852.267,320.215,859.489z"/><path fill="#30334D" d="M404.602,746.389c-1.592,7.694-3.925,12.607-8.844,19.248c-20.687,27.93-37.261,59.964-55.653,89.721
	c-7.406-2.039-14.692-4.152-22.051-6.221c9.868-35.135,25.635-72.138,48.032-101.04c-13.286-65.816-20.04-98.441,19.491-157.862
	c0.005-0.019,0.016-0.033,0.027-0.047c15.15,2.974,30.3,5.948,45.451,8.921c-0.257,1.197-0.508,2.393-0.767,3.591
	c-0.005,0.025,0,0.081-0.006,0.107C420.432,650.416,414.445,698.818,404.602,746.389z"/><path fill="#D1D3D4" d="M421.602,604.374c-5.152,6.995-1.061,21.521-6.712,29.142c-14.627,19.73-32.777,4.061-45.099,11.778
	c-20.964,13.13-0.516,77.172,3.367,94.45c0.117,0.523,2.863,12.032,4.95,11.868c-9.482,0.842-5.886-5.967-18.718,14.903
	c-5.788,9.414-35.975,64.515-37.677,82.28c-2.498,2.349-2.258-0.089-3.671,0.365c9.899-35.192,25.639-72.143,48.046-101.066
	c-13.284-65.81-20.048-98.443,19.496-157.858c14.724,4.079,33.368,2.373,47.746,6.401
	C435.025,597.112,424.956,599.821,421.602,604.374z"/><path fill="#30334D" d="M333.7,858.179c12.385,9.729,29.912,13.133,30.429,31.159c-17.381-5.006-34.758-10.024-52.144-15.014
	c1.77-7.36,5.06-13.48,9.306-19.667C325.03,858.262,328.667,859.139,333.7,858.179z"/><path fill="#F4C1C1" d="M361.505,534.673c-51.585-13.69-69.408-29.999-68.661-38.289c1.87-20.77,43.109-45.272,73.754-59.113
	c0,0,15.56-26.339,26.249-23.468c6.276,1.698-11.636,18.389-10.773,25.507c20.989-1.647-7.255,8.821-7.255,8.821
	c-26.894,27.119-34.942,34.808-46.608,42.807c6.086,2.146,19.932,3.421,37.466,6.741L361.505,534.673z"/><path fill="#FF8D3A" d="M381.71,549.336c0,0-8.342-3.847-20.409-7.277c-30.519-8.676-72.252-26.117-70.543-48.08
	c1.791-23.018,71.971-56.143,71.971-56.143l9.509,14.476l-40.066,38.28c15.146-0.043,25.921-0.804,40.918-3.979L381.71,549.336z"/><path fill="#F4C1C1" d="M456.091,530.869c51.585-13.69,72.907-26.194,72.161-34.485c-1.87-20.77-43.109-45.272-73.754-59.113
	c0,0-15.56-26.339-26.249-23.468c-6.276,1.698,11.636,18.389,10.773,25.507c-20.989-1.647,7.255,8.821,7.255,8.821
	c26.894,27.119,35.662,31.712,46.608,42.807c-6.086,2.146-19.932,3.421-37.466,6.741L456.091,530.869z"/><path fill="#FF8D3A" d="M432.145,535.792c0,0,19.125,3.842,30.213,2.238c33.189-4.8,69.689-22.089,67.98-44.051
	c-1.791-23.018-71.971-56.143-71.971-56.143l-9.509,14.476l41.474,38.05c-15.146-0.043-30.502-1.965-42.077-3.79L432.145,535.792z"/><path fill="#FF8D3A" d="M451.167,545.124c-1.419,20.62-3.805,59.15,5.371,85.334c0,0-17.009,8.952-57.068,7.162
	c-25.255-1.129-40.284-6.714-40.284-6.714c4.924-27.303,5.046-64.58,3.589-77.688c-2.877-25.894-5.098-60.734-5.098-60.734
	s9.904-7.719,40.198-8.939l24.247,1.203c24.981,0.527,35.093,1.447,41.585,11.669C465.541,499.3,453.442,525.05,451.167,545.124z"/><path fill="#30334D" d="M391.025,449.271c0,0-12.671-12.914-2.104-27.804c3.314-4.669,14.18-14.374,29.68-8.314
	c5.426,2.121,13.044,8.383,22.005,5.585c0,0,2.09,13.44-6.609,21.285c0,0,1.32,4.642-1.749,9.248
	C429.177,453.877,391.025,449.271,391.025,449.271z"/><path fill="#F9CBCB" d="M422.124,484.748c-2.571,14.039-22.893,13.532-24.622,0l1.757-9.354l3.099-16.524l0.065-0.357h15.16
	l0.064,0.357l3.006,17.388L422.124,484.748z"/><path fill="#F2F2F2" d="M420.653,476.258c-3.87,3.912-18.623,3.631-21.394-0.864l3.099-16.524h15.289L420.653,476.258z"/><path fill="#F9CBCB" d="M391.492,440.897c0,0-5.596-5.473-6.123-0.161c-0.625,6.286,6.858,10.961,6.858,10.961
	s1.826,19.435,18.22,19.435c16.265,0,18.987-19.509,18.987-19.509s8.554-2.334,6.739-9.721c-0.86-3.507-5.319,0.077-5.319,0.077
	v-9.231c0,0-6.716-0.072-12.813-2.322c-6.505-2.401-7.203-5.353-14.639-5.452C397.191,424.891,391.249,432.032,391.492,440.897z"/><path fill="#E6E6E6" d="M371.492,520.352c0,0-0.961,11.195-2.397,24.13c-1.512,13.592-3.547,29.114-5.564,35.573
	c0.19-11.528-0.143-21.315-0.751-26.832c-0.399-3.557-0.78-7.286-1.151-11.071c-0.105-0.038-0.219-0.067-0.323-0.095
	c-9.673-2.749-20.469-6.382-30.656-10.757c9.141,2.169,24.559,5.336,29.875,3.491c0.143-0.048,0.276-0.095,0.409-0.152
	C368.391,531.68,371.492,520.352,371.492,520.352z"/><path fill="#E6E6E6" d="M495.511,529.197c-10.368,4.166-21.952,7.21-33.157,8.836c-2.967,0.428-6.515,0.466-10.111,0.295
	c-0.456,2.311-0.828,4.594-1.075,6.801c-0.494,7.162-1.103,16.483-1.303,26.699c-1.284-6.468-3.119-19.013-1.978-33.803
	c0.143-1.902,0.333-3.843,0.59-5.812c0,0,1.741,0.476,4.917,0.923C460.842,534.162,476.174,535.028,495.511,529.197z"/><path fill="#D94559" d="M336.948,361.923l-18.07,14.117l-1.412-1.807c-2.402-3.075-4.004-5.844-4.805-8.307
	c-0.801-2.463-1.131-5.025-0.991-7.688s1.06-7.873,2.758-15.632c0.933-4.098,0.719-7.019-0.643-8.763
	c-1.362-1.744-2.936-2.696-4.722-2.858c-1.786-0.162-3.725,0.574-5.817,2.209c-2.251,1.758-3.531,3.958-3.841,6.6
	c-0.31,2.642,0.778,5.978,3.263,10.009l-20.233,12.132c-4.666-7.279-6.467-14.665-5.404-22.158
	c1.064-7.493,6.033-14.707,14.91-21.641c6.911-5.399,13.617-8.316,20.119-8.75c8.816-0.608,15.762,2.337,20.84,8.836
	c2.105,2.695,3.391,5.876,3.858,9.545c0.467,3.668-0.187,9.105-1.96,16.31c-1.22,5.037-1.65,8.653-1.289,10.847
	C333.87,357.117,335.017,359.45,336.948,361.923z M322.013,381.326l19.353-15.12l13.337,17.071l-19.353,15.12L322.013,381.326z"/><path fill="#52A1FA" d="M386.359,355.877l-16.964-1.871l0.187-1.696c0.318-2.887,0.904-5.194,1.758-6.923
	c0.853-1.728,2.009-3.265,3.468-4.61s4.657-3.643,9.594-6.894c2.627-1.698,4.031-3.366,4.212-5.003
	c0.181-1.637-0.163-2.962-1.03-3.977s-2.283-1.63-4.247-1.846c-2.113-0.233-3.939,0.274-5.477,1.52
	c-1.538,1.246-2.693,3.589-3.464,7.028l-17.084-4.053c1.298-6.303,4.177-11.174,8.638-14.613c4.461-3.439,10.858-4.699,19.191-3.78
	c6.488,0.715,11.576,2.647,15.266,5.795c5.013,4.258,7.183,9.437,6.51,15.538c-0.279,2.53-1.247,4.893-2.906,7.09
	c-1.658,2.197-4.832,4.754-9.521,7.671c-3.268,2.049-5.377,3.752-6.324,5.109C387.217,351.717,386.615,353.556,386.359,355.877z
	 M368.318,358.451l18.169,2.004l-1.767,16.026l-18.169-2.004L368.318,358.451z"/><path fill="#C8CBE3" d="M671.22,502.154c0-9.624,7.802-17.426,17.426-17.426c9.625,0,17.427,7.802,17.427,17.426
	c0,9.624-7.802,17.426-17.427,17.426C679.023,519.58,671.22,511.779,671.22,502.154z"/><path fill="#C8CBE3" d="M728.95,484.729c-1.879,0-3.708-0.975-4.716-2.718c-0.423-0.711-10.947-17.976-35.587-17.976
	c-24.863,0-36.393,16.499-36.872,17.202c-1.689,2.478-5.073,3.133-7.552,1.461c-2.484-1.676-3.157-5.032-1.496-7.525
	c0.6-0.899,15.042-22.03,45.919-22.03c31.101,0,44.458,22.456,45.011,23.412c1.508,2.603,0.619,5.934-1.982,7.441
	C730.816,484.492,729.877,484.729,728.95,484.729z"/><path fill="#C8CBE3" d="M749.644,459.475c-1.879,0-3.708-0.974-4.716-2.718c-0.676-1.146-17.188-28.461-56.005-28.461
	c-39.041,0-57.087,26.021-57.838,27.128c-1.683,2.487-5.063,3.144-7.552,1.478c-2.491-1.673-3.163-5.038-1.5-7.535
	c0.87-1.305,21.826-31.963,66.89-31.963c45.283,0,64.628,32.512,65.428,33.897c1.508,2.603,0.619,5.934-1.983,7.441
	C751.509,459.238,750.571,459.475,749.644,459.475z"/><path fill="#C8CBE3" d="M764.893,435.02c-1.879,0-3.708-0.974-4.718-2.719c-0.858-1.464-21.781-36.188-71.049-36.188
	c-49.491,0-72.337,33.038-73.286,34.444c-1.678,2.491-5.058,3.156-7.552,1.484c-2.493-1.671-3.168-5.04-1.502-7.538
	c1.07-1.604,26.827-39.283,82.34-39.283c55.738,0,79.492,39.924,80.476,41.623c1.506,2.603,0.617,5.934-1.985,7.441
	C766.758,434.784,765.82,435.02,764.893,435.02z"/><path fill="#C8CBE3" d="M784.497,411.668c-1.879,0-3.708-0.974-4.716-2.718c-1.096-1.873-27.69-46.12-90.394-46.12
	c-62.922,0-92.854,43.413-93.15,43.851c-1.676,2.493-5.058,3.16-7.551,1.49c-2.496-1.671-3.17-5.043-1.504-7.541
	c1.325-1.988,33.255-48.692,102.206-48.692c69.174,0,98.6,49.449,99.817,51.555c1.508,2.603,0.619,5.934-1.983,7.441
	C786.362,411.432,785.424,411.668,784.497,411.668z"/><path fill="#52A1FA" d="M688.13,298.364c-71.072,0-128.893,57.821-128.893,128.893S617.058,556.15,688.13,556.15
	s128.893-57.821,128.893-128.893S759.202,298.364,688.13,298.364z M568.105,427.257c0-66.182,53.843-120.025,120.025-120.025
	c25.781,0,49.688,8.172,69.27,22.059L611.763,519.786C585.114,497.753,568.105,464.454,568.105,427.257z M688.13,547.282
	c-25.807,0-49.737-8.188-69.33-22.101l145.642-190.5c26.681,22.032,43.713,55.352,43.713,92.576
	C808.155,493.439,754.312,547.282,688.13,547.282z"/><path fill="#C8CBE3" d="M623.189,656.517H526.34c-2.096,0-3.795-1.699-3.795-3.795l0,0c0-2.096,1.699-3.795,3.795-3.795h96.849
	c2.096,0,3.795,1.699,3.795,3.795l0,0C626.985,654.818,625.286,656.517,623.189,656.517z"/><path fill="#C8CBE3" d="M794.256,656.517H644.204c-2.096,0-3.795-1.699-3.795-3.795l0,0c0-2.096,1.699-3.795,3.795-3.795h150.052
	c2.096,0,3.795,1.699,3.795,3.795l0,0C798.051,654.818,796.352,656.517,794.256,656.517z"/><path fill="#C8CBE3" d="M850.412,656.517h-31.487c-1.824,0-3.303-1.479-3.303-3.303l0,0c0-1.824,1.479-3.303,3.303-3.303h31.487
	c1.825,0,3.303,1.479,3.303,3.303l0,0C853.715,655.038,852.236,656.517,850.412,656.517z"/><path fill="#C8CBE3" d="M849.92,695.734H526.34c-2.096,0-3.795-1.699-3.795-3.795l0,0c0-2.096,1.699-3.795,3.795-3.795H849.92
	c2.096,0,3.795,1.699,3.795,3.795l0,0C853.715,694.035,852.016,695.734,849.92,695.734z"/><path fill="#C8CBE3" d="M623.189,769.952H526.34c-2.096,0-3.795-1.699-3.795-3.795v0c0-2.096,1.699-3.795,3.795-3.795h96.849
	c2.096,0,3.795,1.699,3.795,3.795l0,0C626.985,768.253,625.286,769.952,623.189,769.952z"/><path fill="#C8CBE3" d="M794.256,769.952H644.204c-2.096,0-3.795-1.699-3.795-3.795l0,0c0-2.096,1.699-3.795,3.795-3.795h150.052
	c2.096,0,3.795,1.699,3.795,3.795l0,0C798.051,768.253,796.352,769.952,794.256,769.952z"/><path fill="#C8CBE3" d="M687.357,730.735H526.34c-2.096,0-3.795-1.7-3.795-3.795l0,0c0-2.096,1.699-3.795,3.795-3.795h161.017
	c2.096,0,3.795,1.699,3.795,3.795l0,0C691.152,729.035,689.453,730.735,687.357,730.735z"/><path fill="#C8CBE3" d="M849.92,730.735H725.942c-2.096,0-3.795-1.7-3.795-3.795l0,0c0-2.096,1.699-3.795,3.795-3.795H849.92
	c2.096,0,3.795,1.699,3.795,3.795l0,0C853.715,729.035,852.016,730.735,849.92,730.735z"/><path fill="#C8CBE3" d="M850.412,769.952h-31.487c-1.824,0-3.303-1.479-3.303-3.303l0,0c0-1.824,1.479-3.303,3.303-3.303h31.487
	c1.825,0,3.303,1.479,3.303,3.303l0,0C853.715,768.473,852.236,769.952,850.412,769.952z"/><path fill="#D5D8ED" d="M373.77,233.83c0-0.273-0.006-0.552-0.017-0.82c-0.017-0.491-0.045-0.982-0.084-1.467
	c-0.006-0.123-0.011-0.24-0.022-0.363c-0.084-0.937-0.196-1.869-0.353-2.784c-0.336-2.042-0.846-4.022-1.513-5.924
	c-0.19-0.563-0.403-1.11-0.622-1.657c-0.09-0.212-0.179-0.424-0.269-0.636c-0.314-0.731-0.65-1.445-1.009-2.148l-0.336-0.636
	c-1.205-2.248-2.65-4.357-4.303-6.287c-0.185-0.218-0.375-0.435-0.566-0.653c-0.499-0.563-1.025-1.11-1.563-1.64
	c-0.392-0.396-0.796-0.776-1.21-1.144c-6.376-5.746-14.832-9.249-24.094-9.249c-9.257,0-17.707,3.498-24.089,9.249
	c-0.415,0.368-0.818,0.748-1.216,1.144c-0.538,0.524-1.059,1.077-1.563,1.64c-0.191,0.218-0.381,0.435-0.566,0.653
	c-1.647,1.93-3.093,4.039-4.298,6.287l-0.336,0.636c-0.359,0.703-0.7,1.417-1.009,2.148c-0.09,0.212-0.179,0.424-0.269,0.636
	c-0.224,0.547-0.432,1.094-0.628,1.657c-0.667,1.902-1.177,3.883-1.513,5.924c-0.151,0.915-0.269,1.846-0.347,2.784
	c-0.011,0.123-0.017,0.24-0.023,0.363c-0.039,0.485-0.067,0.976-0.084,1.467c-0.011,0.268-0.017,0.547-0.017,0.82
	c-0.006,0.134-0.006,0.268-0.006,0.402c0,0.519,0.011,1.043,0.034,1.556c0.039,1.004,0.129,1.992,0.252,2.968
	c0.118,0.937,0.274,1.869,0.465,2.784c0.095,0.457,0.202,0.909,0.314,1.361c0.191,0.775,0.415,1.54,0.656,2.293
	c0.381,1.166,0.818,2.309,1.311,3.425c0.073,0.167,0.151,0.335,0.23,0.502c0.359,0.781,0.745,1.54,1.154,2.282
	c0.09,0.167,0.185,0.335,0.286,0.497c0.46,0.809,0.953,1.601,1.479,2.365c0.532,0.787,1.093,1.551,1.692,2.293
	c0.818,1.021,1.692,1.997,2.622,2.923c0.986,0.987,2.028,1.919,3.127,2.784c6.128,4.854,13.873,7.757,22.285,7.77
	c0.02,0,0.039,0.002,0.059,0.002c0.023,0,0.045-0.003,0.067-0.003c8.411-0.016,16.152-2.919,22.276-7.77
	c1.098-0.865,2.141-1.796,3.127-2.784c0.93-0.926,1.804-1.902,2.622-2.923c0.6-0.742,1.16-1.506,1.692-2.293
	c0.527-0.764,1.02-1.556,1.479-2.365c0.101-0.162,0.196-0.329,0.286-0.497c0.409-0.742,0.796-1.501,1.154-2.282
	c0.073-0.167,0.151-0.335,0.224-0.502c0.493-1.116,0.93-2.259,1.311-3.425c0.241-0.753,0.465-1.518,0.656-2.293
	c0.112-0.452,0.219-0.904,0.314-1.361c0.191-0.915,0.348-1.847,0.465-2.784c0.123-0.976,0.213-1.964,0.252-2.968
	c0.028-0.513,0.039-1.037,0.039-1.556C373.775,234.097,373.775,233.964,373.77,233.83z M369.836,228.396
	c0.168,0.915,0.297,1.841,0.387,2.784c0.011,0.123,0.022,0.24,0.028,0.363h-9.769c-0.156-3.124-0.563-6.17-1.214-9.071h8.882
	C368.895,224.368,369.466,226.349,369.836,228.396z M357.309,234.399c0,2.943-0.244,5.791-0.693,8.502h-6.755
	c0.236-2.774,0.358-5.651,0.358-8.583c0-0.163-0.003-0.325-0.004-0.488h7.085C357.302,234.02,357.309,234.208,357.309,234.399z
	 M318.312,234.399c0-0.191,0.007-0.379,0.009-0.569h7.085c-0.001,0.163-0.004,0.325-0.004,0.488c0,2.931,0.123,5.808,0.358,8.583
	h-6.755C318.556,240.19,318.312,237.342,318.312,234.399z M347.406,234.318c0,2.965-0.14,5.845-0.395,8.583h-7.804v-9.071h8.195
	C347.403,233.993,347.406,234.154,347.406,234.318z M328.215,234.318c0-0.164,0.003-0.325,0.004-0.488h8.195v9.071h-7.804
	C328.355,240.163,328.215,237.282,328.215,234.318z M339.207,203.736c1.438,0.71,2.783,2.493,3.951,5.079h-3.951V203.736z
	 M336.414,203.736v5.079h-3.951C333.631,206.229,334.976,204.446,336.414,203.736z M336.414,211.108v9.071h-7.095
	c0.565-3.44,1.326-6.517,2.232-9.071H336.414z M336.414,222.472v9.071h-8.156c0.092-3.172,0.339-6.224,0.718-9.071H336.414z
	 M336.414,245.193v9.071h-5.867c-0.714-2.683-1.291-5.747-1.693-9.071H336.414z M336.414,256.557v8.343
	c-1.981-0.978-3.784-3.998-5.193-8.343H336.414z M339.207,264.9v-8.343h5.193C342.992,260.902,341.188,263.922,339.207,264.9z
	 M339.207,254.264v-9.071h7.559c-0.401,3.323-0.978,6.387-1.692,9.071H339.207z M339.207,231.542v-9.071h7.438
	c0.379,2.847,0.626,5.899,0.718,9.071H339.207z M339.207,220.179v-9.071h4.864c0.906,2.553,1.667,5.631,2.232,9.071H339.207z
	 M347.239,211.108h4.034c1.644,2.599,3.015,5.664,4.031,9.071h-6.093C348.722,216.901,348.061,213.841,347.239,211.108z
	 M346.481,208.815c-0.671-1.861-1.408-3.475-2.199-4.827c1.953,1.14,3.764,2.779,5.377,4.827H346.481z M331.34,203.988
	c-0.791,1.352-1.528,2.965-2.199,4.827h-3.178C327.576,206.768,329.387,205.128,331.34,203.988z M328.382,211.108
	c-0.822,2.734-1.483,5.794-1.973,9.071h-6.093c1.017-3.407,2.388-6.471,4.032-9.071H328.382z M326.096,222.472
	c-0.352,2.899-0.572,5.945-0.655,9.071h-7.049c0.17-3.178,0.62-6.223,1.308-9.071H326.096z M325.986,245.193
	c0.355,3.22,0.869,6.271,1.529,9.071h-5.046c-1.286-2.71-2.317-5.765-3.03-9.071H325.986z M328.103,256.557
	c0.217,0.775,0.444,1.531,0.685,2.257c0.802,2.414,1.711,4.443,2.699,6.078c-3.005-1.709-5.68-4.598-7.821-8.335H328.103z
	 M344.134,264.892c0.988-1.635,1.897-3.664,2.699-6.078c0.241-0.726,0.468-1.482,0.685-2.257h4.438
	C349.814,260.293,347.139,263.183,344.134,264.892z M348.106,254.264c0.66-2.8,1.174-5.851,1.529-9.071h6.547
	c-0.712,3.305-1.743,6.36-3.03,9.071H348.106z M350.179,231.542c-0.083-3.126-0.303-6.171-0.655-9.071h6.396
	c0.689,2.848,1.138,5.893,1.308,9.071H350.179z M365.622,217.395c0.129,0.212,0.252,0.424,0.375,0.636
	c0.409,0.697,0.79,1.417,1.149,2.148h-8.458c-0.903-3.271-2.12-6.327-3.63-9.071h5.543
	C362.524,212.982,364.21,215.097,365.622,217.395z M357.985,208.815h-4.307c-1.17-1.785-2.442-3.351-3.798-4.68
	c2.333,0.93,4.537,2.116,6.57,3.536C356.971,208.034,357.487,208.413,357.985,208.815z M319.171,207.671
	c2.034-1.42,4.238-2.606,6.571-3.536c-1.357,1.329-2.628,2.895-3.799,4.68h-4.308C318.134,208.413,318.65,208.034,319.171,207.671z
	 M309.617,218.031c0.123-0.212,0.252-0.424,0.381-0.636c1.412-2.304,3.104-4.413,5.026-6.287h5.538
	c-1.51,2.744-2.727,5.8-3.63,9.071h-8.464C308.827,219.448,309.208,218.728,309.617,218.031z M305.392,231.18
	c0.09-0.943,0.219-1.869,0.392-2.784c0.37-2.047,0.941-4.028,1.687-5.924h8.883c-0.651,2.901-1.058,5.946-1.214,9.071h-9.775
	C305.37,231.42,305.381,231.303,305.392,231.18z M306.092,241.539c-0.219-0.909-0.386-1.841-0.521-2.784
	c-0.14-0.976-0.23-1.964-0.28-2.968c-0.022-0.519-0.039-1.037-0.039-1.556c0-0.134,0-0.268,0.005-0.402h9.813
	c-0.002,0.19-0.009,0.379-0.009,0.569c0,2.902,0.22,5.751,0.645,8.502h-9.267C306.311,242.449,306.199,241.997,306.092,241.539z
	 M310.536,251.899c-0.112-0.162-0.219-0.329-0.325-0.497c-0.465-0.742-0.908-1.501-1.311-2.282c-0.09-0.167-0.174-0.335-0.258-0.502
	c-0.555-1.11-1.048-2.254-1.474-3.425h8.95c0.645,3.212,1.577,6.263,2.778,9.071h-6.651
	C311.634,253.5,311.068,252.713,310.536,251.899z M317.422,259.48c-1.126-0.904-2.191-1.88-3.183-2.923h5.722
	c0.484,0.957,0.999,1.881,1.55,2.766c1.126,1.809,2.357,3.4,3.668,4.771c-1.271-0.535-2.505-1.143-3.689-1.83
	C320.061,261.438,318.7,260.507,317.422,259.48z M358.198,259.48c-1.278,1.027-2.639,1.958-4.068,2.784
	c-1.183,0.688-2.417,1.297-3.691,1.833c1.312-1.372,2.544-2.963,3.67-4.774c0.551-0.884,1.066-1.809,1.55-2.766h5.721
	C360.389,257.6,359.324,258.576,358.198,259.48z M366.978,248.619c-0.084,0.167-0.168,0.335-0.258,0.502
	c-0.404,0.781-0.846,1.54-1.311,2.282c-0.106,0.167-0.213,0.335-0.325,0.497c-0.532,0.814-1.098,1.601-1.709,2.365h-6.65
	c1.201-2.808,2.133-5.859,2.778-9.071h8.949C368.026,246.365,367.533,247.508,366.978,248.619z M359.914,242.901
	c0.425-2.751,0.645-5.6,0.645-8.502c0-0.19-0.007-0.379-0.008-0.569h9.807c0.006,0.134,0.006,0.268,0.006,0.402
	c0,0.519-0.011,1.037-0.034,1.556c-0.045,1.004-0.14,1.992-0.28,2.968c-0.129,0.943-0.303,1.874-0.516,2.784
	c-0.106,0.457-0.224,0.909-0.353,1.361H359.914z"/><polygon fill="#004961" points="753.751 77.218 716.635 86.787 724.227 65.551"/><polygon fill="#0C6A8A" points="720.737 92.23 669.016 87.336 729.128 72.802"/><polygon fill="#0C6A8A" points="668.957 87.285 737.522 37.674 730.17 57.199"/><polygon fill="#015470" points="669.016 87.336 729.289 72.939 753.751 77.218 730.118 56.921"/><path fill="#D94559" d="M1029.289,633.38c0.374,0.603,0.493,1.331,0.318,2.046c-0.231,0.945-0.927,1.672-1.861,1.945l-9.017,2.63
	c-0.934,0.272-1.912,0.033-2.615-0.639c-0.702-0.673-0.984-1.639-0.753-2.584l2.231-9.124c0.231-0.945,0.927-1.672,1.861-1.945
	c0.934-0.272,1.911-0.033,2.614,0.64l6.786,6.494C1029.024,633.007,1029.17,633.187,1029.289,633.38z M1017.488,637.713
	c0.033,0.053,0.069,0.092,0.094,0.116c0.071,0.068,0.268,0.218,0.553,0.135l9.017-2.63c0.285-0.083,0.37-0.316,0.394-0.412
	c0.024-0.096,0.055-0.34-0.159-0.546l-6.786-6.494c-0.215-0.205-0.458-0.163-0.553-0.135c-0.095,0.028-0.323,0.123-0.394,0.411
	l-2.231,9.124C1017.377,637.47,1017.427,637.615,1017.488,637.713z"/><path fill="#D94559" d="M633.79,110.584c0.374,0.603,0.493,1.331,0.318,2.046c-0.231,0.945-0.927,1.672-1.861,1.945l-9.017,2.63
	c-0.934,0.272-1.912,0.033-2.615-0.639c-0.702-0.673-0.984-1.639-0.753-2.584l2.231-9.124c0.231-0.945,0.927-1.672,1.861-1.945
	c0.934-0.272,1.911-0.033,2.614,0.64l6.786,6.494C633.524,110.211,633.67,110.391,633.79,110.584z M621.988,114.917
	c0.033,0.053,0.069,0.092,0.094,0.116c0.071,0.068,0.268,0.218,0.553,0.135l9.017-2.63c0.285-0.083,0.37-0.316,0.394-0.412
	c0.024-0.096,0.055-0.34-0.159-0.546l-6.786-6.494c-0.214-0.205-0.458-0.163-0.553-0.135c-0.095,0.028-0.323,0.123-0.394,0.411
	l-2.231,9.124C621.877,114.674,621.928,114.819,621.988,114.917z"/><path fill="#FFB86B" d="M963.801,211.117l3.317-3.317c0.753-0.753,0.753-1.974,0-2.726c-0.752-0.753-1.974-0.753-2.726,0
	l-3.317,3.317l-3.317-3.317c-0.752-0.753-1.974-0.753-2.726,0c-0.753,0.753-0.753,1.973,0,2.726l3.317,3.317l-3.311,3.311
	c-0.753,0.753-0.753,1.974,0,2.726c0.376,0.377,0.87,0.565,1.363,0.565c0.493,0,0.987-0.188,1.363-0.565l3.311-3.311l3.311,3.311
	c0.376,0.377,0.87,0.565,1.363,0.565c0.493,0,0.987-0.188,1.363-0.565c0.753-0.753,0.753-1.973,0-2.726L963.801,211.117z"/><path fill="#FFB86B" d="M433.138,298.511l3.317-3.317c0.753-0.753,0.753-1.974,0-2.726c-0.752-0.753-1.974-0.753-2.726,0
	l-3.317,3.317l-3.317-3.317c-0.752-0.753-1.974-0.753-2.726,0c-0.753,0.753-0.753,1.974,0,2.726l3.317,3.317l-3.311,3.311
	c-0.753,0.753-0.753,1.974,0,2.726c0.376,0.376,0.87,0.565,1.363,0.565c0.493,0,0.987-0.188,1.363-0.565l3.311-3.311l3.311,3.311
	c0.376,0.376,0.87,0.565,1.363,0.565c0.493,0,0.987-0.188,1.363-0.565c0.753-0.753,0.753-1.974,0-2.726L433.138,298.511z"/><path fill="#035875" d="M1078.697,424.979c-4.177,0-7.576-3.399-7.576-7.576c0-4.177,3.399-7.576,7.576-7.576
	s7.576,3.399,7.576,7.576C1086.273,421.58,1082.874,424.979,1078.697,424.979z M1078.697,412.198c-2.87,0-5.205,2.335-5.205,5.205
	c0,2.87,2.335,5.205,5.205,5.205c2.87,0,5.205-2.335,5.205-5.205C1083.902,414.533,1081.567,412.198,1078.697,412.198z"/><path fill="#035875" d="M276.736,602.782c-4.177,0-7.576-3.399-7.576-7.576c0-4.177,3.399-7.576,7.576-7.576
	c4.177,0,7.576,3.398,7.576,7.576C284.312,599.383,280.914,602.782,276.736,602.782z M276.736,590.001
	c-2.87,0-5.205,2.335-5.205,5.205c0,2.87,2.335,5.205,5.205,5.205c2.87,0,5.205-2.335,5.205-5.205
	C281.941,592.336,279.606,590.001,276.736,590.001z"/><path fill="#D94559" d="M885.265,876.992l-81.45-141.076c-2.561-4.436-8.964-4.436-11.526,0l-81.45,141.076
	c-2.561,4.436,0.64,9.982,5.763,9.982h162.901C884.624,886.974,887.826,881.429,885.265,876.992z"/><path fill="#FFF" d="M872.486,872.322l-71.016-123.003c-1.519-2.631-5.317-2.631-6.836,0l-71.016,123.003
	c-1.519,2.631,0.38,5.92,3.418,5.92l142.032,0C872.106,878.242,874.005,874.953,872.486,872.322z"/><path fill="#DDE4F0" d="M872.486,872.322l-71.016-123.003c-1.519-2.631-5.317-2.631-6.836,0l-0.38,0.659l68.282,118.268
	c1.519,2.631-0.38,5.92-3.418,5.92H723.092c-0.067,2.109,1.594,4.076,3.943,4.076l142.032,0
	C872.106,878.242,874.005,874.953,872.486,872.322z"/><path fill="#DDE4F0" d="M798.051,846.777c-3.657,0-6.763-2.854-7.07-6.498l-4.481-53.02c-0.167-1.973,0.506-3.941,1.846-5.399
	c1.34-1.458,3.244-2.294,5.224-2.294h8.961c1.98,0,3.885,0.836,5.224,2.294c1.34,1.458,2.013,3.426,1.846,5.399l-4.481,53.02
	C804.814,843.922,801.708,846.777,798.051,846.777z"/><path fill="#D94559" d="M802.532,781.863h-8.961c-2.809,0-5.017,2.403-4.781,5.202l4.48,53.02c0.21,2.484,2.288,4.394,4.781,4.394
	c2.493,0,4.571-1.91,4.781-4.394l4.48-53.02C807.549,784.266,805.341,781.863,802.532,781.863z"/><path fill="#DDE4F0" d="M798.051,865.444c-4.428,0-8.03-3.602-8.03-8.03c0-4.428,3.602-8.03,8.03-8.03c4.428,0,8.03,3.602,8.03,8.03
	C806.082,861.841,802.479,865.444,798.051,865.444z"/><path fill="#D94559" d="M792.319,857.414c0-3.166,2.566-5.732,5.732-5.732s5.732,2.567,5.732,5.732c0,3.166-2.566,5.732-5.732,5.732
	S792.319,860.579,792.319,857.414z"/><path fill="#30334D" d="M1215.469,888.846H214.822c-0.536,0-0.97-0.435-0.97-0.97v-0.406c0-0.536,0.435-0.97,0.97-0.97h1000.648
	c0.536,0,0.97,0.434,0.97,0.97v0.406C1216.44,888.412,1216.005,888.846,1215.469,888.846z"/><path fill="#30334D" d="M195.548,888.846H148.53c-0.536,0-0.97-0.435-0.97-0.97v-0.406c0-0.536,0.434-0.97,0.97-0.97h47.017
	c0.536,0,0.97,0.435,0.97,0.97v0.406C196.518,888.412,196.084,888.846,195.548,888.846z"/><path fill="#30334D" d="M1060.191,922.326h-47.017c-0.536,0-0.971-0.434-0.971-0.97v-0.406c0-0.536,0.435-0.97,0.971-0.97h47.017
	c0.536,0,0.97,0.435,0.97,0.97v0.406C1061.161,921.891,1060.727,922.326,1060.191,922.326z"/><path fill="#30334D" d="M978.539,922.326H786.17c-0.536,0-0.97-0.434-0.97-0.97v-0.406c0-0.536,0.434-0.97,0.97-0.97h192.369
	c0.536,0,0.971,0.435,0.971,0.97v0.406C979.509,921.891,979.075,922.326,978.539,922.326z"/></svg>